<svg width="597" height="283" viewBox="0 0 597 283" fill="none" xmlns="http://www.w3.org/2000/svg">
<path d="M285.706 160H13.1437C7.53993 160 4.20784 166.257 7.33513 170.907L67.8643 260.907C69.1648 262.84 71.3424 264 73.6728 264H232.298C234.769 264 237.057 262.697 238.318 260.572L291.726 170.572C294.495 165.906 291.132 160 285.706 160Z" stroke="black" stroke-width="8" stroke-linejoin="round"/>
<path d="M606.526 128.193C606.52 117.794 605.724 107.791 603.187 98.8739C601.919 94.4214 600.211 90.2287 597.901 86.4365C595.604 82.6443 592.698 79.2534 589.12 76.4714L589.081 76.4452C582.261 71.2489 575.938 67.8131 569.28 65.7552C562.622 63.6973 555.749 63.0311 547.842 63.0311C538.899 63.0311 528.553 63.8656 515.184 64.6486C503.245 65.3546 487.068 65.4772 472.276 65.4772C464.401 65.4772 456.913 65.4446 450.631 65.4446C441.973 65.4511 427.678 64.1762 413.113 62.1444C398.553 60.1257 383.605 57.3298 373.562 54.4185C364.258 51.7264 355.995 48.2651 348.857 45.404C345.285 43.9745 341.985 42.693 338.917 41.7351C337.785 41.3926 336.698 41.1009 335.617 40.8484C337.106 37.3218 337.656 33.8279 337.656 30.8767C337.656 29.2143 337.494 27.7195 337.171 26.3734C337.009 25.7 336.808 25.0658 336.524 24.4251C336.233 23.7843 335.89 23.1313 335.178 22.3991V22.4056C334.123 21.3709 332.965 20.7947 331.716 20.3811C330.461 19.9791 329.095 19.773 327.627 19.773C324.851 19.773 321.674 20.5495 318.426 22.3026C317.818 18.5619 316.452 15.0099 314.828 11.9166C313.715 9.8202 312.473 7.9437 311.159 6.35166C309.826 4.76614 308.493 3.45274 306.785 2.48837C304.74 1.35638 302.637 0.727973 300.521 0.722168C298.722 0.722168 296.834 1.19456 295.247 2.48837C294.471 3.12838 293.798 3.97665 293.358 4.94102C292.918 5.89886 292.711 6.94668 292.718 7.96257C292.718 9.19252 292.996 10.3702 293.455 11.4761C294.108 13.0486 294.742 15.0092 295.189 16.983C295.642 18.9567 295.908 20.9623 295.908 22.5609C295.908 23.5891 295.797 24.4432 295.643 24.9744C295.578 25.1943 295.513 25.343 295.468 25.4468C294.142 26.2559 290.802 28.3072 287.186 30.5451C284.856 31.9819 282.423 33.4897 280.359 34.777C278.295 36.0716 276.625 37.1259 275.707 37.7347C275.124 38.1295 274.769 38.472 274.335 38.874C273.552 39.6185 272.679 40.556 271.643 41.7083C268.065 45.7073 262.707 52.217 257.827 57.9763C255.395 60.8499 253.084 63.5282 251.24 65.5476C250.321 66.5505 249.513 67.3987 248.897 67.9938C248.593 68.2855 248.341 68.5177 248.172 68.6599L248.004 68.789C246.134 69.8572 243.364 71.3839 240.912 73.0079C239.669 73.8424 238.504 74.6906 237.463 75.6869C236.939 76.1985 236.44 76.742 235.968 77.4735C235.736 77.8421 235.509 78.263 235.327 78.7738C235.136 79.2926 235 79.913 235 80.6256C235.013 81.4021 235.117 81.7968 235.22 82.23C235.421 83.0006 235.679 83.7379 236.022 84.5992C237.213 87.5497 239.336 91.762 241.775 95.5287C243.004 97.4053 244.286 99.1526 245.716 100.615C246.441 101.345 247.204 102.019 248.136 102.594C249.062 103.157 250.227 103.694 251.799 103.713C252.058 103.707 253.068 103.765 254.406 103.875C259.175 104.27 268.765 105.306 279.442 106.412C289.336 107.44 300.162 108.534 309.183 109.265C310.632 111.698 313.363 116.409 316.45 122.271C320.488 129.933 325.121 139.568 328.207 148.453C329.061 150.912 329.987 154.232 330.938 157.92C332.381 163.458 333.896 169.839 335.539 175.728C336.361 178.678 337.215 181.507 338.121 184.075C339.027 186.65 339.979 188.961 341.084 190.947C346.332 200.336 351.612 208.955 355.495 216.294C357.429 219.956 359.021 223.302 360.083 226.194C361.157 229.073 361.674 231.493 361.661 233.189C361.661 242.06 361.661 260.716 361.661 264.302L357.863 277.178L360.582 278.874C361.074 279.191 366.237 282.258 375.4 282.258C377.962 282.258 380.234 281.779 382.148 280.854C383.579 280.162 384.789 279.224 385.727 278.182C387.131 276.609 387.92 274.868 388.36 273.315C388.8 271.756 388.917 270.372 388.917 269.284C388.917 267.919 388.917 257.662 388.917 247.755C388.917 242.799 388.917 237.925 388.917 234.289C388.917 230.659 388.917 228.278 388.917 228.265V227.832L388.82 227.398L388.8 227.295C388.69 226.758 388.166 224.143 387.668 220.954C387.17 217.776 386.724 213.972 386.73 211.312C386.724 210.93 386.827 209.746 387.061 208.264C387.831 203.113 389.836 193.892 391.739 185.37C394.819 186.25 399.071 187.441 403.755 188.677C408.408 189.9 413.475 191.168 418.244 192.223C423.025 193.277 427.458 194.118 431.036 194.474C448.87 196.26 462.556 198.059 484.589 198.059C489.442 198.059 494.703 197.968 500.501 197.78C517.642 197.211 530.332 193.231 538.77 189.323C542.354 187.66 545.123 186.036 547.201 184.67C550.507 193.271 555.088 199.974 559.418 204.911C562.705 208.671 565.85 211.467 568.115 213.388C568.918 214.061 569.603 214.63 570.127 215.071C570.095 215.53 570.055 216.034 570.017 216.637C569.609 222.357 568.697 234.218 567.888 244.643C567.486 249.852 567.111 254.705 566.833 258.258C566.652 260.613 566.509 262.374 566.438 263.305L560.019 277.341L562.951 279.353C563.494 279.734 568.354 282.808 577.51 282.802C579.976 282.802 582.221 282.432 584.221 281.644C585.722 281.054 587.068 280.226 588.2 279.204C589.895 277.664 591.047 275.736 591.727 273.749C592.413 271.756 592.665 269.692 592.665 267.648C592.659 267.608 592.691 267.169 592.762 266.586C593.041 264.308 593.901 259.682 595.027 254.143C596.703 245.808 598.974 235.261 600.825 226.24C601.749 221.73 602.572 217.601 603.167 214.282C603.464 212.625 603.71 211.169 603.885 209.946C604.054 208.704 604.17 207.772 604.177 206.801C604.177 206.478 604.17 206.154 604.086 205.656C603.361 201.559 603.051 196.719 603.057 191.374C603.051 182.361 603.905 171.943 604.779 161.11C605.646 150.271 606.526 139.013 606.526 128.193ZM593.377 220.494C591.695 228.867 589.43 239.414 587.58 248.403C586.654 252.9 585.832 257.002 585.237 260.283C584.939 261.927 584.693 263.363 584.519 264.56C584.35 265.783 584.234 266.683 584.227 267.647C584.227 268.831 584.085 269.872 583.839 270.701C583.451 271.956 582.952 272.675 582.144 273.257C581.335 273.82 579.969 274.358 577.51 274.363C574.734 274.358 572.586 274.014 571.007 273.606L574.734 265.46L574.792 264.709C574.792 264.709 575.755 252.401 576.726 239.88C577.204 233.622 577.69 227.307 578.053 222.454C578.227 220.027 578.383 217.97 578.486 216.455C578.544 215.698 578.582 215.077 578.615 214.612C578.628 214.371 578.635 214.178 578.648 214.009C578.654 213.835 578.661 213.731 578.667 213.498C578.661 212.864 578.531 212.379 578.408 212.01C578.143 211.292 577.87 210.943 577.657 210.651C577.236 210.107 576.926 209.822 576.583 209.499C575.949 208.923 575.231 208.341 574.358 207.61C571.335 205.08 566.489 200.906 561.953 194.532C557.43 188.158 553.242 179.668 551.631 168.428L543.277 169.619C543.607 171.93 544.054 174.111 544.565 176.233C540.307 179.403 526.045 188.475 500.22 189.343C494.506 189.53 489.343 189.614 484.586 189.614C463.032 189.614 449.889 187.88 431.875 186.074C428.911 185.783 424.66 185 420.066 183.985C413.155 182.457 405.416 180.419 399.43 178.763C397.191 178.142 395.199 177.579 393.581 177.119C393.936 175.534 394.273 174.019 394.565 172.661C394.933 170.972 395.244 169.49 395.49 168.267C395.736 167.025 395.904 166.106 395.995 165.291L387.609 164.359C387.576 164.67 387.389 165.75 387.11 167.128C386.114 172.053 383.926 181.487 381.991 190.372C381.021 194.823 380.108 199.147 379.436 202.764C379.099 204.576 378.82 206.213 378.62 207.624C378.419 209.047 378.29 210.205 378.283 211.312C378.29 215.039 378.873 219.381 379.436 222.921C379.869 225.626 380.29 227.8 380.471 228.692C380.471 229.534 380.471 231.559 380.471 234.29C380.471 245.187 380.471 267.233 380.471 269.285C380.471 269.692 380.426 270.262 380.296 270.812C380.193 271.22 380.05 271.607 379.869 271.944C379.577 272.443 379.267 272.805 378.685 273.141C378.096 273.472 377.132 273.814 375.398 273.814C372.142 273.814 369.684 273.329 367.95 272.824L370.098 265.519V264.91C370.098 264.91 370.098 243.033 370.098 233.19C370.091 229.961 369.263 226.712 368.001 223.27C366.092 218.119 363.135 212.516 359.686 206.407C356.244 200.311 352.309 193.736 348.453 186.832C347.464 185.078 346.337 182.211 345.269 178.853C343.645 173.792 342.085 167.587 340.591 161.634C339.09 155.662 337.665 149.98 336.178 145.683C332.632 135.498 327.429 124.905 323.094 116.791C318.765 108.677 315.303 103.066 315.271 103.014L314.144 101.189L312.003 101.021C301.43 100.212 287.569 98.7753 275.818 97.5526C269.942 96.9314 264.591 96.3683 260.411 95.9547C258.327 95.7544 256.535 95.5861 255.098 95.4627C253.972 95.372 253.118 95.3074 252.393 95.2878C252.237 95.1717 252.023 94.9969 251.732 94.6928C250.956 93.9164 249.934 92.5899 248.943 91.069C247.442 88.7847 245.96 86.0476 244.898 83.8083C244.439 82.8446 244.077 82.0036 243.811 81.3302C244.012 81.1619 244.232 80.987 244.484 80.8063C245.494 80.0553 246.872 79.1889 248.264 78.3667C249.654 77.5453 251.072 76.7558 252.249 76.0824C252.916 75.6942 253.349 75.3314 253.835 74.9112C254.715 74.1406 255.653 73.1828 256.746 72.0181C260.512 67.9807 265.928 61.4579 270.781 55.6724C273.201 52.7931 275.479 50.1075 277.278 48.0627C278.178 47.0468 278.961 46.1862 279.549 45.5781C279.847 45.2741 280.093 45.0281 280.262 44.8793L280.436 44.724C281.186 44.2263 282.83 43.1842 284.823 41.9354C287.89 40.0197 291.806 37.5997 294.956 35.6652C298.108 33.7234 300.476 32.2678 300.483 32.2678L300.865 32.0356L301.195 31.725C302.56 30.4109 303.318 28.8195 303.758 27.2732C304.191 25.7203 304.34 24.1544 304.34 22.5624C304.34 20.0901 303.97 17.5598 303.414 15.1079C302.948 13.0892 302.34 11.18 301.666 9.41312C301.977 9.51616 302.307 9.65258 302.683 9.86591C302.915 9.97621 303.783 10.6627 304.649 11.7366C305.989 13.3475 307.478 15.7806 308.558 18.4146C309.652 21.0545 310.331 23.9019 310.325 26.3088C310.325 27.7129 310.111 28.9552 309.696 30.0103L313.618 31.5566L316.789 34.346C321.209 29.3442 325.279 28.2245 327.621 28.218C328.21 28.2115 328.656 28.2956 328.966 28.3798C328.992 28.5024 329.024 28.6389 329.05 28.7876C329.148 29.3376 329.213 30.0626 329.213 30.8774C329.219 33.2982 328.624 36.4946 326.974 39.342C325.305 42.2083 322.71 44.8293 318.109 46.602L321.105 54.4897C324.942 53.0464 328.022 50.9631 330.416 48.575C331.853 48.6142 333.904 49.0155 336.401 49.7984C340.394 51.0342 345.435 53.1436 351.284 55.4801C357.134 57.8167 363.806 60.3854 371.214 62.5268C381.956 65.6332 397.098 68.4349 411.949 70.5052C426.799 72.5696 441.23 73.8837 450.625 73.8837C456.876 73.8837 464.369 73.9222 472.27 73.9222C487.121 73.9222 503.375 73.7996 515.67 73.0747C529.13 72.2852 539.426 71.463 547.837 71.4695C555.298 71.4695 561.213 72.0972 566.778 73.8184C572.337 75.5469 577.669 78.3805 583.938 83.1429C586.643 85.2458 588.85 87.8022 590.687 90.8172C593.438 95.3408 595.314 100.919 596.472 107.272C597.637 113.627 598.084 120.726 598.084 128.193C598.084 138.552 597.223 149.612 596.363 160.431C595.496 171.257 594.616 181.843 594.609 191.375C594.616 196.927 594.914 202.123 595.736 206.86C595.729 206.99 595.703 207.391 595.639 207.928C595.358 210.256 594.497 214.929 593.377 220.494Z" fill="black"/>
</svg>
