<?xml version="1.0" encoding="UTF-8"?>
<svg xmlns="http://www.w3.org/2000/svg" xmlns:xlink="http://www.w3.org/1999/xlink" viewBox="0 0 750 458">
  <defs>
    <style>
      .cls-1 {
        fill: #1c588c;
      }

      .cls-2 {
        fill: #fff;
      }

      .cls-3 {
        isolation: isolate;
      }

      .cls-4 {
        clip-path: url(#clippath-1);
      }

      .cls-5 {
        fill: #e3fbff;
      }

      .cls-6, .cls-7 {
        fill: #bbf7ff;
      }

      .cls-8 {
        clip-path: url(#clippath);
      }

      .cls-9 {
        opacity: .52;
      }

      .cls-9, .cls-10 {
        fill: #4a9cce;
      }

      .cls-11 {
        fill: none;
      }

      .cls-7 {
        mix-blend-mode: multiply;
        opacity: .51;
      }

      .cls-10 {
        opacity: .4;
      }

      .cls-12 {
        fill: #ffed00;
      }
    </style>
    <clipPath id="clippath">
      <polygon class="cls-11" points="750 458 0 458 .03 -.05 750.03 .05 750 458"/>
    </clipPath>
    <clipPath id="clippath-1">
      <path class="cls-11" d="M801,256.71l-65.57-22.98-25-.02-22.26-2.18-47.29-18.64s-54.4-27.1-59.97-27.1c-5.56,0-6.8,.97-33.39,17.41-26.59,16.45-51.63,29.51-51.63,29.51l-34.93-1.21-23.99,7.74-70.41,35.94,111.87,37.69,84.21,34.29,190.7-2.46,47.65-87.99Z"/>
    </clipPath>
  </defs>
  <g class="cls-3">
    <g id="skyback">
      <rect class="cls-6" width="750" height="458"/>
      <path class="cls-7" d="M573.98,106.17c-81.83-29.44-122.6-11.47-225.67,11.5C245.24,140.64,184,21,111,0H0V458H750V131c-36.36,.07-113.52-2.34-176.02-24.83Z"/>
    </g>
    <g id="Backgroundmontain">
      <g class="cls-8">
        <g>
          <path class="cls-2" d="M-92.55,315.38L-22.62,248.86l13.07-66.53s54.44-34.59,60.97-35.8c6.53-1.21,26.13-18.63,26.13-18.63,0,0,2.18-7.74,17.42-8.71,15.24-.97,31.7-14.27,31.7-14.27l20.81-22.74s53.23-43.78,59.76-42.57c6.53,1.21,43.79,32.67,48.14,32.67,4.35,0,19.6-4.35,30.48,4.36s57.57,55.65,57.57,55.65l26.37,7.75,35.8,26.13s42.58,7.75,51.29,13.07c8.71,5.32,63.14,45.73,63.14,45.73l47.9,31.7,31.54,28.72,57.94,54.04-282.48,35.21-467.5-59.27Z"/>
          <path class="cls-10" d="M410.26,308.84l-93.93-75.17,18.39-14.03-83.7-52.51-9.92-14.11s37.01,7.58,37.01,2.25c0-5.32-66.52-55.65-66.52-55.65,0,0-4.35-10.89,1.21-10.89,5.56,0,31.69,3.15,23.95-1.21-7.74-4.36-29.51-47.91-29.51-47.91-6.53-1.21-59.76,42.57-59.76,42.57l-20.81,22.74s-16.45,13.3-31.7,14.27c-15.24,.97-17.42,8.71-17.42,8.71,0,0-19.6,17.42-26.13,18.63-6.53,1.21-60.97,35.8-60.97,35.8l-13.07,66.53-64.38,93.14,137-35,126.87,27.35,144.5,27.43-71.2-54.22,134.57,7.4,25.53-6.12Z"/>
        </g>
        <path class="cls-9" d="M261.81,171.55l-10.81-32.55,14,2-53.41-41.39s-31.54,8.58-20.08,21.77c20.8,23.95-88.31,51.76-88.31,51.76l-51.29,30.48-35.33,44.27-65.4,33.69-56.68,41.41s179.78,3.29,184.19,3.29c4.41,0,138.08-2.85,143.22-7.95,5.14-5.1,39.91-146.8,39.91-146.8Z"/>
        <path class="cls-5" d="M480.85,245.78l-77.41-57.83-31.45-2.18-8.71-7.74-12.09-19.6-32.66-5.33-28.3-40.41s-65.57,43.78-72.1,46.93c-6.53,3.14-23.71-3.39-33.63,.96-9.92,4.35-150.49,148.42-150.49,148.42l109.79,7.63,273.36,18.84,63.7-89.69Z"/>
        <path class="cls-10" d="M420.84,293.19c-4.59-12.82-90.96-40.42-97.49-51.79-6.53-11.37,30,5.81,18.63-3.38-11.37-9.2-55.64-40.89-50.8-38.23,4.84,2.66,19.11,1.21,9.92-9.19s-25.85-34.01-9.92-21.29c18.5,14.77,50.11,34.92,44.76,21.3-1.6-4.08-53.95-46.22-53.95-46.22l23.47,8.71-15.24-40.41s-65.57,43.78-72.1,46.93c-6.53,3.14-23.71-3.39-33.63,.96-9.92,4.35-150.49,148.42-150.49,148.42l90.6,2.64,143.19-5.49,116.07,15.27s41.58-15.41,36.98-28.23Z"/>
        <g>
          <path class="cls-2" d="M801,256.71l-65.57-22.98-25-.02-22.26-2.18-47.29-18.64s-54.4-27.1-59.97-27.1c-5.56,0-6.8,.97-33.39,17.41-26.59,16.45-51.63,29.51-51.63,29.51l-34.93-1.21-23.99,7.74-70.41,35.94,111.87,37.69,84.21,34.29,190.7-2.46,47.65-87.99Z"/>
          <g class="cls-4">
            <path class="cls-10" d="M642.13,147.58l-61.21,38.22s35.85,31.46,31.84,31.46c-4.02,0-26.28-4.36-26.28-4.36,0,0,54.4,29.77,62.75,35.09,8.35,5.32-29.38,4.27-29.38,4.27l-20.89-7.63s29,25.28,58.48,38.15c29.49,12.88-9.68,18.21-9.68,18.21l23.5,20.28,30.85,13.32-53.03,13.58-155.97,11.97-162.91-61.15-13.94-52.23,325.87-99.18Z"/>
          </g>
        </g>
      </g>
      <g id="Calque_5" data-name="Calque 5">
        <g>
          <path class="cls-1" d="M508.17,238.32c.09,.06,.18,.1,.27,.13l-.27-.13Z"/>
          <path class="cls-1" d="M509.02,251.07c2.22,1.54,3.98,.82,3.98,.82-2.51-.68-3.28-2.31-3.28-2.31,1.07,.68,2.63,.58,2.63,.58-3.98-1.66-5.09-4.85-4.22-3.69,.87,1.16,2.56,.7,2.56,.7-.7-.3-1.91-1.3-1.91-1.3,.58,.3,3.79,.46,3.79,.46-3.62-1.06-4.83-4.05-4.83-4.05,1.35,1.26,3.86,1.16,3.86,1.16-1.86-.78-3.69-2.9-2.95-2.26s2.76,1.01,2.76,1.01c-2.5-.71-4.38-4.4-4.38-4.4l1.13,.55c-.57-.39-1.01-1.37-1.01-1.37,.6,.68,2.1,.68,2.1,.68-1.16,0-2.25-1.46-2.25-1.46l1.76,.68c-1.76-.68-2.39-2.32-2.39-2.32,.34,.58,1.28,.62,1.28,.62-1.27-.65-2.57-3.11-2.97-3.91v-.25s-.02,.05-.06,.13c-.04-.08-.06-.13-.06-.13v.25c-.4,.79-1.7,3.25-2.97,3.9,0,0,.94-.04,1.28-.62,0,0-.63,1.64-2.39,2.32l1.76-.68s-1.09,1.46-2.25,1.46c0,0,1.5,0,2.1-.68,0,0-.44,.98-1.01,1.37l1.13-.55s-.05,.1-.15,.27c-.74,.66-1.82,1.38-3.09,1.59,0,0,.76,.6,2.1-.09-.79,1.05-2.2,2.08-3.25,2.63,0,0,1.39,.19,2.76-1.01,.74-.64-.31,1.6-3.28,2.28,0,0,1.16,.18,1.79,.08-.39,.32-1.76,.6-2.15,.62,0,0,1.42,.48,3.01,.29-.81,.57-2.08,1.23-4,1.72,0,0,3.94,0,4.52-.3,0,0-2.87,1.82-3.57,2.12,0,0,1.33-.07,2.61-.36-1.1,.55-2.57,1.17-4.37,1.62,0,0,3.32,1.02,4.39,.34,0,0-.77,1.64-3.28,2.31,0,0,1.76,.72,3.98-.82,0,0-.82,1.42-3.86,2.24,0,0,4.91,1.22,8.25-.94,3.33,2.16,8.25,.94,8.25,.94-3.04-.82-3.86-2.24-3.86-2.24Z"/>
          <path class="cls-1" d="M501.1,238.32l-.27,.13c.09-.03,.18-.07,.27-.13Z"/>
        </g>
        <g>
          <path class="cls-1" d="M518.47,229.02c.06,.04,.11,.07,.17,.08l-.17-.08Z"/>
          <path class="cls-1" d="M519.02,237.32c1.45,1,2.59,.53,2.59,.53-1.63-.44-2.13-1.51-2.13-1.51,.69,.44,1.71,.38,1.71,.38-2.59-1.08-3.32-3.16-2.75-2.4,.57,.75,1.67,.46,1.67,.46-.46-.2-1.24-.84-1.24-.84,.38,.19,2.47,.3,2.47,.3-2.36-.69-3.14-2.64-3.14-2.64,.88,.82,2.51,.75,2.51,.75-1.21-.51-2.4-1.88-1.92-1.47s1.8,.66,1.8,.66c-1.63-.46-2.85-2.87-2.85-2.87l.74,.36c-.37-.25-.66-.89-.66-.89,.39,.44,1.37,.44,1.37,.44-.75,0-1.46-.95-1.46-.95l1.15,.44c-1.15-.44-1.56-1.51-1.56-1.51,.22,.38,.83,.4,.83,.4-.83-.42-1.68-2.03-1.93-2.54v-.16s-.01,.03-.04,.08c-.03-.05-.04-.08-.04-.08v.16c-.26,.52-1.11,2.12-1.93,2.54,0,0,.61-.03,.83-.4,0,0-.41,1.07-1.56,1.51l1.15-.44s-.71,.95-1.46,.95c0,0,.97,0,1.37-.44,0,0-.28,.64-.66,.89l.74-.36s-.03,.07-.1,.18c-.48,.43-1.18,.9-2.01,1.04,0,0,.49,.39,1.37-.06-.51,.69-1.43,1.35-2.11,1.71,0,0,.9,.12,1.8-.66,.48-.42-.2,1.04-2.14,1.48,0,0,.75,.12,1.16,.05-.25,.21-1.14,.39-1.4,.4,0,0,.92,.31,1.96,.19-.53,.37-1.36,.8-2.61,1.12,0,0,2.56,0,2.94-.19,0,0-1.87,1.18-2.33,1.38,0,0,.86-.05,1.7-.23-.72,.36-1.67,.76-2.85,1.05,0,0,2.16,.67,2.86,.22,0,0-.5,1.06-2.13,1.51,0,0,1.15,.47,2.59-.53,0,0-.53,.92-2.51,1.46,0,0,3.2,.8,5.37-.61,2.17,1.41,5.37,.61,5.37,.61-1.98-.53-2.51-1.46-2.51-1.46Z"/>
          <path class="cls-1" d="M513.87,229.02l-.17,.08c.06-.02,.12-.05,.17-.08Z"/>
        </g>
        <g>
          <path class="cls-1" d="M521.17,250.73s.08,.05,.13,.06l-.13-.06Z"/>
          <path class="cls-1" d="M521.57,256.78c1.05,.73,1.89,.39,1.89,.39-1.19-.32-1.55-1.1-1.55-1.1,.51,.32,1.25,.27,1.25,.27-1.89-.79-2.42-2.3-2-1.75,.41,.55,1.21,.33,1.21,.33-.33-.14-.9-.62-.9-.62,.27,.14,1.8,.22,1.8,.22-1.72-.5-2.29-1.92-2.29-1.92,.64,.6,1.83,.55,1.83,.55-.88-.37-1.75-1.37-1.4-1.07s1.31,.48,1.31,.48c-1.19-.34-2.08-2.09-2.08-2.09l.54,.26c-.27-.18-.48-.65-.48-.65,.29,.32,1,.32,1,.32-.55,0-1.06-.69-1.06-.69l.84,.32c-.84-.32-1.13-1.1-1.13-1.1,.16,.27,.61,.29,.61,.29-.6-.31-1.22-1.48-1.41-1.85v-.12s0,.02-.03,.06c-.02-.04-.03-.06-.03-.06v.12c-.19,.38-.81,1.54-1.41,1.85,0,0,.45-.02,.61-.29,0,0-.3,.78-1.13,1.1l.84-.32s-.52,.69-1.07,.69c0,0,.71,0,1-.32,0,0-.21,.46-.48,.65l.54-.26s-.02,.05-.07,.13c-.35,.31-.86,.66-1.46,.76,0,0,.36,.28,1-.04-.37,.5-1.04,.99-1.54,1.25,0,0,.66,.09,1.31-.48,.35-.31-.15,.76-1.56,1.08,0,0,.55,.09,.85,.04-.18,.15-.83,.29-1.02,.29,0,0,.67,.23,1.43,.14-.39,.27-.99,.58-1.9,.82,0,0,1.87,0,2.14-.14,0,0-1.36,.86-1.69,1,0,0,.63-.03,1.24-.17-.52,.26-1.22,.55-2.07,.77,0,0,1.58,.49,2.08,.16,0,0-.36,.78-1.55,1.1,0,0,.84,.34,1.89-.39,0,0-.39,.67-1.83,1.06,0,0,2.33,.58,3.91-.44,1.58,1.03,3.91,.45,3.91,.45-1.44-.39-1.83-1.06-1.83-1.06Z"/>
          <path class="cls-1" d="M517.82,250.73l-.13,.06s.09-.03,.13-.06Z"/>
        </g>
        <g>
          <path class="cls-1" d="M516.65,242.31s.05,.03,.08,.04l-.08-.04Z"/>
          <path class="cls-1" d="M516.88,245.88c.62,.43,1.12,.23,1.12,.23-.7-.19-.92-.65-.92-.65,.3,.19,.74,.16,.74,.16-1.12-.46-1.43-1.36-1.18-1.04,.24,.32,.72,.2,.72,.2-.2-.08-.53-.36-.53-.36,.16,.08,1.06,.13,1.06,.13-1.02-.3-1.35-1.14-1.35-1.14,.38,.35,1.08,.32,1.08,.32-.52-.22-1.04-.81-.83-.63s.77,.28,.77,.28c-.7-.2-1.23-1.23-1.23-1.23l.32,.15c-.16-.11-.28-.38-.28-.38,.17,.19,.59,.19,.59,.19-.32,0-.63-.41-.63-.41l.49,.19c-.49-.19-.67-.65-.67-.65,.09,.16,.36,.17,.36,.17-.36-.18-.72-.87-.83-1.09v-.07s0,.01-.02,.04c-.01-.02-.02-.04-.02-.04v.07c-.11,.22-.48,.91-.83,1.09,0,0,.26-.01,.36-.17,0,0-.18,.46-.67,.65l.49-.19s-.3,.41-.63,.41c0,0,.42,0,.59-.19,0,0-.12,.27-.28,.38l.32-.15s-.01,.03-.04,.08c-.21,.18-.51,.39-.86,.45,0,0,.21,.17,.59-.02-.22,.3-.62,.58-.91,.74,0,0,.39,.05,.77-.28,.21-.18-.09,.45-.92,.64,0,0,.32,.05,.5,.02-.11,.09-.49,.17-.6,.17,0,0,.4,.13,.84,.08-.23,.16-.58,.35-1.12,.48,0,0,1.1,0,1.27-.08,0,0-.81,.51-1,.59,0,0,.37-.02,.73-.1-.31,.15-.72,.33-1.23,.45,0,0,.93,.29,1.23,.1,0,0-.22,.46-.92,.65,0,0,.49,.2,1.12-.23,0,0-.23,.4-1.08,.63,0,0,1.38,.34,2.31-.26,.93,.61,2.31,.26,2.31,.26-.85-.23-1.08-.63-1.08-.63Z"/>
          <path class="cls-1" d="M514.67,242.31l-.08,.04s.05-.02,.08-.04Z"/>
        </g>
        <path class="cls-1" d="M574.45,191.96c.51-.17,.85-.51,.85-.51-.52,.12-.93-.13-1.27-.53,.36-.08,.59-.24,.59-.24-.13-.07-.25-.14-.37-.21,1,.26,1.77-.52,1.77-.52-1.15-.28-1.84-.95-2.23-1.54,.06-.03,.09-.05,.09-.05-.04,0-.09,0-.13-.01-.33-.52-.43-.95-.43-.95,.64,1.17,1.41,.42,1.41,.42-.28-.16-.53-.39-.76-.65,.03,0,.05,0,.05,0-.08-.07-.16-.15-.24-.22-.3-.38-.54-.81-.74-1.18,.39,.06,.67-.07,.67-.07-.21-.08-.41-.25-.59-.47,.85,.6,1.63,.04,1.63,.04-.66-.09-1.29-1.03-1.64-1.67,.25,.02,.43-.01,.43-.01-.26-.12-.49-.3-.7-.52-.02-.04-.03-.06-.03-.06,.52,.69,1.61,.23,1.61,.23-.42-.08-.79-.34-1.1-.66,.29,0,.48-.08,.48-.08-.41-.16-.79-.66-1.08-1.18,.04,0,.06,0,.06,0-.03-.02-.06-.04-.09-.06-.01-.02-.02-.04-.04-.06,.4,.16,.84,0,.84,0-.35-.11-.67-.42-.95-.82,.49,.27,1.08,.17,1.08,.17-1.32-.58-1.95-2.83-1.95-2.83,.31,.82,1.21,.71,1.21,.71-.96-.55-1.6-2.74-1.8-3.63l.02-.41s-.02,.07-.05,.2c0,.01,0,.03,0,.04,0-.01,0-.03,0-.04-.02-.13-.04-.2-.04-.2v.41c-.26,.88-1.02,3.03-2.02,3.52,0,0,.89,.16,1.25-.64,0,0-.77,2.21-2.11,2.71,0,0,.54,.12,1.02-.08-.31,.38-.66,.67-1.02,.74,0,0,.35,.16,.71,.11-.03,.02-.06,.04-.1,.06,0,0,.1,.02,.24,.01-.32,.5-.72,.98-1.14,1.11,0,0,.11,.06,.29,.09-.3,.24-.64,.41-1.02,.44,0,0,1.02,.53,1.56-.06,0,0-.03,.05-.07,.13-.23,.22-.48,.4-.76,.5,0,0,.17,.04,.4,.04-.39,.55-.99,1.23-1.59,1.25,0,0,.72,.61,1.58,.11,.04,0,.09,0,.14,0-.26,.33-.55,.6-.84,.7,0,0,.21,.11,.54,.11-.39,.57-.92,1.18-1.55,1.46,0,0,.62,.69,1.27-.1,.02,0,.04,0,.06,0-.17,.42-.76,1.62-2.07,2.22,0,0,.83,.37,1.62,.09-.19,.14-.39,.27-.61,.38,0,0,.15,.12,.39,.24-.25,.2-.56,.33-.91,.34,0,0,.3,.2,.75,.25-.52,.56-1.18,1.06-2,1.22,0,0,.95,1.14,2.22,1-.38,.28-.89,.43-1.71,.62,0,0,.85,.85,1.92,1.35-.09,.05-.19,.09-.29,.14,0,0,2.49,1.7,4.23,.53,.69,.42,1.37,.35,1.97,.07,1.99,.43,3.57-2.74,3.57-2.74-1.19,.15-2.06-.31-2.48-.73Z"/>
        <path class="cls-1" d="M581.44,187.79c.36-.12,.6-.36,.6-.36-.37,.09-.66-.09-.9-.38,.26-.06,.42-.17,.42-.17-.09-.05-.18-.1-.26-.15,.71,.19,1.26-.37,1.26-.37-.82-.2-1.3-.68-1.58-1.09,.04-.02,.06-.04,.06-.04-.03,0-.06,0-.09,0-.23-.37-.31-.67-.31-.67,.46,.83,1,.3,1,.3-.2-.11-.38-.28-.54-.46,.02,0,.04,0,.04,0-.06-.05-.12-.1-.17-.16-.21-.27-.39-.57-.52-.84,.28,.04,.47-.05,.47-.05-.15-.06-.29-.18-.42-.33,.6,.43,1.15,.03,1.15,.03-.47-.07-.91-.73-1.17-1.18,.18,.01,.3,0,.3,0-.18-.08-.35-.21-.5-.37-.01-.03-.02-.04-.02-.04,.37,.49,1.14,.16,1.14,.16-.3-.06-.56-.24-.78-.47,.2,0,.34-.05,.34-.05-.29-.11-.56-.47-.76-.83,.03,0,.04,0,.04,0-.02-.01-.04-.03-.06-.04,0-.02-.02-.03-.03-.05,.28,.11,.6,0,.6,0-.24-.08-.47-.3-.68-.58,.35,.19,.77,.12,.77,.12-.93-.41-1.38-2.01-1.38-2.01,.22,.58,.86,.51,.86,.51-.68-.39-1.13-1.94-1.28-2.58v-.29s0,.05-.02,.14c0,0,0,.02,0,.03,0,0,0-.02,0-.03-.02-.09-.03-.14-.03-.14v.29c-.18,.63-.72,2.15-1.43,2.5,0,0,.63,.11,.89-.45,0,0-.54,1.57-1.5,1.92,0,0,.38,.08,.73-.05-.22,.27-.47,.47-.73,.53,0,0,.25,.12,.5,.08-.02,.01-.05,.03-.07,.04,0,0,.07,.01,.17,0-.23,.35-.51,.69-.81,.79,0,0,.08,.04,.21,.06-.21,.17-.46,.29-.72,.31,0,0,.72,.37,1.11-.04,0,0-.02,.03-.05,.09-.16,.15-.34,.28-.54,.36,0,0,.12,.03,.29,.03-.28,.39-.71,.87-1.12,.89,0,0,.51,.43,1.12,.07,.03,0,.06,0,.1,0-.18,.23-.39,.42-.6,.49,0,0,.15,.08,.38,.08-.28,.4-.66,.83-1.1,1.03,0,0,.44,.49,.9-.07,.01,0,.03,0,.04,0-.12,.29-.54,1.15-1.47,1.58,0,0,.59,.26,1.15,.06-.14,.1-.28,.19-.43,.27,0,0,.1,.08,.28,.17-.18,.14-.39,.23-.65,.24,0,0,.21,.14,.53,.18-.37,.4-.84,.75-1.42,.87,0,0,.68,.81,1.58,.71-.27,.2-.63,.3-1.21,.44,0,0,.6,.6,1.36,.96-.07,.03-.13,.07-.2,.1,0,0,1.76,1.21,3,.37,.49,.3,.97,.25,1.4,.05,1.41,.31,2.53-1.94,2.53-1.94-.84,.1-1.46-.22-1.76-.52Z"/>
        <path class="cls-1" d="M587.58,192.91c.29-.1,.48-.29,.48-.29-.3,.07-.53-.07-.73-.3,.21-.04,.34-.14,.34-.14-.07-.04-.15-.08-.21-.12,.57,.15,1.01-.29,1.01-.29-.66-.16-1.05-.55-1.27-.88,.03-.02,.05-.03,.05-.03-.02,0-.05,0-.07,0-.19-.3-.25-.54-.25-.54,.37,.67,.81,.24,.81,.24-.16-.09-.3-.22-.43-.37,.02,0,.03,0,.03,0-.05-.04-.09-.08-.14-.13-.17-.22-.31-.46-.42-.68,.22,.03,.38-.04,.38-.04-.12-.05-.23-.14-.34-.27,.49,.34,.93,.02,.93,.02-.38-.05-.74-.59-.94-.95,.14,.01,.24,0,.24,0-.15-.07-.28-.17-.4-.3-.01-.02-.02-.04-.02-.04,.3,.39,.92,.13,.92,.13-.24-.05-.45-.19-.63-.38,.16,0,.27-.04,.27-.04-.24-.09-.45-.38-.62-.67,.02,0,.03,0,.03,0-.02-.01-.03-.02-.05-.03,0-.01-.01-.02-.02-.04,.23,.09,.48,0,.48,0-.2-.06-.38-.24-.54-.47,.28,.15,.62,.1,.62,.1-.75-.33-1.11-1.62-1.11-1.62,.18,.47,.69,.41,.69,.41-.55-.32-.91-1.56-1.03-2.08v-.24s0,.04-.02,.11c0,0,0,.01,0,.02,0,0,0-.02,0-.02-.01-.07-.02-.11-.02-.11v.24c-.15,.5-.58,1.73-1.15,2.01,0,0,.51,.09,.72-.37,0,0-.44,1.26-1.21,1.55,0,0,.31,.07,.59-.04-.18,.22-.38,.38-.58,.42,0,0,.2,.09,.4,.06-.02,.01-.04,.02-.06,.03,0,0,.06,.01,.14,0-.18,.28-.41,.56-.65,.63,0,0,.06,.03,.17,.05-.17,.13-.37,.23-.58,.25,0,0,.58,.3,.89-.03,0,0-.01,.03-.04,.07-.13,.12-.27,.23-.43,.29,0,0,.1,.02,.23,.02-.22,.31-.57,.7-.91,.72,0,0,.41,.35,.91,.06,.02,0,.05,0,.08,0-.15,.19-.31,.34-.48,.4,0,0,.12,.06,.31,.06-.22,.33-.53,.67-.89,.83,0,0,.35,.39,.73-.06,.01,0,.02,0,.03,0-.1,.24-.43,.92-1.19,1.27,0,0,.48,.21,.92,.05-.11,.08-.23,.15-.35,.21,0,0,.08,.07,.22,.14-.15,.11-.32,.19-.52,.2,0,0,.17,.12,.43,.14-.29,.32-.68,.6-1.14,.7,0,0,.55,.65,1.27,.57-.22,.16-.51,.24-.98,.35,0,0,.49,.48,1.1,.77-.05,.03-.11,.05-.17,.08,0,0,1.42,.97,2.42,.3,.4,.24,.78,.2,1.12,.04,1.14,.25,2.04-1.56,2.04-1.56-.68,.08-1.18-.18-1.42-.42Z"/>
      </g>
    </g>
    <g id="soleil">
      <circle class="cls-12" cx="675.5" cy="57.5" r="25.5"/>
    </g>
    <g id="premierplanmontagne">
      <path class="cls-5" d="M750,458H0v-143s165.84-35.63,211.57-44.58c45.73-8.95,131.61-11.84,211.45,14.79,79.84,26.62,67.98,33.64,110.8,35.34,42.82,1.7,54.68-10.4,79.84-4.34,25.16,6.05,37.01,10.41,62.18,10.41,25.16,0,32.79-15.93,74.16-2.61"/>
      <path class="cls-2" d="M750,323c-47-12-49,3.62-74.16,3.61-25.16,0-37.02-4.36-62.18-10.41-25.16-6.05-37.02,6.04-79.84,4.34-42.82-1.7-30.97-8.71-110.8-35.34-79.84-26.62-165.72-23.73-211.45-14.79,0,0,103.55,2.19,142.26,18.16,38.71,15.97,4.35,.24,20.08-1.21,15.73-1.45,51.53,21.54,84.67,35.82,33.14,14.28,37.26,14.28,58.79,14.28,21.53,0,28.79,8.47,48.87,18.64,20.08,10.16-30-20.08,4.36-18.63,34.35,1.46,73.3,24.69,64.6,10.17-8.71-14.52,7.02-18.63,34.36-5.8,27.34,12.83,35.46-16.85,80.46-4.85"/>
    </g>
  </g>
</svg>