<svg width="1920" height="1080" viewBox="0 0 1920 1080" fill="none" xmlns="http://www.w3.org/2000/svg">
<g clip-path="url(#clip0_360_80)">
<rect width="1920" height="1080" fill="white"/>
<path d="M116.479 95.5407L-84 29L-257.416 212.495C-378.935 341.075 -285.937 552.516 -109.04 549.845L1470.5 526L1912.2 558.668C2069.48 570.3 2177.71 403.825 2103.27 264.799L1977 29L1784.38 93.8546C1685.26 127.231 1577.58 124.894 1480 87.25C1382.42 49.6058 1274.74 47.2694 1175.62 80.6453L1146.16 90.5639C1040.43 126.162 925.837 125.381 820.607 88.3434L806.274 83.2987C706.038 48.0193 597.168 45.5919 495.46 76.3687L418.798 99.5663C320.024 129.455 214.422 128.049 116.479 95.5407Z" fill="#F6EEDA"/>
<rect y="499" width="1920" height="581" fill="#F6EEDA"/>
</g>
<defs>
<clipPath id="clip0_360_80">
<rect width="1920" height="1080" fill="white"/>
</clipPath>
</defs>
</svg>
