<svg width="1920" height="1080" viewBox="0 0 1920 1080" fill="none" xmlns="http://www.w3.org/2000/svg">
<path d="M1919.92 0.12793H0V1080H1919.92V0.12793Z" fill="#BBF7FF"/>
<g style="mix-blend-mode:multiply" opacity="0.51">
<path d="M1469.33 250.455C1259.85 181.042 1155.49 223.411 891.638 277.57C627.789 331.729 471.021 49.6417 284.149 0.12793H0V1080H1919.92V309C1826.85 309.165 1629.32 303.482 1469.33 250.455Z" fill="#BBF7FF"/>
</g>
<mask id="mask0_344_9" style="mask-type:luminance" maskUnits="userSpaceOnUse" x="0" y="0" width="1920" height="1080">
<path d="M1919.92 1080H0L0.0767969 0L1920 0.235782L1919.92 1080Z" fill="white"/>
</mask>
<g mask="url(#mask0_344_9)">
<path d="M-236.918 807.469L-57.9048 637.185L-24.4469 466.875C-24.4469 466.875 114.914 378.328 131.63 375.23C148.346 372.133 198.52 327.539 198.52 327.539C198.52 327.539 204.101 307.726 243.114 305.243C282.126 302.759 324.262 268.713 324.262 268.713L377.534 210.501C377.534 210.501 513.797 98.4285 530.513 101.526C547.229 104.623 642.611 185.158 653.747 185.158C664.882 185.158 703.921 174.022 731.772 196.319C759.624 218.616 879.146 338.777 879.146 338.777L946.65 358.616L1038.29 425.507C1038.29 425.507 1147.29 445.346 1169.59 458.964C1191.89 472.583 1331.22 576.029 1331.22 576.029L1453.84 657.177L1534.58 730.698L1682.9 869.034L959.782 959.168L-236.97 807.443L-236.918 807.469Z" fill="#6DDE86"/>
<path opacity="0.4" d="M1050.22 790.727L809.772 598.3L856.849 562.384L642.586 427.964L617.191 391.844C617.191 391.844 711.933 411.248 711.933 397.604C711.933 383.985 541.649 255.145 541.649 255.145C541.649 255.145 530.513 227.268 544.746 227.268C558.979 227.268 625.869 235.332 606.056 224.171C586.242 213.009 530.513 101.526 530.513 101.526C513.797 98.4285 377.534 210.501 377.534 210.501L324.262 268.713C324.262 268.713 282.152 302.759 243.114 305.243C204.101 307.726 198.52 327.539 198.52 327.539C198.52 327.539 148.346 372.133 131.63 375.23C114.914 378.328 -24.4469 466.874 -24.4469 466.874L-57.9047 637.184L-222.711 875.613L127.995 786.017L452.769 856.03L822.674 926.248L640.41 787.45L984.895 806.394L1050.25 790.727H1050.22Z" fill="#B6FFBD"/>
<path opacity="0.52" d="M670.207 439.279L642.534 355.954L678.373 361.074L541.649 255.12C541.649 255.12 460.91 277.084 490.246 310.849C543.492 372.159 264.181 443.349 264.181 443.349L132.884 521.375L42.4431 634.702L-124.974 720.945L-270.069 826.95C-270.069 826.95 190.149 835.372 201.438 835.372C212.727 835.372 554.909 828.076 568.067 815.021C581.225 801.965 670.232 439.228 670.232 439.228L670.207 439.279Z" fill="#59B239"/>
<path d="M1230.93 629.3L1032.76 481.261L952.256 475.681L929.959 455.867L899.01 405.693L815.404 392.049L742.959 288.604C742.959 288.604 575.107 400.676 558.39 408.739C541.674 416.778 497.695 400.061 472.301 411.197C446.907 422.333 87.0621 791.137 87.0621 791.137L368.113 810.669L1067.89 858.897L1230.95 629.3H1230.93Z" fill="#94ED76"/>
<path opacity="0.4" d="M1077.31 750.665C1065.56 717.847 844.459 647.194 827.743 618.088C811.027 588.982 904.54 632.961 875.434 609.435C846.328 585.884 733.001 504.761 745.391 511.571C757.781 518.38 794.311 514.668 770.785 488.045C747.26 461.422 704.612 400.983 745.391 433.545C792.749 471.355 873.667 522.937 859.972 488.071C855.876 477.626 721.865 369.752 721.865 369.752L781.946 392.049L742.933 288.604C742.933 288.604 575.081 400.676 558.365 408.739C541.649 416.778 497.67 400.061 472.276 411.197C446.881 422.333 87.0365 791.137 87.0365 791.137L318.963 797.895L685.515 783.841L982.642 822.931C982.642 822.931 1089.08 783.483 1077.31 750.665Z" fill="#165C10"/>
<path d="M2050.48 657.279L1882.63 598.453L1818.63 598.402L1761.64 592.821L1640.59 545.105C1640.59 545.105 1501.33 475.731 1487.07 475.731C1472.84 475.731 1469.66 478.215 1401.6 520.299C1333.53 562.41 1269.43 595.842 1269.43 595.842L1180.01 592.744L1118.6 612.558L938.356 704.561L1224.73 801.043L1440.3 888.822L1928.47 882.525L2050.45 657.279H2050.48Z" fill="#7DE05A"/>
<mask id="mask1_344_9" style="mask-type:luminance" maskUnits="userSpaceOnUse" x="938" y="475" width="1113" height="414">
<path d="M2050.48 657.279L1882.63 598.453L1818.63 598.402L1761.64 592.821L1640.59 545.105C1640.59 545.105 1501.33 475.731 1487.07 475.731C1472.84 475.731 1469.66 478.215 1401.6 520.299C1333.53 562.41 1269.43 595.842 1269.43 595.842L1180.01 592.744L1118.6 612.558L938.356 704.561L1224.73 801.043L1440.3 888.822L1928.47 882.525L2050.45 657.279H2050.48Z" fill="white"/>
</mask>
<g mask="url(#mask1_344_9)">
<path opacity="0.4" d="M1643.79 377.918L1487.1 475.757C1487.1 475.757 1578.87 556.292 1568.6 556.292C1558.31 556.292 1501.33 545.13 1501.33 545.13C1501.33 545.13 1640.59 621.339 1661.96 634.957C1683.34 648.576 1586.75 645.888 1586.75 645.888L1533.28 626.356C1533.28 626.356 1607.51 691.07 1682.98 724.016C1758.47 756.988 1658.2 770.632 1658.2 770.632L1718.36 822.547L1797.33 856.644L1661.58 891.408L1262.31 922.05L845.278 765.512L809.593 631.809L1643.79 377.918Z" fill="#2B6721"/>
</g>
</g>
<path d="M1300.86 610.203C1301.09 610.357 1301.32 610.459 1301.55 610.536L1300.86 610.203Z" fill="#00810D"/>
<path d="M1303.04 642.842C1308.72 646.784 1313.23 644.941 1313.23 644.941C1306.8 643.2 1304.83 639.028 1304.83 639.028C1307.57 640.768 1311.56 640.512 1311.56 640.512C1301.38 636.263 1298.53 628.097 1300.76 631.066C1302.99 634.036 1307.31 632.858 1307.31 632.858C1305.52 632.09 1302.43 629.53 1302.43 629.53C1303.91 630.298 1312.13 630.708 1312.13 630.708C1302.86 627.994 1299.76 620.34 1299.76 620.34C1303.22 623.566 1309.64 623.31 1309.64 623.31C1304.88 621.313 1300.2 615.886 1302.09 617.524C1303.99 619.163 1309.16 620.11 1309.16 620.11C1302.76 618.292 1297.95 608.846 1297.95 608.846L1300.84 610.254C1299.38 609.256 1298.25 606.747 1298.25 606.747C1299.79 608.488 1303.63 608.488 1303.63 608.488C1300.66 608.488 1297.87 604.751 1297.87 604.751L1302.37 606.491C1297.87 604.751 1296.26 600.552 1296.26 600.552C1297.13 602.037 1299.53 602.139 1299.53 602.139C1296.28 600.475 1292.95 594.178 1291.93 592.13V591.49C1291.93 591.49 1291.88 591.618 1291.78 591.823C1291.67 591.618 1291.62 591.49 1291.62 591.49V592.13C1290.6 594.153 1287.27 600.45 1284.02 602.114C1284.02 602.114 1286.43 602.011 1287.3 600.527C1287.3 600.527 1285.68 604.725 1281.18 606.466L1285.68 604.725C1285.68 604.725 1282.89 608.462 1279.92 608.462C1279.92 608.462 1283.76 608.462 1285.3 606.722C1285.3 606.722 1284.17 609.23 1282.71 610.229L1285.61 608.821C1285.61 608.821 1285.48 609.077 1285.22 609.512C1283.33 611.201 1280.56 613.045 1277.31 613.582C1277.31 613.582 1279.26 615.118 1282.69 613.352C1280.67 616.04 1277.06 618.676 1274.37 620.084C1274.37 620.084 1277.93 620.571 1281.43 617.499C1283.33 615.86 1280.64 621.595 1273.04 623.335C1273.04 623.335 1276.01 623.796 1277.62 623.54C1276.62 624.359 1273.11 625.076 1272.12 625.127C1272.12 625.127 1275.75 626.356 1279.82 625.87C1277.75 627.329 1274.5 629.018 1269.58 630.273C1269.58 630.273 1279.67 630.273 1281.15 629.505C1281.15 629.505 1273.81 634.164 1272.01 634.932C1272.01 634.932 1275.42 634.753 1278.69 634.01C1275.88 635.418 1272.12 637.005 1267.51 638.157C1267.51 638.157 1276.01 640.768 1278.75 639.028C1278.75 639.028 1276.77 643.226 1270.35 644.941C1270.35 644.941 1274.85 646.784 1280.54 642.842C1280.54 642.842 1278.44 646.477 1270.66 648.576C1270.66 648.576 1283.23 651.699 1291.78 646.17C1300.3 651.699 1312.89 648.576 1312.89 648.576C1305.11 646.477 1303.01 642.842 1303.01 642.842H1303.04Z" fill="#00810D"/>
<path d="M1282.77 610.203L1282.07 610.536C1282.3 610.459 1282.53 610.357 1282.77 610.203Z" fill="#00810D"/>
<path d="M1327.23 586.396C1327.38 586.499 1327.51 586.576 1327.67 586.601L1327.23 586.396Z" fill="#00810D"/>
<path d="M1328.64 607.643C1332.35 610.203 1335.27 609 1335.27 609C1331.1 607.874 1329.82 605.135 1329.82 605.135C1331.58 606.261 1334.19 606.107 1334.19 606.107C1327.56 603.343 1325.69 598.018 1327.15 599.964C1328.61 601.883 1331.43 601.141 1331.43 601.141C1330.25 600.629 1328.25 598.991 1328.25 598.991C1329.23 599.477 1334.58 599.759 1334.58 599.759C1328.54 597.992 1326.54 593.001 1326.54 593.001C1328.79 595.1 1332.96 594.921 1332.96 594.921C1329.87 593.615 1326.82 590.108 1328.05 591.157C1329.28 592.207 1332.66 592.847 1332.66 592.847C1328.48 591.669 1325.36 585.5 1325.36 585.5L1327.26 586.422C1326.31 585.782 1325.57 584.143 1325.57 584.143C1326.56 585.27 1329.07 585.27 1329.07 585.27C1327.15 585.27 1325.34 582.838 1325.34 582.838L1328.28 583.964C1325.34 582.838 1324.29 580.099 1324.29 580.099C1324.85 581.071 1326.41 581.123 1326.41 581.123C1324.29 580.048 1322.11 575.926 1321.47 574.621V574.211C1321.47 574.211 1321.44 574.288 1321.37 574.416C1321.29 574.288 1321.27 574.211 1321.27 574.211V574.621C1320.6 575.952 1318.42 580.048 1316.32 581.123C1316.32 581.123 1317.89 581.046 1318.45 580.099C1318.45 580.099 1317.4 582.838 1314.46 583.964L1317.4 582.838C1317.4 582.838 1315.58 585.27 1313.66 585.27C1313.66 585.27 1316.15 585.27 1317.17 584.143C1317.17 584.143 1316.45 585.782 1315.48 586.422L1317.37 585.5C1317.37 585.5 1317.3 585.679 1317.12 585.961C1315.89 587.062 1314.1 588.265 1311.97 588.623C1311.97 588.623 1313.23 589.622 1315.48 588.47C1314.17 590.236 1311.82 591.925 1310.08 592.847C1310.08 592.847 1312.38 593.154 1314.69 591.157C1315.92 590.082 1314.17 593.82 1309.21 594.946C1309.21 594.946 1311.13 595.253 1312.18 595.074C1311.54 595.612 1309.26 596.072 1308.59 596.098C1308.59 596.098 1310.95 596.892 1313.61 596.584C1312.25 597.532 1310.13 598.632 1306.93 599.452C1306.93 599.452 1313.48 599.452 1314.46 598.965C1314.46 598.965 1309.67 601.986 1308.49 602.498C1308.49 602.498 1310.69 602.37 1312.84 601.909C1311 602.831 1308.57 603.855 1305.55 604.597C1305.55 604.597 1311.08 606.312 1312.87 605.16C1312.87 605.16 1311.59 607.874 1307.42 609.026C1307.42 609.026 1310.36 610.229 1314.05 607.669C1314.05 607.669 1312.69 610.024 1307.62 611.406C1307.62 611.406 1315.81 613.454 1321.37 609.845C1326.92 613.454 1335.11 611.406 1335.11 611.406C1330.05 610.049 1328.69 607.669 1328.69 607.669L1328.64 607.643Z" fill="#00810D"/>
<path d="M1315.45 586.396L1315.02 586.601C1315.17 586.55 1315.33 586.473 1315.45 586.396Z" fill="#00810D"/>
<path d="M1334.14 641.971C1334.14 641.971 1334.35 642.099 1334.47 642.124L1334.14 641.971Z" fill="#00810D"/>
<path d="M1335.17 657.458C1337.85 659.327 1340 658.457 1340 658.457C1336.96 657.638 1336.04 655.641 1336.04 655.641C1337.34 656.46 1339.24 656.332 1339.24 656.332C1334.4 654.31 1333.04 650.444 1334.12 651.852C1335.17 653.26 1337.21 652.697 1337.21 652.697C1336.37 652.339 1334.91 651.11 1334.91 651.11C1335.6 651.468 1339.52 651.673 1339.52 651.673C1335.11 650.393 1333.66 646.758 1333.66 646.758C1335.29 648.294 1338.34 648.166 1338.34 648.166C1336.09 647.219 1333.86 644.659 1334.76 645.427C1335.65 646.195 1338.11 646.656 1338.11 646.656C1335.06 645.785 1332.79 641.305 1332.79 641.305L1334.17 641.971C1333.48 641.51 1332.94 640.307 1332.94 640.307C1333.68 641.126 1335.5 641.126 1335.5 641.126C1334.09 641.126 1332.79 639.36 1332.79 639.36L1334.94 640.179C1332.79 639.36 1332.04 637.363 1332.04 637.363C1332.45 638.054 1333.6 638.106 1333.6 638.106C1332.07 637.312 1330.48 634.317 1330 633.37V633.062C1330 633.062 1330 633.114 1329.92 633.216C1329.87 633.114 1329.84 633.062 1329.84 633.062V633.37C1329.36 634.342 1327.77 637.312 1326.23 638.106C1326.23 638.106 1327.38 638.054 1327.79 637.363C1327.79 637.363 1327.03 639.36 1324.9 640.179L1327.05 639.36C1327.05 639.36 1325.72 641.126 1324.31 641.126C1324.31 641.126 1326.13 641.126 1326.87 640.307C1326.87 640.307 1326.33 641.485 1325.64 641.971L1327.03 641.305C1327.03 641.305 1326.97 641.433 1326.85 641.638C1325.95 642.432 1324.64 643.328 1323.11 643.584C1323.11 643.584 1324.03 644.3 1325.67 643.481C1324.72 644.761 1323.01 646.016 1321.73 646.681C1321.73 646.681 1323.42 646.912 1325.08 645.452C1325.98 644.659 1324.7 647.398 1321.09 648.217C1321.09 648.217 1322.49 648.448 1323.26 648.32C1322.8 648.703 1321.14 649.062 1320.65 649.062C1320.65 649.062 1322.37 649.651 1324.31 649.42C1323.31 650.111 1321.78 650.905 1319.45 651.519C1319.45 651.519 1324.24 651.519 1324.93 651.161C1324.93 651.161 1321.45 653.363 1320.6 653.721C1320.6 653.721 1322.21 653.644 1323.77 653.286C1322.44 653.951 1320.65 654.694 1318.48 655.257C1318.48 655.257 1322.52 656.511 1323.8 655.666C1323.8 655.666 1322.88 657.663 1319.83 658.482C1319.83 658.482 1321.98 659.353 1324.67 657.484C1324.67 657.484 1323.67 659.199 1319.99 660.197C1319.99 660.197 1325.95 661.682 1330 659.071C1334.04 661.708 1340 660.223 1340 660.223C1336.32 659.225 1335.32 657.509 1335.32 657.509L1335.17 657.458Z" fill="#00810D"/>
<path d="M1325.57 641.971L1325.23 642.124C1325.23 642.124 1325.46 642.048 1325.57 641.971Z" fill="#00810D"/>
<path d="M1322.57 620.417C1322.57 620.417 1322.7 620.494 1322.78 620.519L1322.57 620.417Z" fill="#00810D"/>
<path d="M1323.16 629.556C1324.75 630.657 1326.03 630.145 1326.03 630.145C1324.24 629.658 1323.67 628.481 1323.67 628.481C1324.44 628.967 1325.57 628.89 1325.57 628.89C1322.7 627.713 1321.91 625.409 1322.55 626.228C1323.16 627.047 1324.39 626.74 1324.39 626.74C1323.88 626.535 1323.03 625.818 1323.03 625.818C1323.44 626.023 1325.75 626.151 1325.75 626.151C1323.13 625.383 1322.29 623.233 1322.29 623.233C1323.26 624.129 1325.05 624.052 1325.05 624.052C1323.72 623.489 1322.39 621.978 1322.93 622.439C1323.47 622.9 1324.9 623.156 1324.9 623.156C1323.11 622.644 1321.75 620.007 1321.75 620.007L1322.57 620.391C1322.16 620.11 1321.85 619.419 1321.85 619.419C1322.29 619.905 1323.37 619.905 1323.37 619.905C1322.55 619.905 1321.75 618.855 1321.75 618.855L1323.01 619.342C1321.75 618.855 1321.29 617.678 1321.29 617.678C1321.52 618.087 1322.21 618.113 1322.21 618.113C1321.29 617.652 1320.37 615.886 1320.09 615.323V615.144C1320.09 615.144 1320.09 615.169 1320.04 615.246C1320.01 615.195 1319.99 615.144 1319.99 615.144V615.323C1319.7 615.886 1318.76 617.652 1317.86 618.113C1317.86 618.113 1318.53 618.087 1318.78 617.678C1318.78 617.678 1318.32 618.855 1317.07 619.342L1318.32 618.855C1318.32 618.855 1317.55 619.905 1316.71 619.905C1316.71 619.905 1317.78 619.905 1318.22 619.419C1318.22 619.419 1317.91 620.11 1317.5 620.391L1318.32 620.007C1318.32 620.007 1318.3 620.084 1318.22 620.212C1317.68 620.673 1316.91 621.21 1316.02 621.364C1316.02 621.364 1316.56 621.799 1317.53 621.313C1316.97 622.081 1315.94 622.798 1315.2 623.207C1315.2 623.207 1316.2 623.335 1317.17 622.49C1317.71 622.03 1316.94 623.642 1314.82 624.129C1314.82 624.129 1315.63 624.257 1316.1 624.18C1315.81 624.41 1314.84 624.615 1314.56 624.615C1314.56 624.615 1315.58 624.948 1316.71 624.82C1316.12 625.23 1315.22 625.716 1313.84 626.049C1313.84 626.049 1316.66 626.049 1317.09 625.844C1317.09 625.844 1315.02 627.149 1314.53 627.354C1314.53 627.354 1315.48 627.303 1316.4 627.098C1315.61 627.482 1314.56 627.943 1313.25 628.25C1313.25 628.25 1315.63 628.993 1316.4 628.506C1316.4 628.506 1315.84 629.684 1314.05 630.17C1314.05 630.17 1315.3 630.682 1316.91 629.581C1316.91 629.581 1316.33 630.605 1314.15 631.194C1314.15 631.194 1317.68 632.064 1320.06 630.529C1322.44 632.09 1325.98 631.194 1325.98 631.194C1323.8 630.605 1323.21 629.581 1323.21 629.581L1323.16 629.556Z" fill="#00810D"/>
<path d="M1317.5 620.417L1317.3 620.519C1317.3 620.519 1317.43 620.468 1317.5 620.417Z" fill="#00810D"/>
<path d="M1470.53 491.526C1471.84 491.091 1472.71 490.221 1472.71 490.221C1471.38 490.528 1470.33 489.888 1469.46 488.864C1470.38 488.659 1470.97 488.25 1470.97 488.25C1470.64 488.07 1470.33 487.891 1470.02 487.712C1472.58 488.378 1474.55 486.381 1474.55 486.381C1471.61 485.664 1469.84 483.949 1468.84 482.439C1469 482.362 1469.07 482.311 1469.07 482.311C1468.97 482.311 1468.84 482.311 1468.74 482.285C1467.9 480.954 1467.64 479.853 1467.64 479.853C1469.28 482.848 1471.25 480.928 1471.25 480.928C1470.53 480.519 1469.89 479.93 1469.3 479.264C1469.38 479.264 1469.43 479.264 1469.43 479.264C1469.23 479.085 1469.02 478.88 1468.82 478.701C1468.05 477.728 1467.44 476.628 1466.92 475.68C1467.92 475.834 1468.64 475.501 1468.64 475.501C1468.1 475.296 1467.59 474.861 1467.13 474.298C1469.3 475.834 1471.3 474.401 1471.3 474.401C1469.61 474.17 1468 471.764 1467.1 470.126C1467.74 470.177 1468.2 470.1 1468.2 470.1C1467.54 469.793 1466.95 469.332 1466.41 468.769C1466.36 468.666 1466.33 468.615 1466.33 468.615C1467.67 470.381 1470.46 469.204 1470.46 469.204C1469.38 468.999 1468.43 468.334 1467.64 467.514C1468.38 467.514 1468.87 467.31 1468.87 467.31C1467.82 466.9 1466.85 465.62 1466.1 464.289C1466.21 464.289 1466.26 464.289 1466.26 464.289C1466.18 464.238 1466.1 464.187 1466.03 464.135C1466 464.084 1465.98 464.033 1465.93 463.982C1466.95 464.391 1468.08 463.982 1468.08 463.982C1467.18 463.7 1466.36 462.907 1465.64 461.883C1466.9 462.574 1468.41 462.318 1468.41 462.318C1465.03 460.833 1463.42 455.073 1463.42 455.073C1464.21 457.172 1466.51 456.891 1466.51 456.891C1464.06 455.483 1462.42 449.877 1461.91 447.598L1461.96 446.549C1461.96 446.549 1461.91 446.728 1461.83 447.061C1461.78 446.728 1461.73 446.549 1461.73 446.549V447.598C1461.06 449.851 1459.12 455.355 1456.56 456.609C1456.56 456.609 1458.83 457.019 1459.76 454.971C1459.76 454.971 1457.78 460.628 1454.35 461.908C1454.35 461.908 1455.74 462.215 1456.97 461.703C1456.17 462.676 1455.28 463.419 1454.35 463.598C1454.35 463.598 1455.25 464.007 1456.17 463.879C1456.1 463.931 1456.02 463.982 1455.92 464.033C1455.92 464.033 1456.17 464.084 1456.53 464.059C1455.71 465.338 1454.69 466.567 1453.61 466.9C1453.61 466.9 1453.89 467.054 1454.35 467.13C1453.59 467.745 1452.72 468.18 1451.74 468.257C1451.74 468.257 1454.35 469.613 1455.74 468.103C1455.74 468.103 1455.66 468.231 1455.56 468.436C1454.97 468.999 1454.33 469.46 1453.61 469.716C1453.61 469.716 1454.05 469.818 1454.64 469.818C1453.64 471.226 1452.1 472.967 1450.57 473.018C1450.57 473.018 1452.41 474.58 1454.61 473.3C1454.71 473.3 1454.84 473.3 1454.97 473.3C1454.3 474.145 1453.56 474.836 1452.82 475.092C1452.82 475.092 1453.36 475.373 1454.2 475.373C1453.2 476.832 1451.85 478.394 1450.23 479.111C1450.23 479.111 1451.82 480.877 1453.48 478.855C1453.54 478.855 1453.59 478.855 1453.64 478.855C1453.2 479.93 1451.69 483.002 1448.34 484.538C1448.34 484.538 1450.46 485.485 1452.49 484.768C1452 485.127 1451.49 485.459 1450.92 485.741C1450.92 485.741 1451.31 486.048 1451.92 486.355C1451.28 486.867 1450.49 487.2 1449.59 487.226C1449.59 487.226 1450.36 487.738 1451.51 487.866C1450.18 489.299 1448.49 490.579 1446.39 490.989C1446.39 490.989 1448.83 493.907 1452.08 493.549C1451.1 494.265 1449.8 494.649 1447.7 495.136C1447.7 495.136 1449.87 497.312 1452.61 498.592C1452.38 498.72 1452.13 498.822 1451.87 498.95C1451.87 498.95 1458.25 503.302 1462.7 500.307C1464.47 501.382 1466.21 501.203 1467.74 500.486C1472.84 501.587 1476.88 493.472 1476.88 493.472C1473.84 493.856 1471.61 492.678 1470.53 491.603V491.526Z" fill="#00810D"/>
<path d="M1488.43 480.851C1489.35 480.544 1489.96 479.929 1489.96 479.929C1489.02 480.16 1488.27 479.699 1487.66 478.957C1488.32 478.803 1488.73 478.521 1488.73 478.521C1488.5 478.393 1488.27 478.265 1488.07 478.137C1489.89 478.624 1491.29 477.19 1491.29 477.19C1489.19 476.678 1487.97 475.45 1487.25 474.4C1487.35 474.349 1487.4 474.298 1487.4 474.298C1487.33 474.298 1487.25 474.298 1487.17 474.298C1486.58 473.35 1486.38 472.582 1486.38 472.582C1487.56 474.707 1488.94 473.35 1488.94 473.35C1488.43 473.069 1487.97 472.634 1487.56 472.173C1487.61 472.173 1487.66 472.173 1487.66 472.173C1487.51 472.045 1487.35 471.917 1487.22 471.763C1486.69 471.072 1486.23 470.304 1485.89 469.613C1486.61 469.715 1487.1 469.485 1487.1 469.485C1486.71 469.331 1486.35 469.024 1486.02 468.64C1487.56 469.741 1488.96 468.717 1488.96 468.717C1487.76 468.538 1486.63 466.848 1485.97 465.696C1486.43 465.722 1486.74 465.696 1486.74 465.696C1486.28 465.492 1485.84 465.159 1485.46 464.749C1485.43 464.672 1485.41 464.647 1485.41 464.647C1486.35 465.901 1488.32 465.056 1488.32 465.056C1487.56 464.903 1486.89 464.442 1486.33 463.853C1486.84 463.853 1487.2 463.725 1487.2 463.725C1486.46 463.444 1485.76 462.522 1485.25 461.601C1485.33 461.601 1485.35 461.601 1485.35 461.601C1485.3 461.575 1485.25 461.524 1485.2 461.498C1485.2 461.447 1485.15 461.421 1485.12 461.37C1485.84 461.652 1486.66 461.37 1486.66 461.37C1486.05 461.165 1485.46 460.602 1484.92 459.885C1485.82 460.372 1486.89 460.193 1486.89 460.193C1484.51 459.143 1483.36 455.047 1483.36 455.047C1483.92 456.532 1485.56 456.353 1485.56 456.353C1483.82 455.354 1482.67 451.387 1482.28 449.748V449.006C1482.28 449.006 1482.28 449.134 1482.23 449.364C1482.23 449.364 1482.23 449.415 1482.23 449.441C1482.23 449.441 1482.23 449.39 1482.23 449.364C1482.18 449.134 1482.16 449.006 1482.16 449.006V449.748C1481.69 451.361 1480.31 455.252 1478.49 456.148C1478.49 456.148 1480.11 456.43 1480.77 454.996C1480.77 454.996 1479.39 459.015 1476.93 459.911C1476.93 459.911 1477.91 460.116 1478.8 459.783C1478.24 460.474 1477.6 460.986 1476.93 461.14C1476.93 461.14 1477.57 461.447 1478.21 461.345C1478.16 461.37 1478.08 461.421 1478.03 461.447C1478.03 461.447 1478.21 461.473 1478.47 461.447C1477.88 462.343 1477.16 463.213 1476.4 463.469C1476.4 463.469 1476.6 463.572 1476.93 463.623C1476.4 464.058 1475.76 464.365 1475.09 464.416C1475.09 464.416 1476.93 465.364 1477.93 464.314C1477.93 464.314 1477.88 464.391 1477.8 464.544C1477.39 464.928 1476.93 465.261 1476.42 465.466C1476.42 465.466 1476.73 465.543 1477.16 465.543C1476.45 466.541 1475.35 467.77 1474.3 467.821C1474.3 467.821 1475.6 468.922 1477.16 468C1477.24 468 1477.32 468 1477.42 468C1476.96 468.589 1476.42 469.075 1475.88 469.255C1475.88 469.255 1476.27 469.459 1476.86 469.459C1476.14 470.483 1475.17 471.584 1474.04 472.096C1474.04 472.096 1475.17 473.35 1476.34 471.917C1476.37 471.917 1476.42 471.917 1476.45 471.917C1476.14 472.659 1475.06 474.861 1472.68 475.962C1472.68 475.962 1474.19 476.627 1475.63 476.115C1475.27 476.371 1474.91 476.602 1474.53 476.806C1474.53 476.806 1474.78 477.011 1475.24 477.242C1474.78 477.6 1474.25 477.83 1473.58 477.856C1473.58 477.856 1474.12 478.214 1474.94 478.317C1473.99 479.341 1472.79 480.237 1471.3 480.544C1471.3 480.544 1473.04 482.617 1475.35 482.361C1474.65 482.873 1473.73 483.129 1472.25 483.488C1472.25 483.488 1473.78 485.024 1475.73 485.945C1475.55 486.022 1475.4 486.124 1475.22 486.201C1475.22 486.201 1479.72 489.299 1482.9 487.148C1484.15 487.916 1485.38 487.788 1486.48 487.276C1490.09 488.07 1492.96 482.31 1492.96 482.31C1490.81 482.566 1489.22 481.747 1488.45 480.979L1488.43 480.851Z" fill="#00810D"/>
<path d="M1504.15 493.958C1504.89 493.702 1505.37 493.216 1505.37 493.216C1504.61 493.395 1504.02 493.037 1503.51 492.448C1504.04 492.346 1504.38 492.089 1504.38 492.089C1504.2 491.987 1503.99 491.885 1503.84 491.782C1505.3 492.166 1506.42 491.04 1506.42 491.04C1504.73 490.63 1503.74 489.632 1503.17 488.787C1503.25 488.736 1503.3 488.71 1503.3 488.71C1503.25 488.71 1503.17 488.71 1503.12 488.71C1502.63 487.942 1502.48 487.328 1502.48 487.328C1503.43 489.043 1504.55 487.942 1504.55 487.942C1504.15 487.712 1503.79 487.379 1503.45 486.995C1503.51 486.995 1503.53 486.995 1503.53 486.995C1503.4 486.893 1503.3 486.79 1503.17 486.663C1502.74 486.099 1502.38 485.485 1502.1 484.922C1502.66 484.999 1503.07 484.819 1503.07 484.819C1502.76 484.691 1502.48 484.461 1502.2 484.128C1503.45 484.999 1504.58 484.179 1504.58 484.179C1503.61 484.051 1502.69 482.669 1502.17 481.748C1502.53 481.773 1502.79 481.748 1502.79 481.748C1502.4 481.568 1502.07 481.312 1501.76 480.98C1501.74 480.928 1501.71 480.877 1501.71 480.877C1502.48 481.876 1504.07 481.21 1504.07 481.21C1503.45 481.082 1502.92 480.724 1502.46 480.237C1502.87 480.237 1503.15 480.135 1503.15 480.135C1502.53 479.904 1501.99 479.162 1501.56 478.42C1501.61 478.42 1501.64 478.42 1501.64 478.42C1501.59 478.394 1501.56 478.368 1501.51 478.343C1501.51 478.317 1501.48 478.292 1501.46 478.24C1502.05 478.471 1502.69 478.24 1502.69 478.24C1502.17 478.087 1501.71 477.626 1501.3 477.037C1502.02 477.421 1502.89 477.293 1502.89 477.293C1500.97 476.449 1500.05 473.146 1500.05 473.146C1500.51 474.349 1501.82 474.196 1501.82 474.196C1500.41 473.377 1499.49 470.202 1499.18 468.871V468.257C1499.18 468.257 1499.18 468.359 1499.13 468.538C1499.13 468.538 1499.13 468.564 1499.13 468.59V468.538C1499.1 468.359 1499.08 468.257 1499.08 468.257V468.871C1498.69 470.151 1497.59 473.3 1496.13 474.017C1496.13 474.017 1497.44 474.247 1497.98 473.069C1497.98 473.069 1496.85 476.295 1494.88 477.037C1494.88 477.037 1495.67 477.216 1496.39 476.935C1495.93 477.498 1495.42 477.908 1494.9 478.01C1494.9 478.01 1495.42 478.24 1495.93 478.164C1495.88 478.189 1495.83 478.215 1495.77 478.24C1495.77 478.24 1495.93 478.266 1496.13 478.24C1495.67 478.957 1495.08 479.674 1494.47 479.853C1494.47 479.853 1494.62 479.93 1494.9 479.981C1494.47 480.314 1493.96 480.57 1493.42 480.621C1493.42 480.621 1494.9 481.389 1495.7 480.544C1495.7 480.544 1495.67 480.621 1495.6 480.724C1495.26 481.031 1494.9 481.312 1494.49 481.466C1494.49 481.466 1494.75 481.517 1495.08 481.517C1494.52 482.311 1493.62 483.309 1492.75 483.36C1492.75 483.36 1493.8 484.256 1495.08 483.514C1495.13 483.514 1495.21 483.514 1495.29 483.514C1494.9 484 1494.49 484.384 1494.06 484.538C1494.06 484.538 1494.37 484.691 1494.85 484.691C1494.29 485.536 1493.5 486.407 1492.57 486.816C1492.57 486.816 1493.47 487.814 1494.44 486.663C1494.47 486.663 1494.49 486.663 1494.52 486.663C1494.26 487.277 1493.42 489.018 1491.47 489.914C1491.47 489.914 1492.7 490.451 1493.83 490.042C1493.55 490.246 1493.24 490.426 1492.93 490.579C1492.93 490.579 1493.14 490.758 1493.5 490.938C1493.11 491.219 1492.68 491.424 1492.16 491.45C1492.16 491.45 1492.6 491.757 1493.27 491.808C1492.52 492.627 1491.52 493.344 1490.35 493.6C1490.35 493.6 1491.76 495.264 1493.6 495.059C1493.04 495.469 1492.29 495.673 1491.09 495.955C1491.09 495.955 1492.34 497.184 1493.91 497.926C1493.78 498.003 1493.62 498.054 1493.47 498.131C1493.47 498.131 1497.11 500.614 1499.67 498.899C1500.69 499.513 1501.66 499.411 1502.53 499.001C1505.45 499.641 1507.75 495.008 1507.75 495.008C1506.01 495.213 1504.73 494.547 1504.12 493.933L1504.15 493.958Z" fill="#00810D"/>
<path d="M1729.21 212.6C1765.26 212.6 1794.49 183.374 1794.49 147.322C1794.49 111.271 1765.26 82.0449 1729.21 82.0449C1693.16 82.0449 1663.93 111.271 1663.93 147.322C1663.93 183.374 1693.16 212.6 1729.21 212.6Z" fill="#FFED00"/>
<path d="M1920 1080H960.038H0.0769043L0 806.346C0 806.346 424.533 715.136 541.598 692.225C658.662 669.314 878.506 661.916 1082.89 730.086C1287.27 798.231 1256.91 816.201 1366.52 820.553C1476.14 824.905 1506.5 793.93 1570.91 809.443C1635.31 824.93 1665.65 836.092 1730.08 836.092C1794.49 836.092 1814.02 795.312 1919.92 829.41" fill="#419734"/>
<path d="M1919.92 826.825C1799.61 796.106 1794.49 836.092 1730.08 836.066C1665.67 836.066 1635.31 824.905 1570.91 809.418C1506.5 793.93 1476.14 824.879 1366.52 820.528C1256.91 816.176 1287.24 798.231 1082.89 730.061C878.506 661.916 658.662 669.314 541.598 692.2C541.598 692.2 806.675 697.806 905.769 738.688C1004.86 779.569 916.904 739.302 957.171 735.59C997.439 731.878 1089.08 790.73 1173.92 827.286C1258.75 863.841 1269.3 863.841 1324.41 863.841C1379.53 863.841 1398.11 885.523 1449.52 911.558C1500.92 937.566 1372.72 860.155 1460.68 863.867C1548.61 867.604 1648.32 927.071 1626.05 889.901C1603.75 852.731 1644.02 842.21 1714 875.053C1783.99 907.897 1804.78 831.919 1919.97 862.638" fill="#419734"/>
</svg>
