<svg width="246" height="368" viewBox="0 0 246 368" fill="none" xmlns="http://www.w3.org/2000/svg">
<path d="M214.665 40.4916C214.665 44.4613 211.452 47.6792 207.477 47.6792H37.8579C33.8882 47.6792 30.6703 44.462 30.6703 40.4916V7.18764C30.6703 3.22294 33.8882 0 37.8579 0H207.477C211.452 0 214.665 3.22294 214.665 7.18764V40.4916Z" fill="#4FC0E8"/>
<path d="M214.665 30.6704L245.324 99.6703V360.812C245.324 364.788 242.112 368 238.137 368H68.5226C64.5528 368 61.3349 364.788 61.3349 360.812V99.6703L30.6703 30.6704H214.665Z" fill="#3BAED9"/>
<path d="M61.335 7.67065C65.5692 7.67065 68.9999 4.23424 68.9999 0H53.6708C53.6708 4.23424 57.1014 7.67065 61.335 7.67065Z" fill="#3BAED9"/>
<path d="M92.0004 7.67065C96.2339 7.67065 99.6703 4.23424 99.6703 0H84.3354C84.3354 4.23424 87.7661 7.67065 92.0004 7.67065Z" fill="#3BAED9"/>
<path d="M122.671 7.67065C126.905 7.67065 130.336 4.23424 130.336 0H115C115 4.23424 118.437 7.67065 122.671 7.67065Z" fill="#3BAED9"/>
<path d="M153.324 7.67065C157.569 7.67065 161.006 4.23424 161.006 0H145.665C145.665 4.23424 149.101 7.67065 153.324 7.67065Z" fill="#3BAED9"/>
<path d="M184.006 7.67065C188.228 7.67065 191.665 4.23424 191.665 0H176.324C176.324 4.23424 179.761 7.67065 184.006 7.67065Z" fill="#3BAED9"/>
<path d="M30.6704 30.6704L0 99.6703V360.812C0 364.788 3.21791 368 7.18764 368H176.819C180.772 368 184.007 364.788 184.007 360.812V99.6703L214.665 30.6704H30.6704Z" fill="#4FC0E8"/>
<path opacity="0.1" d="M30.6704 30.6704L0 99.6703H184.007L214.665 30.6704H30.6704Z" fill="black"/>
<path d="M130.336 69.0055C130.336 81.7075 120.037 92.0052 107.335 92.0052C94.6339 92.0052 84.3354 81.7075 84.3354 69.0055C84.3354 56.2977 94.6339 46 107.335 46C120.037 45.9993 130.336 56.2977 130.336 69.0055Z" fill="#E5E8EC"/>
<path d="M107.335 92.0056C109.98 92.0056 112.518 91.5514 114.888 90.7255C114.276 87.1036 111.131 84.335 107.335 84.335C103.534 84.335 100.389 87.1036 99.7825 90.7255C102.146 91.5506 104.69 92.0056 107.335 92.0056Z" fill="#CBD0D8"/>
<path d="M107.335 45.9995C104.69 45.9995 102.146 46.4545 99.7825 47.2796C100.389 50.9015 103.534 53.6702 107.335 53.6702C111.131 53.6702 114.276 50.9015 114.888 47.2796C112.518 46.4545 109.98 45.9995 107.335 45.9995Z" fill="#CBD0D8"/>
<path d="M127.253 80.5056C128.578 78.2091 129.454 75.7833 129.926 73.3237C126.484 72.0378 122.514 73.3797 120.616 76.6702C118.712 79.9607 119.538 84.0656 122.373 86.4066C124.265 84.7671 125.927 82.7963 127.253 80.5056Z" fill="#CBD0D8"/>
<path d="M87.4183 57.4997C86.0929 59.7961 85.2175 62.222 84.7452 64.6816C88.1874 65.9675 92.1571 64.6255 94.0554 61.335C95.9529 58.0445 95.1328 53.9396 92.298 51.5986C90.3998 53.2381 88.738 55.2083 87.4183 57.4997Z" fill="#CBD0D8"/>
<path d="M127.253 57.4997C125.928 55.2083 124.272 53.2381 122.373 51.5986C119.538 53.9404 118.712 58.0445 120.616 61.335C122.514 64.6255 126.484 65.9675 129.926 64.6816C129.454 62.222 128.578 59.7961 127.253 57.4997Z" fill="#CBD0D8"/>
<path d="M87.4183 80.5056C88.738 82.797 90.3998 84.7671 92.298 86.4066C95.1328 84.0649 95.9529 79.9607 94.0554 76.6702C92.1571 73.3797 88.1874 72.0378 84.7452 73.3237C85.2167 75.7826 86.0929 78.2084 87.4183 80.5056Z" fill="#CBD0D8"/>
<path opacity="0.1" d="M214.665 30.6704L184.006 99.6703H245.324L214.665 30.6704Z" fill="black"/>
<path d="M184.007 169.277C181.581 169.608 179.312 170.069 177.336 170.67L158.692 176.308C154.29 177.639 148.495 178.307 142.678 178.307C136.883 178.307 131.066 177.638 126.658 176.308L108.037 170.67C103.629 169.339 97.8231 168.671 92.0119 168.671C86.2057 168.671 80.3995 169.339 75.9913 170.67L57.366 176.308C52.9636 177.639 47.1517 178.307 41.3455 178.307C35.5393 178.307 29.7274 177.638 25.325 176.308L6.69961 170.67C4.71151 170.069 2.43159 169.603 0.000732422 169.272V280.706C0.523274 280.818 0.977532 280.942 1.35991 281.054L19.9802 286.692C27.5941 288.983 35.8038 289.477 41.3462 289.477C46.8886 289.477 55.0983 288.983 62.7122 286.692L81.3325 281.054C83.2696 280.47 87.0941 279.841 92.0126 279.841C96.9369 279.841 100.761 280.47 102.698 281.054L121.318 286.692C128.933 288.983 137.13 289.477 142.678 289.477C148.226 289.477 156.425 288.983 164.039 286.692L182.66 281.054C183.041 280.942 183.49 280.83 184.007 280.717V169.277H184.007Z" fill="#E5E8EC"/>
<path d="M138.006 222.341H46.0001C41.7659 222.341 38.3352 225.778 38.3352 230C38.3352 234.245 41.7659 237.67 46.0001 237.67H138.006C142.228 237.67 145.665 234.245 145.665 230C145.665 225.778 142.228 222.341 138.006 222.341Z" fill="#4FC0E8"/>
</svg>
