<svg width="154" height="161" viewBox="0 0 154 161" fill="none" xmlns="http://www.w3.org/2000/svg">
<path d="M147.279 83.5668C146.522 81.5933 146.522 79.4085 147.279 77.428L153.401 61.357C154.848 57.5631 153.452 53.2862 150.059 51.0699L135.658 41.6665C133.886 40.5087 132.601 38.7368 132.05 36.6979L127.555 20.095C126.497 16.1823 122.851 13.534 118.804 13.7355L101.624 14.5946C99.5124 14.6965 97.4342 14.0242 95.7865 12.6966L82.3927 1.9096C79.2371 -0.636532 74.7323 -0.636532 71.5742 1.9096L58.1804 12.6966C56.5323 14.0242 54.4548 14.6965 52.3404 14.5946L35.1621 13.7355C31.1157 13.5343 27.47 16.1823 26.4118 20.095L21.9189 36.6979C21.3655 38.7368 20.0816 40.5087 18.3096 41.6665L3.9083 51.0696C0.515037 53.2859 -0.878305 57.5675 0.565978 61.3566L6.69027 77.4302C7.44527 79.4085 7.44527 81.593 6.69027 83.5687L0.565978 99.6423C-0.878305 103.429 0.515037 107.713 3.9083 109.929L18.3096 119.335C20.0816 120.488 21.3655 122.255 21.9189 124.299L26.4118 140.902C27.4703 144.817 31.116 147.463 35.1621 147.261L52.3404 146.407C54.4548 146.297 56.5323 146.975 58.1804 148.3L71.5742 159.092C74.7323 161.636 79.2371 161.636 82.3901 159.092L95.7865 148.3C97.4323 146.975 99.5124 146.298 101.624 146.407L118.804 147.261C122.851 147.463 126.497 144.817 127.555 140.902L132.05 124.299C132.601 122.255 133.886 120.488 135.658 119.335L150.059 109.929C153.452 107.713 154.848 103.429 153.399 99.6423L147.279 83.5668ZM87.2912 116.073C87.2912 119.359 84.6259 122.03 81.3396 122.03H72.6279C69.3413 122.03 66.6738 119.359 66.6738 116.073V106.98C66.6738 103.694 69.3413 101.024 72.6279 101.024H81.3396C84.6259 101.024 87.2912 103.694 87.2912 106.98V116.073ZM87.2912 84.5715C87.2912 87.8581 84.6259 90.5234 81.3396 90.5234H72.6279C69.3413 90.5234 66.6738 87.8581 66.6738 84.5715V44.9287C66.6738 41.6373 69.3413 38.972 72.6279 38.972H81.3396C84.6259 38.972 87.2912 41.6373 87.2912 44.9287V84.5715Z" fill="#FE5051"/>
</svg>
