<svg width="188" height="380" viewBox="0 0 188 380" fill="none" xmlns="http://www.w3.org/2000/svg">
<path d="M21.4735 158.435C26.4677 105.467 58.6274 60.5807 106.765 47.3419C153.097 34.5972 201.69 54.6219 233.247 94.4418C237.679 93.1806 241.778 92.0289 245.39 91.0363L248.361 101.837C244.749 102.83 240.638 103.937 236.184 105.119C229.433 155.476 197.915 197.535 151.584 210.279C103.445 223.52 52.8526 201.397 21.4735 158.435Z" fill="#75A874"/>
<path d="M102.797 45.0867C150.938 31.8431 201.529 53.9677 232.907 96.9321L17.506 156.18C22.5 103.211 54.6597 58.3254 102.797 45.0867Z" fill="#79C17A"/>
<path d="M147.616 208.023C195.755 194.782 227.917 149.897 232.906 96.9321L17.5057 156.18C48.8842 199.142 99.4769 221.264 147.616 208.023Z" fill="#67B765"/>
<path d="M248.613 98.42C247.382 99.0822 247.382 99.0822 244.392 99.5807C192.543 113.84 45.6924 149.584 39.6348 150.092C45.0989 147.426 189.575 103.041 241.421 88.7802C244.407 87.9588 245.64 87.6176 245.64 87.6176L248.613 98.42Z" fill="#419734"/>
<path d="M119.006 130.452C119.006 130.452 119.006 130.452 115.98 128.732C102.369 120.993 65.6095 96.6399 64.4674 95.133C66.3491 95.3389 106.075 114.475 119.686 122.213C122.713 123.932 122.713 123.932 122.713 123.932L119.006 130.452Z" fill="#419734"/>
<path d="M173.32 115.513C173.32 115.513 173.32 115.513 170.295 113.793C156.683 106.054 119.924 81.7011 118.784 80.1913C120.665 80.397 160.393 99.534 174.002 107.272C177.028 108.992 177.028 108.992 177.028 108.992L173.32 115.513Z" fill="#419734"/>
<path d="M118.136 127.285C118.136 127.285 118.136 127.285 116.416 130.311C108.677 143.922 89.5415 183.648 89.3359 185.529C90.8476 184.39 115.199 147.63 122.937 134.018C124.658 130.993 124.658 130.993 124.658 130.993L118.136 127.285Z" fill="#419734"/>
<path d="M172.448 112.345C172.448 112.345 172.448 112.345 170.728 115.371C162.991 128.98 143.856 168.709 143.648 170.589C145.16 169.45 169.512 132.687 177.249 119.078C178.972 116.054 178.972 116.054 178.972 116.054L172.448 112.345Z" fill="#419734"/>
<path d="M80.4735 282.435C85.4677 229.467 117.627 184.581 165.765 171.342C212.097 158.597 260.69 178.622 292.247 218.442C296.679 217.181 300.778 216.029 304.39 215.036L307.361 225.837C303.749 226.83 299.638 227.937 295.184 229.119C288.433 279.476 256.915 321.535 210.584 334.279C162.445 347.52 111.853 325.397 80.4735 282.435Z" fill="#75A874"/>
<path d="M161.797 169.087C209.938 155.843 260.529 177.968 291.907 220.932L76.506 280.18C81.5 227.211 113.66 182.325 161.797 169.087Z" fill="#79C17A"/>
<path d="M206.616 332.023C254.755 318.782 286.917 273.897 291.906 220.932L76.5057 280.18C107.884 323.142 158.477 345.264 206.616 332.023Z" fill="#67B765"/>
<path d="M307.613 222.42C306.382 223.082 306.382 223.082 303.392 223.581C251.543 237.84 104.692 273.584 98.6348 274.092C104.099 271.426 248.575 227.041 300.421 212.78C303.407 211.959 304.64 211.618 304.64 211.618L307.613 222.42Z" fill="#419734"/>
<path d="M178.006 254.452C178.006 254.452 178.006 254.452 174.98 252.732C161.369 244.993 124.609 220.64 123.467 219.133C125.349 219.339 165.075 238.475 178.686 246.213C181.713 247.932 181.713 247.932 181.713 247.932L178.006 254.452Z" fill="#419734"/>
<path d="M232.32 239.513C232.32 239.513 232.32 239.513 229.295 237.793C215.683 230.054 178.924 205.701 177.784 204.191C179.665 204.397 219.393 223.534 233.002 231.272C236.028 232.992 236.028 232.992 236.028 232.992L232.32 239.513Z" fill="#419734"/>
<path d="M177.136 251.285C177.136 251.285 177.136 251.285 175.416 254.311C167.677 267.922 148.541 307.648 148.336 309.529C149.848 308.39 174.199 271.63 181.937 258.018C183.658 254.993 183.658 254.993 183.658 254.993L177.136 251.285Z" fill="#419734"/>
</svg>
