<svg width="231" height="419" viewBox="0 0 231 419" fill="none" xmlns="http://www.w3.org/2000/svg">
<path d="M206.063 101.22C156.016 51.7299 85.2765 33.5079 25.2038 60.957C-32.6177 87.3736 -64.9051 148.951 -63.1012 216.142C-68.6678 218.626 -73.8043 220.939 -78.3108 222.999L-72.1524 236.479C-67.6457 234.418 -62.5359 232.051 -57.0129 229.467C-7.40177 274.816 60.2854 290.715 118.105 264.298C178.181 236.85 210.715 171.447 206.063 101.22Z" fill="#75A874"/>
<path d="M27.3127 55.2994C-32.767 82.7458 -65.2983 148.151 -60.6422 218.379L208.171 95.5619C158.125 46.0723 87.3854 27.8503 27.3127 55.2994Z" fill="#79C17A"/>
<path d="M120.213 258.64C60.1375 286.088 -10.603 267.869 -60.642 218.378L208.171 95.5616C212.824 165.789 180.29 231.192 120.213 258.64Z" fill="#67B765"/>
<path d="M-75.3108 233.227C-73.4992 232.853 -73.4992 232.853 -70.0431 230.819C-5.33911 201.254 173.979 112.808 180.554 108.179C172.748 110.115 -11.4987 187.779 -76.2011 217.341C-79.927 219.042 -81.4678 219.744 -81.4678 219.744L-75.3108 233.227Z" fill="#419734"/>
<path d="M83.3639 155.658C83.3639 155.658 83.3639 155.658 84.9725 151.343C92.2078 131.935 108.815 76.0151 108.694 73.5167C106.96 75.3236 82.9127 128.469 75.6773 147.878C74.0656 152.192 74.0656 152.192 74.0656 152.192L83.3639 155.658Z" fill="#419734"/>
<path d="M15.5808 186.627C15.5808 186.627 15.5808 186.627 17.1891 182.312C24.4247 162.903 41.0324 106.984 40.9071 104.484C39.1733 106.291 15.1246 159.44 7.89027 178.846C6.28191 183.16 6.28191 183.16 6.28191 183.16L15.5808 186.627Z" fill="#419734"/>
<path d="M81.5562 151.707C81.5562 151.707 81.5562 151.707 85.8705 153.315C105.279 160.551 158.425 184.598 160.232 186.332C157.731 186.46 101.813 169.85 82.404 162.614C78.0896 161.006 78.0896 161.006 78.0896 161.006L81.5562 151.707Z" fill="#419734"/>
<path d="M13.7748 182.673C13.7748 182.673 13.7748 182.673 18.0896 184.281C37.495 191.516 90.6429 215.567 92.451 217.298C89.9498 217.427 34.0285 200.814 14.6231 193.58C10.307 191.975 10.307 191.975 10.307 191.975L13.7748 182.673Z" fill="#419734"/>
<path d="M170.455 321.435C165.46 268.467 133.301 223.581 85.1631 210.342C38.8311 197.597 -9.76194 217.622 -41.3188 257.442C-45.7506 256.181 -49.85 255.029 -53.4617 254.036L-56.4325 264.837C-52.8206 265.83 -48.7103 266.937 -44.2554 268.119C-37.5043 318.476 -5.98666 360.535 40.3443 373.279C88.4833 386.52 139.076 364.397 170.455 321.435Z" fill="#75A874"/>
<path d="M89.1305 208.087C40.99 194.843 -9.60135 216.968 -40.9788 259.932L174.422 319.18C169.428 266.211 137.268 221.325 89.1305 208.087Z" fill="#79C17A"/>
<path d="M44.3117 371.023C-3.82731 357.782 -35.9892 312.897 -40.9786 259.932L174.422 319.18C143.044 362.142 92.451 384.264 44.3117 371.023Z" fill="#67B765"/>
<path d="M-56.6852 261.42C-55.4538 262.082 -55.4538 262.082 -52.4641 262.581C-0.615248 276.84 146.236 312.584 152.293 313.092C146.829 310.426 2.35335 266.041 -49.493 251.78C-52.4784 250.959 -53.7118 250.618 -53.7118 250.618L-56.6852 261.42Z" fill="#419734"/>
<path d="M72.9224 293.452C72.9224 293.452 72.9224 293.452 75.9484 291.732C89.5596 283.993 126.319 259.64 127.461 258.133C125.579 258.339 85.8534 277.475 72.2422 285.213C69.2149 286.932 69.2149 286.932 69.2149 286.932L72.9224 293.452Z" fill="#419734"/>
<path d="M18.6079 278.513C18.6079 278.513 18.6079 278.513 21.6335 276.793C35.245 269.054 72.0041 244.701 73.1445 243.191C71.2631 243.397 31.5351 262.534 17.9258 270.272C14.9002 271.992 14.9002 271.992 14.9002 271.992L18.6079 278.513Z" fill="#419734"/>
<path d="M73.7917 290.285C73.7917 290.285 73.7917 290.285 75.512 293.311C83.2507 306.922 102.387 346.648 102.592 348.529C101.081 347.39 76.7295 310.63 68.9908 297.018C67.2705 293.993 67.2705 293.993 67.2705 293.993L73.7917 290.285Z" fill="#419734"/>
<path d="M19.4795 275.345C19.4795 275.345 19.4795 275.345 21.1999 278.371C28.9374 291.98 48.0721 331.709 48.2803 333.589C46.7682 332.45 22.4161 295.687 14.6787 282.078C12.956 279.054 12.956 279.054 12.956 279.054L19.4795 275.345Z" fill="#419734"/>
</svg>
