<svg width="1920" height="1080" viewBox="0 0 1920 1080" fill="none" xmlns="http://www.w3.org/2000/svg">
<g clip-path="url(#clip0_121_954)">
<rect width="1920" height="1080" fill="#6892C3"/>
<path d="M1721.23 1219.59L1867.11 1182.75C1905.92 1172.94 1945.69 1167.41 1985.7 1166.24L2321.41 1156.42C2477.62 1151.85 2634.97 1082.61 2680.29 933.043C2725.16 784.963 2721.77 583.93 2498.12 405.983C1849.67 -109.948 98.677 -102.026 -573.274 405.983C-890.227 645.607 -777.326 941.697 -679.999 1098.92C-632.527 1175.61 -553.613 1224.03 -467.979 1252.35C-383.3 1280.34 -292.99 1286.85 -205.172 1271.28L53.2528 1225.46C113.954 1214.69 176.032 1214.21 236.892 1224.03L592.959 1281.49C648.451 1290.44 704.988 1290.84 760.6 1282.66L1195.71 1218.67C1238.51 1212.38 1281.91 1211.15 1324.99 1215.03L1537.3 1234.12C1598.99 1239.67 1661.17 1234.75 1721.23 1219.59Z" fill="#344D6A"/>
</g>
<defs>
<clipPath id="clip0_121_954">
<rect width="1920" height="1080" fill="white"/>
</clipPath>
</defs>
</svg>
