<svg width="128" height="231" viewBox="0 0 128 231" fill="none" xmlns="http://www.w3.org/2000/svg">
<path d="M43.3281 1.33465C41.3879 2.07205 40.4127 4.24297 41.1501 6.18317L59.843 55.3661L65.5338 49.1825L48.1762 3.51278C47.4392 1.57242 45.2683 0.59724 43.3281 1.33465Z" fill="#FF473E"/>
<path d="M3.51373 16.4675C1.57354 17.2049 0.598356 19.3758 1.33576 21.316L18.6934 66.9857L27.0547 67.8285L8.36184 18.6456C7.62444 16.7054 5.45393 15.7301 3.51373 16.4675Z" fill="#FF8882"/>
<path d="M16.785 11.4225C14.8448 12.1599 13.8696 14.3309 14.607 16.2711L33.2999 65.454L40.326 62.7836L21.6331 13.6007C20.8961 11.6603 18.7252 10.6851 16.785 11.4225Z" fill="#FF8882"/>
<path d="M30.0569 6.37957C28.1168 7.11698 27.1416 9.2879 27.879 11.2281L46.5719 60.411L53.5979 57.7406L34.905 8.5577C34.1676 6.6175 31.9971 5.64216 30.0569 6.37957Z" fill="#FF8882"/>
<path d="M45.3545 94.8203L91.4943 216.219C93.4608 221.393 99.249 223.993 104.423 222.026C109.597 220.06 112.197 214.271 110.231 209.098L64.0908 87.6992L45.3545 94.8203Z" fill="#FF473E"/>
<path d="M52.2625 54.2267L59.0262 102.583C71.9591 97.6674 78.4607 83.1936 73.5454 70.2608L65.5342 49.1826L52.2625 54.2267Z" fill="#FF473E"/>
<path d="M52.2623 54.2276L60.2734 75.3059C65.1888 88.2387 64.2018 100.617 59.026 102.584C46.0932 107.499 31.6194 100.997 26.704 88.0646L18.6929 66.9863L52.2623 54.2276Z" fill="#FF8882"/>
</svg>
