<?xml version="1.0" encoding="UTF-8"?>
<svg id="Calque_2" data-name="Calque 2" xmlns="http://www.w3.org/2000/svg" viewBox="0 0 750 193.91">
  <defs>
    <style>
      .cls-1 {
        fill: #fff;
      }

      .cls-2 {
        fill: #e3fbff;
      }
    </style>
  </defs>
  <g id="premierplanmontagne">
    <path class="cls-2" d="M750,193.91H0V50.91S165.84,15.28,211.57,6.33c45.73-8.95,131.61-11.84,211.45,14.79,79.84,26.62,67.98,33.64,110.8,35.34,42.82,1.7,54.68-10.4,79.84-4.34,25.16,6.05,37.01,10.41,62.18,10.41,25.16,0,32.79-15.93,74.16-2.61"/>
    <path class="cls-1" d="M750,58.91c-47-12-49,3.62-74.16,3.61-25.16,0-37.02-4.36-62.18-10.41-25.16-6.05-37.02,6.04-79.84,4.34-42.82-1.7-30.97-8.71-110.8-35.34C343.18-5.5,257.3-2.61,211.57,6.33c0,0,103.55,2.19,142.26,18.16,38.71,15.97,4.35,.24,20.08-1.21,15.73-1.45,51.53,21.54,84.67,35.82,33.14,14.28,37.26,14.28,58.79,14.28,21.53,0,28.79,8.47,48.87,18.64,20.08,10.16-30-20.08,4.36-18.63,34.35,1.46,73.3,24.69,64.6,10.17-8.71-14.52,7.02-18.63,34.36-5.8,27.34,12.83,35.46-16.85,80.46-4.85"/>
  </g>
</svg>