<svg width="422" height="422" viewBox="0 0 422 422" fill="none" xmlns="http://www.w3.org/2000/svg">
<circle cx="211" cy="211" r="211" fill="#F6EEDA"/>
<path d="M297.178 217.464C302.427 207.848 303.26 198.673 303.26 193.669C303.26 173.21 288.202 156.283 268.583 153.339C261.079 101.676 218.357 86.3198 217.867 86.1235C216.886 85.7801 215.758 86.1726 215.218 87.0557C214.679 87.9388 214.777 89.1163 215.561 89.8523C219.78 94.0717 221.545 97.9476 220.957 101.725C219.583 110.9 204.476 118.897 192.361 125.276C189.517 126.797 186.77 128.219 184.317 129.642C179.069 132.635 173.478 135.333 168.033 137.934C149.297 146.961 130.07 156.234 124.233 178.656C122.418 183.268 121.388 188.321 121.388 193.571C121.388 197.839 122.124 206.818 127.176 216.483C108.488 222.861 95 240.622 95 261.523C95 275.506 100.199 309.8 148.267 326.629C170.486 334.381 194.667 336 211 336C296.541 336 327 297.535 327 261.523C327.049 241.603 314.689 224.48 297.178 217.464Z" fill="#A57655"/>
</svg>
