<svg width="120" height="225" viewBox="0 0 120 225" fill="none" xmlns="http://www.w3.org/2000/svg">
<path d="M60.7849 102.994L17.7211 207.193C15.6063 212.311 18.0381 218.168 23.1553 220.283C28.2725 222.398 34.1302 219.966 36.245 214.849L79.3088 110.65L60.7849 102.994Z" fill="#AE3031"/>
<path d="M103.293 6.69902C100.811 5.67323 98.2224 5.2595 95.702 5.38872L59.6742 118.802L73.5673 124.543L112.803 29.6066C116.503 20.6546 112.245 10.3986 103.293 6.69902Z" fill="#FF473E"/>
<path d="M98.9098 23.8642L59.674 118.801L55.0428 116.887C47.4015 113.729 43.7335 104.893 46.8915 97.2522L80.3855 16.2084C83.0574 9.7434 89.1519 5.72884 95.7012 5.38835C100.1 10.2529 101.582 17.3992 98.9098 23.8642Z" fill="#FF8882"/>
</svg>
