<svg width="912" height="779" viewBox="0 0 912 779" fill="none" xmlns="http://www.w3.org/2000/svg">
<circle cx="403.646" cy="337.921" r="313.942" fill="#F6EEDA"/>
<circle cx="404.244" cy="337.323" r="172.22" fill="#E8D8B0"/>
<g clip-path="url(#clip0_345_100)">
<path d="M544.61 165.537C544.61 165.537 552.255 114.54 503.813 100.516C503.819 100.516 496.168 150.235 544.61 165.537Z" fill="#008218"/>
<path d="M542.434 165.537C542.434 165.537 534.786 114.54 583.231 100.516C583.225 100.516 590.879 150.235 542.434 165.537Z" fill="#008218"/>
<path d="M544.042 158.737C544.042 158.737 511.224 118.968 545.525 82C545.525 82 577.69 120.678 544.042 158.737Z" fill="#008218"/>
<path d="M635.899 203.807C635.899 250.858 594.08 289 542.497 289C490.908 289 449.098 250.858 449.098 203.807C449.098 166.211 471.66 136.124 509.764 129.155C528.125 125.799 542.497 140.167 542.497 140.167C542.497 140.167 555.733 126.439 573.284 128.877C610.236 134.008 635.899 162.635 635.899 203.807Z" fill="#FF4A44"/>
<path d="M635.5 198.5C636.333 208.333 633.571 231.298 621 248.5C611.5 261.5 594.5 284 552 289.5" stroke="#D71C16" stroke-width="3" stroke-linecap="round" stroke-linejoin="round"/>
<path d="M532 132.5C528 130.333 517.1 126.8 505.5 130C491 134 481.5 138.5 467.5 152" stroke="#D71C16" stroke-width="3" stroke-linecap="round" stroke-linejoin="round"/>
</g>
<path d="M421.243 41.9826C421.243 41.9826 369.93 31.8169 360.449 79.762C354.766 108.509 398.359 115.248 392.671 88.4493C386.146 57.7243 425.771 59.3836 425.771 59.3836L421.243 41.9826Z" fill="#A0D468"/>
<g opacity="0.1">
<path d="M425.956 59.7382L420.934 42.2183C420.934 42.2183 417.819 41.5439 412.969 41.1962L417.522 57.0975C417.522 57.0975 376.602 54.3993 383.958 85.2973C386.898 97.6711 378.976 102.698 370.06 101.752C381.324 107.782 396.257 104.214 392.385 87.9364C385.034 57.0394 425.956 59.7382 425.956 59.7382Z" fill="black"/>
</g>
<path d="M309.223 198.819L344.397 209.329L381.319 220.362C425.311 233.507 472.802 107.335 436.818 96.5826L316.658 60.6781C280.542 49.8867 265.096 185.634 309.223 198.819Z" fill="#00810D"/>
<g opacity="0.1">
<path d="M326.458 63.9714L317.843 61.3193C279.009 49.3645 265.082 188.248 312.53 202.855L321.144 205.507C273.696 190.9 287.624 52.0166 326.458 63.9714Z" fill="black"/>
</g>
<g opacity="0.1">
<path d="M426.615 90.6416L435.227 93.2927C474.058 105.247 425.681 233.525 378.232 218.918L369.62 216.267C417.063 230.872 465.446 102.596 426.615 90.6416Z" fill="black"/>
</g>
<path d="M408.207 81.7302L347.977 63.7436C321.117 55.7254 317.941 87.1256 310.77 116.953C303.599 146.778 303.141 203.073 324.03 209.311L363.643 221.141C384.533 227.379 411.281 170.893 416.652 148.555C422.023 126.213 435.069 89.7545 408.207 81.7302Z" fill="#0C9D1B"/>
<path d="M716.581 256.276C715.306 256.119 714.059 255.549 713.08 254.572C710.877 252.372 710.867 248.944 713.055 246.919C733.727 227.803 746.336 208.688 753.28 196.019C760.826 182.269 763.5 172.921 763.524 172.829C764.32 169.977 767.41 168.39 770.407 169.287C773.414 170.181 775.203 173.215 774.407 176.067C774.288 176.478 771.492 186.368 763.491 201.049C756.166 214.471 742.862 234.707 721.042 254.885C719.829 256.017 718.177 256.471 716.581 256.276Z" fill="#8CC153"/>
<path d="M732.976 250.515C731.634 250.351 730.332 249.722 729.347 248.652C727.288 246.399 727.441 243.042 729.696 241.162C760.213 215.674 806.072 207.118 808.006 206.765C810.986 206.224 813.958 208.127 814.655 211.014C815.352 213.897 813.5 216.679 810.521 217.216C809.939 217.324 765.471 225.681 737.165 249.321C735.984 250.31 734.455 250.696 732.976 250.515Z" fill="#8CC153"/>
<path d="M693.336 277.415C691.913 277.24 690.543 276.546 689.543 275.374C687.561 273.027 687.853 269.654 690.196 267.84L809.002 176.014C811.354 174.2 814.866 174.632 816.849 176.979C818.832 179.326 818.539 182.699 816.197 184.509L697.39 276.339C696.219 277.244 694.751 277.589 693.336 277.415Z" fill="#A0D468"/>
<path d="M732.954 250.835C731.053 250.604 729.283 249.439 728.415 247.634C727.128 244.955 728.318 241.878 731.069 240.764C759.176 229.425 794.07 227.12 795.536 227.024C798.563 226.836 801.294 229.03 801.626 231.928C801.958 234.823 799.776 237.328 796.748 237.516C796.412 237.541 762.165 239.817 735.745 250.476C734.842 250.841 733.888 250.949 732.954 250.835Z" fill="#A0D468"/>
<path d="M533.024 405.148C514.266 382.071 630.636 274.705 681.623 233.263C715.612 205.635 765.627 267.169 731.638 294.797C680.66 336.232 551.783 428.216 533.024 405.148Z" fill="#FC6E51"/>
<g opacity="0.2">
<path d="M725.308 289.16C677.637 326.001 561.567 404.559 530.89 395.576C531.078 397.665 531.767 399.476 533.019 400.954C552.535 423.998 681.561 337.006 732.496 297.65C751.047 283.315 743.937 258.474 728.137 243.155C738.42 258.084 740.726 277.249 725.308 289.16Z" fill="white"/>
</g>
<path d="M620.738 286.429C625.1 291.841 631.634 299.401 635.593 302.917L635.594 302.909C636.464 303.678 637.56 304.208 638.796 304.36C641.861 304.737 644.546 302.661 644.801 299.719C644.953 297.962 644.202 296.3 642.92 295.165L642.928 295.162C639.365 292.002 632.674 284.179 628.76 279.276C626.099 281.63 623.42 284.019 620.738 286.429Z" fill="#E9573F"/>
<path d="M655.73 254.7C658.622 259.086 664.423 267.179 671.675 273.613L671.676 273.605C672.546 274.375 673.651 274.906 674.879 275.057C677.946 275.434 680.641 273.358 680.896 270.414C681.049 268.656 680.288 266.992 679.006 265.855L679.014 265.853C671.869 259.515 666.111 250.925 664.115 247.779C661.399 249.994 658.601 252.306 655.73 254.7Z" fill="#E9573F"/>
<path d="M587.471 319.096C590.696 323.138 595.554 328.722 599.491 332.221L599.491 332.213C600.361 332.982 601.458 333.512 602.694 333.664C605.759 334.041 608.446 331.964 608.7 329.022C608.853 327.265 608.101 325.602 606.819 324.467L606.828 324.46C603.095 321.16 597.955 315.138 595.2 311.549C592.591 314.067 590.014 316.583 587.471 319.096Z" fill="#E9573F"/>
<path d="M563.352 361.524L563.353 361.516C564.223 362.286 565.32 362.816 566.557 362.968C569.624 363.346 572.312 361.268 572.567 358.323C572.719 356.565 571.967 354.901 570.684 353.764L570.685 353.756C569.219 352.455 565.829 348.777 563.177 345.789C560.702 348.548 558.337 351.266 556.075 353.933C558.408 356.526 561.512 359.892 563.352 361.524Z" fill="#E9573F"/>
<path d="M725.5 300C699.333 320.333 641 364.1 617 376.5" stroke="#E9573F" stroke-width="3" stroke-linecap="round" stroke-linejoin="round"/>
<path d="M772.357 376.627C771.174 376.017 770.157 375.038 769.534 373.784C768.136 370.959 769.275 367.811 772.072 366.753C798.508 356.774 817.127 343.848 828.099 334.764C840.016 324.909 845.737 317.311 845.792 317.235C847.518 314.91 851.044 314.583 853.649 316.503C856.263 318.423 856.981 321.861 855.255 324.186C855.002 324.52 848.981 332.571 836.311 343.114C824.717 352.749 805.048 366.449 777.145 376.982C775.591 377.578 773.838 377.39 772.357 376.627Z" fill="#8CC153"/>
<path d="M789.517 377.123C788.284 376.488 787.245 375.446 786.655 374.117C785.428 371.324 786.688 368.328 789.474 367.435C827.195 355.312 874.011 364.131 875.983 364.51C879.02 365.097 881.239 367.902 880.95 370.778C880.662 373.651 877.963 375.509 874.928 374.919C874.334 374.807 828.917 366.31 793.93 377.554C792.47 378.025 790.875 377.823 789.517 377.123Z" fill="#8CC153"/>
<path d="M742.703 387.403C741.389 386.725 740.299 385.593 739.725 384.16C738.593 381.297 739.995 378.327 742.856 377.526L887.861 337.089C890.73 336.292 893.972 337.967 895.104 340.83C896.235 343.692 894.833 346.662 891.974 347.459L746.967 387.9C745.538 388.299 744.009 388.078 742.703 387.403Z" fill="#A0D468"/>
<path d="M789.475 377.878C787.736 376.986 786.434 375.293 786.207 373.342C785.869 370.447 788.029 368.079 791.027 368.055C821.642 367.843 855.731 378.27 857.163 378.708C860.117 379.624 861.994 382.596 861.346 385.348C860.7 388.096 857.783 389.588 854.828 388.673C854.499 388.575 821.037 378.353 792.259 378.553C791.276 378.561 790.329 378.317 789.475 377.878Z" fill="#A0D468"/>
<path d="M548.69 453.565C539.145 425.4 685.626 365.293 747.855 344.206C789.339 330.147 814.788 405.249 773.304 419.308C711.086 440.391 558.239 481.722 548.69 453.565Z" fill="#FC6E51"/>
<g opacity="0.2">
<path d="M771.01 414.116C712.862 430.333 574.98 459.661 548.412 440.299C547.901 442.271 547.963 444.173 548.678 445.976C559.827 474.09 712.987 441.794 775.115 424.473C797.742 418.164 799.141 392.931 789.007 373.212C793.956 390.565 789.814 408.875 771.01 414.116Z" fill="white"/>
</g>
<path d="M671.859 372.774C674.265 379.299 678.051 388.574 680.699 393.223L680.702 393.216C681.285 394.234 682.166 395.117 683.306 395.706C686.134 397.166 689.411 396.252 690.634 393.662C691.364 392.116 691.192 390.327 690.333 388.824L690.343 388.824C687.958 384.644 684.108 375.072 681.965 369.175C678.618 370.353 675.243 371.554 671.859 372.774Z" fill="#E9573F"/>
<path d="M715.671 355.242C717.003 360.297 719.907 369.795 724.761 378.307L724.764 378.3C725.348 379.32 726.237 380.207 727.37 380.792C730.201 382.255 733.489 381.343 734.713 378.751C735.444 377.203 735.264 375.408 734.405 373.904L734.414 373.904C729.631 365.518 726.933 355.583 726.054 351.985C722.7 353.016 719.235 354.105 715.671 355.242Z" fill="#E9573F"/>
<path d="M629.362 391.781C631.128 396.642 633.955 403.506 636.588 408.131L636.591 408.124C637.174 409.143 638.055 410.026 639.196 410.615C642.025 412.077 645.304 411.162 646.527 408.571C647.257 407.025 647.085 405.234 646.226 403.731L646.237 403.728C643.735 399.358 640.781 391.993 639.318 387.715C635.967 389.061 632.648 390.417 629.362 391.781Z" fill="#E9573F"/>
<path d="M592.4 423.039L592.403 423.032C592.987 424.052 593.869 424.935 595.01 425.525C597.843 426.988 601.125 426.072 602.349 423.479C603.08 421.931 602.907 420.139 602.048 418.634L602.051 418.627C601.07 416.904 599.023 412.313 597.459 408.62C594.155 410.234 590.972 411.852 587.905 413.46C589.293 416.676 591.168 420.879 592.4 423.039Z" fill="#E9573F"/>
<path d="M732 349.5C739.667 345 759.9 338.971 771.5 345.771C780.421 351 786.333 357.604 786.5 359.27" stroke="#E9573F" stroke-width="3" stroke-linecap="round" stroke-linejoin="round"/>
<path d="M503.012 451.235C497.894 447.678 483.041 442.868 478.654 446.786C453.677 465.821 371.687 524.26 308.304 509.536C308.304 509.536 272.641 506.693 233.917 466.059C233.917 466.059 211.387 425.762 204.849 409.885C203.375 406.47 200.701 403.883 197.241 402.727C192.352 400.786 186.721 402.903 183.35 407.007L176.192 414.615C171.435 420.563 171.153 427.852 174.7 434.269L197.142 469.306C197.142 469.306 162.261 525.337 231.238 584.081C231.238 584.081 315.438 645.606 437.575 579.818C437.575 579.818 499.239 552.276 514.855 469.654C515.182 464.994 507.116 454.606 503.012 451.235Z" fill="#F8B64C"/>
<path d="M360.166 649.893C360.166 649.893 429.119 644.665 475.885 570.518C481.352 562.377 471.413 547.794 471.413 547.794C453.298 565.661 437.421 573.341 437.421 573.341C311.44 644.394 228.575 586.11 228.575 586.11C160.991 530.045 198.24 472.911 198.24 472.911C198.24 472.911 200.302 461.122 212.876 444.553C212.006 436.543 211.758 428.098 211.062 421.691C209.696 418.339 208.106 416.005 207.534 413.82C206.168 410.468 203.559 407.987 200.104 406.96C195.234 405.202 189.47 407.518 185.916 411.732L179.033 419.142C175.48 423.356 174.361 428.449 174.884 433.255C174.884 433.255 175.281 433.839 174.66 434.274L180.349 468.212C180.349 468.212 126.031 509.728 166.854 587.133C166.853 587.132 220.199 672.138 360.166 649.893Z" fill="#FFD15C"/>
<path d="M172.125 428.994C170.995 424.675 172.714 419.212 176.228 415.048L182.64 407.15C186.153 402.985 191.633 401.703 196.669 402.434C200.084 403.449 202.664 405.9 204.015 409.213C204.58 411.372 206.545 414.254 207.503 416.99C207.946 414.977 207.995 412.387 207.43 410.228C207.701 406.631 205.736 403.75 203.156 401.298C199.176 398.124 193.525 397.823 188.832 400.257L179.84 405.704C173.304 409.429 170.135 416.759 171.216 423.668L172.125 428.994Z" fill="#FFD15C"/>
<path d="M197.143 469.307C197.143 469.307 198.767 457.543 210.638 441.358C212.332 457.923 215.226 473.659 215.226 473.659C236.731 525.306 268.97 541.158 268.97 541.158C323.201 577.282 420.527 552.584 450.525 543.38C455.555 541.677 461.46 543.804 465.378 548.19L470.355 555.392C453.039 572.68 437.577 579.819 437.577 579.819C315.44 645.607 231.24 584.083 231.24 584.083C162.264 525.338 197.143 469.307 197.143 469.307Z" fill="#FCC556"/>
<path d="M702.5 440.5C676.667 447.167 617.9 461 589.5 463C561.1 465 550.667 459.167 549 456" stroke="#E9573F" stroke-width="3" stroke-linecap="round" stroke-linejoin="round"/>
<path d="M179.196 175.997L166.978 166.942L179.379 162.287L178.292 149.84L192.321 152.06L198.68 163.531L179.196 175.997Z" fill="#9AC676"/>
<path d="M219.576 153.611L218.372 138.452L207.852 146.503L197.873 138.986L192.321 152.06L198.68 163.53L219.576 153.611Z" fill="#85B932"/>
<path d="M198.505 163.215C198.505 163.215 198.864 163.016 195.681 164.782C191.764 166.954 186.761 169.726 183.905 171.309C178.723 174.179 168.317 188.724 178.303 206.737C188.291 224.751 211.756 233.081 220.386 234.894C229.445 236.797 235.292 234.018 237.177 232.974L198.505 163.215Z" fill="#EA5756"/>
<path d="M198.505 163.215C198.505 163.215 198.146 163.414 201.333 161.649C205.247 159.478 210.249 156.706 213.105 155.121C218.285 152.25 236.134 151.129 246.12 169.143C256.105 187.156 250.735 211.474 247.7 219.751C244.514 228.442 239.061 231.928 237.178 232.973L198.505 163.215Z" fill="#E8413E"/>
<g opacity="0.75">
<path d="M192.602 196.002C194.061 198.635 194.059 201.428 192.596 202.239C191.134 203.05 188.764 201.572 187.305 198.939C185.844 196.306 185.847 193.513 187.311 192.703C188.772 191.891 191.143 193.369 192.602 196.002Z" fill="#B31E24"/>
<path d="M211.302 208.492C212.761 211.126 212.76 213.918 211.296 214.728C209.833 215.539 207.462 214.062 206.003 211.429C204.545 208.795 204.545 206.003 206.009 205.193C207.473 204.381 209.843 205.859 211.302 208.492Z" fill="#B31E24"/>
<path d="M213.795 184.254C215.253 186.887 215.252 189.679 213.789 190.49C212.325 191.301 209.957 189.824 208.496 187.19C207.037 184.557 207.038 181.764 208.502 180.953C209.966 180.142 212.336 181.62 213.795 184.254Z" fill="#B31E24"/>
<path d="M232.869 173.68C234.328 176.312 234.327 179.105 232.863 179.916C231.399 180.728 229.031 179.251 227.57 176.618C226.111 173.984 226.112 171.192 227.578 170.381C229.04 169.569 231.41 171.047 232.869 173.68Z" fill="#B31E24"/>
<path d="M235.438 195.807C236.897 198.44 236.894 201.232 235.432 202.044C233.969 202.855 231.599 201.377 230.139 198.744C228.681 196.111 228.682 193.319 230.146 192.507C231.61 191.696 233.98 193.173 235.438 195.807Z" fill="#B31E24"/>
<path d="M232.005 217.103C233.464 219.735 233.463 222.528 231.999 223.339C230.538 224.149 228.168 222.673 226.706 220.038C225.247 217.406 225.251 214.613 226.712 213.802C228.176 212.992 230.546 214.468 232.005 217.103Z" fill="#B31E24"/>
</g>
<path d="M141.575 284.014L126.368 283.962L133.598 272.863L125.345 263.482L137.961 256.955L149.88 262.425L141.575 284.014Z" fill="#9AC676"/>
<path d="M160.832 242.051L150.878 230.555L147.175 243.274L134.683 243.134L137.96 256.955L149.88 262.425L160.832 242.051Z" fill="#85B932"/>
<path d="M149.553 262.275C149.553 262.275 149.724 261.902 148.207 265.211C146.339 269.282 143.952 274.479 142.591 277.447C140.118 282.83 140.357 300.713 159.075 309.303C177.796 317.892 201.634 310.694 209.659 307.04C218.084 303.204 221.146 297.5 222.045 295.542L149.553 262.275Z" fill="#EA5756"/>
<path d="M149.553 262.275C149.553 262.275 149.382 262.648 150.902 259.338C152.768 255.27 155.154 250.072 156.515 247.103C158.986 241.721 172.698 230.239 191.417 238.83C210.136 247.42 220.223 270.19 222.684 278.655C225.269 287.543 222.943 293.584 222.045 295.541L149.553 262.275Z" fill="#E8413E"/>
<g opacity="0.75">
<path d="M164.229 292.181C166.965 293.438 168.619 295.688 167.921 297.209C167.225 298.728 164.44 298.943 161.704 297.686C158.966 296.432 157.314 294.18 158.013 292.66C158.709 291.14 161.494 290.926 164.229 292.181Z" fill="#B31E24"/>
<path d="M186.695 291.159C189.43 292.416 191.085 294.665 190.386 296.185C189.687 297.706 186.903 297.921 184.167 296.665C181.431 295.408 179.777 293.159 180.476 291.639C181.174 290.117 183.959 289.903 186.695 291.159Z" fill="#B31E24"/>
<path d="M174.337 270.16C177.072 271.416 178.726 273.666 178.028 275.186C177.33 276.707 174.547 276.921 171.809 275.665C169.073 274.409 167.419 272.159 168.117 270.638C168.816 269.118 171.601 268.903 174.337 270.16Z" fill="#B31E24"/>
<path d="M183.432 250.338C186.168 251.593 187.822 253.843 187.124 255.364C186.426 256.885 183.643 257.099 180.905 255.844C178.17 254.588 176.515 252.338 177.216 250.816C177.912 249.295 180.697 249.081 183.432 250.338Z" fill="#B31E24"/>
<path d="M198.616 266.637C201.352 267.893 203.004 270.144 202.308 271.664C201.61 273.184 198.825 273.399 196.089 272.143C193.354 270.887 191.699 268.638 192.398 267.116C193.096 265.595 195.88 265.38 198.616 266.637Z" fill="#B31E24"/>
<path d="M208.472 285.824C211.208 287.08 212.862 289.329 212.164 290.851C211.467 292.369 208.683 292.584 205.945 291.329C203.209 290.074 201.557 287.822 202.253 286.303C202.952 284.782 205.736 284.567 208.472 285.824Z" fill="#B31E24"/>
</g>
<path d="M222.187 342.787L214.776 336.239L223.071 333.915L223.061 325.79L232.026 328.011L235.506 335.798L222.187 342.787Z" fill="#9AC676"/>
<path d="M249.597 330.537L249.663 320.649L242.398 325.278L236.352 319.851L232.026 328.012L235.506 335.798L249.597 330.537Z" fill="#85B932"/>
<path d="M235.41 335.583C235.41 335.583 235.654 335.474 233.493 336.44C230.834 337.629 227.438 339.146 225.499 340.012C221.982 341.583 214.428 350.425 219.893 362.653C225.359 374.881 240.097 381.587 245.587 383.243C251.35 384.982 255.293 383.507 256.573 382.936L235.41 335.583Z" fill="#EA5756"/>
<path d="M235.41 335.583C235.41 335.583 235.167 335.692 237.329 334.726C239.986 333.538 243.382 332.021 245.321 331.154C248.837 329.583 260.464 329.852 265.928 342.08C271.392 354.308 266.556 369.763 264.128 374.956C261.579 380.41 257.851 382.364 256.573 382.936L235.41 335.583Z" fill="#E8413E"/>
<g opacity="0.75">
<path d="M229.756 356.495C230.554 358.283 230.398 360.092 229.404 360.536C228.412 360.98 226.959 359.89 226.161 358.102C225.361 356.315 225.519 354.506 226.512 354.062C227.504 353.618 228.958 354.708 229.756 356.495Z" fill="#B31E24"/>
<path d="M241.174 365.631C241.973 367.418 241.816 369.227 240.823 369.671C239.829 370.114 238.376 369.025 237.578 367.238C236.78 365.45 236.936 363.641 237.929 363.198C238.923 362.754 240.376 363.843 241.174 365.631Z" fill="#B31E24"/>
<path d="M244.142 350.066C244.94 351.854 244.784 353.663 243.79 354.106C242.797 354.55 241.345 353.461 240.545 351.673C239.747 349.885 239.903 348.076 240.897 347.632C241.891 347.189 243.344 348.279 244.142 350.066Z" fill="#B31E24"/>
<path d="M257.09 344.28C257.888 346.066 257.732 347.876 256.738 348.32C255.744 348.764 254.293 347.675 253.493 345.887C252.694 344.1 252.851 342.291 253.846 341.847C254.838 341.402 256.291 342.492 257.09 344.28Z" fill="#B31E24"/>
<path d="M257.52 358.758C258.318 360.546 258.16 362.354 257.168 362.799C256.175 363.242 254.722 362.152 253.923 360.366C253.125 358.578 253.281 356.769 254.275 356.325C255.269 355.881 256.722 356.971 257.52 358.758Z" fill="#B31E24"/>
<path d="M254.107 372.364C254.905 374.151 254.749 375.96 253.755 376.404C252.764 376.848 251.31 375.759 250.51 373.971C249.712 372.184 249.87 370.375 250.862 369.931C251.856 369.487 253.309 370.576 254.107 372.364Z" fill="#B31E24"/>
</g>
<defs>
<clipPath id="clip0_345_100">
<rect width="207" height="207" fill="white" transform="translate(439 82)"/>
</clipPath>
</defs>
</svg>
