<svg width="339" height="462" viewBox="0 0 339 462" fill="none" xmlns="http://www.w3.org/2000/svg">
<path fill-rule="evenodd" clip-rule="evenodd" d="M104.274 52.2413C104.274 51.79 104.27 51.3407 104.257 50.8914C104.247 50.4442 104.23 49.997 104.207 49.5519C104.184 49.1068 104.157 48.6638 104.124 48.2208C104.09 47.7778 104.051 47.3369 104.005 46.8981C103.961 46.4592 103.911 46.0225 103.856 45.5858C103.8 45.1511 103.739 44.7165 103.672 44.2839C103.608 43.8514 103.537 43.4209 103.459 42.9925C103.382 42.5641 103.3 42.1358 103.215 41.7116C103.127 41.2853 103.035 40.8632 102.937 40.4411C102.841 40.021 102.738 39.601 102.63 39.1831C102.523 38.7672 102.41 38.3514 102.293 37.9376C102.176 37.5239 102.053 37.1143 101.928 36.7048C101.8 36.2952 101.668 35.8898 101.531 35.4844C101.395 35.079 101.253 34.6778 101.106 34.2766C100.96 33.8774 100.807 33.4783 100.653 33.0834C100.496 32.6884 100.335 32.2956 100.17 31.9048C100.005 31.5141 99.8358 31.1254 99.6603 30.7409C99.4868 30.3543 99.3071 29.9719 99.1232 29.5916C98.9414 29.2092 98.7534 28.8309 98.5611 28.4569C98.3689 28.0807 98.1724 27.7088 97.9697 27.3389C97.7691 26.9691 97.5643 26.6013 97.3533 26.2356C97.1443 25.872 96.9312 25.5105 96.7118 25.1511C96.4944 24.7916 96.2729 24.4343 96.0452 24.0812C95.8195 23.728 95.5875 23.379 95.3535 23.0301C95.1195 22.6832 94.8812 22.3384 94.6367 21.9978C94.3943 21.6572 94.1478 21.3186 93.897 20.9822C93.6462 20.6479 93.3913 20.3156 93.1343 19.9854C92.8752 19.6574 92.6119 19.3314 92.3465 19.0096C92.0811 18.6857 91.8094 18.368 91.5357 18.0525C91.264 17.7349 90.9861 17.4235 90.704 17.1143C90.424 16.805 90.1398 16.4978 89.8514 16.1969C89.5631 15.8939 89.2705 15.5951 88.9759 15.3004C88.6791 15.0037 88.3803 14.7112 88.0773 14.4228C87.7764 14.1344 87.4692 13.8502 87.16 13.5702C86.8507 13.2881 86.5393 13.0102 86.2217 12.7385C85.9062 12.4648 85.5885 12.1931 85.2646 11.9277C84.9428 11.6624 84.6169 11.3991 84.2888 11.1399C83.9586 10.8829 83.6264 10.628 83.292 10.3772C82.9556 10.1265 82.6171 9.87988 82.2764 9.63748C81.9358 9.39299 81.591 9.15477 81.2442 8.92073C80.8952 8.68668 80.5462 8.45473 80.1931 8.22905C79.8399 8.00128 79.4826 7.77978 79.1232 7.56245C78.7637 7.34304 78.4022 7.1299 78.0386 6.92093C77.6729 6.70988 77.3052 6.50509 76.9353 6.30448C76.5654 6.10178 76.1935 5.90536 75.8173 5.71311C75.4433 5.52086 75.0651 5.33279 74.6826 5.15099C74.3023 4.9671 73.9199 4.78739 73.5333 4.61395C73.1488 4.43842 72.7602 4.26916 72.3694 4.10408C71.9786 3.939 71.5858 3.77809 71.1908 3.62137C70.7959 3.46674 70.3968 3.31419 69.9977 3.16792C69.5964 3.02164 69.1952 2.87954 68.7898 2.74371C68.3844 2.6058 67.979 2.47415 67.5695 2.34668C67.1599 2.2213 66.7503 2.09801 66.3366 1.98099C65.9228 1.86397 65.507 1.75113 65.0911 1.64455C64.6732 1.5359 64.2532 1.4335 63.8332 1.33738C63.4111 1.23917 62.989 1.14722 62.5627 1.05946C62.1385 0.973778 61.7101 0.892281 61.2817 0.814964C60.8533 0.737648 60.4229 0.666595 59.9903 0.601822C59.5577 0.53495 59.1231 0.47435 58.6884 0.417931C58.2517 0.363602 57.815 0.313446 57.3761 0.269562C56.9373 0.223595 56.4964 0.183891 56.0534 0.150452C55.6104 0.11702 55.1674 0.0898514 54.7223 0.0668716C54.2772 0.0438843 53.83 0.0271683 53.3828 0.016716C52.9335 0.00418091 52.4843 0 52.0329 0C51.5836 0 51.1343 0.00418091 50.6851 0.016716C50.2379 0.0271683 49.7907 0.0438843 49.3456 0.0668716C48.9005 0.0898514 48.4575 0.11702 48.0145 0.150452C47.5715 0.183891 47.1327 0.223595 46.6918 0.269562C46.2529 0.313446 45.8162 0.363602 45.3794 0.417931C44.9448 0.47435 44.5102 0.53495 44.0776 0.601822C43.645 0.666595 43.2146 0.737648 42.7862 0.814964C42.3578 0.892281 41.9315 0.973778 41.5052 1.05946C41.081 1.14722 40.6568 1.23917 40.2368 1.33738C39.8147 1.4335 39.3947 1.5359 38.9789 1.64455C38.5609 1.75113 38.1451 1.86397 37.7313 1.98099C37.3197 2.09801 36.908 2.2213 36.4984 2.34668C36.0909 2.47415 35.6835 2.6058 35.2781 2.74371C34.8748 2.87954 34.4715 3.02164 34.0723 3.16792C33.6711 3.31419 33.2741 3.46674 32.8792 3.62137C32.4821 3.77809 32.0893 3.939 31.6985 4.10408C31.3077 4.26916 30.9211 4.43842 30.5346 4.61395C30.1501 4.78739 29.7656 4.9671 29.3852 5.15099C29.0049 5.33279 28.6267 5.52086 28.2506 5.71311C27.8765 5.90536 27.5025 6.10178 27.1326 6.30448C26.7627 6.50509 26.395 6.70988 26.0314 6.92093C25.6657 7.1299 25.3042 7.34304 24.9447 7.56245C24.5853 7.77978 24.2301 8.00128 23.8769 8.22905C23.5238 8.45473 23.1727 8.68668 22.8258 8.92073C22.479 9.15477 22.1342 9.39299 21.7915 9.63748C21.4508 9.87988 21.1123 10.1265 20.778 10.3772C20.4415 10.628 20.1093 10.8829 19.7812 11.1399C19.451 11.3991 19.1272 11.6624 18.8033 11.9277C18.4814 12.1931 18.1617 12.4648 17.8462 12.7385C17.5307 13.0102 17.2172 13.2881 16.9079 13.5702C16.5987 13.8502 16.2936 14.1344 15.9906 14.4228C15.6876 14.7112 15.3888 15.0037 15.0941 15.3004C14.7974 15.5951 14.5069 15.8939 14.2186 16.1969C13.9302 16.4978 13.646 16.805 13.3639 17.1143C13.0839 17.4235 12.8059 17.7349 12.5322 18.0525C12.2585 18.368 11.9889 18.6857 11.7214 19.0096C11.456 19.3314 11.1927 19.6574 10.9357 19.9854C10.6766 20.3156 10.4217 20.6479 10.1709 20.9822C9.92014 21.3186 9.67356 21.6572 9.43116 21.9978C9.18876 22.3384 8.94845 22.6832 8.71441 23.0301C8.48037 23.379 8.24842 23.728 8.02274 24.0812C7.79706 24.4343 7.57346 24.7916 7.35613 25.1511C7.13672 25.5105 6.92358 25.872 6.71461 26.2356C6.50356 26.6034 6.29876 26.9753 6.09815 27.3494C5.89754 27.7234 5.70113 28.1016 5.50887 28.4799C5.31454 28.8602 5.12856 29.2426 4.94467 29.6271C4.76079 30.0137 4.58107 30.4003 4.40763 30.791C4.2321 31.1818 4.06284 31.5726 3.89776 31.9696C3.73268 32.3645 3.57178 32.7616 3.41714 33.1607C3.26042 33.5598 3.10995 33.9631 2.96368 34.3685C2.81531 34.7718 2.67531 35.1835 2.53739 35.6056C2.40157 36.0298 2.26783 36.454 2.14036 36.8803C2.01498 37.3087 1.89168 37.737 1.77466 38.1675C1.65764 38.6001 1.5448 39.0326 1.43823 39.4673C1.32957 39.904 1.22719 40.3407 1.13107 40.7796C1.03285 41.2184 0.940903 41.6614 0.853134 42.1044C0.767464 42.5474 0.685959 42.9925 0.608643 43.4397C0.531326 43.8869 0.460274 44.3341 0.395493 44.7854C0.328621 45.2347 0.268028 45.6882 0.211609 46.1416C0.165634 46.6076 0.132195 47.0841 0.105026 47.5626C0.0778656 48.0411 0.0548782 48.5217 0.0381622 49.0024C0.0214386 49.4851 0.00891876 49.9678 0.0026474 50.4526C-0.00153351 50.9374 -0.00153351 51.4222 0.0026474 51.9112C0.00888707 52.3956 0.0192655 52.8821 0.0358341 53.3686C0.0360024 53.3735 0.0361784 53.3785 0.0363601 53.3834C0.0381159 53.4312 0.0482858 53.7092 0.0653305 54.2035C0.0691352 54.3272 0.073811 54.4647 0.0789511 54.6159L0.0792084 54.6234L0.0792473 54.6246C0.0853253 54.8032 0.0920477 55.0008 0.0987701 55.217C0.106163 55.4197 0.113556 55.639 0.121483 55.8743C0.12925 56.1046 0.137535 56.3503 0.146835 56.6108C0.155876 56.8649 0.164917 57.1326 0.174416 57.4141L0.174418 57.4141C0.184679 57.7181 0.195481 58.0381 0.20742 58.3744C0.220566 58.6373 0.23629 58.9118 0.252571 59.1959L0.265938 59.4297L0.292061 59.8945L0.292711 59.9061C0.304956 60.1252 0.317487 60.3493 0.330719 60.579C0.343399 60.7981 0.35672 61.0217 0.370331 61.2501L0.370643 61.2553C0.38159 61.4391 0.392722 61.6259 0.403854 61.8161C0.41624 62.0469 0.42984 62.2813 0.443669 62.5196L0.443787 62.5216L0.443806 62.522C0.455603 62.7254 0.467566 62.9316 0.479088 63.1409C0.506256 63.5986 0.533417 64.0688 0.560577 64.5515C0.577713 64.8572 0.595673 65.1687 0.613945 65.4856L0.646255 66.0477L0.674522 66.5374L0.674575 66.5383C0.695173 66.8936 0.716127 67.255 0.736114 67.6232L0.770065 68.2112L0.770468 68.2182C0.790571 68.5673 0.810979 68.9217 0.832237 69.2803C0.847183 69.5335 0.86171 69.7891 0.876373 70.0472L0.87659 70.051C0.89467 70.3691 0.912966 70.6911 0.932533 71.0168C0.943426 71.2095 0.954543 71.4035 0.965736 71.5989L0.966049 71.6044C0.989113 72.0068 1.01249 72.4149 1.03493 72.8286C1.04639 73.0276 1.05808 73.2279 1.06985 73.4295L1.07023 73.436L1.07044 73.4396C1.09492 73.8592 1.11973 74.2845 1.1436 74.7155C1.16241 75.0352 1.18121 75.3592 1.20001 75.6872L1.20184 75.719C1.22005 76.0347 1.23851 76.3548 1.26479 76.6944C1.2767 76.8482 1.28899 77.0028 1.30135 77.158L1.30196 77.1658C1.3176 77.3623 1.33331 77.5599 1.34837 77.7581C1.36493 77.9614 1.38081 78.1648 1.39678 78.3693L1.39693 78.3711L1.39768 78.3808C1.40965 78.5339 1.42166 78.6877 1.43405 78.8426C1.45033 79.0449 1.46597 79.2485 1.48167 79.4531C1.49419 79.6161 1.50675 79.7798 1.51973 79.9438C1.54899 80.3137 1.57824 80.6878 1.60749 81.0639C1.63884 81.44 1.66809 81.8183 1.69734 82.2007C1.71491 82.415 1.73182 82.6299 1.74881 82.8459L1.74899 82.8482L1.74937 82.853C1.76251 83.0201 1.7757 83.1878 1.78929 83.3562C1.81372 83.679 1.83961 84.0048 1.86573 84.3334L1.86601 84.3369L1.88124 84.5285C1.8957 84.6918 1.91051 84.8558 1.92538 85.0205L1.92576 85.0247C1.9473 85.2633 1.96896 85.5033 1.98991 85.7447C2.00582 85.9179 2.0221 86.0919 2.03844 86.2665L2.03883 86.2707C2.061 86.5075 2.08326 86.7453 2.10484 86.9839L2.12916 87.252C2.15874 87.5785 2.18861 87.9081 2.21976 88.2377C2.24918 88.5678 2.27987 88.8979 2.31084 89.2311L2.33678 89.5103C2.36803 89.8645 2.40073 90.2201 2.43367 90.5783L2.4538 90.7975C2.49351 91.2301 2.53321 91.6647 2.57291 92.1014L2.59274 92.3198C2.62589 92.685 2.65927 93.0528 2.69411 93.4221C2.72706 93.7897 2.76144 94.1588 2.79608 94.5304L2.81741 94.7595C2.86129 95.2213 2.90726 95.6873 2.95323 96.1533L2.96753 96.2989C3.00875 96.7188 3.05015 97.1405 3.09323 97.5638L3.10536 97.6885C3.1473 98.1195 3.18942 98.5523 3.23325 98.9869C3.27922 99.4654 3.32728 99.946 3.37534 100.427C3.41616 100.855 3.45865 101.286 3.50131 101.718L3.50238 101.728L3.51744 101.881L3.51753 101.882C3.56557 102.371 3.61361 102.859 3.66372 103.358C3.68477 103.57 3.70618 103.782 3.72766 103.995L3.72878 104.006C3.7581 104.296 3.78752 104.588 3.81626 104.88C3.84499 105.16 3.87309 105.441 3.90125 105.723C3.92429 105.953 3.94738 106.184 3.97089 106.416C4.02313 106.93 4.07537 107.446 4.12762 107.966C4.17986 108.484 4.23209 109.005 4.28434 109.529L4.31019 109.788C4.35386 110.225 4.39778 110.665 4.44315 111.105L4.44379 111.111L4.44388 111.112C4.49588 111.638 4.54789 112.165 4.60197 112.695C4.65907 113.183 4.7178 113.673 4.77673 114.164L4.80049 114.363C4.86736 114.92 4.93422 115.48 5.00108 116.043C5.0389 116.36 5.07604 116.678 5.11326 116.997L5.11364 117C5.14213 117.244 5.17067 117.488 5.1996 117.733L5.25815 118.226C5.30714 118.637 5.35735 119.059 5.40648 119.482C5.4467 119.819 5.48626 120.156 5.52589 120.494C5.55627 120.753 5.58671 121.013 5.61754 121.273C5.64788 121.536 5.67864 121.799 5.70944 122.063L5.70992 122.067C5.74895 122.402 5.78805 122.737 5.8265 123.072C5.85688 123.336 5.88766 123.601 5.9185 123.866L5.91888 123.869L5.91898 123.87C5.95798 124.205 5.99705 124.541 6.03547 124.878C6.06734 125.157 6.09965 125.436 6.13199 125.716L6.13327 125.727L6.1336 125.73C6.17072 126.051 6.20787 126.372 6.24443 126.694C6.31339 127.3 6.38235 127.908 6.45131 128.518C6.52226 129.125 6.59112 129.734 6.65998 130.344L6.66011 130.345L6.66027 130.346L6.714 130.823C6.76725 131.295 6.8208 131.771 6.87552 132.246L6.88204 132.304L6.88296 132.312C6.95152 132.925 7.0201 133.539 7.08866 134.154C7.15512 134.733 7.21985 135.314 7.28442 135.893L7.30389 136.068C7.37286 136.707 7.4648 137.388 7.56718 138.095C7.66884 138.794 7.7705 139.495 7.87216 140.196L7.87437 140.212C7.97676 140.916 8.08125 141.637 8.18573 142.366C8.29021 143.093 8.3947 143.82 8.49918 144.55C8.59309 145.201 8.6853 145.856 8.77735 146.51L8.80844 146.731L8.84113 146.963C8.9326 147.613 9.0239 148.261 9.11353 148.911C9.21383 149.638 9.31413 150.363 9.41444 151.088C9.51265 151.813 9.61714 152.547 9.7467 153.326C9.88044 154.11 10.0142 154.893 10.1479 155.679C10.2137 156.07 10.279 156.461 10.3443 156.851C10.4096 157.242 10.4749 157.633 10.5408 158.024C10.6542 158.704 10.7659 159.386 10.8775 160.067L10.9253 160.358C11.0527 161.133 11.1781 161.908 11.3014 162.682C11.4179 163.398 11.5307 164.114 11.6433 164.829L11.6692 164.993C11.7987 165.774 11.9408 166.577 12.0829 167.379C12.1737 167.897 12.2662 168.42 12.3599 168.95L12.5134 169.82L12.6569 170.64C12.7533 171.19 12.8496 171.741 12.946 172.29L13.0184 172.714C13.1342 173.391 13.2498 174.067 13.3639 174.741L13.4656 175.349C13.5674 175.958 13.6689 176.565 13.7693 177.171C13.8637 177.748 13.9581 178.328 14.0533 178.914L14.0554 178.926L14.1663 179.608C14.298 180.425 14.4463 181.271 14.5968 182.126C14.7451 182.976 14.8914 183.823 15.0356 184.667C15.1577 185.378 15.2768 186.088 15.3967 186.802L15.4619 187.191C15.604 188.039 15.744 188.884 15.8819 189.726C16.0177 190.562 16.1598 191.408 16.3145 192.271C16.4338 192.943 16.5519 193.612 16.6697 194.28L16.7679 194.837L16.847 195.291L16.8481 195.298C16.9717 196.008 17.0948 196.715 17.2151 197.42L17.2879 197.851C17.4078 198.561 17.5271 199.268 17.6435 199.971C17.7168 200.403 17.7906 200.834 17.8644 201.265C17.9379 201.695 18.0114 202.125 18.0844 202.554C18.1663 203.039 18.2495 203.527 18.3329 204.016L18.3365 204.037C18.3988 204.403 18.4612 204.769 18.5232 205.135C18.6674 205.994 18.8095 206.846 18.9495 207.697C19.0874 208.543 19.2233 209.385 19.357 210.23C19.459 210.863 19.5656 211.511 19.6726 212.161L19.6731 212.164L19.7791 212.808C19.9191 213.669 20.057 214.526 20.1929 215.376C20.3245 216.223 20.4541 217.063 20.5815 217.899C20.6565 218.404 20.7337 218.913 20.811 219.421C20.8608 219.749 20.9106 220.077 20.9598 220.404C21.0831 221.232 21.2022 222.053 21.3192 222.87C21.432 223.687 21.5428 224.498 21.6514 225.306C21.7359 225.944 21.8361 226.601 21.9364 227.259L21.9364 227.259L21.9384 227.272C21.964 227.44 21.9897 227.608 22.015 227.776C22.1383 228.598 22.2637 229.423 22.3975 230.259C22.527 231.095 22.6545 231.928 22.7778 232.758L22.8369 233.154L22.8371 233.155C22.9405 233.847 23.0435 234.535 23.1435 235.22C23.2442 235.916 23.3418 236.609 23.439 237.298L23.4392 237.3L23.4862 237.633C23.5948 238.427 23.7014 239.215 23.8038 239.997C23.8977 240.618 23.9941 241.241 24.0901 241.861L24.0905 241.864L24.1737 242.402C24.2928 243.192 24.4098 243.975 24.5226 244.753C24.6077 245.343 24.6903 245.933 24.7723 246.518L24.8465 247.047C24.9359 247.694 25.0221 248.336 25.1079 248.975L25.1516 249.3C25.2498 250.042 25.3439 250.775 25.4358 251.5C25.5236 252.217 25.6364 252.944 25.7597 253.673C25.8622 254.276 25.9619 254.877 26.0611 255.474L26.0615 255.476L26.1212 255.836C26.1693 256.135 26.2178 256.434 26.2662 256.732L26.2674 256.739C26.3342 257.15 26.4008 257.56 26.466 257.97C26.5354 258.403 26.6032 258.835 26.6709 259.267C26.7133 259.537 26.7556 259.807 26.7983 260.076C26.9048 260.772 27.0114 261.468 27.1159 262.157C27.1475 262.366 27.179 262.575 27.2104 262.783L27.2567 263.09C27.3133 263.467 27.37 263.843 27.4272 264.22C27.464 264.429 27.5007 264.638 27.5374 264.846C27.6238 265.338 27.7099 265.827 27.795 266.316L27.874 266.775L27.8751 266.782C27.9674 267.318 28.059 267.851 28.1482 268.382C28.2631 269.066 28.3759 269.743 28.4846 270.416C28.5933 271.08 28.6978 271.738 28.7981 272.386C28.8963 273.024 28.9903 273.653 29.0823 274.271C29.1541 274.761 29.2233 275.248 29.292 275.731C29.3092 275.852 29.3263 275.973 29.3435 276.093C29.427 276.693 29.5085 277.289 29.5879 277.878L29.6688 278.493L29.6693 278.497C29.7193 278.876 29.769 279.253 29.8178 279.629C29.9098 280.218 30.0101 280.81 30.1104 281.397L30.1624 281.712L30.1635 281.719C30.2418 282.193 30.3196 282.664 30.3946 283.131L30.4405 283.422L30.4415 283.428C30.5156 283.896 30.5892 284.361 30.6599 284.822C30.7327 285.292 30.8025 285.76 30.8718 286.224L30.9086 286.47C30.988 287.012 31.0653 287.551 31.1406 288.084L31.1752 288.334L31.1755 288.336C31.237 288.78 31.2982 289.222 31.3579 289.661C31.4268 290.18 31.4937 290.696 31.5585 291.206C31.6233 291.713 31.686 292.217 31.7466 292.719L31.7659 292.882L31.7659 292.883C31.8179 293.324 31.8696 293.763 31.9179 294.2C31.9688 294.641 32.0163 295.083 32.0635 295.521L32.0639 295.524L32.0788 295.663C32.1241 296.08 32.1663 296.497 32.208 296.909L32.2272 297.098C32.271 297.529 32.3113 297.957 32.3513 298.382L32.363 298.507C32.4033 298.932 32.44 299.356 32.4764 299.777L32.4863 299.89C32.526 300.346 32.5636 300.799 32.5991 301.249C32.6347 301.696 32.6744 302.151 32.7224 302.615V302.615C32.752 302.914 32.7149 303.215 32.6154 303.498C32.6045 303.529 32.5937 303.56 32.5829 303.59L32.4266 304.048C32.2862 304.46 32.1455 304.871 32.0071 305.285C31.8192 305.849 31.6314 306.415 31.4497 306.982C31.2679 307.55 31.0883 308.118 30.9127 308.687C30.7371 309.253 30.5635 309.823 30.3941 310.394C30.2246 310.964 30.0592 311.534 29.8959 312.108C29.7346 312.679 29.5753 313.249 29.4181 313.823C29.2629 314.397 29.1118 314.971 28.9607 315.544C28.8117 316.118 28.6667 316.696 28.5238 317.274C28.3829 317.85 28.2441 318.428 28.1093 319.006C27.9746 319.579 27.8418 320.159 27.7132 320.739C27.5866 321.317 27.4621 321.897 27.3416 322.479C27.2191 323.057 27.1027 323.639 26.9884 324.219C26.874 324.801 26.7658 325.381 26.6576 325.965C26.5514 326.547 26.4473 327.127 26.3493 327.713C26.2492 328.297 26.1533 328.881 26.0614 329.467C25.9695 330.049 25.8817 330.635 25.796 331.219C25.7123 331.803 25.6306 332.391 25.553 332.979C25.4775 333.565 25.4039 334.147 25.3325 334.733C25.2651 335.315 25.1998 335.895 25.1365 336.479C25.0773 337.061 25.0201 337.639 24.965 338.217C24.9119 338.795 24.8629 339.373 24.8159 339.946C24.771 340.522 24.7281 341.096 24.6893 341.67C24.6526 342.244 24.6179 342.815 24.5872 343.385C24.5586 343.953 24.5321 344.525 24.5076 345.09C24.4851 345.658 24.4668 346.224 24.4525 346.787C24.4361 347.351 24.4259 347.912 24.4178 348.476C24.4116 349.035 24.4055 349.595 24.4055 350.152C24.4076 350.712 24.4096 351.267 24.4178 351.823C24.4259 352.378 24.4382 352.932 24.4525 353.485C24.4668 354.038 24.4851 354.588 24.5076 355.137C24.5301 355.684 24.5566 356.234 24.5852 356.779C24.6158 357.326 24.6485 357.869 24.6852 358.414C24.722 358.953 24.7649 359.499 24.8077 360.036C24.8527 360.577 24.9017 361.116 24.9507 361.651C25.0038 362.188 25.0589 362.723 25.1181 363.256C25.1773 363.787 25.2386 364.32 25.3039 364.849C25.3713 365.38 25.4407 365.907 25.5122 366.433C25.5877 366.96 25.6633 367.487 25.7408 368.01C25.8225 368.533 25.9062 369.053 25.992 369.574C26.0818 370.093 26.1717 370.611 26.2656 371.128C26.3595 371.645 26.4575 372.157 26.5576 372.672C26.6596 373.184 26.7638 373.695 26.872 374.205C26.9802 374.714 27.0905 375.22 27.2068 375.729C27.3212 376.233 27.4396 376.737 27.5601 377.238C27.6724 377.7 27.7882 378.158 27.9043 378.616L27.9046 378.617L27.9358 378.741C28.0644 379.239 28.1971 379.735 28.3319 380.229C28.4687 380.725 28.6075 381.218 28.7484 381.708C28.8913 382.2 29.0363 382.688 29.1853 383.176C29.3344 383.664 29.4855 384.148 29.6406 384.632C29.7979 385.116 29.9551 385.598 30.1164 386.078C30.2797 386.555 30.4451 387.033 30.6146 387.509C30.784 387.985 30.9556 388.456 31.1291 388.928C31.3067 389.4 31.4844 389.867 31.6661 390.337C31.8478 390.803 32.0336 391.27 32.2215 391.734C32.4113 392.197 32.6033 392.657 32.7972 393.116C32.9932 393.576 33.1913 394.033 33.3934 394.491C33.5935 394.944 33.7998 395.397 34.008 395.851C34.2163 396.302 34.4266 396.749 34.641 397.196C34.8574 397.646 35.0759 398.089 35.2943 398.532C35.5169 398.975 35.7415 399.416 35.9681 399.855C36.1968 400.294 36.4275 400.729 36.6582 401.164C36.8931 401.599 37.1319 402.032 37.3688 402.461C37.6097 402.891 37.8547 403.318 38.1018 403.745C38.3468 404.17 38.5959 404.594 38.8491 405.015C39.1023 405.438 39.3575 405.854 39.6147 406.273C39.874 406.69 40.1374 407.104 40.4029 407.517C40.6683 407.929 40.9358 408.338 41.2053 408.748L41.2088 408.753C41.4812 409.158 41.7537 409.562 42.0281 409.963C42.3058 410.367 42.5876 410.765 42.8714 411.166C43.1552 411.564 43.441 411.96 43.7289 412.354L43.7919 412.439C44.0626 412.805 44.332 413.168 44.6049 413.528C44.903 413.92 45.2011 414.308 45.5012 414.694C45.8003 415.079 46.1054 415.461 46.4106 415.844L46.4139 415.848C46.7201 416.228 47.0325 416.608 47.3449 416.985C47.6594 417.363 47.9779 417.741 48.2984 418.117C48.619 418.494 48.9436 418.87 49.2703 419.242C49.5991 419.613 49.9278 419.983 50.2606 420.351C50.5914 420.718 50.9283 421.084 51.2652 421.447C51.6061 421.811 51.9491 422.172 52.2962 422.534C52.6454 422.897 52.9966 423.256 53.3519 423.616C53.7092 423.973 54.0685 424.331 54.432 424.686C54.7954 425.039 55.1588 425.39 55.5263 425.74C55.8959 426.091 56.2655 426.436 56.6391 426.783C57.0148 427.128 57.3966 427.473 57.7805 427.818C58.1643 428.159 58.5523 428.5 58.9422 428.839C59.3322 429.176 59.7263 429.513 60.1224 429.844C60.5246 430.185 60.935 430.526 61.3434 430.865C61.7558 431.202 62.1703 431.537 62.5868 431.87C63.0074 432.203 63.428 432.531 63.8507 432.858C64.2774 433.185 64.7042 433.509 65.137 433.832C65.5719 434.155 66.0068 434.475 66.4438 434.792C66.8868 435.11 67.3299 435.427 67.777 435.739C68.2262 436.052 68.6734 436.362 69.1267 436.668C69.582 436.975 70.0393 437.281 70.5008 437.585L70.6861 437.705C71.0884 437.966 71.4924 438.228 71.8994 438.488C72.369 438.786 72.8386 439.082 73.3184 439.376C73.7962 439.668 74.2781 439.958 74.7599 440.246C75.2438 440.534 75.7318 440.818 76.2218 441.1C76.7119 441.381 77.206 441.659 77.7021 441.935C78.1983 442.21 78.6985 442.482 79.1988 442.754C79.701 443.023 80.2054 443.289 80.7117 443.552C81.2201 443.815 81.7306 444.077 82.2431 444.334C82.7555 444.591 83.2762 444.847 83.7969 445.098C84.3175 445.347 84.8422 445.596 85.369 445.845C85.8999 446.09 86.4287 446.331 86.9637 446.57C87.4986 446.811 88.0336 447.046 88.5726 447.279C89.1096 447.511 89.6527 447.742 90.1978 447.969C90.745 448.193 91.2963 448.42 91.8456 448.641L92.3287 448.835C92.7232 448.993 93.1179 449.152 93.5137 449.308C94.0049 449.504 94.5024 449.699 95.0035 449.896L95.2124 449.978L95.2133 449.979L95.2142 449.979C95.7874 450.199 96.3605 450.419 96.9378 450.636C97.5176 450.854 98.0975 451.069 98.6814 451.279C99.2674 451.489 99.8555 451.7 100.446 451.906C101.034 452.11 101.628 452.312 102.22 452.51C102.816 452.71 103.412 452.906 104.01 453.096C104.557 453.272 105.101 453.441 105.649 453.612L105.817 453.664C106.42 453.848 107.028 454.032 107.637 454.211C108.245 454.389 108.856 454.565 109.468 454.738C110.083 454.908 110.699 455.077 111.318 455.245C111.937 455.41 112.555 455.571 113.178 455.731C113.801 455.888 114.426 456.043 115.052 456.196C115.679 456.347 116.308 456.494 116.941 456.641C117.572 456.784 118.205 456.927 118.84 457.066C119.477 457.203 120.114 457.338 120.755 457.47C121.394 457.601 122.035 457.728 122.678 457.852C123.324 457.977 123.971 458.097 124.616 458.216C125.267 458.332 125.915 458.444 126.568 458.555C127.221 458.665 127.875 458.771 128.532 458.875C129.188 458.977 129.845 459.077 130.507 459.175C131.164 459.269 131.826 459.363 132.491 459.451C133.155 459.541 133.82 459.625 134.488 459.704C135.154 459.788 135.823 459.866 136.495 459.941C137.167 460.015 137.839 460.084 138.515 460.151C139.19 460.217 139.864 460.282 140.542 460.341C141.06 460.387 141.578 460.428 142.096 460.47L142.1 460.47L142.58 460.509C143.264 460.56 143.948 460.609 144.634 460.654C144.928 460.676 145.223 460.697 145.519 460.718L145.536 460.719C145.927 460.747 146.32 460.775 146.714 460.805C147.419 460.864 148.131 460.921 148.844 460.974C149.554 461.025 150.271 461.077 150.99 461.126C151.476 461.16 151.963 461.191 152.451 461.222L152.473 461.223C152.699 461.237 152.926 461.252 153.152 461.266C153.881 461.315 154.608 461.36 155.337 461.403C156.068 461.444 156.797 461.485 157.532 461.52C158.265 461.552 159 461.583 159.737 461.612C160.47 461.636 161.209 461.659 161.948 461.681C162.689 461.701 163.437 461.722 164.184 461.736C164.929 461.75 165.672 461.763 166.424 461.771C167.169 461.779 167.91 461.783 168.661 461.787C169.409 461.789 170.156 461.789 170.901 461.783C171.647 461.779 172.392 461.769 173.133 461.759C173.878 461.746 174.617 461.732 175.361 461.716C176.104 461.695 176.845 461.679 177.584 461.656C178.325 461.634 179.066 461.607 179.803 461.579C180.543 461.548 181.278 461.518 182.011 461.485C182.744 461.452 183.475 461.415 184.206 461.375C184.932 461.334 185.663 461.291 186.388 461.244C186.919 461.208 187.446 461.175 187.972 461.143L187.985 461.142L188.544 461.107C189.259 461.06 189.967 461.013 190.676 460.962C191.092 460.936 191.505 460.912 191.918 460.887C192.209 460.87 192.499 460.853 192.789 460.836C193.487 460.791 194.188 460.742 194.884 460.689C195.582 460.638 196.279 460.582 196.973 460.525C197.665 460.464 198.361 460.401 199.051 460.333C199.743 460.266 200.432 460.194 201.118 460.121C201.808 460.045 202.492 459.968 203.176 459.884C203.858 459.802 204.542 459.717 205.222 459.627C205.867 459.542 206.506 459.453 207.147 459.364L207.257 459.349C207.935 459.253 208.613 459.155 209.289 459.053C209.963 458.951 210.634 458.845 211.302 458.738C211.964 458.632 212.625 458.528 213.268 458.43C213.915 458.328 214.557 458.226 215.202 458.12C215.841 458.009 216.482 457.899 217.121 457.785C217.758 457.668 218.391 457.552 219.02 457.432C219.389 457.361 219.757 457.289 220.124 457.216C220.383 457.165 220.642 457.113 220.9 457.062C221.525 456.933 222.142 456.803 222.763 456.67C223.379 456.537 223.994 456.398 224.606 456.259C225.219 456.116 225.825 455.974 226.432 455.827C227.04 455.677 227.644 455.526 228.247 455.369C228.847 455.216 229.445 455.059 230.039 454.899C230.627 454.74 231.213 454.577 231.797 454.411C232.379 454.246 232.961 454.077 233.541 453.903C234.119 453.729 234.697 453.552 235.27 453.374C235.846 453.192 236.416 453.009 236.986 452.823C237.555 452.637 238.125 452.445 238.688 452.253C239.254 452.059 239.815 451.859 240.375 451.663C240.936 451.461 241.494 451.256 242.051 451.05C242.605 450.844 243.158 450.634 243.709 450.419C244.254 450.209 244.795 449.995 245.336 449.778C245.875 449.558 246.41 449.337 246.945 449.114C247.48 448.89 248.009 448.661 248.538 448.432C249.063 448.202 249.587 447.967 250.11 447.732C250.629 447.495 251.147 447.256 251.66 447.015C252.168 446.774 252.675 446.529 253.177 446.284C253.677 446.041 254.175 445.792 254.669 445.541C255.166 445.29 255.658 445.034 256.15 444.779C256.64 444.52 257.128 444.261 257.612 443.997C258.094 443.734 258.573 443.468 259.051 443.199C259.527 442.929 260.003 442.656 260.474 442.382C260.946 442.106 261.413 441.829 261.881 441.547C262.344 441.267 262.806 440.985 263.265 440.697C263.723 440.413 264.176 440.125 264.625 439.833C265.076 439.542 265.524 439.249 265.969 438.953C266.414 438.655 266.855 438.359 267.296 438.057L267.307 438.049L267.309 438.048C267.739 437.749 268.17 437.449 268.596 437.146C269.027 436.838 269.456 436.529 269.881 436.219C270.305 435.907 270.728 435.592 271.149 435.274C271.565 434.959 271.98 434.641 272.39 434.32C272.798 433.999 273.205 433.677 273.609 433.352C274.011 433.027 274.411 432.699 274.81 432.368C275.206 432.037 275.6 431.704 275.992 431.369C276.384 431.034 276.77 430.698 277.156 430.357C277.537 430.018 277.917 429.677 278.295 429.331C278.673 428.986 279.044 428.639 279.416 428.29C279.785 427.943 280.155 427.59 280.52 427.234C280.882 426.881 281.245 426.524 281.605 426.164C281.96 425.805 282.315 425.443 282.666 425.082C283.016 424.72 283.36 424.356 283.704 423.991L283.708 423.987C284.049 423.622 284.386 423.252 284.724 422.879C285.059 422.509 285.392 422.133 285.723 421.758C286.052 421.38 286.376 421.002 286.701 420.62C287.026 420.238 287.346 419.854 287.665 419.469C287.981 419.081 288.296 418.693 288.608 418.302C288.918 417.91 289.227 417.516 289.531 417.122C289.835 416.726 290.135 416.328 290.435 415.928C290.731 415.527 291.03 415.123 291.321 414.721C291.613 414.314 291.901 413.906 292.187 413.498C292.469 413.089 292.749 412.681 293.024 412.268C293.3 411.856 293.574 411.443 293.845 411.027C294.113 410.612 294.38 410.192 294.641 409.773C294.905 409.352 295.164 408.93 295.421 408.505C295.679 408.08 295.932 407.651 296.183 407.225C296.434 406.792 296.679 406.361 296.924 405.928C297.167 405.495 297.408 405.058 297.645 404.621C297.882 404.182 298.117 403.743 298.349 403.3C298.578 402.857 298.805 402.414 299.029 401.966C299.254 401.519 299.474 401.07 299.693 400.621C299.909 400.167 300.124 399.716 300.336 399.261C300.544 398.805 300.754 398.348 300.959 397.889C301.163 397.431 301.363 396.968 301.561 396.504C301.757 396.04 301.951 395.577 302.145 395.107L302.178 395.026C302.28 394.772 302.383 394.517 302.485 394.261C302.56 394.074 302.634 393.888 302.706 393.7C302.89 393.229 303.072 392.753 303.248 392.279C303.423 391.803 303.599 391.326 303.768 390.846C303.861 390.583 303.953 390.32 304.044 390.056C304.119 389.838 304.193 389.62 304.266 389.402C304.434 388.918 304.593 388.432 304.748 387.944C304.859 387.601 304.965 387.258 305.072 386.914L305.146 386.676L305.208 386.478C305.355 385.986 305.502 385.493 305.645 384.999C305.785 384.501 305.924 384.007 306.061 383.507L306.136 383.224C306.244 382.819 306.353 382.413 306.457 382.006C306.586 381.501 306.708 380.999 306.831 380.493C306.885 380.264 306.939 380.036 306.992 379.807C307.056 379.53 307.119 379.254 307.182 378.977L307.184 378.969C307.296 378.457 307.407 377.948 307.515 377.434L307.556 377.231C307.607 376.978 307.659 376.724 307.71 376.47C307.749 376.275 307.788 376.081 307.825 375.888C307.925 375.369 308.019 374.853 308.113 374.336C308.203 373.817 308.291 373.297 308.376 372.774C308.462 372.251 308.544 371.728 308.621 371.201C308.699 370.677 308.773 370.15 308.842 369.621C308.913 369.092 308.979 368.561 309.042 368.028C309.105 367.495 309.167 366.96 309.222 366.423C309.277 365.888 309.33 365.347 309.379 364.808C309.428 364.267 309.471 363.726 309.512 363.182C309.555 362.639 309.591 362.092 309.626 361.549C309.639 361.334 309.651 361.119 309.663 360.905C309.672 360.755 309.68 360.606 309.688 360.456C309.698 360.271 309.707 360.086 309.716 359.901C309.74 359.35 309.765 358.798 309.783 358.243C309.802 357.689 309.816 357.134 309.828 356.577C309.838 356.019 309.847 355.46 309.851 354.9C309.853 354.339 309.853 353.775 309.849 353.211C309.845 352.648 309.836 352.084 309.824 351.516C309.812 350.949 309.798 350.379 309.777 349.809C309.769 349.568 309.76 349.325 309.75 349.083C309.743 348.903 309.735 348.724 309.727 348.544C309.721 348.394 309.714 348.243 309.708 348.092C309.679 347.516 309.648 346.942 309.612 346.364C309.575 345.791 309.538 345.209 309.495 344.631C309.452 344.049 309.406 343.469 309.354 342.885C309.301 342.299 309.248 341.717 309.191 341.131C309.13 340.541 309.069 339.955 309.001 339.367C308.934 338.774 308.862 338.184 308.789 337.596C308.713 337.008 308.632 336.418 308.552 335.83C308.468 335.242 308.383 334.652 308.293 334.065C308.216 333.558 308.134 333.058 308.052 332.554L308.011 332.301C307.915 331.715 307.815 331.129 307.709 330.541L307.69 330.438C307.59 329.886 307.49 329.332 307.384 328.783C307.272 328.195 307.153 327.611 307.035 327.027C306.917 326.439 306.794 325.852 306.668 325.273C306.541 324.684 306.41 324.102 306.278 323.518C306.143 322.932 306.006 322.346 305.865 321.764C305.828 321.614 305.791 321.464 305.754 321.313C305.649 320.882 305.543 320.45 305.432 320.018V320.018C305.371 319.774 305.343 319.523 305.347 319.272C305.348 319.196 305.349 319.12 305.349 319.044L305.362 317.924L305.362 317.905V317.902C305.368 317.531 305.375 317.158 305.383 316.781C305.391 316.419 305.4 316.055 305.41 315.688L305.412 315.613L305.414 315.534C305.426 315.167 305.438 314.796 305.452 314.422C305.459 314.225 305.467 314.027 305.474 313.828C305.482 313.638 305.49 313.447 305.498 313.255L305.5 313.208C305.519 312.796 305.537 312.384 305.558 311.966L305.565 311.834L305.566 311.818C305.587 311.449 305.607 311.076 305.629 310.702C305.653 310.304 305.678 309.903 305.703 309.499L305.709 309.413L305.711 309.371L305.712 309.358L305.713 309.355C305.741 308.938 305.769 308.518 305.801 308.096C305.831 307.668 305.865 307.239 305.899 306.807L305.903 306.755C305.912 306.641 305.921 306.527 305.931 306.412C305.944 306.244 305.958 306.075 305.973 305.906C305.987 305.734 306.002 305.56 306.016 305.386L306.043 305.091L306.043 305.09C306.076 304.727 306.109 304.36 306.143 303.994L306.169 303.729C306.204 303.361 306.24 302.989 306.277 302.615C306.325 302.151 306.365 301.696 306.4 301.249C306.436 300.799 306.474 300.346 306.513 299.89L306.523 299.777L306.524 299.771L306.524 299.766C306.56 299.349 306.597 298.929 306.637 298.507L306.648 298.382C306.688 297.957 306.729 297.529 306.772 297.098L306.791 296.909C306.833 296.497 306.875 296.08 306.921 295.663L306.936 295.524L306.937 295.515L306.941 295.476C306.986 295.053 307.032 294.626 307.082 294.2C307.13 293.763 307.182 293.324 307.234 292.882L307.253 292.719C307.314 292.217 307.376 291.713 307.441 291.206C307.506 290.696 307.573 290.18 307.642 289.661C307.701 289.221 307.763 288.778 307.824 288.334L307.859 288.084C307.934 287.551 308.011 287.012 308.091 286.47L308.128 286.224C308.197 285.76 308.267 285.292 308.34 284.822C308.411 284.359 308.485 283.892 308.559 283.422L308.605 283.131C308.68 282.662 308.758 282.189 308.837 281.712L308.889 281.397C308.989 280.81 309.09 280.218 309.182 279.629C309.231 279.252 309.281 278.874 309.331 278.493L309.412 277.878C309.44 277.665 309.469 277.451 309.498 277.237C309.55 276.858 309.603 276.476 309.656 276.093L309.709 275.724L309.709 275.719C309.777 275.24 309.846 274.757 309.917 274.271C310.009 273.653 310.103 273.024 310.201 272.386C310.302 271.738 310.406 271.08 310.515 270.416C310.624 269.743 310.736 269.066 310.851 268.382C310.94 267.851 311.032 267.318 311.124 266.782L311.126 266.775L311.204 266.316C311.289 265.829 311.375 265.342 311.461 264.852L311.572 264.22C311.63 263.843 311.686 263.467 311.743 263.09L311.747 263.064L311.749 263.053C311.793 262.755 311.838 262.456 311.884 262.157C311.988 261.468 312.095 260.772 312.201 260.076C312.244 259.807 312.286 259.537 312.329 259.267C312.396 258.835 312.464 258.403 312.534 257.97C312.599 257.558 312.666 257.145 312.733 256.732L312.741 256.683C312.787 256.401 312.833 256.119 312.878 255.836L312.938 255.476C313.037 254.878 313.137 254.277 313.24 253.673C313.363 252.944 313.476 252.217 313.564 251.5C313.656 250.775 313.75 250.042 313.848 249.3L313.892 248.975L313.893 248.963C313.978 248.328 314.064 247.69 314.153 247.047L314.227 246.518C314.309 245.933 314.392 245.343 314.477 244.753C314.59 243.975 314.707 243.192 314.826 242.402L314.909 241.864L314.911 241.849C315.007 241.233 315.102 240.614 315.196 239.997C315.298 239.215 315.405 238.427 315.513 237.633L315.56 237.3L315.561 237.292C315.658 236.605 315.756 235.914 315.856 235.22C315.956 234.535 316.059 233.846 316.163 233.154L316.222 232.758C316.345 231.928 316.473 231.095 316.602 230.259C316.736 229.423 316.861 228.598 316.984 227.776C317.008 227.618 317.032 227.46 317.056 227.302L317.063 227.259C317.163 226.601 317.264 225.944 317.348 225.306C317.457 224.498 317.567 223.687 317.68 222.87C317.797 222.053 317.916 221.232 318.04 220.404C318.089 220.077 318.139 219.749 318.189 219.421L318.192 219.396C318.268 218.896 318.344 218.396 318.418 217.899C318.545 217.063 318.675 216.223 318.807 215.376C318.942 214.526 319.08 213.669 319.22 212.808L319.326 212.164C319.434 211.513 319.54 210.864 319.642 210.23C319.776 209.385 319.912 208.543 320.05 207.697C320.19 206.846 320.332 205.994 320.476 205.135C320.539 204.762 320.603 204.389 320.667 204.016C320.75 203.527 320.833 203.039 320.915 202.554C320.956 202.316 320.996 202.078 321.037 201.84L321.135 201.265C321.209 200.834 321.283 200.403 321.356 199.971C321.472 199.268 321.592 198.561 321.712 197.851L321.784 197.42C321.904 196.717 322.027 196.01 322.151 195.301L322.151 195.298L322.153 195.291L322.232 194.837L322.33 194.28L322.33 194.277C322.448 193.61 322.566 192.942 322.685 192.271C322.84 191.408 322.982 190.562 323.118 189.726C323.255 188.884 323.396 188.039 323.538 187.191L323.603 186.802C323.723 186.088 323.842 185.378 323.964 184.667C324.108 183.823 324.254 182.976 324.403 182.126C324.553 181.271 324.702 180.425 324.833 179.608L324.944 178.926C325.04 178.337 325.135 177.752 325.23 177.171C325.329 176.576 325.428 175.981 325.528 175.384L325.534 175.349L325.636 174.741C325.75 174.067 325.865 173.391 325.981 172.714L326.054 172.29C326.15 171.741 326.246 171.19 326.343 170.64L326.486 169.82L326.64 168.95C326.733 168.42 326.826 167.897 326.917 167.379L326.918 167.371L326.919 167.367C327.06 166.569 327.201 165.77 327.33 164.993L327.356 164.829L327.358 164.818C327.47 164.107 327.582 163.394 327.698 162.682C327.821 161.908 327.947 161.133 328.074 160.358L328.124 160.054C328.235 159.378 328.346 158.7 328.459 158.024C328.525 157.633 328.59 157.242 328.655 156.851C328.72 156.461 328.786 156.07 328.852 155.679C328.919 155.281 328.987 154.884 329.055 154.487L329.253 153.326C329.382 152.547 329.487 151.813 329.585 151.088C329.685 150.363 329.786 149.638 329.886 148.911C329.976 148.261 330.067 147.613 330.158 146.963L330.191 146.731L330.222 146.51L330.227 146.473C330.318 145.831 330.408 145.189 330.5 144.55C330.605 143.82 330.709 143.093 330.814 142.366C330.918 141.637 331.023 140.916 331.125 140.212C331.228 139.505 331.33 138.799 331.432 138.095C331.535 137.388 331.627 136.707 331.696 136.068L331.715 135.893L331.716 135.888C331.78 135.31 331.845 134.731 331.911 134.154C331.949 133.814 331.987 133.475 332.024 133.136L332.117 132.304L332.124 132.246C332.178 131.778 332.23 131.311 332.283 130.846L332.285 130.823L332.339 130.346L332.339 130.345L332.339 130.344C332.408 129.734 332.477 129.125 332.548 128.518C332.617 127.908 332.686 127.3 332.755 126.694C332.792 126.371 332.829 126.049 332.866 125.727L332.873 125.672C332.903 125.407 332.934 125.142 332.964 124.878C333.002 124.548 333.04 124.219 333.078 123.89L333.081 123.869C333.112 123.603 333.142 123.337 333.173 123.072C333.211 122.737 333.251 122.402 333.29 122.067C333.321 121.802 333.351 121.537 333.382 121.273L333.412 121.021L333.474 120.494C333.513 120.156 333.553 119.819 333.593 119.482C333.642 119.059 333.692 118.637 333.741 118.226L333.8 117.733C333.827 117.504 333.854 117.276 333.88 117.048L333.886 117L333.886 116.997C333.923 116.678 333.961 116.36 333.998 116.043C334.065 115.48 334.132 114.92 334.199 114.363L334.223 114.164C334.282 113.673 334.34 113.183 334.398 112.695C334.452 112.165 334.504 111.639 334.556 111.113L334.556 111.112L334.556 111.111L334.556 111.105C334.602 110.665 334.646 110.225 334.689 109.788L334.715 109.529C334.767 109.005 334.82 108.484 334.872 107.966C334.924 107.446 334.976 106.93 335.029 106.416C335.049 106.212 335.07 106.009 335.09 105.806L335.096 105.743L335.098 105.723C335.126 105.441 335.155 105.16 335.183 104.88C335.211 104.592 335.24 104.306 335.269 104.02L335.271 104.006L335.272 103.995L335.278 103.938C335.297 103.745 335.317 103.551 335.336 103.358C335.386 102.861 335.434 102.375 335.481 101.888L335.482 101.884L335.482 101.882L335.482 101.881L335.497 101.728L335.501 101.693C335.542 101.27 335.584 100.847 335.624 100.427L335.624 100.426L335.624 100.425C335.672 99.9452 335.72 99.465 335.766 98.9869C335.81 98.5523 335.852 98.1195 335.894 97.6885L335.906 97.5638C335.949 97.1405 335.991 96.7188 336.032 96.2989L336.046 96.1533C336.092 95.6873 336.138 95.2213 336.182 94.7595L336.203 94.5304C336.238 94.1588 336.272 93.7897 336.305 93.4221C336.34 93.0528 336.374 92.685 336.407 92.3198L336.427 92.1014C336.466 91.6647 336.506 91.2301 336.546 90.7975L336.566 90.5783C336.599 90.2201 336.631 89.8645 336.663 89.5103L336.689 89.2311L336.689 89.2279L336.689 89.2268C336.72 88.8951 336.75 88.5664 336.78 88.2377C336.811 87.9081 336.841 87.5785 336.87 87.252L336.895 86.9839C336.916 86.7453 336.939 86.5075 336.961 86.2707L336.989 85.9697L337.01 85.7447C337.03 85.5093 337.051 85.2753 337.072 85.0426L337.074 85.0247C337.089 84.8586 337.104 84.6932 337.118 84.5285L337.133 84.3369L337.135 84.3217C337.16 83.9971 337.186 83.6752 337.21 83.3562C337.224 83.1862 337.237 83.0169 337.251 82.8482C337.268 82.6315 337.285 82.4157 337.302 82.2007C337.331 81.8183 337.361 81.44 337.392 81.0639C337.421 80.6878 337.451 80.3137 337.48 79.9438C337.493 79.7798 337.505 79.6161 337.518 79.4531C337.534 79.2485 337.549 79.0449 337.565 78.8426C337.578 78.6844 337.59 78.5275 337.603 78.3711C337.614 78.2253 337.625 78.08 337.637 77.9349L337.651 77.7581C337.666 77.5599 337.682 77.3623 337.698 77.1658L337.698 77.158L337.72 76.8813L337.735 76.6944C337.761 76.3553 337.779 76.0357 337.798 75.7204L337.798 75.719L337.799 75.6872C337.818 75.3592 337.837 75.0352 337.856 74.7155C337.88 74.2833 337.905 73.8568 337.929 73.436L337.965 72.8286C337.987 72.4149 338.01 72.0068 338.033 71.6044L338.036 71.5507C338.047 71.3717 338.057 71.1937 338.067 71.0168C338.087 70.6911 338.105 70.3692 338.123 70.0511L338.123 70.0472C338.138 69.7891 338.152 69.5335 338.167 69.2803C338.189 68.9218 338.209 68.5674 338.229 68.2183L338.229 68.2112L338.263 67.6232C338.283 67.2547 338.304 66.893 338.325 66.5374L338.353 66.0477L338.386 65.4856C338.404 65.1687 338.422 64.8572 338.439 64.5515C338.466 64.0688 338.493 63.5986 338.52 63.1409C338.532 62.9315 338.544 62.7251 338.556 62.5216C338.57 62.2826 338.583 62.0475 338.596 61.8161L338.613 61.5148L338.629 61.2501C338.643 61.0217 338.656 60.7981 338.669 60.579C338.682 60.3573 338.694 60.1408 338.706 59.929L338.707 59.8945L338.734 59.4297L338.747 59.1959C338.763 58.9118 338.779 58.6373 338.792 58.3744C338.804 58.0381 338.815 57.718 338.825 57.4141C338.835 57.1326 338.844 56.8649 338.853 56.6108C338.861 56.364 338.869 56.1306 338.877 55.9109L338.878 55.8743C338.886 55.639 338.893 55.4197 338.901 55.217C338.907 55.0003 338.914 54.8024 338.92 54.6234C338.926 54.4693 338.93 54.3292 338.934 54.2035C338.951 53.709 338.961 53.431 338.963 53.3834C338.963 53.3784 338.963 53.3735 338.964 53.3686C338.98 52.8821 338.991 52.3956 338.997 51.9112C339.001 51.4222 339.001 50.9374 338.997 50.4526C338.991 49.9678 338.978 49.4851 338.961 49.0024C338.945 48.5217 338.922 48.0411 338.894 47.5626C338.867 47.0841 338.834 46.6076 338.788 46.1416C338.731 45.6882 338.671 45.2347 338.604 44.7854C338.539 44.3341 338.468 43.8869 338.391 43.4397C338.314 42.9925 338.232 42.5474 338.146 42.1044C338.059 41.6614 337.967 41.2184 337.868 40.7796C337.772 40.3407 337.67 39.904 337.561 39.4673C337.455 39.0326 337.342 38.6001 337.225 38.1675C337.108 37.737 336.985 37.3087 336.859 36.8803C336.732 36.454 336.598 36.0298 336.462 35.6056C336.324 35.1835 336.184 34.7718 336.036 34.3685C335.89 33.9631 335.739 33.5598 335.582 33.1607C335.428 32.7616 335.267 32.3645 335.102 31.9696C334.937 31.5726 334.767 31.1818 334.592 30.791C334.418 30.4003 334.239 30.0137 334.055 29.6271C333.871 29.2426 333.685 28.8602 333.491 28.4799C333.298 28.1016 333.102 27.7234 332.901 27.3494C332.701 26.9753 332.496 26.6034 332.285 26.2356C332.076 25.872 331.863 25.5105 331.643 25.1511C331.426 24.7916 331.202 24.4343 330.977 24.0812C330.751 23.728 330.519 23.379 330.285 23.0301C330.051 22.6832 329.811 22.3384 329.568 21.9978C329.326 21.6572 329.079 21.3186 328.829 20.9822C328.578 20.6479 328.323 20.3156 328.064 19.9854C327.807 19.6574 327.543 19.3314 327.278 19.0096C327.011 18.6857 326.741 18.368 326.467 18.0525C326.194 17.7349 325.916 17.4235 325.636 17.1143C325.354 16.805 325.069 16.4978 324.781 16.1969C324.493 15.8939 324.202 15.5951 323.905 15.3004C323.611 15.0037 323.312 14.7112 323.009 14.4228C322.706 14.1344 322.401 13.8502 322.092 13.5702C321.782 13.2881 321.469 13.0102 321.153 12.7385C320.838 12.4648 320.518 12.1931 320.196 11.9277C319.872 11.6624 319.548 11.3991 319.218 11.1399C318.89 10.8829 318.558 10.628 318.222 10.3772C317.887 10.1265 317.549 9.87988 317.208 9.63748C316.865 9.39299 316.521 9.15477 316.174 8.92073C315.827 8.68668 315.476 8.45473 315.123 8.22905C314.769 8.00128 314.414 7.77978 314.055 7.56245C313.695 7.34304 313.334 7.1299 312.968 6.92093C312.605 6.70988 312.237 6.50509 311.867 6.30448C311.497 6.10178 311.123 5.90536 310.749 5.71311C310.373 5.52086 309.995 5.33279 309.614 5.15099C309.234 4.9671 308.849 4.78739 308.465 4.61395C308.078 4.43842 307.692 4.26916 307.301 4.10408C306.91 3.939 306.517 3.77809 306.12 3.62137C305.725 3.46674 305.328 3.31419 304.927 3.16792C304.528 3.02164 304.125 2.87954 303.721 2.74371C303.316 2.6058 302.909 2.47415 302.501 2.34668C302.091 2.2213 301.68 2.09801 301.268 1.98099C300.854 1.86397 300.439 1.75113 300.021 1.64455C299.605 1.5359 299.185 1.4335 298.763 1.33738C298.343 1.23917 297.918 1.14722 297.494 1.05946C297.068 0.973778 296.642 0.892281 296.213 0.814964C295.785 0.737648 295.354 0.666595 294.922 0.601822C294.489 0.53495 294.055 0.47435 293.62 0.417931C293.183 0.363602 292.747 0.313446 292.308 0.269562C291.867 0.223595 291.428 0.183891 290.985 0.150452C290.542 0.11702 290.099 0.0898514 289.654 0.0668716C289.209 0.0438843 288.762 0.0271683 288.314 0.016716C287.865 0.00418091 287.416 0 286.967 0C286.515 0 286.066 0.00418091 285.617 0.016716C285.169 0.0271683 284.722 0.0438843 284.277 0.0668716C283.832 0.0898514 283.389 0.11702 282.946 0.150452C282.503 0.183891 282.062 0.223595 281.623 0.269562C281.185 0.313446 280.748 0.363602 280.311 0.417931C279.876 0.47435 279.442 0.53495 279.009 0.601822C278.577 0.666595 278.146 0.737648 277.718 0.814964C277.289 0.892281 276.861 0.973778 276.437 1.05946C276.011 1.14722 275.588 1.23917 275.166 1.33738C274.746 1.4335 274.326 1.5359 273.908 1.64455C273.493 1.75113 273.077 1.86397 272.663 1.98099C272.249 2.09801 271.84 2.2213 271.43 2.34668C271.02 2.47415 270.615 2.6058 270.21 2.74371C269.804 2.87954 269.403 3.02164 269.002 3.16792C268.603 3.31419 268.204 3.46674 267.809 3.62137C267.414 3.77809 267.021 3.939 266.63 4.10408C266.239 4.26916 265.851 4.43842 265.466 4.61395C265.08 4.78739 264.697 4.9671 264.317 5.15099C263.934 5.33279 263.556 5.52086 263.182 5.71311C262.806 5.90536 262.434 6.10178 262.064 6.30448C261.694 6.50509 261.327 6.70988 260.961 6.92093C260.597 7.1299 260.236 7.34304 259.876 7.56245C259.517 7.77978 259.16 8.00128 258.806 8.22905C258.453 8.45473 258.104 8.68668 257.755 8.92073C257.408 9.15477 257.064 9.39299 256.723 9.63748C256.382 9.87988 256.044 10.1265 255.707 10.3772C255.373 10.628 255.041 10.8829 254.711 11.1399C254.383 11.3991 254.057 11.6624 253.735 11.9277C253.411 12.1931 253.093 12.4648 252.778 12.7385C252.46 13.0102 252.149 13.2881 251.84 13.5702C251.53 13.8502 251.223 14.1344 250.922 14.4228C250.619 14.7112 250.32 15.0037 250.024 15.3004C249.729 15.5951 249.436 15.8939 249.148 16.1969C248.86 16.4978 248.576 16.805 248.295 17.1143C248.013 17.4235 247.735 17.7349 247.464 18.0525C247.19 18.368 246.918 18.6857 246.653 19.0096C246.388 19.3314 246.124 19.6574 245.865 19.9854C245.608 20.3156 245.353 20.6479 245.102 20.9822C244.852 21.3186 244.605 21.6572 244.363 21.9978C244.118 22.3384 243.88 22.6832 243.646 23.0301C243.412 23.379 243.18 23.728 242.954 24.0812C242.727 24.4343 242.505 24.7916 242.288 25.1511C242.068 25.5105 241.855 25.872 241.646 26.2356C241.435 26.6013 241.23 26.9691 241.03 27.3389C240.827 27.7088 240.631 28.0807 240.438 28.4569C240.246 28.8309 240.058 29.2092 239.876 29.5916C239.692 29.9719 239.513 30.3543 239.339 30.7409C239.164 31.1254 238.994 31.5141 238.829 31.9048C238.664 32.2956 238.503 32.6884 238.347 33.0834C238.192 33.4783 238.039 33.8774 237.893 34.2766C237.747 34.6778 237.605 35.079 237.469 35.4844C237.331 35.8898 237.199 36.2952 237.072 36.7048C236.947 37.1143 236.823 37.5239 236.706 37.9376C236.589 38.3514 236.476 38.7672 236.37 39.1831C236.261 39.601 236.159 40.021 236.063 40.4411C235.964 40.8632 235.872 41.2853 235.785 41.7116C235.699 42.1358 235.618 42.5641 235.54 42.9925C235.463 43.4209 235.392 43.8514 235.327 44.2839C235.26 44.7165 235.2 45.1511 235.143 45.5858C235.089 46.0225 235.039 46.4592 234.995 46.8981C234.949 47.3369 234.909 47.7778 234.876 48.2208C234.842 48.6638 234.815 49.1068 234.792 49.5519C234.769 49.997 234.752 50.4442 234.742 50.8914C234.729 51.3407 234.725 51.79 234.725 52.2413V52.9999V53.9318V55.217V56.8386V57.7747V58.7903V59.8853V61.0555V62.303V63.6257V65.0195V66.4865V68.0224V69.6251V71.2969V72.1557V73.0313V73.9236V74.8305V75.7541V76.6923V77.6473V78.6148V79.5991V80.5958V81.6093V82.6353V83.676V84.7312V85.799V86.8794V87.9744V89.0819V90.204V91.3366V92.4838V93.6415V94.8117V95.9945V97.1877V98.3934V99.6117V100.84V102.08V103.329V104.589V105.86V107.143V108.434V109.734V111.046V112.365V113.696V115.033V116.381V117.737V119.102V120.477V121.858V123.248V124.644V126.048V127.46V128.879V130.307V131.74V133.18V134.626V136.078V137.537V139.002V140.471V141.946V143.428V144.913V146.403V147.899V149.4V150.904V152.413V153.926V155.443V156.962V158.486V160.013V161.543C234.725 162.053 234.725 162.569 234.721 163.089L234.709 164.65C234.706 164.91 234.705 165.171 234.703 165.431L234.701 165.797C234.7 165.936 234.699 166.075 234.698 166.213L234.686 167.789L234.673 169.371L234.661 170.95L234.648 172.532C234.644 173.059 234.64 173.585 234.638 174.112C234.633 174.639 234.629 175.165 234.627 175.694C234.625 175.957 234.623 176.22 234.622 176.484L234.62 176.822C234.619 176.972 234.618 177.122 234.617 177.272C234.615 177.782 234.611 178.295 234.607 178.815L234.606 178.864L234.594 180.471C234.592 181.008 234.587 181.543 234.583 182.078C234.581 182.613 234.577 183.148 234.573 183.68C234.572 183.949 234.57 184.216 234.569 184.484V184.486V184.489C234.567 184.753 234.565 185.017 234.564 185.281C234.563 185.546 234.562 185.811 234.56 186.076L234.559 186.294C234.558 186.49 234.557 186.687 234.556 186.884L234.543 188.503C234.541 189.045 234.537 189.584 234.533 190.121C234.532 190.391 234.53 190.661 234.529 190.93V190.933C234.527 191.2 234.526 191.467 234.525 191.734C234.521 192.269 234.518 192.802 234.516 193.338V193.343L234.485 194.994C234.48 195.267 234.475 195.54 234.47 195.813L234.464 196.21C234.461 196.355 234.458 196.5 234.456 196.645C234.445 197.194 234.437 197.741 234.429 198.289V198.289C234.418 198.836 234.41 199.381 234.401 199.925V199.926V199.926L234.401 199.928L234.376 201.557L234.376 201.564V201.564C234.368 202.105 234.36 202.646 234.347 203.198L234.316 204.857L234.284 206.506C234.276 207.053 234.266 207.601 234.255 208.146C234.247 208.671 234.237 209.198 234.227 209.729L234.226 209.791L234.195 211.441L234.189 211.779L234.181 212.268C234.176 212.539 234.171 212.809 234.167 213.08L234.136 214.722L234.105 216.365C234.101 216.634 234.096 216.903 234.091 217.172V217.172C234.091 217.178 234.084 217.182 234.078 217.179L234.025 217.144C233.578 216.854 233.127 216.562 232.677 216.274C232.226 215.99 231.775 215.706 231.322 215.427C230.87 215.145 230.417 214.867 229.962 214.589L229.633 214.392C229.286 214.185 228.941 213.977 228.592 213.773C228.134 213.503 227.677 213.236 227.216 212.972C226.756 212.707 226.295 212.447 225.833 212.192C225.37 211.933 224.908 211.68 224.445 211.428C223.981 211.175 223.518 210.926 223.052 210.681C222.587 210.434 222.119 210.189 221.654 209.95C221.186 209.709 220.721 209.472 220.251 209.237C219.784 209.002 219.314 208.772 218.842 208.545C218.373 208.32 217.901 208.1 217.429 207.881C216.958 207.663 216.484 207.448 216.008 207.236C215.533 207.022 215.057 206.811 214.579 206.605C214.101 206.395 213.621 206.191 213.14 205.99C212.66 205.788 212.178 205.588 211.694 205.392C211.208 205.196 210.724 205.002 210.238 204.81C209.75 204.62 209.264 204.432 208.774 204.247C208.286 204.061 207.796 203.879 207.304 203.699C206.812 203.52 206.32 203.342 205.826 203.168C205.396 203.017 204.964 202.869 204.533 202.721L204.53 202.72L204.342 202.656C203.847 202.493 203.353 202.331 202.857 202.172C202.363 202.013 201.863 201.855 201.367 201.702C200.866 201.549 200.368 201.398 199.866 201.251C199.366 201.104 198.863 200.959 198.359 200.818C197.857 200.675 197.353 200.538 196.846 200.401C196.376 200.274 195.903 200.152 195.431 200.03L195.327 200.003C194.819 199.873 194.31 199.746 193.8 199.621C193.291 199.501 192.781 199.38 192.271 199.266C191.762 199.15 191.248 199.037 190.737 198.927C190.223 198.817 189.71 198.713 189.196 198.609C188.681 198.504 188.165 198.404 187.648 198.306C187.131 198.21 186.615 198.116 186.094 198.027C185.576 197.935 185.057 197.847 184.536 197.763C184.018 197.679 183.497 197.602 182.976 197.524C182.456 197.447 181.933 197.375 181.412 197.304C180.888 197.232 180.365 197.167 179.838 197.104C179.315 197.038 178.789 196.979 178.262 196.92C177.735 196.863 177.206 196.81 176.68 196.759C176.151 196.705 175.622 196.661 175.091 196.616C174.56 196.573 174.031 196.534 173.498 196.495C172.97 196.458 172.437 196.424 171.904 196.395C171.371 196.364 170.84 196.338 170.305 196.313C169.768 196.291 169.237 196.273 168.702 196.254C168.165 196.238 167.63 196.226 167.095 196.217C166.556 196.207 166.019 196.201 165.486 196.201C164.954 196.201 164.421 196.205 163.89 196.211C163.357 196.219 162.826 196.23 162.295 196.244C161.762 196.256 161.238 196.275 160.707 196.295C160.178 196.315 159.653 196.338 159.124 196.364C158.598 196.393 158.073 196.422 157.548 196.456C157.023 196.489 156.499 196.526 155.976 196.565C155.453 196.605 154.928 196.648 154.412 196.695C153.889 196.74 153.369 196.791 152.85 196.844C152.329 196.897 151.811 196.953 151.292 197.012C150.777 197.071 150.261 197.132 149.746 197.198C149.23 197.263 148.719 197.332 148.205 197.406C147.692 197.477 147.184 197.555 146.676 197.637C146.167 197.716 145.659 197.802 145.154 197.89C144.648 197.976 144.142 198.065 143.637 198.159C143.131 198.251 142.629 198.349 142.126 198.447C141.624 198.547 141.122 198.651 140.622 198.758C140.119 198.864 139.619 198.974 139.123 199.086C138.623 199.199 138.127 199.313 137.628 199.432C137.132 199.55 136.636 199.67 136.144 199.795C135.65 199.922 135.158 200.048 134.666 200.177C134.174 200.308 133.684 200.44 133.196 200.575C132.706 200.712 132.218 200.853 131.732 200.994C131.244 201.137 130.758 201.28 130.272 201.431C129.788 201.582 129.302 201.735 128.818 201.89C128.334 202.047 127.852 202.205 127.368 202.368C126.887 202.529 126.407 202.695 125.925 202.862C125.445 203.032 124.967 203.203 124.49 203.377C124.014 203.55 123.536 203.728 123.062 203.908C122.589 204.089 122.119 204.273 121.647 204.463C121.178 204.649 120.708 204.839 120.241 205.033C119.775 205.225 119.308 205.421 118.844 205.619C118.379 205.819 117.915 206.019 117.452 206.223C116.99 206.427 116.529 206.638 116.069 206.852C115.608 207.063 115.148 207.279 114.687 207.497L114.686 207.498C114.227 207.718 113.768 207.939 113.309 208.165C112.851 208.39 112.394 208.619 111.937 208.849C111.483 209.08 111.028 209.313 110.573 209.55C110.12 209.789 109.668 210.025 109.219 210.271C108.766 210.509 108.319 210.754 107.871 211.004C107.42 211.251 106.975 211.502 106.528 211.755C106.085 212.008 105.64 212.266 105.197 212.525C105.138 212.56 105.079 212.595 105.02 212.63C104.934 212.681 104.825 212.62 104.823 212.52V212.52L104.819 212.268C104.814 211.993 104.809 211.718 104.805 211.441L104.774 209.791L104.772 209.729C104.762 209.198 104.752 208.671 104.744 208.146C104.734 207.601 104.723 207.053 104.715 206.506L104.684 204.857L104.652 203.198C104.64 202.644 104.632 202.101 104.623 201.557L104.598 199.928L104.598 199.926V199.926C104.59 199.381 104.581 198.836 104.571 198.289L104.571 198.289C104.563 197.741 104.554 197.194 104.544 196.645C104.539 196.368 104.534 196.09 104.529 195.813C104.524 195.54 104.52 195.267 104.515 194.994L104.483 193.343C104.481 192.806 104.479 192.271 104.475 191.734C104.474 191.57 104.473 191.406 104.472 191.242C104.472 191.138 104.471 191.034 104.471 190.93C104.469 190.661 104.468 190.391 104.466 190.121C104.462 189.584 104.458 189.045 104.456 188.503L104.443 186.884C104.442 186.616 104.441 186.349 104.439 186.083L104.439 186.076C104.438 185.811 104.436 185.546 104.435 185.281C104.434 185.015 104.433 184.75 104.431 184.484C104.429 184.216 104.428 183.949 104.427 183.68C104.423 183.148 104.418 182.613 104.416 182.078C104.412 181.543 104.408 181.008 104.406 180.471L104.393 178.864L104.393 178.815L104.393 178.81C104.389 178.291 104.385 177.78 104.383 177.272C104.381 177.01 104.379 176.748 104.378 176.487L104.378 176.484C104.376 176.22 104.375 175.957 104.372 175.694C104.37 175.165 104.366 174.639 104.362 174.112C104.36 173.585 104.356 173.059 104.352 172.532L104.339 170.95L104.326 169.371L104.314 167.789L104.301 166.213C104.299 165.957 104.298 165.7 104.296 165.443L104.296 165.431C104.295 165.171 104.293 164.91 104.291 164.65L104.278 163.089C104.274 162.569 104.274 162.053 104.274 161.543V160.013V158.486V156.962V155.443V153.926V152.413V150.904V149.4V147.899V146.403V144.913V143.428V141.946V140.471V139.002V137.537V136.078V134.626V133.18V131.74V130.307V128.879V127.46V126.048V124.644V123.248V121.858V120.477V119.102V117.737V116.381V115.033V113.696V112.365V111.046V109.734V108.434V107.143V105.86V104.589V103.329V102.08V100.84V99.6117V98.3934V97.1877V95.9945V94.8117V93.6415V92.4838V91.3366V90.204V89.0819V87.9744V86.8794V85.799V84.7312V83.676V82.6353V81.6093V80.5958V79.5991V78.6148V77.6473V76.6923V75.7541V74.8305V73.9236V73.0313V72.1557V71.2969V69.6251V68.0224V66.4865V65.0195V63.6257V62.303V61.0555V59.8853V58.7903V57.7747V56.8386V55.217V53.9318V52.9999V52.2413Z" fill="white"/>
<circle cx="94.2723" cy="336.89" r="14.5953" fill="#363636"/>
<circle cx="240.704" cy="336.89" r="14.5953" fill="#363636"/>
<path d="M199.128 371.58C193.006 361.738 186.961 354.09 179.505 346.484C172.664 339.506 161.411 339.679 154.663 346.747C146.69 355.099 140.777 362.732 135.411 371.458C128.726 382.329 136.091 396.161 148.794 397.38C161.452 398.594 172.923 398.761 186.115 397.568C198.851 396.417 205.882 382.439 199.128 371.58Z" fill="#363636"/>
<path fill-rule="evenodd" clip-rule="evenodd" d="M308.396 334.736C308.449 335.096 308.501 335.457 308.552 335.816C308.57 335.951 308.589 336.087 308.607 336.222C308.669 336.675 308.731 337.13 308.789 337.583C308.862 338.171 308.934 338.761 309.001 339.353C309.069 339.941 309.13 340.527 309.191 341.117C309.248 341.703 309.301 342.285 309.355 342.872C309.406 343.456 309.453 344.035 309.495 344.617C309.535 345.149 309.569 345.685 309.603 346.214L309.612 346.351C309.649 346.929 309.679 347.503 309.708 348.079C309.713 348.202 309.718 348.325 309.724 348.447C309.743 348.899 309.763 349.348 309.777 349.796C309.798 350.366 309.812 350.935 309.824 351.503C309.836 352.071 309.845 352.634 309.849 353.198C309.853 353.762 309.853 354.325 309.851 354.887C309.847 355.446 309.838 356.006 309.828 356.563C309.816 357.121 309.802 357.676 309.783 358.229C309.765 358.785 309.74 359.336 309.716 359.888C309.689 360.439 309.659 360.986 309.626 361.536C309.591 362.079 309.555 362.626 309.512 363.169C309.471 363.712 309.428 364.253 309.379 364.795C309.33 365.334 309.277 365.875 309.222 366.41C309.167 366.947 309.105 367.482 309.042 368.015C308.979 368.548 308.913 369.079 308.842 369.608C308.773 370.136 308.699 370.663 308.622 371.188C308.544 371.715 308.462 372.238 308.377 372.76C308.291 373.283 308.203 373.804 308.113 374.323L308.113 374.324C308.019 374.84 307.925 375.356 307.825 375.875C307.738 376.322 307.647 376.772 307.556 377.218L307.515 377.42C307.407 377.935 307.296 378.443 307.184 378.956C307.068 379.464 306.951 379.973 306.831 380.479C306.708 380.986 306.586 381.488 306.457 381.992C306.353 382.4 306.244 382.807 306.136 383.212C306.111 383.306 306.086 383.399 306.061 383.493C305.924 383.994 305.785 384.488 305.645 384.986C305.502 385.48 305.355 385.972 305.208 386.464C305.162 386.61 305.117 386.755 305.072 386.901C304.965 387.244 304.859 387.587 304.748 387.931C304.593 388.419 304.434 388.905 304.266 389.389C304.105 389.87 303.938 390.352 303.768 390.832C303.599 391.312 303.423 391.79 303.248 392.266C303.072 392.739 302.89 393.215 302.706 393.687C302.533 394.131 302.355 394.574 302.178 395.013L302.145 395.094C301.951 395.564 301.757 396.027 301.561 396.491C301.363 396.954 301.163 397.418 300.959 397.875C300.781 398.275 300.599 398.673 300.417 399.069C300.39 399.129 300.363 399.188 300.336 399.247C300.124 399.703 299.909 400.154 299.693 400.607C299.474 401.057 299.254 401.506 299.029 401.953C298.805 402.4 298.578 402.843 298.349 403.286C298.117 403.73 297.882 404.169 297.645 404.608C297.408 405.045 297.167 405.482 296.924 405.915C296.679 406.347 296.434 406.778 296.183 407.211C295.932 407.638 295.679 408.067 295.421 408.492C295.164 408.916 294.905 409.339 294.641 409.76C294.38 410.178 294.113 410.599 293.845 411.013C293.574 411.43 293.3 411.843 293.024 412.255C292.749 412.667 292.469 413.076 292.187 413.484C291.901 413.893 291.613 414.301 291.322 414.707C291.03 415.11 290.731 415.514 290.435 415.914C290.135 416.315 289.835 416.713 289.531 417.109C289.227 417.503 288.918 417.897 288.608 418.289C288.296 418.679 287.981 419.067 287.665 419.455C287.346 419.841 287.026 420.225 286.701 420.607C286.376 420.989 286.052 421.366 285.723 421.744C285.392 422.12 285.059 422.496 284.724 422.865C284.386 423.239 284.049 423.609 283.708 423.974L283.706 423.976C283.361 424.341 283.017 424.706 282.666 425.069C282.315 425.43 281.96 425.791 281.605 426.151C281.245 426.51 280.882 426.868 280.52 427.221C280.155 427.576 279.785 427.929 279.416 428.277C279.044 428.626 278.673 428.973 278.295 429.318C277.917 429.663 277.537 430.004 277.156 430.343C276.77 430.684 276.384 431.021 275.992 431.356C275.6 431.691 275.206 432.024 274.81 432.355C274.411 432.685 274.011 433.014 273.609 433.339C273.205 433.663 272.798 433.986 272.39 434.307C271.98 434.627 271.565 434.946 271.149 435.26C270.728 435.579 270.305 435.893 269.881 436.206C269.456 436.516 269.027 436.824 268.596 437.133C268.167 437.438 267.733 437.74 267.3 438.041L267.296 438.044C266.855 438.346 266.414 438.642 265.969 438.94C265.524 439.236 265.076 439.528 264.625 439.82C264.176 440.112 263.723 440.4 263.265 440.684C262.806 440.972 262.345 441.254 261.881 441.533C261.413 441.815 260.946 442.093 260.474 442.369C260.003 442.642 259.527 442.916 259.051 443.185C258.573 443.455 258.094 443.72 257.612 443.984C257.128 444.247 256.64 444.507 256.15 444.766C255.658 445.021 255.166 445.276 254.669 445.528C254.175 445.779 253.677 446.028 253.177 446.271C252.675 446.516 252.168 446.761 251.66 447.002C251.147 447.243 250.629 447.482 250.11 447.719C249.587 447.953 249.063 448.188 248.538 448.419C248.156 448.584 247.774 448.749 247.39 448.913C239.978 437.368 235.679 423.634 235.679 408.895C235.679 368.417 268.103 335.512 308.396 334.736Z" fill="#FE5051"/>
<path fill-rule="evenodd" clip-rule="evenodd" d="M87.2806 446.709C87.1749 446.662 87.0693 446.615 86.9637 446.567C86.4287 446.328 85.8999 446.087 85.369 445.842C84.8423 445.593 84.3175 445.344 83.7969 445.095C83.2762 444.844 82.7556 444.588 82.2431 444.331C81.7306 444.074 81.2201 443.812 80.7117 443.549C80.2054 443.285 79.701 443.02 79.1988 442.75C78.6985 442.479 78.1983 442.207 77.7021 441.932C77.206 441.656 76.7119 441.378 76.2218 441.096C75.7318 440.815 75.2438 440.531 74.7599 440.243C74.2781 439.955 73.7962 439.665 73.3184 439.373C72.8386 439.079 72.369 438.783 71.8994 438.485C71.4912 438.224 71.086 437.961 70.6826 437.7C70.622 437.661 70.5614 437.621 70.5008 437.582C70.0393 437.278 69.582 436.972 69.1267 436.665C68.6734 436.359 68.2262 436.049 67.777 435.736C67.3299 435.424 66.8868 435.107 66.4438 434.789C66.0068 434.472 65.5719 434.152 65.137 433.829C64.7042 433.506 64.2774 433.182 63.8507 432.855C63.428 432.528 63.0074 432.199 62.5868 431.867C62.1703 431.534 61.7558 431.199 61.3434 430.862C60.935 430.523 60.5246 430.182 60.1224 429.841C59.7263 429.51 59.3322 429.173 58.9422 428.836C58.5523 428.497 58.1643 428.156 57.7805 427.815C57.3966 427.47 57.0148 427.125 56.6391 426.78C56.2655 426.433 55.8959 426.088 55.5264 425.736C55.1588 425.387 54.7954 425.036 54.432 424.683C54.0685 424.327 53.7092 423.97 53.3519 423.613C52.9966 423.253 52.6454 422.894 52.2963 422.53C51.9492 422.169 51.6061 421.808 51.2652 421.444C50.9283 421.081 50.5914 420.715 50.2606 420.348C49.9278 419.98 49.5991 419.61 49.2703 419.239C48.9436 418.867 48.619 418.491 48.2984 418.114C47.9779 417.738 47.6594 417.36 47.3449 416.982C47.0325 416.605 46.7201 416.225 46.4139 415.845L46.4122 415.843C46.1065 415.46 45.8008 415.076 45.5012 414.691C45.2011 414.305 44.903 413.917 44.6049 413.525C44.3316 413.165 44.0618 412.8 43.7907 412.434L43.7289 412.351C43.441 411.957 43.1552 411.561 42.8714 411.163C42.5876 410.762 42.3058 410.364 42.0281 409.96C41.7525 409.558 41.4789 409.151 41.2053 408.745C40.9358 408.334 40.6683 407.926 40.4029 407.514C40.1374 407.101 39.8741 406.686 39.6147 406.27C39.3575 405.851 39.1023 405.435 38.8491 405.012C38.5959 404.591 38.3468 404.167 38.1018 403.742C37.8547 403.315 37.6097 402.888 37.3688 402.457C37.1319 402.029 36.8931 401.596 36.6582 401.161L36.6568 401.158C36.4265 400.724 36.1963 400.29 35.9681 399.852C35.7415 399.413 35.5169 398.972 35.2943 398.529C35.0759 398.086 34.8574 397.642 34.641 397.193C34.4266 396.746 34.2163 396.299 34.008 395.848C33.7998 395.394 33.5935 394.941 33.3934 394.488C33.1913 394.03 32.9932 393.573 32.7972 393.113C32.6033 392.654 32.4113 392.194 32.2215 391.731C32.0336 391.267 31.8478 390.8 31.6661 390.334C31.4844 389.864 31.3067 389.397 31.1291 388.925C30.9556 388.453 30.784 387.982 30.6146 387.506C30.4451 387.03 30.2797 386.552 30.1164 386.074C29.9551 385.595 29.7979 385.113 29.6406 384.629C29.4855 384.145 29.3344 383.661 29.1853 383.173C29.0363 382.685 28.8913 382.197 28.7484 381.705C28.6075 381.214 28.4687 380.722 28.3319 380.226C28.1971 379.732 28.0644 379.236 27.9358 378.737L27.904 378.612C27.788 378.154 27.6723 377.697 27.5601 377.235C27.4396 376.734 27.3212 376.23 27.2068 375.726C27.0905 375.217 26.9802 374.711 26.872 374.202C26.7638 373.692 26.6596 373.181 26.5576 372.669C26.4575 372.154 26.3595 371.641 26.2656 371.125C26.1717 370.608 26.0818 370.09 25.992 369.571C25.9062 369.05 25.8225 368.529 25.7408 368.007C25.6633 367.484 25.5877 366.957 25.5122 366.43C25.4407 365.903 25.3713 365.377 25.3039 364.846C25.2386 364.317 25.1773 363.784 25.1181 363.253C25.0589 362.72 25.0038 362.185 24.9507 361.648C24.9017 361.113 24.8527 360.574 24.8077 360.033C24.7649 359.496 24.722 358.95 24.6852 358.411C24.6485 357.866 24.6158 357.323 24.5852 356.776C24.5566 356.23 24.5301 355.681 24.5076 355.134C24.4851 354.585 24.4668 354.035 24.4525 353.482C24.4382 352.928 24.4259 352.375 24.4178 351.82C24.4096 351.264 24.4076 350.709 24.4055 350.149C24.4055 349.592 24.4116 349.032 24.4178 348.473C24.4259 347.909 24.4361 347.348 24.4525 346.784C24.4668 346.221 24.4851 345.655 24.5076 345.087C24.5321 344.522 24.5587 343.95 24.5872 343.382C24.6179 342.812 24.6526 342.241 24.6893 341.667C24.7281 341.093 24.771 340.519 24.8159 339.943C24.8629 339.37 24.9119 338.792 24.965 338.214C25.0201 337.636 25.0773 337.058 25.1365 336.476C25.1987 335.902 25.2629 335.332 25.3291 334.76C65.4246 335.758 97.6215 368.573 97.6215 408.909C97.6215 422.715 93.8498 435.64 87.2806 446.709Z" fill="#FE5051"/>
<path d="M56.0043 267.312L81.5723 234.786C84.5195 231.036 86.0459 226.365 85.8814 221.599L80.7307 72.3216C80.1129 54.4165 63.6916 41.2676 46.0847 44.5798C30.9297 47.4308 20.5899 61.5559 22.4524 76.8639L45.2591 264.309C45.9084 269.646 52.682 271.539 56.0043 267.312Z" fill="#FE5051"/>
<path d="M281.363 267.312L255.795 234.786C252.848 231.036 251.321 226.365 251.486 221.599L256.636 72.3216C257.254 54.4165 273.676 41.2676 291.283 44.5798C306.438 47.4308 316.777 61.5559 314.915 76.8639L292.108 264.309C291.459 269.646 284.685 271.539 281.363 267.312Z" fill="#FE5051"/>
<path d="M193.837 407.162L168.457 419.98L140 407.162" stroke="#363636" stroke-width="7.69102" stroke-linecap="round" stroke-linejoin="round"/>
</svg>
