<svg width="1920" height="1080" viewBox="0 0 1920 1080" fill="none" xmlns="http://www.w3.org/2000/svg">
<path d="M1919.92 0.128174H0V1080H1919.92V0.128174Z" fill="#BBF7FF"/>
<g style="mix-blend-mode:multiply" opacity="0.51">
<path d="M1469.33 250.456C1259.85 181.042 1155.49 223.412 891.638 277.57C627.789 331.729 471.021 49.6419 284.149 0.128174H0V1080H1919.92V309C1826.85 309.165 1629.32 303.483 1469.33 250.456Z" fill="#BBF7FF"/>
</g>
<mask id="mask0_137_5" style="mask-type:luminance" maskUnits="userSpaceOnUse" x="0" y="0" width="1920" height="1080">
<path d="M1919.92 1080H0L0.0767969 0L1920 0.235782L1919.92 1080Z" fill="white"/>
</mask>
<g mask="url(#mask0_137_5)">
<path d="M-236.919 807.469L-57.9049 637.184L-24.4471 466.874C-24.4471 466.874 114.914 378.327 131.63 375.23C148.346 372.132 198.52 327.539 198.52 327.539C198.52 327.539 204.101 307.725 243.113 305.242C282.126 302.759 324.262 268.712 324.262 268.712L377.534 210.5C377.534 210.5 513.797 98.4281 530.513 101.526C547.229 104.623 642.611 185.157 653.747 185.157C664.882 185.157 703.921 174.022 731.772 196.319C759.624 218.615 879.146 338.777 879.146 338.777L946.65 358.616L1038.29 425.506C1038.29 425.506 1147.29 445.345 1169.59 458.964C1191.89 472.583 1331.22 576.028 1331.22 576.028L1453.84 657.177L1534.58 730.697L1682.9 869.034L959.782 959.168L-236.97 807.443L-236.919 807.469Z" fill="white"/>
<path opacity="0.4" d="M1050.22 790.727L809.772 598.299L856.849 562.384L642.586 427.964L617.191 391.844C617.191 391.844 711.933 411.248 711.933 397.603C711.933 383.985 541.649 255.145 541.649 255.145C541.649 255.145 530.513 227.268 544.746 227.268C558.979 227.268 625.869 235.331 606.056 224.17C586.242 213.009 530.513 101.526 530.513 101.526C513.797 98.4281 377.534 210.5 377.534 210.5L324.262 268.712C324.262 268.712 282.152 302.759 243.114 305.242C204.101 307.725 198.52 327.539 198.52 327.539C198.52 327.539 148.346 372.132 131.63 375.23C114.914 378.327 -24.4469 466.874 -24.4469 466.874L-57.9047 637.184L-222.711 875.613L127.995 786.017L452.769 856.03L822.674 926.248L640.41 787.45L984.895 806.393L1050.25 790.727H1050.22Z" fill="#4A9CCE"/>
<path opacity="0.52" d="M670.207 439.278L642.534 355.954L678.373 361.074L541.649 255.119C541.649 255.119 460.909 277.083 490.246 310.848C543.492 372.158 264.181 443.349 264.181 443.349L132.884 521.374L42.4429 634.701L-124.974 720.944L-270.069 826.949C-270.069 826.949 190.149 835.371 201.438 835.371C212.727 835.371 554.909 828.076 568.067 815.02C581.225 801.965 670.232 439.227 670.232 439.227L670.207 439.278Z" fill="#4A9CCE"/>
<path d="M1230.93 629.3L1032.76 481.261L952.256 475.68L929.959 455.866L899.01 405.692L815.404 392.048L742.959 288.603C742.959 288.603 575.106 400.675 558.39 408.739C541.674 416.777 497.695 400.061 472.301 411.196C446.907 422.332 87.062 791.136 87.062 791.136L368.113 810.668L1067.89 858.897L1230.95 629.3H1230.93Z" fill="#E3FBFF"/>
<path opacity="0.4" d="M1077.31 750.664C1065.56 717.846 844.459 647.193 827.743 618.087C811.027 588.981 904.54 632.96 875.434 609.435C846.328 585.884 733.001 504.761 745.391 511.57C757.781 518.379 794.311 514.667 770.785 488.044C747.26 461.421 704.612 400.982 745.391 433.544C792.749 471.354 873.667 522.936 859.972 488.07C855.876 477.626 721.865 369.752 721.865 369.752L781.946 392.048L742.933 288.603C742.933 288.603 575.081 400.675 558.365 408.739C541.649 416.777 497.67 400.061 472.275 411.196C446.881 422.332 87.0364 791.136 87.0364 791.136L318.963 797.894L685.515 783.841L982.642 822.93C982.642 822.93 1089.08 783.482 1077.31 750.664Z" fill="#0088DB"/>
<path d="M2050.48 657.279L1882.63 598.453L1818.63 598.402L1761.64 592.821L1640.59 545.105C1640.59 545.105 1501.33 475.731 1487.07 475.731C1472.84 475.731 1469.66 478.215 1401.6 520.299C1333.53 562.41 1269.43 595.842 1269.43 595.842L1180.01 592.744L1118.6 612.558L938.356 704.561L1224.73 801.043L1440.3 888.822L1928.47 882.525L2050.45 657.279H2050.48Z" fill="white"/>
<mask id="mask1_137_5" style="mask-type:luminance" maskUnits="userSpaceOnUse" x="938" y="475" width="1113" height="414">
<path d="M2050.48 657.279L1882.63 598.453L1818.63 598.402L1761.64 592.821L1640.59 545.105C1640.59 545.105 1501.33 475.731 1487.07 475.731C1472.84 475.731 1469.66 478.215 1401.6 520.299C1333.53 562.41 1269.43 595.842 1269.43 595.842L1180.01 592.744L1118.6 612.558L938.356 704.561L1224.73 801.043L1440.3 888.822L1928.47 882.525L2050.45 657.279H2050.48Z" fill="white"/>
</mask>
<g mask="url(#mask1_137_5)">
<path opacity="0.4" d="M1643.79 377.918L1487.1 475.757C1487.1 475.757 1578.87 556.291 1568.6 556.291C1558.31 556.291 1501.33 545.13 1501.33 545.13C1501.33 545.13 1640.59 621.338 1661.96 634.957C1683.34 648.576 1586.75 645.888 1586.75 645.888L1533.28 626.356C1533.28 626.356 1607.51 691.07 1682.98 724.016C1758.47 756.987 1658.2 770.632 1658.2 770.632L1718.36 822.546L1797.33 856.644L1661.58 891.408L1262.31 922.05L845.278 765.512L809.593 631.808L1643.79 377.918Z" fill="#4A9CCE"/>
</g>
</g>
<path d="M1300.86 610.203C1301.09 610.356 1301.32 610.459 1301.55 610.535L1300.86 610.203Z" fill="#1C588C"/>
<path d="M1303.04 642.841C1308.72 646.784 1313.23 644.94 1313.23 644.94C1306.8 643.2 1304.83 639.027 1304.83 639.027C1307.57 640.768 1311.56 640.512 1311.56 640.512C1301.38 636.262 1298.53 628.096 1300.76 631.066C1302.99 634.035 1307.31 632.858 1307.31 632.858C1305.52 632.09 1302.43 629.53 1302.43 629.53C1303.91 630.298 1312.13 630.707 1312.13 630.707C1302.86 627.994 1299.76 620.34 1299.76 620.34C1303.22 623.565 1309.64 623.309 1309.64 623.309C1304.88 621.313 1300.2 615.886 1302.09 617.524C1303.99 619.162 1309.16 620.109 1309.16 620.109C1302.76 618.292 1297.95 608.846 1297.95 608.846L1300.84 610.254C1299.38 609.255 1298.25 606.747 1298.25 606.747C1299.79 608.487 1303.63 608.487 1303.63 608.487C1300.66 608.487 1297.87 604.75 1297.87 604.75L1302.37 606.491C1297.87 604.75 1296.26 600.552 1296.26 600.552C1297.13 602.037 1299.53 602.139 1299.53 602.139C1296.28 600.475 1292.95 594.178 1291.93 592.13V591.49C1291.93 591.49 1291.88 591.618 1291.78 591.823C1291.67 591.618 1291.62 591.49 1291.62 591.49V592.13C1290.6 594.152 1287.27 600.449 1284.02 602.113C1284.02 602.113 1286.43 602.011 1287.3 600.526C1287.3 600.526 1285.68 604.724 1281.18 606.465L1285.68 604.724C1285.68 604.724 1282.89 608.462 1279.92 608.462C1279.92 608.462 1283.76 608.462 1285.3 606.721C1285.3 606.721 1284.17 609.23 1282.71 610.228L1285.61 608.82C1285.61 608.82 1285.48 609.076 1285.22 609.511C1283.33 611.201 1280.56 613.044 1277.31 613.582C1277.31 613.582 1279.26 615.118 1282.69 613.351C1280.67 616.039 1277.06 618.676 1274.37 620.084C1274.37 620.084 1277.93 620.57 1281.43 617.498C1283.33 615.86 1280.64 621.594 1273.04 623.335C1273.04 623.335 1276.01 623.796 1277.62 623.54C1276.62 624.359 1273.11 625.076 1272.12 625.127C1272.12 625.127 1275.75 626.356 1279.82 625.869C1277.75 627.328 1274.5 629.018 1269.58 630.272C1269.58 630.272 1279.67 630.272 1281.15 629.504C1281.15 629.504 1273.81 634.163 1272.01 634.931C1272.01 634.931 1275.42 634.752 1278.69 634.01C1275.88 635.418 1272.12 637.005 1267.51 638.157C1267.51 638.157 1276.01 640.768 1278.75 639.027C1278.75 639.027 1276.77 643.225 1270.35 644.94C1270.35 644.94 1274.85 646.784 1280.54 642.841C1280.54 642.841 1278.44 646.476 1270.66 648.575C1270.66 648.575 1283.23 651.699 1291.78 646.169C1300.3 651.699 1312.89 648.575 1312.89 648.575C1305.11 646.476 1303.01 642.841 1303.01 642.841H1303.04Z" fill="#1C588C"/>
<path d="M1282.76 610.203L1282.07 610.535C1282.3 610.459 1282.53 610.356 1282.76 610.203Z" fill="#1C588C"/>
<path d="M1327.23 586.396C1327.38 586.498 1327.51 586.575 1327.67 586.6L1327.23 586.396Z" fill="#1C588C"/>
<path d="M1328.64 607.643C1332.35 610.203 1335.27 608.999 1335.27 608.999C1331.1 607.873 1329.82 605.134 1329.82 605.134C1331.58 606.26 1334.19 606.107 1334.19 606.107C1327.56 603.342 1325.69 598.018 1327.15 599.963C1328.61 601.883 1331.43 601.141 1331.43 601.141C1330.25 600.629 1328.25 598.99 1328.25 598.99C1329.23 599.477 1334.58 599.758 1334.58 599.758C1328.54 597.992 1326.54 593 1326.54 593C1328.79 595.099 1332.96 594.92 1332.96 594.92C1329.87 593.615 1326.82 590.107 1328.05 591.157C1329.28 592.207 1332.66 592.846 1332.66 592.846C1328.48 591.669 1325.36 585.5 1325.36 585.5L1327.26 586.421C1326.31 585.781 1325.57 584.143 1325.57 584.143C1326.56 585.269 1329.07 585.269 1329.07 585.269C1327.15 585.269 1325.34 582.837 1325.34 582.837L1328.28 583.964C1325.34 582.837 1324.29 580.098 1324.29 580.098C1324.85 581.071 1326.41 581.122 1326.41 581.122C1324.29 580.047 1322.11 575.926 1321.47 574.62V574.21C1321.47 574.21 1321.44 574.287 1321.37 574.415C1321.29 574.287 1321.27 574.21 1321.27 574.21V574.62C1320.6 575.951 1318.42 580.047 1316.33 581.122C1316.33 581.122 1317.89 581.045 1318.45 580.098C1318.45 580.098 1317.4 582.837 1314.46 583.964L1317.4 582.837C1317.4 582.837 1315.58 585.269 1313.66 585.269C1313.66 585.269 1316.15 585.269 1317.17 584.143C1317.17 584.143 1316.45 585.781 1315.48 586.421L1317.37 585.5C1317.37 585.5 1317.3 585.679 1317.12 585.96C1315.89 587.061 1314.1 588.264 1311.97 588.623C1311.97 588.623 1313.23 589.621 1315.48 588.469C1314.17 590.235 1311.82 591.925 1310.08 592.846C1310.08 592.846 1312.38 593.154 1314.69 591.157C1315.92 590.082 1314.17 593.819 1309.21 594.946C1309.21 594.946 1311.13 595.253 1312.18 595.074C1311.54 595.611 1309.26 596.072 1308.59 596.098C1308.59 596.098 1310.95 596.891 1313.61 596.584C1312.25 597.531 1310.13 598.632 1306.93 599.451C1306.93 599.451 1313.48 599.451 1314.46 598.965C1314.46 598.965 1309.67 601.985 1308.49 602.497C1308.49 602.497 1310.69 602.369 1312.84 601.909C1311 602.83 1308.57 603.854 1305.55 604.596C1305.55 604.596 1311.08 606.312 1312.87 605.16C1312.87 605.16 1311.59 607.873 1307.42 609.025C1307.42 609.025 1310.36 610.228 1314.05 607.668C1314.05 607.668 1312.69 610.023 1307.62 611.406C1307.62 611.406 1315.81 613.454 1321.37 609.844C1326.92 613.454 1335.11 611.406 1335.11 611.406C1330.05 610.049 1328.69 607.668 1328.69 607.668L1328.64 607.643Z" fill="#1C588C"/>
<path d="M1315.45 586.396L1315.02 586.6C1315.17 586.549 1315.33 586.472 1315.45 586.396Z" fill="#1C588C"/>
<path d="M1334.14 641.971C1334.14 641.971 1334.35 642.099 1334.47 642.124L1334.14 641.971Z" fill="#1C588C"/>
<path d="M1335.17 657.458C1337.85 659.327 1340 658.457 1340 658.457C1336.96 657.638 1336.04 655.641 1336.04 655.641C1337.34 656.46 1339.24 656.332 1339.24 656.332C1334.4 654.31 1333.04 650.444 1334.12 651.852C1335.17 653.26 1337.21 652.697 1337.21 652.697C1336.37 652.339 1334.91 651.11 1334.91 651.11C1335.6 651.468 1339.52 651.673 1339.52 651.673C1335.12 650.393 1333.66 646.758 1333.66 646.758C1335.29 648.294 1338.34 648.166 1338.34 648.166C1336.09 647.219 1333.86 644.659 1334.76 645.427C1335.65 646.195 1338.11 646.656 1338.11 646.656C1335.06 645.785 1332.79 641.305 1332.79 641.305L1334.17 641.971C1333.48 641.51 1332.94 640.307 1332.94 640.307C1333.68 641.126 1335.5 641.126 1335.5 641.126C1334.09 641.126 1332.79 639.36 1332.79 639.36L1334.94 640.179C1332.79 639.36 1332.04 637.363 1332.04 637.363C1332.45 638.054 1333.6 638.106 1333.6 638.106C1332.07 637.312 1330.48 634.317 1330 633.37V633.062C1330 633.062 1330 633.114 1329.92 633.216C1329.87 633.114 1329.84 633.062 1329.84 633.062V633.37C1329.36 634.342 1327.77 637.312 1326.23 638.106C1326.23 638.106 1327.38 638.054 1327.79 637.363C1327.79 637.363 1327.03 639.36 1324.9 640.179L1327.05 639.36C1327.05 639.36 1325.72 641.126 1324.31 641.126C1324.31 641.126 1326.13 641.126 1326.87 640.307C1326.87 640.307 1326.33 641.485 1325.64 641.971L1327.03 641.305C1327.03 641.305 1326.97 641.433 1326.85 641.638C1325.95 642.432 1324.64 643.328 1323.11 643.584C1323.11 643.584 1324.03 644.3 1325.67 643.481C1324.72 644.761 1323.01 646.016 1321.73 646.681C1321.73 646.681 1323.42 646.912 1325.08 645.452C1325.98 644.659 1324.7 647.398 1321.09 648.217C1321.09 648.217 1322.49 648.448 1323.26 648.32C1322.8 648.703 1321.14 649.062 1320.65 649.062C1320.65 649.062 1322.37 649.651 1324.31 649.42C1323.31 650.111 1321.78 650.905 1319.45 651.519C1319.45 651.519 1324.24 651.519 1324.93 651.161C1324.93 651.161 1321.45 653.363 1320.6 653.721C1320.6 653.721 1322.21 653.644 1323.77 653.286C1322.44 653.951 1320.65 654.694 1318.48 655.257C1318.48 655.257 1322.52 656.511 1323.8 655.666C1323.8 655.666 1322.88 657.663 1319.83 658.482C1319.83 658.482 1321.98 659.353 1324.67 657.484C1324.67 657.484 1323.67 659.199 1319.99 660.197C1319.99 660.197 1325.95 661.682 1330 659.071C1334.04 661.708 1340 660.223 1340 660.223C1336.32 659.225 1335.32 657.509 1335.32 657.509L1335.17 657.458Z" fill="#1C588C"/>
<path d="M1325.57 641.971L1325.23 642.124C1325.23 642.124 1325.46 642.048 1325.57 641.971Z" fill="#1C588C"/>
<path d="M1322.57 620.416C1322.57 620.416 1322.7 620.493 1322.78 620.519L1322.57 620.416Z" fill="#1C588C"/>
<path d="M1323.16 629.555C1324.75 630.656 1326.03 630.144 1326.03 630.144C1324.24 629.658 1323.67 628.48 1323.67 628.48C1324.44 628.967 1325.57 628.89 1325.57 628.89C1322.7 627.712 1321.91 625.408 1322.55 626.227C1323.16 627.047 1324.39 626.739 1324.39 626.739C1323.88 626.535 1323.03 625.818 1323.03 625.818C1323.44 626.023 1325.75 626.151 1325.75 626.151C1323.13 625.383 1322.29 623.232 1322.29 623.232C1323.26 624.128 1325.05 624.051 1325.05 624.051C1323.72 623.488 1322.39 621.978 1322.93 622.439C1323.47 622.9 1324.9 623.156 1324.9 623.156C1323.11 622.644 1321.75 620.007 1321.75 620.007L1322.57 620.391C1322.16 620.109 1321.85 619.418 1321.85 619.418C1322.29 619.904 1323.37 619.904 1323.37 619.904C1322.55 619.904 1321.75 618.855 1321.75 618.855L1323.01 619.341C1321.75 618.855 1321.29 617.677 1321.29 617.677C1321.52 618.087 1322.21 618.113 1322.21 618.113C1321.29 617.652 1320.37 615.885 1320.09 615.322V615.143C1320.09 615.143 1320.09 615.169 1320.04 615.245C1320.01 615.194 1319.99 615.143 1319.99 615.143V615.322C1319.7 615.885 1318.76 617.652 1317.86 618.113C1317.86 618.113 1318.53 618.087 1318.78 617.677C1318.78 617.677 1318.32 618.855 1317.07 619.341L1318.32 618.855C1318.32 618.855 1317.55 619.904 1316.71 619.904C1316.71 619.904 1317.78 619.904 1318.22 619.418C1318.22 619.418 1317.91 620.109 1317.5 620.391L1318.32 620.007C1318.32 620.007 1318.3 620.084 1318.22 620.212C1317.68 620.672 1316.91 621.21 1316.02 621.364C1316.02 621.364 1316.56 621.799 1317.53 621.312C1316.97 622.08 1315.94 622.797 1315.2 623.207C1315.2 623.207 1316.2 623.335 1317.17 622.49C1317.71 622.029 1316.94 623.642 1314.82 624.128C1314.82 624.128 1315.63 624.256 1316.1 624.18C1315.81 624.41 1314.84 624.615 1314.56 624.615C1314.56 624.615 1315.58 624.947 1316.71 624.819C1316.12 625.229 1315.22 625.715 1313.84 626.048C1313.84 626.048 1316.66 626.048 1317.09 625.843C1317.09 625.843 1315.02 627.149 1314.53 627.354C1314.53 627.354 1315.48 627.303 1316.4 627.098C1315.61 627.482 1314.56 627.943 1313.25 628.25C1313.25 628.25 1315.63 628.992 1316.4 628.506C1316.4 628.506 1315.84 629.683 1314.05 630.17C1314.05 630.17 1315.3 630.682 1316.91 629.581C1316.91 629.581 1316.33 630.605 1314.15 631.194C1314.15 631.194 1317.68 632.064 1320.06 630.528C1322.44 632.09 1325.98 631.194 1325.98 631.194C1323.8 630.605 1323.21 629.581 1323.21 629.581L1323.16 629.555Z" fill="#1C588C"/>
<path d="M1317.5 620.416L1317.3 620.519C1317.3 620.519 1317.43 620.467 1317.5 620.416Z" fill="#1C588C"/>
<path d="M1470.53 491.526C1471.84 491.091 1472.71 490.22 1472.71 490.22C1471.38 490.527 1470.33 489.887 1469.46 488.863C1470.38 488.659 1470.97 488.249 1470.97 488.249C1470.64 488.07 1470.33 487.891 1470.02 487.711C1472.58 488.377 1474.55 486.38 1474.55 486.38C1471.61 485.664 1469.84 483.948 1468.84 482.438C1469 482.361 1469.07 482.31 1469.07 482.31C1468.97 482.31 1468.84 482.31 1468.74 482.285C1467.9 480.953 1467.64 479.853 1467.64 479.853C1469.28 482.848 1471.25 480.928 1471.25 480.928C1470.53 480.518 1469.89 479.929 1469.3 479.264C1469.38 479.264 1469.43 479.264 1469.43 479.264C1469.23 479.085 1469.02 478.88 1468.82 478.701C1468.05 477.728 1467.44 476.627 1466.92 475.68C1467.92 475.834 1468.64 475.501 1468.64 475.501C1468.1 475.296 1467.59 474.861 1467.13 474.298C1469.3 475.834 1471.3 474.4 1471.3 474.4C1469.61 474.17 1468 471.763 1467.1 470.125C1467.74 470.176 1468.2 470.099 1468.2 470.099C1467.54 469.792 1466.95 469.331 1466.41 468.768C1466.36 468.666 1466.33 468.615 1466.33 468.615C1467.67 470.381 1470.46 469.203 1470.46 469.203C1469.38 468.999 1468.43 468.333 1467.64 467.514C1468.38 467.514 1468.87 467.309 1468.87 467.309C1467.82 466.9 1466.85 465.62 1466.1 464.288C1466.21 464.288 1466.26 464.288 1466.26 464.288C1466.18 464.237 1466.1 464.186 1466.03 464.135C1466 464.084 1465.98 464.032 1465.93 463.981C1466.95 464.391 1468.08 463.981 1468.08 463.981C1467.18 463.7 1466.36 462.906 1465.64 461.882C1466.9 462.573 1468.41 462.317 1468.41 462.317C1465.03 460.833 1463.42 455.073 1463.42 455.073C1464.21 457.172 1466.51 456.89 1466.51 456.89C1464.06 455.482 1462.42 449.876 1461.91 447.598L1461.96 446.548C1461.96 446.548 1461.91 446.728 1461.83 447.06C1461.78 446.728 1461.73 446.548 1461.73 446.548V447.598C1461.06 449.851 1459.12 455.354 1456.56 456.609C1456.56 456.609 1458.83 457.018 1459.76 454.97C1459.76 454.97 1457.78 460.628 1454.35 461.908C1454.35 461.908 1455.74 462.215 1456.97 461.703C1456.17 462.676 1455.28 463.418 1454.35 463.597C1454.35 463.597 1455.25 464.007 1456.17 463.879C1456.1 463.93 1456.02 463.981 1455.92 464.032C1455.92 464.032 1456.17 464.084 1456.53 464.058C1455.71 465.338 1454.69 466.567 1453.61 466.9C1453.61 466.9 1453.89 467.053 1454.35 467.13C1453.59 467.744 1452.72 468.179 1451.74 468.256C1451.74 468.256 1454.35 469.613 1455.74 468.103C1455.74 468.103 1455.66 468.231 1455.56 468.435C1454.97 468.999 1454.33 469.459 1453.61 469.715C1453.61 469.715 1454.05 469.818 1454.64 469.818C1453.64 471.226 1452.1 472.966 1450.57 473.018C1450.57 473.018 1452.41 474.579 1454.61 473.299C1454.71 473.299 1454.84 473.299 1454.97 473.299C1454.3 474.144 1453.56 474.835 1452.82 475.091C1452.82 475.091 1453.36 475.373 1454.2 475.373C1453.2 476.832 1451.85 478.393 1450.23 479.11C1450.23 479.11 1451.82 480.877 1453.48 478.854C1453.54 478.854 1453.59 478.854 1453.64 478.854C1453.2 479.929 1451.69 483.001 1448.34 484.537C1448.34 484.537 1450.46 485.484 1452.49 484.768C1452 485.126 1451.49 485.459 1450.92 485.74C1450.92 485.74 1451.31 486.048 1451.92 486.355C1451.28 486.867 1450.49 487.2 1449.59 487.225C1449.59 487.225 1450.36 487.737 1451.51 487.865C1450.18 489.299 1448.49 490.579 1446.39 490.988C1446.39 490.988 1448.83 493.906 1452.08 493.548C1451.1 494.265 1449.8 494.649 1447.7 495.135C1447.7 495.135 1449.87 497.311 1452.61 498.591C1452.38 498.719 1452.13 498.821 1451.87 498.949C1451.87 498.949 1458.25 503.301 1462.7 500.306C1464.47 501.381 1466.21 501.202 1467.74 500.485C1472.84 501.586 1476.88 493.471 1476.88 493.471C1473.84 493.855 1471.61 492.678 1470.53 491.603V491.526Z" fill="#1C588C"/>
<path d="M1488.43 480.851C1489.35 480.544 1489.96 479.929 1489.96 479.929C1489.02 480.16 1488.27 479.699 1487.66 478.957C1488.32 478.803 1488.73 478.521 1488.73 478.521C1488.5 478.393 1488.27 478.265 1488.07 478.137C1489.89 478.624 1491.29 477.19 1491.29 477.19C1489.19 476.678 1487.97 475.45 1487.25 474.4C1487.35 474.349 1487.4 474.298 1487.4 474.298C1487.33 474.298 1487.25 474.298 1487.17 474.298C1486.58 473.35 1486.38 472.582 1486.38 472.582C1487.56 474.707 1488.94 473.35 1488.94 473.35C1488.43 473.069 1487.97 472.634 1487.56 472.173C1487.61 472.173 1487.66 472.173 1487.66 472.173C1487.51 472.045 1487.35 471.917 1487.22 471.763C1486.69 471.072 1486.23 470.304 1485.89 469.613C1486.61 469.715 1487.1 469.485 1487.1 469.485C1486.71 469.331 1486.35 469.024 1486.02 468.64C1487.56 469.741 1488.96 468.717 1488.96 468.717C1487.76 468.538 1486.64 466.848 1485.97 465.696C1486.43 465.722 1486.74 465.696 1486.74 465.696C1486.28 465.492 1485.84 465.159 1485.46 464.749C1485.43 464.672 1485.41 464.647 1485.41 464.647C1486.35 465.901 1488.32 465.056 1488.32 465.056C1487.56 464.903 1486.89 464.442 1486.33 463.853C1486.84 463.853 1487.2 463.725 1487.2 463.725C1486.46 463.444 1485.76 462.522 1485.25 461.601C1485.33 461.601 1485.36 461.601 1485.36 461.601C1485.3 461.575 1485.25 461.524 1485.2 461.498C1485.2 461.447 1485.15 461.421 1485.12 461.37C1485.84 461.652 1486.66 461.37 1486.66 461.37C1486.05 461.165 1485.46 460.602 1484.92 459.885C1485.82 460.372 1486.89 460.193 1486.89 460.193C1484.51 459.143 1483.36 455.047 1483.36 455.047C1483.92 456.532 1485.56 456.353 1485.56 456.353C1483.82 455.354 1482.67 451.387 1482.28 449.748V449.006C1482.28 449.006 1482.28 449.134 1482.23 449.364C1482.23 449.364 1482.23 449.415 1482.23 449.441C1482.23 449.441 1482.23 449.39 1482.23 449.364C1482.18 449.134 1482.16 449.006 1482.16 449.006V449.748C1481.69 451.361 1480.31 455.252 1478.49 456.148C1478.49 456.148 1480.11 456.43 1480.77 454.996C1480.77 454.996 1479.39 459.015 1476.93 459.911C1476.93 459.911 1477.91 460.116 1478.8 459.783C1478.24 460.474 1477.6 460.986 1476.93 461.14C1476.93 461.14 1477.57 461.447 1478.21 461.345C1478.16 461.37 1478.09 461.421 1478.03 461.447C1478.03 461.447 1478.21 461.473 1478.47 461.447C1477.88 462.343 1477.16 463.213 1476.4 463.469C1476.4 463.469 1476.6 463.572 1476.93 463.623C1476.4 464.058 1475.76 464.365 1475.09 464.416C1475.09 464.416 1476.93 465.364 1477.93 464.314C1477.93 464.314 1477.88 464.391 1477.8 464.544C1477.39 464.928 1476.93 465.261 1476.42 465.466C1476.42 465.466 1476.73 465.543 1477.16 465.543C1476.45 466.541 1475.35 467.77 1474.3 467.821C1474.3 467.821 1475.6 468.922 1477.16 468C1477.24 468 1477.32 468 1477.42 468C1476.96 468.589 1476.42 469.075 1475.88 469.255C1475.88 469.255 1476.27 469.459 1476.86 469.459C1476.14 470.483 1475.17 471.584 1474.04 472.096C1474.04 472.096 1475.17 473.35 1476.34 471.917C1476.37 471.917 1476.42 471.917 1476.45 471.917C1476.14 472.659 1475.06 474.861 1472.68 475.962C1472.68 475.962 1474.19 476.627 1475.63 476.115C1475.27 476.371 1474.91 476.602 1474.53 476.806C1474.53 476.806 1474.78 477.011 1475.24 477.242C1474.78 477.6 1474.25 477.83 1473.58 477.856C1473.58 477.856 1474.12 478.214 1474.94 478.317C1473.99 479.341 1472.79 480.237 1471.3 480.544C1471.3 480.544 1473.04 482.617 1475.35 482.361C1474.65 482.873 1473.73 483.129 1472.25 483.488C1472.25 483.488 1473.78 485.024 1475.73 485.945C1475.55 486.022 1475.4 486.124 1475.22 486.201C1475.22 486.201 1479.72 489.299 1482.9 487.148C1484.15 487.916 1485.38 487.788 1486.48 487.276C1490.09 488.07 1492.96 482.31 1492.96 482.31C1490.81 482.566 1489.22 481.747 1488.45 480.979L1488.43 480.851Z" fill="#1C588C"/>
<path d="M1504.15 493.958C1504.89 493.702 1505.37 493.215 1505.37 493.215C1504.61 493.395 1504.02 493.036 1503.51 492.447C1504.04 492.345 1504.38 492.089 1504.38 492.089C1504.2 491.987 1503.99 491.884 1503.84 491.782C1505.3 492.166 1506.42 491.039 1506.42 491.039C1504.73 490.63 1503.74 489.632 1503.17 488.787C1503.25 488.736 1503.3 488.71 1503.3 488.71C1503.25 488.71 1503.17 488.71 1503.12 488.71C1502.63 487.942 1502.48 487.328 1502.48 487.328C1503.43 489.043 1504.55 487.942 1504.55 487.942C1504.15 487.712 1503.79 487.379 1503.45 486.995C1503.51 486.995 1503.53 486.995 1503.53 486.995C1503.4 486.892 1503.3 486.79 1503.17 486.662C1502.74 486.099 1502.38 485.484 1502.1 484.921C1502.66 484.998 1503.07 484.819 1503.07 484.819C1502.76 484.691 1502.48 484.461 1502.2 484.128C1503.45 484.998 1504.58 484.179 1504.58 484.179C1503.61 484.051 1502.69 482.669 1502.17 481.747C1502.53 481.773 1502.79 481.747 1502.79 481.747C1502.4 481.568 1502.07 481.312 1501.76 480.979C1501.74 480.928 1501.71 480.877 1501.71 480.877C1502.48 481.875 1504.07 481.209 1504.07 481.209C1503.45 481.081 1502.92 480.723 1502.46 480.237C1502.87 480.237 1503.15 480.134 1503.15 480.134C1502.53 479.904 1501.99 479.162 1501.56 478.419C1501.61 478.419 1501.64 478.419 1501.64 478.419C1501.59 478.394 1501.56 478.368 1501.51 478.342C1501.51 478.317 1501.48 478.291 1501.46 478.24C1502.05 478.47 1502.69 478.24 1502.69 478.24C1502.17 478.086 1501.71 477.626 1501.3 477.037C1502.02 477.421 1502.89 477.293 1502.89 477.293C1500.97 476.448 1500.05 473.146 1500.05 473.146C1500.51 474.349 1501.82 474.195 1501.82 474.195C1500.41 473.376 1499.49 470.202 1499.18 468.871V468.256C1499.18 468.256 1499.18 468.359 1499.13 468.538C1499.13 468.538 1499.13 468.564 1499.13 468.589V468.538C1499.1 468.359 1499.08 468.256 1499.08 468.256V468.871C1498.69 470.151 1497.59 473.299 1496.13 474.016C1496.13 474.016 1497.44 474.247 1497.98 473.069C1497.98 473.069 1496.85 476.294 1494.88 477.037C1494.88 477.037 1495.67 477.216 1496.39 476.934C1495.93 477.498 1495.42 477.907 1494.9 478.01C1494.9 478.01 1495.42 478.24 1495.93 478.163C1495.88 478.189 1495.83 478.214 1495.77 478.24C1495.77 478.24 1495.93 478.266 1496.13 478.24C1495.67 478.957 1495.08 479.673 1494.47 479.853C1494.47 479.853 1494.62 479.929 1494.9 479.981C1494.47 480.313 1493.96 480.569 1493.42 480.621C1493.42 480.621 1494.9 481.389 1495.7 480.544C1495.7 480.544 1495.67 480.621 1495.6 480.723C1495.26 481.03 1494.9 481.312 1494.49 481.465C1494.49 481.465 1494.75 481.517 1495.08 481.517C1494.52 482.31 1493.62 483.309 1492.75 483.36C1492.75 483.36 1493.8 484.256 1495.08 483.513C1495.13 483.513 1495.21 483.513 1495.29 483.513C1494.9 484 1494.49 484.384 1494.06 484.537C1494.06 484.537 1494.37 484.691 1494.85 484.691C1494.29 485.536 1493.5 486.406 1492.57 486.816C1492.57 486.816 1493.47 487.814 1494.44 486.662C1494.47 486.662 1494.49 486.662 1494.52 486.662C1494.26 487.276 1493.42 489.017 1491.47 489.913C1491.47 489.913 1492.7 490.451 1493.83 490.041C1493.55 490.246 1493.24 490.425 1492.93 490.579C1492.93 490.579 1493.14 490.758 1493.5 490.937C1493.11 491.219 1492.68 491.423 1492.16 491.449C1492.16 491.449 1492.6 491.756 1493.27 491.807C1492.52 492.627 1491.52 493.343 1490.35 493.599C1490.35 493.599 1491.76 495.263 1493.6 495.058C1493.04 495.468 1492.29 495.673 1491.09 495.954C1491.09 495.954 1492.34 497.183 1493.91 497.926C1493.78 498.002 1493.62 498.054 1493.47 498.13C1493.47 498.13 1497.11 500.613 1499.67 498.898C1500.69 499.513 1501.66 499.41 1502.53 499.001C1505.45 499.641 1507.75 495.007 1507.75 495.007C1506.01 495.212 1504.73 494.546 1504.12 493.932L1504.15 493.958Z" fill="#1C588C"/>
<path d="M1729.21 212.6C1765.26 212.6 1794.49 183.374 1794.49 147.322C1794.49 111.27 1765.26 82.0448 1729.21 82.0448C1693.16 82.0448 1663.93 111.27 1663.93 147.322C1663.93 183.374 1693.16 212.6 1729.21 212.6Z" fill="#FFED00"/>
<path d="M1920 1080H960.038H0.0769043L0 806.346C0 806.346 424.533 715.136 541.598 692.225C658.662 669.314 878.506 661.916 1082.89 730.086C1287.27 798.231 1256.91 816.201 1366.52 820.553C1476.14 824.905 1506.5 793.93 1570.91 809.443C1635.31 824.93 1665.65 836.092 1730.08 836.092C1794.49 836.092 1814.02 795.312 1919.92 829.41" fill="#6892C3"/>
<path d="M1919.92 826.825C1799.61 796.106 1794.49 836.092 1730.08 836.066C1665.67 836.066 1635.31 824.905 1570.91 809.418C1506.5 793.93 1476.14 824.879 1366.52 820.528C1256.91 816.176 1287.24 798.231 1082.89 730.061C878.506 661.916 658.662 669.314 541.598 692.2C541.598 692.2 806.675 697.806 905.769 738.688C1004.86 779.569 916.904 739.302 957.171 735.59C997.439 731.878 1089.08 790.73 1173.92 827.286C1258.75 863.841 1269.3 863.841 1324.41 863.841C1379.53 863.841 1398.11 885.523 1449.52 911.558C1500.92 937.566 1372.72 860.155 1460.68 863.867C1548.61 867.604 1648.32 927.071 1626.05 889.901C1603.75 852.731 1644.02 842.21 1714.01 875.053C1783.99 907.897 1804.78 831.919 1919.97 862.638" fill="white"/>
</svg>
