<svg width="1920" height="1080" viewBox="0 0 1920 1080" fill="none" xmlns="http://www.w3.org/2000/svg">
<g clip-path="url(#clip0_121_954)">
<rect width="1920" height="1080" fill="white"/>
<rect width="1920" height="1024" fill="#6892C3"/>
<path d="M1721.23 1262.59L1867.11 1225.75C1905.92 1215.94 1945.69 1210.41 1985.7 1209.24L2321.41 1199.42C2477.62 1194.85 2634.97 1125.61 2680.29 976.043C2725.16 827.963 2721.77 626.93 2498.12 448.983C1849.67 -66.9478 98.677 -59.0259 -573.274 448.983C-890.227 688.607 -777.326 984.697 -679.999 1141.92C-632.527 1218.61 -553.613 1267.03 -467.979 1295.35C-383.3 1323.34 -292.99 1329.85 -205.172 1314.28L53.2528 1268.46C113.954 1257.69 176.032 1257.21 236.892 1267.03L592.959 1324.49C648.451 1333.44 704.988 1333.84 760.6 1325.66L1195.71 1261.67C1238.51 1255.38 1281.91 1254.15 1324.99 1258.03L1537.3 1277.12C1598.99 1282.67 1661.17 1277.75 1721.23 1262.59Z" fill="#344D6A"/>
</g>
<defs>
<clipPath id="clip0_121_954">
<rect width="1920" height="1080" fill="white"/>
</clipPath>
</defs>
</svg>
