<svg width="1920" height="1080" viewBox="0 0 1920 1080" fill="none" xmlns="http://www.w3.org/2000/svg">
<g clip-path="url(#clip0_121_954)">
<rect width="1920" height="1080" fill="white"/>
<rect width="1920" height="1080" fill="white"/>
<path fill-rule="evenodd" clip-rule="evenodd" d="M1919.65 -201H-8.3545V118.756C-8.38098 135.001 -9.25519 148.738 -9.99145 160.308C-12.7924 204.322 -13.5971 216.966 41.8608 216.966L224.079 197.67C277.177 192.048 330.794 193.708 383.441 202.606L709.694 257.745C777.234 269.16 846.252 268.645 913.614 256.223L1204.56 202.572C1252.73 193.69 1301.82 190.882 1350.69 194.214L1672.62 216.161C1734.22 220.361 1796.1 214.798 1855.96 199.68L1920.1 183V113L1919.65 113.001V-201Z" fill="#344D6A"/>
</g>
<defs>
<clipPath id="clip0_121_954">
<rect width="1920" height="1080" fill="white"/>
</clipPath>
</defs>
</svg>
