<svg width="1270" height="166" viewBox="0 0 1270 166" fill="none" xmlns="http://www.w3.org/2000/svg">
<path d="M1139.64 100.302C1140.94 104.377 1144.72 106.985 1148.78 106.985C1149.75 106.985 1150.73 106.838 1151.7 106.527L1162.44 103.107L1162.68 103.028C1162.67 103.129 1162.66 103.232 1162.66 103.333C1162.49 107.731 1166.16 111.587 1171.06 112.043C1172.7 112.195 1174.28 111.953 1175.68 111.388C1178.57 112.523 1181.71 113.46 1185.05 114.172V119.088L1196.8 115.633C1197.86 115.679 1198.93 115.702 1200.01 115.702C1223.86 115.702 1243.19 104.581 1243.19 90.8651C1243.19 82.9398 1236.74 75.8843 1226.7 71.3342C1226.39 63.7197 1218.33 57.0421 1207.86 56.0596C1197.91 55.1285 1189.14 59.6558 1186.82 66.486C1185.42 65.3681 1183.63 64.6237 1181.65 64.437C1176.59 63.9621 1172.15 67.2874 1171.72 71.8603C1171.71 71.9445 1171.7 72.03 1171.7 72.1141C1169.22 73.3504 1166.99 74.7507 1165.05 76.285L1156.45 70.7638C1151.99 67.8962 1146.05 69.1896 1143.19 73.6484C1142.16 75.2512 1141.67 77.0464 1141.67 78.8245C1141.67 81.9858 1143.22 85.073 1146.08 86.9081L1147.4 87.7608L1145.87 88.2456C1140.82 89.8541 1138.03 95.2512 1139.64 100.303V100.302Z" fill="#FE5051"/>
<path d="M1224.28 89.7344C1222.57 89.7344 1221.18 88.3445 1221.18 86.6301C1221.18 84.9157 1222.57 83.5259 1224.28 83.5259C1226 83.5259 1227.39 84.9157 1227.39 86.6301C1227.39 88.3445 1226 89.7344 1224.28 89.7344Z" fill="black"/>
<path d="M1202.55 101.109C1202.64 101.109 1202.73 101.089 1202.82 101.049C1203.15 100.898 1203.29 100.513 1203.14 100.186C1200.45 94.353 1201.27 88.655 1205.58 83.2536C1208.84 79.1569 1212.99 76.7756 1213.03 76.7514C1213.34 76.5745 1213.45 76.1781 1213.28 75.8659C1213.1 75.5536 1212.7 75.4438 1212.39 75.6206C1212.22 75.719 1195.01 85.6862 1201.96 100.731C1202.07 100.969 1202.3 101.109 1202.55 101.109H1202.55Z" fill="black"/>
<path d="M1188.88 101.819C1189.83 101.819 1190.72 101.689 1191.47 101.444C1195.1 100.241 1201.3 97.989 1201.36 97.9661C1201.7 97.8435 1201.87 97.4699 1201.75 97.1334C1201.63 96.7969 1201.26 96.6215 1200.92 96.7441C1200.86 96.7669 1194.68 99.0128 1191.06 100.209C1188.96 100.904 1185.48 100.469 1183.63 98.7176C1182.42 97.564 1182.06 96.024 1182.58 94.139C1183.84 89.5133 1195.92 90.4658 1200.47 91.2215C1200.83 91.2814 1201.16 91.0419 1201.22 90.6868C1201.28 90.3332 1201.04 89.9981 1200.68 89.9382C1199.97 89.8184 1183.15 87.0963 1181.32 93.7953C1180.51 96.7627 1181.65 98.6221 1182.74 99.6601C1184.31 101.146 1186.73 101.818 1188.89 101.818L1188.88 101.819Z" fill="black"/>
<path d="M1191.42 93.6286H1200.95C1201.31 93.6286 1201.6 93.3377 1201.6 92.9783C1201.6 92.619 1201.31 92.3281 1200.95 92.3281H1191.42C1191.06 92.3281 1190.77 92.619 1190.77 92.9783C1190.77 93.3377 1191.06 93.6286 1191.42 93.6286Z" fill="black"/>
<path d="M1189.85 97.4399C1189.88 97.4399 1189.92 97.4371 1189.95 97.4314L1201.05 95.6148C1201.41 95.5563 1201.65 95.2226 1201.59 94.8676C1201.53 94.5125 1201.2 94.2744 1200.84 94.3314L1189.74 96.1481C1189.39 96.2065 1189.15 96.5402 1189.21 96.8952C1189.26 97.2132 1189.53 97.4399 1189.85 97.4399H1189.85Z" fill="black"/>
<path d="M1186.89 84.7015C1187.15 84.7015 1187.4 84.5404 1187.5 84.2795C1187.63 83.9429 1187.46 83.5679 1187.12 83.4424C1186.89 83.3526 1184.85 82.4985 1185.4 80.3111C1185.98 77.9968 1189.53 77.8799 1189.56 77.8785C1189.85 77.8714 1190.1 77.6746 1190.18 77.3965C1190.25 77.1185 1190.13 76.8233 1189.89 76.6736C1189.84 76.6422 1188.6 75.8437 1188.6 74.1297C1188.6 72.6125 1191.19 72.2988 1191.22 72.296C1191.57 72.2546 1191.83 71.9338 1191.79 71.5773C1191.75 71.2208 1191.43 70.9642 1191.07 71.0041C1190.92 71.0212 1187.3 71.4533 1187.3 74.1297C1187.3 75.2904 1187.71 76.1574 1188.15 76.7563C1186.73 77.0543 1184.67 77.8542 1184.13 79.996C1183.46 82.6824 1185.49 84.2224 1186.66 84.6602C1186.74 84.6887 1186.81 84.7015 1186.89 84.7015H1186.89Z" fill="black"/>
<path d="M1170.92 99.6816C1171.18 99.6816 1171.43 99.5204 1171.53 99.2595C1171.66 98.923 1171.49 98.5479 1171.15 98.4225C1170.92 98.3326 1168.88 97.4785 1169.43 95.2911C1170.01 92.964 1173.56 92.8599 1173.59 92.8585C1173.88 92.8528 1174.13 92.656 1174.2 92.378C1174.28 92.0999 1174.16 91.8047 1173.92 91.655C1173.87 91.6237 1172.63 90.8266 1172.63 89.1112C1172.63 87.594 1175.22 87.2803 1175.24 87.2774C1175.6 87.2361 1175.86 86.9152 1175.82 86.5588C1175.78 86.2023 1175.45 85.9456 1175.1 85.9855C1174.94 86.0026 1171.33 86.4347 1171.33 89.1112C1171.33 90.2719 1171.74 91.1388 1172.17 91.7363C1170.76 92.0343 1168.7 92.8343 1168.16 94.976C1167.49 97.6624 1169.52 99.2024 1170.69 99.6402C1170.77 99.6687 1170.84 99.6816 1170.92 99.6816H1170.92Z" fill="black"/>
<path d="M1173.85 72.6032C1173.92 72.6032 1173.99 72.5918 1174.06 72.5675C1204.82 62.0656 1224.37 71.3127 1224.56 71.4068C1224.88 71.5651 1225.27 71.431 1225.43 71.1088C1225.59 70.7865 1225.46 70.3972 1225.13 70.239C1224.94 70.142 1204.95 60.6482 1173.64 71.3369C1173.3 71.4524 1173.12 71.8218 1173.23 72.1625C1173.33 72.432 1173.58 72.6032 1173.85 72.6032Z" fill="black"/>
<path d="M1194.27 116.07C1194.63 116.07 1194.92 115.779 1194.92 115.421C1194.92 115.063 1194.63 114.771 1194.27 114.771C1194.24 114.771 1191 114.754 1186.33 113.657C1185.98 113.576 1185.63 113.791 1185.55 114.142C1185.47 114.491 1185.68 114.841 1186.03 114.923C1190.86 116.055 1194.14 116.071 1194.27 116.071L1194.27 116.07Z" fill="black"/>
<path d="M1175.17 110.916C1175.46 110.916 1175.72 110.728 1175.8 110.44C1175.89 110.095 1175.69 109.736 1175.35 109.64C1175.27 109.619 1167.63 107.454 1164.42 102.639C1164.22 102.339 1163.82 102.26 1163.52 102.459C1163.22 102.659 1163.14 103.062 1163.34 103.36C1166.82 108.582 1174.67 110.801 1175 110.894C1175.06 110.909 1175.12 110.918 1175.17 110.918V110.916Z" fill="black"/>
<path d="M1205.09 63.0069C1205.19 63.0069 1205.29 62.9841 1205.38 62.9384C1205.7 62.7773 1205.83 62.388 1205.67 62.0658L1203.41 57.5499C1203.25 57.229 1202.86 57.0993 1202.54 57.259C1202.22 57.4201 1202.09 57.8094 1202.25 58.1316L1204.51 62.6476C1204.62 62.8757 1204.85 63.0069 1205.09 63.0069Z" fill="black"/>
<path d="M1200.01 64.136C1200.11 64.136 1200.21 64.1132 1200.3 64.0676C1200.62 63.9065 1200.75 63.5172 1200.59 63.1949L1198.34 58.679C1198.17 58.3582 1197.78 58.2284 1197.46 58.3881C1197.14 58.5493 1197.01 58.9385 1197.17 59.2608L1199.43 63.7767C1199.54 64.0049 1199.77 64.136 1200.01 64.136Z" fill="black"/>
<path d="M1194.93 65.2656C1195.02 65.2656 1195.1 65.2485 1195.19 65.2128C1195.52 65.0717 1195.67 64.6895 1195.53 64.3587L1193.83 60.4075C1193.69 60.0781 1193.31 59.9255 1192.98 60.0652C1192.65 60.2064 1192.5 60.5885 1192.64 60.9194L1194.33 64.8706C1194.44 65.1173 1194.68 65.2642 1194.93 65.2642L1194.93 65.2656Z" fill="black"/>
<path d="M1145.26 85.0216C1145.37 85.0216 1145.49 84.9916 1145.59 84.9289L1151.24 81.5423C1151.54 81.3569 1151.64 80.9577 1151.46 80.6511C1151.27 80.3431 1150.88 80.2433 1150.57 80.4287L1144.92 83.8152C1144.61 84.0006 1144.51 84.3999 1144.7 84.7064C1144.82 84.9089 1145.04 85.0216 1145.26 85.0216Z" fill="black"/>
<path d="M1144.13 81.0704C1144.24 81.0704 1144.36 81.0404 1144.46 80.9777L1150.11 77.5911C1150.41 77.4058 1150.51 77.0065 1150.33 76.6999C1150.15 76.3919 1149.74 76.2921 1149.44 76.4775L1143.79 79.8641C1143.48 80.0494 1143.38 80.4487 1143.57 80.7553C1143.69 80.9577 1143.91 81.0704 1144.13 81.0704Z" fill="black"/>
<path d="M1147.51 97.44C1147.73 97.44 1147.95 97.3274 1148.07 97.1249C1148.26 96.8169 1148.16 96.4176 1147.85 96.2337L1142.2 92.8471C1141.9 92.6617 1141.5 92.7616 1141.31 93.0696C1141.13 93.3776 1141.23 93.7768 1141.53 93.9608L1147.18 97.3473C1147.28 97.4101 1147.4 97.44 1147.51 97.44Z" fill="black"/>
<path d="M1146.38 101.391C1146.6 101.391 1146.82 101.279 1146.94 101.076C1147.13 100.768 1147.03 100.369 1146.72 100.185L1141.07 96.7984C1140.77 96.6144 1140.37 96.7128 1140.18 97.0208C1140 97.3288 1140.1 97.7281 1140.4 97.912L1146.05 101.299C1146.15 101.361 1146.27 101.391 1146.38 101.391Z" fill="black"/>
<path d="M953.645 98.3018C954.942 102.377 958.72 104.985 962.783 104.985C963.749 104.985 964.731 104.838 965.702 104.527L976.438 101.107L976.681 101.028C976.669 101.129 976.663 101.232 976.663 101.333C976.494 105.731 980.163 109.587 985.062 110.043C986.705 110.195 988.279 109.953 989.679 109.388C992.57 110.523 995.714 111.46 999.049 112.172V117.088L1010.8 113.633C1011.86 113.679 1012.93 113.702 1014.01 113.702C1037.86 113.702 1057.19 102.581 1057.19 88.8651C1057.19 80.9398 1050.74 73.8843 1040.7 69.3342C1040.39 61.7197 1032.33 55.0421 1021.86 54.0596C1011.91 53.1285 1003.14 57.6558 1000.82 64.486C999.417 63.3681 997.633 62.6237 995.647 62.437C990.589 61.9621 986.147 65.2874 985.718 69.8603C985.712 69.9445 985.701 70.03 985.701 70.1141C983.217 71.3504 980.988 72.7507 979.052 74.285L970.449 68.7638C965.99 65.8962 960.051 67.1896 957.19 71.6484C956.163 73.2512 955.665 75.0464 955.665 76.8245C955.665 79.9858 957.224 83.073 960.08 84.9081L961.4 85.7608L959.87 86.2456C954.824 87.8541 952.035 93.2512 953.645 98.3033V98.3018Z" fill="#FF931E"/>
<path d="M1038.28 87.7344C1036.57 87.7344 1035.18 86.3445 1035.18 84.6301C1035.18 82.9157 1036.57 81.5259 1038.28 81.5259C1040 81.5259 1041.39 82.9157 1041.39 84.6301C1041.39 86.3445 1040 87.7344 1038.28 87.7344Z" fill="black"/>
<path d="M1016.55 99.109C1016.64 99.109 1016.73 99.0891 1016.82 99.0491C1017.15 98.898 1017.29 98.513 1017.14 98.1864C1014.45 92.353 1015.27 86.655 1019.58 81.2536C1022.84 77.1569 1026.99 74.7756 1027.03 74.7514C1027.34 74.5745 1027.45 74.1781 1027.28 73.8659C1027.1 73.5536 1026.7 73.4438 1026.39 73.6206C1026.22 73.719 1009.01 83.6862 1015.96 98.7312C1016.07 98.9693 1016.3 99.109 1016.55 99.109H1016.55Z" fill="black"/>
<path d="M1002.88 99.819C1003.83 99.819 1004.72 99.6892 1005.47 99.444C1009.1 98.2405 1015.3 95.989 1015.36 95.9661C1015.7 95.8435 1015.87 95.4699 1015.75 95.1334C1015.63 94.7969 1015.26 94.6215 1014.92 94.7441C1014.86 94.7669 1008.68 97.0128 1005.06 98.2091C1002.96 98.9036 999.48 98.4686 997.635 96.7176C996.418 95.564 996.062 94.024 996.577 92.139C997.839 87.5133 1009.92 88.4658 1014.47 89.2215C1014.83 89.2814 1015.16 89.0419 1015.22 88.6868C1015.28 88.3332 1015.04 87.9981 1014.68 87.9382C1013.97 87.8184 997.15 85.0963 995.323 91.7953C994.513 94.7627 995.648 96.6221 996.742 97.6601C998.309 99.146 1000.73 99.8176 1002.89 99.8176L1002.88 99.819Z" fill="black"/>
<path d="M1005.42 91.6286H1014.95C1015.31 91.6286 1015.6 91.3377 1015.6 90.9783C1015.6 90.619 1015.31 90.3281 1014.95 90.3281H1005.42C1005.06 90.3281 1004.77 90.619 1004.77 90.9783C1004.77 91.3377 1005.06 91.6286 1005.42 91.6286Z" fill="black"/>
<path d="M1003.85 95.4399C1003.88 95.4399 1003.92 95.4371 1003.95 95.4314L1015.05 93.6148C1015.41 93.5563 1015.65 93.2226 1015.59 92.8676C1015.53 92.5125 1015.2 92.2744 1014.84 92.3314L1003.74 94.1481C1003.39 94.2065 1003.15 94.5402 1003.21 94.8952C1003.26 95.2132 1003.53 95.4399 1003.85 95.4399H1003.85Z" fill="black"/>
<path d="M1001.29 83.0045C1001.55 83.0045 1001.8 82.8434 1001.9 82.5824C1002.02 82.2459 1001.86 81.8709 1001.52 81.7454C1001.29 81.6556 999.249 80.8015 999.795 78.6141C1000.37 76.2998 1003.93 76.1829 1003.96 76.1815C1004.25 76.1743 1004.5 75.9776 1004.57 75.6995C1004.65 75.4214 1004.53 75.1263 1004.29 74.9765C1004.24 74.9452 1003 74.1467 1003 72.4327C1003 70.9155 1005.59 70.6018 1005.61 70.599C1005.97 70.5576 1006.23 70.2368 1006.19 69.8803C1006.15 69.5238 1005.82 69.2671 1005.47 69.3071C1005.31 69.3242 1001.7 69.7562 1001.7 72.4327C1001.7 73.5934 1002.11 74.4604 1002.54 75.0593C1001.13 75.3573 999.066 76.1572 998.531 78.299C997.86 80.9854 999.892 82.5254 1001.06 82.9632C1001.14 82.9917 1001.21 83.0045 1001.29 83.0045H1001.29Z" fill="black"/>
<path d="M984.921 97.6816C985.183 97.6816 985.431 97.5204 985.53 97.2595C985.655 96.923 985.486 96.5479 985.149 96.4225C984.918 96.3326 982.879 95.4785 983.425 93.2911C984.007 90.964 987.556 90.8599 987.592 90.8585C987.88 90.8528 988.131 90.656 988.205 90.378C988.28 90.0999 988.162 89.8047 987.915 89.655C987.867 89.6237 986.632 88.8266 986.632 87.1112C986.632 85.594 989.217 85.2803 989.244 85.2774C989.601 85.2361 989.858 84.9152 989.816 84.5588C989.776 84.2023 989.454 83.9456 989.099 83.9855C988.945 84.0026 985.332 84.4347 985.332 87.1112C985.332 88.2719 985.738 89.1388 986.174 89.7363C984.758 90.0343 982.697 90.8343 982.162 92.976C981.49 95.6624 983.522 97.2024 984.69 97.6402C984.766 97.6687 984.843 97.6816 984.918 97.6816H984.921Z" fill="black"/>
<path d="M987.848 70.6032C987.918 70.6032 987.99 70.5918 988.058 70.5675C1018.82 60.0656 1038.37 69.3127 1038.56 69.4068C1038.88 69.5651 1039.27 69.431 1039.43 69.1088C1039.59 68.7865 1039.46 68.3972 1039.13 68.239C1038.94 68.142 1018.95 58.6482 987.639 69.3369C987.299 69.4524 987.118 69.8218 987.234 70.1625C987.327 70.432 987.579 70.6032 987.848 70.6032Z" fill="black"/>
<path d="M1008.27 114.07C1008.63 114.07 1008.92 113.779 1008.92 113.421C1008.92 113.063 1008.63 112.771 1008.27 112.771C1008.24 112.771 1005 112.754 1000.33 111.657C999.983 111.576 999.632 111.791 999.55 112.142C999.467 112.491 999.685 112.841 1000.03 112.923C1004.86 114.055 1008.14 114.071 1008.27 114.071L1008.27 114.07Z" fill="black"/>
<path d="M989.173 108.916C989.458 108.916 989.719 108.728 989.799 108.44C989.895 108.095 989.692 107.736 989.346 107.64C989.269 107.619 981.634 105.454 978.423 100.639C978.225 100.339 977.821 100.26 977.522 100.459C977.222 100.659 977.143 101.062 977.342 101.36C980.823 106.582 988.667 108.801 988.999 108.894C989.058 108.909 989.116 108.918 989.173 108.918V108.916Z" fill="black"/>
<path d="M1019.09 61.0069C1019.19 61.0069 1019.29 60.9841 1019.38 60.9384C1019.7 60.7773 1019.83 60.388 1019.67 60.0658L1017.41 55.5499C1017.25 55.229 1016.86 55.0993 1016.54 55.259C1016.22 55.4201 1016.09 55.8094 1016.25 56.1316L1018.51 60.6476C1018.62 60.8757 1018.85 61.0069 1019.09 61.0069Z" fill="black"/>
<path d="M1014.01 62.136C1014.11 62.136 1014.21 62.1132 1014.3 62.0676C1014.62 61.9065 1014.75 61.5172 1014.59 61.1949L1012.34 56.679C1012.17 56.3582 1011.78 56.2284 1011.46 56.3881C1011.14 56.5493 1011.01 56.9385 1011.17 57.2608L1013.43 61.7767C1013.54 62.0049 1013.77 62.136 1014.01 62.136Z" fill="black"/>
<path d="M1008.93 63.2656C1009.02 63.2656 1009.1 63.2485 1009.19 63.2128C1009.52 63.0717 1009.67 62.6895 1009.53 62.3587L1007.83 58.4075C1007.69 58.0781 1007.31 57.9255 1006.98 58.0652C1006.65 58.2064 1006.5 58.5885 1006.64 58.9194L1008.33 62.8706C1008.44 63.1173 1008.68 63.2642 1008.93 63.2642L1008.93 63.2656Z" fill="black"/>
<path d="M959.257 83.0216C959.371 83.0216 959.487 82.9916 959.591 82.9289L965.236 79.5423C965.544 79.3569 965.644 78.9577 965.459 78.6511C965.273 78.3431 964.875 78.2433 964.567 78.4287L958.922 81.8152C958.614 82.0006 958.514 82.3999 958.7 82.7064C958.821 82.9089 959.036 83.0216 959.257 83.0216Z" fill="black"/>
<path d="M958.128 79.0704C958.242 79.0704 958.357 79.0404 958.461 78.9777L964.107 75.5911C964.415 75.4058 964.515 75.0065 964.329 74.6999C964.145 74.3919 963.745 74.2921 963.438 74.4775L957.793 77.8641C957.485 78.0494 957.385 78.4487 957.57 78.7553C957.691 78.9577 957.907 79.0704 958.128 79.0704Z" fill="black"/>
<path d="M961.513 95.44C961.734 95.44 961.949 95.3274 962.07 95.1249C962.256 94.8169 962.156 94.4176 961.848 94.2337L956.203 90.8471C955.896 90.6617 955.495 90.7616 955.311 91.0696C955.126 91.3776 955.226 91.7768 955.534 91.9608L961.179 95.3473C961.283 95.4101 961.399 95.44 961.513 95.44Z" fill="black"/>
<path d="M960.384 99.3913C960.605 99.3913 960.82 99.2786 960.941 99.0762C961.127 98.7682 961.027 98.3689 960.719 98.185L955.074 94.7984C954.766 94.6144 954.366 94.7128 954.182 95.0208C953.997 95.3288 954.097 95.7281 954.405 95.912L960.05 99.2986C960.154 99.3613 960.27 99.3913 960.384 99.3913Z" fill="black"/>
<path d="M767.645 96.3018C768.942 100.377 772.72 102.985 776.783 102.985C777.749 102.985 778.731 102.838 779.702 102.527L790.438 99.1066L790.681 99.0282C790.669 99.1295 790.663 99.2321 790.663 99.3334C790.494 103.731 794.163 107.587 799.062 108.043C800.705 108.195 802.279 107.953 803.679 107.388C806.57 108.523 809.714 109.46 813.049 110.172V115.088L824.802 111.633C825.857 111.679 826.929 111.702 828.008 111.702C851.857 111.702 871.191 100.581 871.191 86.8651C871.191 78.9398 864.739 71.8843 854.697 67.3342C854.387 59.7197 846.332 53.0421 835.855 52.0596C825.909 51.1285 817.137 55.6558 814.823 62.486C813.417 61.3681 811.633 60.6237 809.647 60.437C804.589 59.9621 800.147 63.2874 799.718 67.8603C799.712 67.9445 799.701 68.03 799.701 68.1141C797.217 69.3504 794.988 70.7507 793.052 72.285L784.449 66.7638C779.99 63.8962 774.051 65.1896 771.19 69.6484C770.163 71.2512 769.665 73.0464 769.665 74.8245C769.665 77.9858 771.224 81.073 774.08 82.9081L775.4 83.7608L773.87 84.2456C768.824 85.8541 766.035 91.2512 767.645 96.3033V96.3018Z" fill="#FF8283"/>
<path d="M852.282 85.7344C850.568 85.7344 849.178 84.3445 849.178 82.6301C849.178 80.9157 850.568 79.5259 852.282 79.5259C853.996 79.5259 855.386 80.9157 855.386 82.6301C855.386 84.3445 853.996 85.7344 852.282 85.7344Z" fill="black"/>
<path d="M830.551 97.109C830.642 97.109 830.735 97.0891 830.823 97.0491C831.15 96.898 831.291 96.513 831.141 96.1864C828.449 90.353 829.267 84.655 833.575 79.2536C836.842 75.1569 840.99 72.7756 841.031 72.7514C841.344 72.5745 841.453 72.1781 841.275 71.8659C841.098 71.5536 840.702 71.4438 840.39 71.6206C840.216 71.719 823.015 81.6862 829.959 96.7312C830.069 96.9693 830.304 97.109 830.549 97.109H830.551Z" fill="black"/>
<path d="M816.885 97.819C817.829 97.819 818.721 97.6892 819.466 97.444C823.102 96.2405 829.3 93.989 829.362 93.9661C829.7 93.8435 829.874 93.4699 829.751 93.1334C829.628 92.7969 829.256 92.6215 828.918 92.7441C828.857 92.7669 822.676 95.0128 819.058 96.2091C816.963 96.9036 813.48 96.4686 811.635 94.7176C810.418 93.564 810.062 92.024 810.577 90.139C811.839 85.5133 823.922 86.4658 828.471 87.2215C828.827 87.2814 829.159 87.0419 829.219 86.6868C829.278 86.3332 829.039 85.9981 828.684 85.9382C827.97 85.8184 811.15 83.0963 809.323 89.7953C808.513 92.7627 809.648 94.6221 810.742 95.6601C812.309 97.146 814.735 97.8176 816.888 97.8176L816.885 97.819Z" fill="black"/>
<path d="M819.419 89.6286H828.951C829.31 89.6286 829.601 89.3377 829.601 88.9783C829.601 88.619 829.31 88.3281 828.951 88.3281H819.419C819.059 88.3281 818.768 88.619 818.768 88.9783C818.768 89.3377 819.059 89.6286 819.419 89.6286Z" fill="black"/>
<path d="M817.849 93.4399C817.883 93.4399 817.918 93.4371 817.954 93.4314L829.055 91.6148C829.409 91.5563 829.65 91.2226 829.591 90.8676C829.533 90.5125 829.199 90.2744 828.844 90.3314L817.743 92.1481C817.389 92.2065 817.148 92.5402 817.207 92.8952C817.26 93.2132 817.535 93.4399 817.847 93.4399H817.849Z" fill="black"/>
<path d="M815.291 81.0045C815.553 81.0045 815.801 80.8434 815.899 80.5824C816.025 80.2459 815.855 79.8709 815.519 79.7454C815.288 79.6556 813.249 78.8015 813.795 76.6141C814.374 74.2998 817.927 74.1829 817.963 74.1815C818.251 74.1743 818.5 73.9776 818.575 73.6995C818.649 73.4214 818.532 73.1263 818.285 72.9765C818.237 72.9452 817.002 72.1467 817.002 70.4327C817.002 68.9155 819.587 68.6018 819.614 68.599C819.971 68.5576 820.227 68.2368 820.186 67.8803C820.146 67.5238 819.824 67.2671 819.469 67.3071C819.315 67.3242 815.701 67.7562 815.701 70.4327C815.701 71.5934 816.108 72.4604 816.544 73.0593C815.128 73.3573 813.066 74.1572 812.531 76.299C811.86 78.9854 813.892 80.5254 815.06 80.9632C815.135 80.9917 815.212 81.0045 815.288 81.0045H815.291Z" fill="black"/>
<path d="M798.921 95.6816C799.183 95.6816 799.431 95.5204 799.53 95.2595C799.655 94.923 799.486 94.5479 799.149 94.4225C798.918 94.3326 796.879 93.4785 797.425 91.2911C798.007 88.964 801.556 88.8599 801.592 88.8585C801.88 88.8528 802.131 88.656 802.205 88.378C802.28 88.0999 802.162 87.8047 801.915 87.655C801.867 87.6237 800.632 86.8266 800.632 85.1112C800.632 83.594 803.217 83.2803 803.244 83.2774C803.601 83.2361 803.858 82.9152 803.816 82.5588C803.776 82.2023 803.454 81.9456 803.099 81.9855C802.945 82.0026 799.332 82.4347 799.332 85.1112C799.332 86.2719 799.738 87.1388 800.174 87.7363C798.758 88.0343 796.697 88.8343 796.162 90.976C795.49 93.6624 797.522 95.2024 798.69 95.6402C798.766 95.6687 798.843 95.6816 798.918 95.6816H798.921Z" fill="black"/>
<path d="M801.848 68.6032C801.918 68.6032 801.99 68.5918 802.058 68.5675C832.821 58.0656 852.368 67.3127 852.561 67.4068C852.884 67.5651 853.273 67.431 853.431 67.1088C853.59 66.7865 853.456 66.3972 853.133 66.239C852.935 66.142 832.945 56.6482 801.639 67.3369C801.299 67.4524 801.118 67.8218 801.234 68.1625C801.327 68.432 801.579 68.6032 801.848 68.6032Z" fill="black"/>
<path d="M822.272 112.07C822.631 112.07 822.921 111.779 822.922 111.421C822.924 111.063 822.631 110.771 822.273 110.771C822.241 110.771 818.997 110.754 814.331 109.657C813.983 109.576 813.632 109.791 813.55 110.142C813.467 110.491 813.685 110.841 814.034 110.923C818.858 112.055 822.136 112.071 822.273 112.071L822.272 112.07Z" fill="black"/>
<path d="M803.173 106.916C803.458 106.916 803.719 106.728 803.799 106.44C803.895 106.095 803.692 105.736 803.346 105.64C803.269 105.619 795.634 103.454 792.423 98.6389C792.225 98.3394 791.821 98.2596 791.522 98.4592C791.222 98.6588 791.143 99.0624 791.342 99.3604C794.823 104.582 802.667 106.801 802.999 106.894C803.058 106.909 803.116 106.918 803.173 106.918V106.916Z" fill="black"/>
<path d="M833.09 59.0069C833.189 59.0069 833.287 58.9841 833.381 58.9384C833.702 58.7773 833.832 58.388 833.672 58.0658L831.415 53.5499C831.254 53.229 830.863 53.0993 830.542 53.259C830.221 53.4201 830.092 53.8094 830.251 54.1316L832.509 58.6476C832.623 58.8757 832.852 59.0069 833.09 59.0069Z" fill="black"/>
<path d="M828.011 60.136C828.11 60.136 828.208 60.1132 828.302 60.0676C828.623 59.9065 828.753 59.5172 828.593 59.1949L826.336 54.679C826.175 54.3582 825.784 54.2284 825.463 54.3881C825.142 54.5493 825.013 54.9385 825.172 55.2608L827.43 59.7767C827.544 60.0049 827.773 60.136 828.011 60.136Z" fill="black"/>
<path d="M822.931 61.2656C823.016 61.2656 823.103 61.2485 823.186 61.2128C823.515 61.0717 823.669 60.6895 823.528 60.3587L821.834 56.4075C821.692 56.0781 821.309 55.9255 820.98 56.0652C820.651 56.2064 820.497 56.5885 820.638 56.9194L822.332 60.8706C822.437 61.1173 822.677 61.2642 822.929 61.2642L822.931 61.2656Z" fill="black"/>
<path d="M773.257 81.0216C773.371 81.0216 773.487 80.9916 773.591 80.9289L779.236 77.5423C779.544 77.3569 779.644 76.9577 779.459 76.6511C779.273 76.3431 778.875 76.2433 778.567 76.4287L772.922 79.8152C772.614 80.0006 772.514 80.3999 772.7 80.7064C772.821 80.9089 773.036 81.0216 773.257 81.0216Z" fill="black"/>
<path d="M772.128 77.0704C772.242 77.0704 772.357 77.0404 772.461 76.9777L778.107 73.5911C778.415 73.4058 778.515 73.0065 778.329 72.6999C778.145 72.3919 777.745 72.2921 777.438 72.4775L771.793 75.8641C771.485 76.0494 771.385 76.4487 771.57 76.7553C771.691 76.9577 771.907 77.0704 772.128 77.0704Z" fill="black"/>
<path d="M775.513 93.44C775.734 93.44 775.949 93.3274 776.07 93.1249C776.256 92.8169 776.156 92.4176 775.848 92.2337L770.203 88.8471C769.896 88.6617 769.495 88.7616 769.311 89.0696C769.126 89.3776 769.226 89.7768 769.534 89.9608L775.179 93.3473C775.283 93.4101 775.399 93.44 775.513 93.44Z" fill="black"/>
<path d="M774.384 97.3913C774.605 97.3913 774.82 97.2786 774.941 97.0762C775.127 96.7682 775.027 96.3689 774.719 96.185L769.074 92.7984C768.766 92.6144 768.366 92.7128 768.182 93.0208C767.997 93.3288 768.097 93.7281 768.405 93.912L774.05 97.2986C774.154 97.3613 774.27 97.3913 774.384 97.3913Z" fill="black"/>
<path d="M581.645 94.3018C582.942 98.3771 586.72 100.985 590.783 100.985C591.749 100.985 592.731 100.838 593.702 100.527L604.438 97.1066L604.681 97.0282C604.669 97.1295 604.663 97.2321 604.663 97.3334C604.494 101.731 608.163 105.587 613.062 106.043C614.705 106.195 616.279 105.953 617.679 105.388C620.57 106.523 623.714 107.46 627.049 108.172V113.088L638.802 109.633C639.857 109.679 640.929 109.702 642.008 109.702C665.857 109.702 685.191 98.5811 685.191 84.8651C685.191 76.9398 678.739 69.8843 668.697 65.3342C668.387 57.7197 660.332 51.0421 649.855 50.0596C639.909 49.1285 631.137 53.6558 628.823 60.486C627.417 59.3681 625.633 58.6237 623.647 58.437C618.589 57.9621 614.147 61.2874 613.718 65.8603C613.712 65.9445 613.701 66.03 613.701 66.1141C611.217 67.3504 608.988 68.7507 607.052 70.285L598.449 64.7638C593.99 61.8962 588.051 63.1896 585.19 67.6484C584.163 69.2512 583.665 71.0464 583.665 72.8245C583.665 75.9858 585.224 79.073 588.08 80.9081L589.4 81.7608L587.87 82.2456C582.824 83.8541 580.035 89.2512 581.645 94.3033V94.3018Z" fill="#FFBD70"/>
<path d="M666.282 83.7344C664.568 83.7344 663.178 82.3445 663.178 80.6301C663.178 78.9157 664.568 77.5259 666.282 77.5259C667.996 77.5259 669.386 78.9157 669.386 80.6301C669.386 82.3445 667.996 83.7344 666.282 83.7344Z" fill="black"/>
<path d="M644.551 95.109C644.642 95.109 644.735 95.0891 644.823 95.0491C645.15 94.898 645.291 94.513 645.141 94.1864C642.449 88.353 643.267 82.655 647.575 77.2536C650.842 73.1569 654.99 70.7756 655.031 70.7514C655.344 70.5745 655.453 70.1781 655.275 69.8659C655.098 69.5536 654.702 69.4438 654.39 69.6206C654.216 69.719 637.015 79.6862 643.959 94.7312C644.069 94.9693 644.304 95.109 644.549 95.109H644.551Z" fill="black"/>
<path d="M630.885 95.819C631.829 95.819 632.721 95.6892 633.466 95.444C637.102 94.2405 643.3 91.989 643.362 91.9661C643.7 91.8435 643.874 91.4699 643.751 91.1334C643.628 90.7969 643.256 90.6215 642.918 90.7441C642.857 90.7669 636.676 93.0128 633.058 94.2091C630.963 94.9036 627.48 94.4686 625.635 92.7176C624.418 91.564 624.062 90.024 624.577 88.139C625.839 83.5133 637.922 84.4658 642.471 85.2215C642.827 85.2814 643.159 85.0419 643.219 84.6868C643.278 84.3332 643.039 83.9981 642.684 83.9382C641.97 83.8184 625.15 81.0963 623.323 87.7953C622.513 90.7627 623.648 92.6221 624.742 93.6601C626.309 95.146 628.735 95.8176 630.888 95.8176L630.885 95.819Z" fill="black"/>
<path d="M633.419 87.6286H642.951C643.31 87.6286 643.601 87.3377 643.601 86.9783C643.601 86.619 643.31 86.3281 642.951 86.3281H633.419C633.059 86.3281 632.768 86.619 632.768 86.9783C632.768 87.3377 633.059 87.6286 633.419 87.6286Z" fill="black"/>
<path d="M631.849 91.4399C631.883 91.4399 631.918 91.4371 631.954 91.4314L643.055 89.6148C643.409 89.5563 643.65 89.2226 643.591 88.8676C643.533 88.5125 643.199 88.2744 642.844 88.3314L631.743 90.1481C631.389 90.2065 631.148 90.5402 631.207 90.8952C631.26 91.2132 631.535 91.4399 631.847 91.4399H631.849Z" fill="black"/>
<path d="M629.291 79.0045C629.553 79.0045 629.801 78.8434 629.899 78.5824C630.025 78.2459 629.855 77.8709 629.519 77.7454C629.288 77.6556 627.249 76.8015 627.795 74.6141C628.374 72.2998 631.927 72.1829 631.963 72.1815C632.251 72.1743 632.5 71.9776 632.575 71.6995C632.649 71.4214 632.532 71.1263 632.285 70.9765C632.237 70.9452 631.002 70.1467 631.002 68.4327C631.002 66.9155 633.587 66.6018 633.614 66.599C633.971 66.5576 634.227 66.2368 634.186 65.8803C634.146 65.5238 633.824 65.2671 633.469 65.3071C633.315 65.3242 629.701 65.7562 629.701 68.4327C629.701 69.5934 630.108 70.4604 630.544 71.0593C629.128 71.3573 627.066 72.1572 626.531 74.299C625.86 76.9854 627.892 78.5254 629.06 78.9632C629.135 78.9917 629.212 79.0045 629.288 79.0045H629.291Z" fill="black"/>
<path d="M612.921 93.6816C613.183 93.6816 613.431 93.5204 613.53 93.2595C613.655 92.923 613.486 92.5479 613.149 92.4225C612.918 92.3326 610.879 91.4785 611.425 89.2911C612.007 86.964 615.556 86.8599 615.592 86.8585C615.88 86.8528 616.131 86.656 616.205 86.378C616.28 86.0999 616.162 85.8047 615.915 85.655C615.867 85.6237 614.632 84.8266 614.632 83.1112C614.632 81.594 617.217 81.2803 617.244 81.2774C617.601 81.2361 617.858 80.9152 617.816 80.5588C617.776 80.2023 617.454 79.9456 617.099 79.9855C616.945 80.0026 613.332 80.4347 613.332 83.1112C613.332 84.2719 613.738 85.1388 614.174 85.7363C612.758 86.0343 610.697 86.8343 610.162 88.976C609.49 91.6624 611.522 93.2024 612.69 93.6402C612.766 93.6687 612.843 93.6816 612.918 93.6816H612.921Z" fill="black"/>
<path d="M615.848 66.6032C615.918 66.6032 615.99 66.5918 616.058 66.5675C646.821 56.0656 666.368 65.3127 666.561 65.4068C666.884 65.5651 667.273 65.431 667.431 65.1088C667.59 64.7865 667.456 64.3972 667.133 64.239C666.935 64.142 646.945 54.6482 615.639 65.3369C615.299 65.4524 615.118 65.8218 615.234 66.1625C615.327 66.432 615.579 66.6032 615.848 66.6032Z" fill="black"/>
<path d="M636.272 110.07C636.631 110.07 636.921 109.779 636.922 109.421C636.924 109.063 636.631 108.771 636.273 108.771C636.241 108.771 632.997 108.754 628.331 107.657C627.983 107.576 627.632 107.791 627.55 108.142C627.467 108.491 627.685 108.841 628.034 108.923C632.858 110.055 636.136 110.071 636.273 110.071L636.272 110.07Z" fill="black"/>
<path d="M617.173 104.916C617.458 104.916 617.719 104.728 617.799 104.44C617.895 104.095 617.692 103.736 617.346 103.64C617.269 103.619 609.634 101.454 606.423 96.6389C606.225 96.3394 605.821 96.2596 605.522 96.4592C605.222 96.6588 605.143 97.0624 605.342 97.3604C608.823 102.582 616.667 104.801 616.999 104.894C617.058 104.909 617.116 104.918 617.173 104.918V104.916Z" fill="black"/>
<path d="M647.09 57.0069C647.189 57.0069 647.287 56.9841 647.381 56.9384C647.702 56.7773 647.832 56.388 647.672 56.0658L645.415 51.5499C645.254 51.229 644.863 51.0993 644.542 51.259C644.221 51.4201 644.092 51.8094 644.251 52.1316L646.509 56.6476C646.623 56.8757 646.852 57.0069 647.09 57.0069Z" fill="black"/>
<path d="M642.011 58.136C642.11 58.136 642.208 58.1132 642.302 58.0676C642.623 57.9065 642.753 57.5172 642.593 57.1949L640.336 52.679C640.175 52.3582 639.784 52.2284 639.463 52.3881C639.142 52.5493 639.013 52.9385 639.172 53.2608L641.43 57.7767C641.544 58.0049 641.773 58.136 642.011 58.136Z" fill="black"/>
<path d="M636.931 59.2656C637.016 59.2656 637.103 59.2485 637.186 59.2128C637.515 59.0717 637.669 58.6895 637.528 58.3587L635.834 54.4075C635.692 54.0781 635.309 53.9255 634.98 54.0652C634.651 54.2064 634.497 54.5885 634.638 54.9194L636.332 58.8706C636.437 59.1173 636.677 59.2642 636.929 59.2642L636.931 59.2656Z" fill="black"/>
<path d="M587.257 79.0216C587.371 79.0216 587.487 78.9916 587.591 78.9289L593.236 75.5423C593.544 75.3569 593.644 74.9577 593.459 74.6511C593.273 74.3431 592.875 74.2433 592.567 74.4287L586.922 77.8152C586.614 78.0006 586.514 78.3999 586.7 78.7064C586.821 78.9089 587.036 79.0216 587.257 79.0216Z" fill="black"/>
<path d="M586.128 75.0704C586.242 75.0704 586.357 75.0404 586.461 74.9777L592.107 71.5911C592.415 71.4058 592.515 71.0065 592.329 70.6999C592.145 70.3919 591.745 70.2921 591.438 70.4775L585.793 73.8641C585.485 74.0494 585.385 74.4487 585.57 74.7553C585.691 74.9577 585.907 75.0704 586.128 75.0704Z" fill="black"/>
<path d="M589.513 91.44C589.734 91.44 589.949 91.3274 590.07 91.1249C590.256 90.8169 590.156 90.4176 589.848 90.2337L584.203 86.8471C583.896 86.6617 583.495 86.7616 583.311 87.0696C583.126 87.3776 583.226 87.7768 583.534 87.9608L589.179 91.3473C589.283 91.4101 589.399 91.44 589.513 91.44Z" fill="black"/>
<path d="M588.384 95.3913C588.605 95.3913 588.82 95.2786 588.941 95.0762C589.127 94.7682 589.027 94.3689 588.719 94.185L583.074 90.7984C582.766 90.6144 582.366 90.7128 582.182 91.0208C581.997 91.3288 582.097 91.7281 582.405 91.912L588.05 95.2986C588.154 95.3613 588.27 95.3913 588.384 95.3913Z" fill="black"/>
<path d="M395.645 92.3018C396.942 96.3771 400.72 98.9852 404.783 98.9852C405.749 98.9852 406.731 98.8383 407.702 98.5274L418.438 95.1066L418.681 95.0282C418.669 95.1295 418.663 95.2321 418.663 95.3334C418.494 99.7309 422.163 103.587 427.062 104.043C428.705 104.195 430.279 103.953 431.679 103.388C434.57 104.523 437.714 105.46 441.049 106.172V111.088L452.802 107.633C453.857 107.679 454.929 107.702 456.008 107.702C479.857 107.702 499.191 96.5811 499.191 82.8651C499.191 74.9398 492.739 67.8843 482.697 63.3342C482.387 55.7197 474.332 49.0421 463.855 48.0596C453.909 47.1285 445.137 51.6558 442.823 58.486C441.417 57.3681 439.633 56.6237 437.647 56.437C432.589 55.9621 428.147 59.2874 427.718 63.8603C427.712 63.9445 427.701 64.03 427.701 64.1141C425.217 65.3504 422.988 66.7507 421.052 68.285L412.449 62.7638C407.99 59.8962 402.051 61.1896 399.19 65.6484C398.163 67.2512 397.665 69.0464 397.665 70.8245C397.665 73.9858 399.224 77.073 402.08 78.9081L403.4 79.7608L401.87 80.2456C396.824 81.8541 394.035 87.2512 395.645 92.3033V92.3018Z" fill="#FFB4B5"/>
<path d="M480.282 81.7344C478.568 81.7344 477.178 80.3445 477.178 78.6301C477.178 76.9157 478.568 75.5259 480.282 75.5259C481.996 75.5259 483.386 76.9157 483.386 78.6301C483.386 80.3445 481.996 81.7344 480.282 81.7344Z" fill="black"/>
<path d="M458.551 93.109C458.642 93.109 458.735 93.0891 458.823 93.0491C459.15 92.898 459.291 92.513 459.141 92.1864C456.449 86.353 457.267 80.655 461.575 75.2536C464.842 71.1569 468.99 68.7756 469.031 68.7514C469.344 68.5745 469.453 68.1781 469.275 67.8659C469.098 67.5536 468.702 67.4438 468.39 67.6206C468.216 67.719 451.015 77.6862 457.959 92.7312C458.069 92.9693 458.304 93.109 458.549 93.109H458.551Z" fill="black"/>
<path d="M444.885 93.819C445.829 93.819 446.721 93.6892 447.466 93.444C451.102 92.2405 457.3 89.989 457.362 89.9661C457.7 89.8435 457.874 89.4699 457.751 89.1334C457.628 88.7969 457.256 88.6215 456.918 88.7441C456.857 88.7669 450.676 91.0128 447.058 92.2091C444.963 92.9036 441.48 92.4686 439.635 90.7176C438.418 89.564 438.062 88.024 438.577 86.139C439.839 81.5133 451.922 82.4658 456.471 83.2215C456.827 83.2814 457.159 83.0419 457.219 82.6868C457.278 82.3332 457.039 81.9981 456.684 81.9382C455.97 81.8184 439.15 79.0963 437.323 85.7953C436.513 88.7627 437.648 90.6221 438.742 91.6601C440.309 93.146 442.735 93.8176 444.888 93.8176L444.885 93.819Z" fill="black"/>
<path d="M447.419 85.6286H456.951C457.31 85.6286 457.601 85.3377 457.601 84.9783C457.601 84.619 457.31 84.3281 456.951 84.3281H447.419C447.059 84.3281 446.768 84.619 446.768 84.9783C446.768 85.3377 447.059 85.6286 447.419 85.6286Z" fill="black"/>
<path d="M445.849 89.4399C445.883 89.4399 445.918 89.4371 445.954 89.4314L457.055 87.6148C457.409 87.5563 457.65 87.2226 457.591 86.8676C457.533 86.5125 457.199 86.2744 456.844 86.3314L445.743 88.1481C445.389 88.2065 445.148 88.5402 445.207 88.8952C445.26 89.2132 445.535 89.4399 445.847 89.4399H445.849Z" fill="black"/>
<path d="M443.291 77.0045C443.553 77.0045 443.801 76.8434 443.899 76.5824C444.025 76.2459 443.855 75.8709 443.519 75.7454C443.288 75.6556 441.249 74.8015 441.795 72.6141C442.374 70.2998 445.927 70.1829 445.963 70.1815C446.251 70.1743 446.5 69.9776 446.575 69.6995C446.649 69.4214 446.532 69.1263 446.285 68.9765C446.237 68.9452 445.002 68.1467 445.002 66.4327C445.002 64.9155 447.587 64.6018 447.614 64.599C447.971 64.5576 448.227 64.2368 448.186 63.8803C448.146 63.5238 447.824 63.2671 447.469 63.3071C447.315 63.3242 443.701 63.7562 443.701 66.4327C443.701 67.5934 444.108 68.4604 444.544 69.0593C443.128 69.3573 441.066 70.1572 440.531 72.299C439.86 74.9854 441.892 76.5254 443.06 76.9632C443.135 76.9917 443.212 77.0045 443.288 77.0045H443.291Z" fill="black"/>
<path d="M426.921 91.6816C427.183 91.6816 427.431 91.5204 427.53 91.2595C427.655 90.923 427.486 90.5479 427.149 90.4225C426.918 90.3326 424.879 89.4785 425.425 87.2911C426.007 84.964 429.556 84.8599 429.592 84.8585C429.88 84.8528 430.131 84.656 430.205 84.378C430.28 84.0999 430.162 83.8047 429.915 83.655C429.867 83.6237 428.632 82.8266 428.632 81.1112C428.632 79.594 431.217 79.2803 431.244 79.2774C431.601 79.2361 431.858 78.9152 431.816 78.5588C431.776 78.2023 431.454 77.9456 431.099 77.9855C430.945 78.0026 427.332 78.4347 427.332 81.1112C427.332 82.2719 427.738 83.1388 428.174 83.7363C426.758 84.0343 424.697 84.8343 424.162 86.976C423.49 89.6624 425.522 91.2024 426.69 91.6402C426.766 91.6687 426.843 91.6816 426.918 91.6816H426.921Z" fill="black"/>
<path d="M429.848 64.6032C429.918 64.6032 429.99 64.5918 430.058 64.5675C460.821 54.0656 480.368 63.3127 480.561 63.4068C480.884 63.5651 481.273 63.431 481.431 63.1088C481.59 62.7865 481.456 62.3972 481.133 62.239C480.935 62.142 460.945 52.6482 429.639 63.3369C429.299 63.4524 429.118 63.8218 429.234 64.1625C429.327 64.432 429.579 64.6032 429.848 64.6032Z" fill="black"/>
<path d="M450.272 108.07C450.631 108.07 450.921 107.779 450.922 107.421C450.924 107.063 450.631 106.771 450.273 106.771C450.241 106.771 446.997 106.754 442.331 105.657C441.983 105.576 441.632 105.791 441.55 106.142C441.467 106.491 441.685 106.841 442.034 106.923C446.858 108.055 450.136 108.071 450.273 108.071L450.272 108.07Z" fill="black"/>
<path d="M431.173 102.916C431.458 102.916 431.719 102.728 431.799 102.44C431.895 102.095 431.692 101.736 431.346 101.64C431.269 101.619 423.634 99.4542 420.423 94.6389C420.225 94.3394 419.821 94.2596 419.522 94.4592C419.222 94.6588 419.143 95.0624 419.342 95.3604C422.823 100.582 430.667 102.801 430.999 102.894C431.058 102.909 431.116 102.918 431.173 102.918V102.916Z" fill="black"/>
<path d="M461.09 55.0069C461.189 55.0069 461.287 54.9841 461.381 54.9384C461.702 54.7773 461.832 54.388 461.672 54.0658L459.415 49.5499C459.254 49.229 458.863 49.0993 458.542 49.259C458.221 49.4201 458.092 49.8094 458.251 50.1316L460.509 54.6476C460.623 54.8757 460.852 55.0069 461.09 55.0069Z" fill="black"/>
<path d="M456.011 56.136C456.11 56.136 456.208 56.1132 456.302 56.0676C456.623 55.9065 456.753 55.5172 456.593 55.1949L454.336 50.679C454.175 50.3582 453.784 50.2284 453.463 50.3881C453.142 50.5493 453.013 50.9385 453.172 51.2608L455.43 55.7767C455.544 56.0049 455.773 56.136 456.011 56.136Z" fill="black"/>
<path d="M450.931 57.2656C451.016 57.2656 451.103 57.2485 451.186 57.2128C451.515 57.0717 451.669 56.6895 451.528 56.3587L449.834 52.4075C449.692 52.0781 449.309 51.9255 448.98 52.0652C448.651 52.2064 448.497 52.5885 448.638 52.9194L450.332 56.8706C450.437 57.1173 450.677 57.2642 450.929 57.2642L450.931 57.2656Z" fill="black"/>
<path d="M401.257 77.0216C401.371 77.0216 401.487 76.9916 401.591 76.9289L407.236 73.5423C407.544 73.3569 407.644 72.9577 407.459 72.6511C407.273 72.3431 406.875 72.2433 406.567 72.4287L400.922 75.8152C400.614 76.0006 400.514 76.3999 400.7 76.7064C400.821 76.9089 401.036 77.0216 401.257 77.0216Z" fill="black"/>
<path d="M400.128 73.0704C400.242 73.0704 400.357 73.0404 400.461 72.9777L406.107 69.5911C406.415 69.4058 406.515 69.0065 406.329 68.6999C406.145 68.3919 405.745 68.2921 405.438 68.4775L399.793 71.8641C399.485 72.0494 399.385 72.4487 399.57 72.7553C399.691 72.9577 399.907 73.0704 400.128 73.0704Z" fill="black"/>
<path d="M403.513 89.44C403.734 89.44 403.949 89.3274 404.07 89.1249C404.256 88.8169 404.156 88.4176 403.848 88.2337L398.203 84.8471C397.896 84.6617 397.495 84.7616 397.311 85.0696C397.126 85.3776 397.226 85.7768 397.534 85.9608L403.179 89.3473C403.283 89.4101 403.399 89.44 403.513 89.44Z" fill="black"/>
<path d="M402.384 93.3913C402.605 93.3913 402.82 93.2786 402.941 93.0762C403.127 92.7682 403.027 92.3689 402.719 92.185L397.074 88.7984C396.766 88.6144 396.366 88.7128 396.182 89.0208C395.997 89.3288 396.097 89.7281 396.405 89.912L402.05 93.2986C402.154 93.3613 402.27 93.3913 402.384 93.3913Z" fill="black"/>
<path d="M209.645 90.3018C210.942 94.3771 214.72 96.9852 218.783 96.9852C219.749 96.9852 220.731 96.8383 221.702 96.5274L232.438 93.1066L232.681 93.0282C232.669 93.1295 232.663 93.2321 232.663 93.3334C232.494 97.7309 236.163 101.587 241.062 102.043C242.705 102.195 244.279 101.953 245.679 101.388C248.57 102.523 251.714 103.46 255.049 104.172V109.088L266.802 105.633C267.857 105.679 268.929 105.702 270.008 105.702C293.857 105.702 313.191 94.5811 313.191 80.8651C313.191 72.9398 306.739 65.8843 296.697 61.3342C296.387 53.7197 288.332 47.0421 277.855 46.0596C267.909 45.1285 259.137 49.6558 256.823 56.486C255.417 55.3681 253.633 54.6237 251.647 54.437C246.589 53.9621 242.147 57.2874 241.718 61.8603C241.712 61.9445 241.701 62.03 241.701 62.1141C239.217 63.3504 236.988 64.7507 235.052 66.285L226.449 60.7638C221.99 57.8962 216.051 59.1896 213.19 63.6484C212.163 65.2512 211.665 67.0464 211.665 68.8245C211.665 71.9858 213.224 75.073 216.08 76.9081L217.4 77.7608L215.87 78.2456C210.824 79.8541 208.035 85.2512 209.645 90.3033V90.3018Z" fill="#FFDFBC"/>
<path d="M294.282 79.7344C292.568 79.7344 291.178 78.3445 291.178 76.6301C291.178 74.9157 292.568 73.5259 294.282 73.5259C295.996 73.5259 297.386 74.9157 297.386 76.6301C297.386 78.3445 295.996 79.7344 294.282 79.7344Z" fill="black"/>
<path d="M272.551 91.109C272.642 91.109 272.735 91.0891 272.823 91.0491C273.15 90.898 273.291 90.513 273.141 90.1864C270.449 84.353 271.267 78.655 275.575 73.2536C278.842 69.1569 282.99 66.7756 283.031 66.7514C283.344 66.5745 283.453 66.1781 283.275 65.8659C283.098 65.5536 282.702 65.4438 282.39 65.6206C282.216 65.719 265.015 75.6862 271.959 90.7312C272.069 90.9693 272.304 91.109 272.549 91.109H272.551Z" fill="black"/>
<path d="M258.885 91.819C259.829 91.819 260.721 91.6892 261.466 91.444C265.102 90.2405 271.3 87.989 271.362 87.9661C271.7 87.8435 271.874 87.4699 271.751 87.1334C271.628 86.7969 271.256 86.6215 270.918 86.7441C270.857 86.7669 264.676 89.0128 261.058 90.2091C258.963 90.9036 255.48 90.4686 253.635 88.7176C252.418 87.564 252.062 86.024 252.577 84.139C253.839 79.5133 265.922 80.4658 270.471 81.2215C270.827 81.2814 271.159 81.0419 271.219 80.6868C271.278 80.3332 271.039 79.9981 270.684 79.9382C269.97 79.8184 253.15 77.0963 251.323 83.7953C250.513 86.7627 251.648 88.6221 252.742 89.6601C254.309 91.146 256.735 91.8176 258.888 91.8176L258.885 91.819Z" fill="black"/>
<path d="M261.419 83.6286H270.951C271.31 83.6286 271.601 83.3377 271.601 82.9783C271.601 82.619 271.31 82.3281 270.951 82.3281H261.419C261.059 82.3281 260.768 82.619 260.768 82.9783C260.768 83.3377 261.059 83.6286 261.419 83.6286Z" fill="black"/>
<path d="M259.849 87.4399C259.883 87.4399 259.918 87.4371 259.954 87.4314L271.055 85.6148C271.409 85.5563 271.65 85.2226 271.591 84.8676C271.533 84.5125 271.199 84.2744 270.844 84.3314L259.743 86.1481C259.389 86.2065 259.148 86.5402 259.207 86.8952C259.26 87.2132 259.535 87.4399 259.847 87.4399H259.849Z" fill="black"/>
<path d="M257.291 75.0045C257.553 75.0045 257.801 74.8434 257.899 74.5824C258.025 74.2459 257.855 73.8709 257.519 73.7454C257.288 73.6556 255.249 72.8015 255.795 70.6141C256.374 68.2998 259.927 68.1829 259.963 68.1815C260.251 68.1743 260.5 67.9776 260.575 67.6995C260.649 67.4214 260.532 67.1263 260.285 66.9765C260.237 66.9452 259.002 66.1467 259.002 64.4327C259.002 62.9155 261.587 62.6018 261.614 62.599C261.971 62.5576 262.227 62.2368 262.186 61.8803C262.146 61.5238 261.824 61.2671 261.469 61.3071C261.315 61.3242 257.701 61.7562 257.701 64.4327C257.701 65.5934 258.108 66.4604 258.544 67.0593C257.128 67.3573 255.066 68.1572 254.531 70.299C253.86 72.9854 255.892 74.5254 257.06 74.9632C257.135 74.9917 257.212 75.0045 257.288 75.0045H257.291Z" fill="black"/>
<path d="M240.921 89.6816C241.183 89.6816 241.431 89.5204 241.53 89.2595C241.655 88.923 241.486 88.5479 241.149 88.4225C240.918 88.3326 238.879 87.4785 239.425 85.2911C240.007 82.964 243.556 82.8599 243.592 82.8585C243.88 82.8528 244.131 82.656 244.205 82.378C244.28 82.0999 244.162 81.8047 243.915 81.655C243.867 81.6237 242.632 80.8266 242.632 79.1112C242.632 77.594 245.217 77.2803 245.244 77.2774C245.601 77.2361 245.858 76.9152 245.816 76.5588C245.776 76.2023 245.454 75.9456 245.099 75.9855C244.945 76.0026 241.332 76.4347 241.332 79.1112C241.332 80.2719 241.738 81.1388 242.174 81.7363C240.758 82.0343 238.697 82.8343 238.162 84.976C237.49 87.6624 239.522 89.2024 240.69 89.6402C240.766 89.6687 240.843 89.6816 240.918 89.6816H240.921Z" fill="black"/>
<path d="M243.848 62.6032C243.918 62.6032 243.99 62.5918 244.058 62.5675C274.821 52.0656 294.368 61.3127 294.561 61.4068C294.884 61.5651 295.273 61.431 295.431 61.1088C295.59 60.7865 295.456 60.3972 295.133 60.239C294.935 60.142 274.945 50.6482 243.639 61.3369C243.299 61.4524 243.118 61.8218 243.234 62.1625C243.327 62.432 243.579 62.6032 243.848 62.6032Z" fill="black"/>
<path d="M264.272 106.07C264.631 106.07 264.921 105.779 264.922 105.421C264.924 105.063 264.631 104.771 264.273 104.771C264.241 104.771 260.997 104.754 256.331 103.657C255.983 103.576 255.632 103.791 255.55 104.142C255.467 104.491 255.685 104.841 256.034 104.923C260.858 106.055 264.136 106.071 264.273 106.071L264.272 106.07Z" fill="black"/>
<path d="M245.173 100.916C245.458 100.916 245.719 100.728 245.799 100.44C245.895 100.095 245.692 99.7357 245.346 99.6402C245.269 99.6188 237.634 97.4542 234.423 92.6389C234.225 92.3394 233.821 92.2596 233.522 92.4592C233.222 92.6588 233.143 93.0624 233.342 93.3604C236.823 98.5821 244.667 100.801 244.999 100.894C245.058 100.909 245.116 100.918 245.173 100.918V100.916Z" fill="black"/>
<path d="M275.09 53.0069C275.189 53.0069 275.287 52.9841 275.381 52.9384C275.702 52.7773 275.832 52.388 275.672 52.0658L273.415 47.5499C273.254 47.229 272.863 47.0993 272.542 47.259C272.221 47.4201 272.092 47.8094 272.251 48.1316L274.509 52.6476C274.623 52.8757 274.852 53.0069 275.09 53.0069Z" fill="black"/>
<path d="M270.011 54.136C270.11 54.136 270.208 54.1132 270.302 54.0676C270.623 53.9065 270.753 53.5172 270.593 53.1949L268.336 48.679C268.175 48.3582 267.784 48.2284 267.463 48.3881C267.142 48.5493 267.013 48.9385 267.172 49.2608L269.43 53.7767C269.544 54.0049 269.773 54.136 270.011 54.136Z" fill="black"/>
<path d="M264.931 55.2656C265.016 55.2656 265.103 55.2485 265.186 55.2128C265.515 55.0717 265.669 54.6895 265.528 54.3587L263.834 50.4075C263.692 50.0781 263.309 49.9255 262.98 50.0652C262.651 50.2064 262.497 50.5885 262.638 50.9194L264.332 54.8706C264.437 55.1173 264.677 55.2642 264.929 55.2642L264.931 55.2656Z" fill="black"/>
<path d="M215.257 75.0216C215.371 75.0216 215.487 74.9916 215.591 74.9289L221.236 71.5423C221.544 71.3569 221.644 70.9577 221.459 70.6511C221.273 70.3431 220.875 70.2433 220.567 70.4287L214.922 73.8152C214.614 74.0006 214.514 74.3999 214.7 74.7064C214.821 74.9089 215.036 75.0216 215.257 75.0216Z" fill="black"/>
<path d="M214.128 71.0704C214.242 71.0704 214.357 71.0404 214.461 70.9777L220.107 67.5911C220.415 67.4058 220.515 67.0065 220.329 66.6999C220.145 66.3919 219.745 66.2921 219.438 66.4775L213.793 69.8641C213.485 70.0494 213.385 70.4487 213.57 70.7553C213.691 70.9577 213.907 71.0704 214.128 71.0704Z" fill="black"/>
<path d="M217.513 87.44C217.734 87.44 217.949 87.3274 218.07 87.1249C218.256 86.8169 218.156 86.4176 217.848 86.2337L212.203 82.8471C211.896 82.6617 211.495 82.7616 211.311 83.0696C211.126 83.3776 211.226 83.7768 211.534 83.9608L217.179 87.3473C217.283 87.4101 217.399 87.44 217.513 87.44Z" fill="black"/>
<path d="M216.384 91.3913C216.605 91.3913 216.82 91.2786 216.941 91.0762C217.127 90.7682 217.027 90.3689 216.719 90.185L211.074 86.7984C210.766 86.6144 210.366 86.7128 210.182 87.0208C209.997 87.3288 210.097 87.7281 210.405 87.912L216.05 91.2986C216.154 91.3613 216.27 91.3913 216.384 91.3913Z" fill="black"/>
<path d="M23.6447 88.3018C24.9423 92.3771 28.7196 94.9852 32.7835 94.9852C33.7488 94.9852 34.7313 94.8383 35.7023 94.5274L46.4381 91.1066L46.6805 91.0282C46.6691 91.1295 46.6634 91.2321 46.6634 91.3334C46.4937 95.7309 50.1627 99.5866 55.0621 100.043C56.7048 100.195 58.279 99.9531 59.6793 99.3884C62.5696 100.523 65.7138 101.46 69.049 102.172V107.088L80.8015 103.633C81.8567 103.679 82.929 103.702 84.0084 103.702C107.857 103.702 127.191 92.5811 127.191 78.8651C127.191 70.9398 120.739 63.8843 110.697 59.3342C110.387 51.7197 102.332 45.0421 91.8553 44.0596C81.9095 43.1285 73.1372 47.6558 70.8229 54.486C69.4169 53.3681 67.6331 52.6237 65.6468 52.437C60.589 51.9621 56.1473 55.2874 55.7181 59.8603C55.7124 59.9445 55.701 60.03 55.701 60.1141C53.217 61.3504 50.9883 62.7507 49.0519 64.285L40.4492 58.7638C35.9904 55.8962 30.0514 57.1896 27.1896 61.6484C26.1629 63.2512 25.6652 65.0464 25.6652 66.8245C25.6652 69.9858 27.2238 73.073 30.0799 74.9081L31.4003 75.7608L29.8703 76.2456C24.824 77.8541 22.0348 83.2512 23.6447 88.3033V88.3018Z" fill="#FFF0F0"/>
<path d="M108.282 77.7344C106.568 77.7344 105.178 76.3445 105.178 74.6301C105.178 72.9157 106.568 71.5259 108.282 71.5259C109.996 71.5259 111.386 72.9157 111.386 74.6301C111.386 76.3445 109.996 77.7344 108.282 77.7344Z" fill="black"/>
<path d="M86.5509 89.109C86.6421 89.109 86.7348 89.0891 86.8232 89.0491C87.1498 88.898 87.2909 88.513 87.1412 88.1864C84.4491 82.353 85.2675 76.655 89.5753 71.2536C92.8421 67.1569 96.9901 64.7756 97.0314 64.7514C97.3437 64.5745 97.4535 64.1781 97.2753 63.8659C97.0985 63.5536 96.702 63.4438 96.3898 63.6206C96.2158 63.719 79.0149 73.6862 85.9591 88.7312C86.0689 88.9693 86.3042 89.109 86.5495 89.109H86.5509Z" fill="black"/>
<path d="M72.8847 89.819C73.8287 89.819 74.7213 89.6892 75.4657 89.444C79.1018 88.2405 85.3003 85.989 85.3616 85.9661C85.6995 85.8435 85.8735 85.4699 85.7509 85.1334C85.6282 84.7969 85.2561 84.6215 84.9181 84.7441C84.8568 84.7669 78.6754 87.0128 75.0579 88.2091C72.9632 88.9036 69.4796 88.4686 67.6345 86.7176C66.4182 85.564 66.0617 84.024 66.5765 82.139C67.8384 77.5133 79.9217 78.4658 84.4704 79.2215C84.8269 79.2814 85.1591 79.0419 85.219 78.6868C85.2775 78.3332 85.0393 77.9981 84.6843 77.9382C83.9699 77.8184 67.1497 75.0963 65.3231 81.7953C64.5131 84.7627 65.6482 86.6221 66.7419 87.6601C68.3089 89.146 70.7344 89.8176 72.8876 89.8176L72.8847 89.819Z" fill="black"/>
<path d="M75.4187 81.6286H84.951C85.3103 81.6286 85.6012 81.3377 85.6012 80.9783C85.6012 80.619 85.3103 80.3281 84.951 80.3281H75.4187C75.0593 80.3281 74.7684 80.619 74.7684 80.9783C74.7684 81.3377 75.0593 81.6286 75.4187 81.6286Z" fill="black"/>
<path d="M73.8487 85.4399C73.883 85.4399 73.9186 85.4371 73.9543 85.4314L85.0551 83.6148C85.4087 83.5563 85.6497 83.2226 85.5912 82.8676C85.5328 82.5125 85.1991 82.2744 84.844 82.3314L73.7432 84.1481C73.3896 84.2065 73.1486 84.5402 73.2071 84.8952C73.2598 85.2132 73.535 85.4399 73.8473 85.4399H73.8487Z" fill="black"/>
<path d="M71.2906 73.0045C71.553 73.0045 71.8011 72.8434 71.8995 72.5824C72.025 72.2459 71.8553 71.8709 71.5188 71.7454C71.2878 71.6556 69.2487 70.8015 69.7948 68.6141C70.3737 66.2998 73.9272 66.1829 73.9628 66.1815C74.2508 66.1743 74.5004 65.9776 74.5745 65.6995C74.6487 65.4214 74.5317 65.1263 74.2851 64.9765C74.2366 64.9452 73.0017 64.1467 73.0017 62.4327C73.0017 60.9155 75.5869 60.6018 75.614 60.599C75.9705 60.5576 76.2272 60.2368 76.1858 59.8803C76.1459 59.5238 75.8236 59.2671 75.4686 59.3071C75.3146 59.3242 71.7013 59.7562 71.7013 62.4327C71.7013 63.5934 72.1077 64.4604 72.544 65.0593C71.1281 65.3573 69.0662 66.1572 68.5314 68.299C67.8598 70.9854 69.8918 72.5254 71.0596 72.9632C71.1352 72.9917 71.2122 73.0045 71.2878 73.0045H71.2906Z" fill="black"/>
<path d="M54.921 87.6816C55.1833 87.6816 55.4315 87.5204 55.5299 87.2595C55.6553 86.923 55.4857 86.5479 55.1491 86.4225C54.9181 86.3326 52.8791 85.4785 53.4252 83.2911C54.007 80.964 57.5561 80.8599 57.5917 80.8585C57.8798 80.8528 58.1307 80.656 58.2049 80.378C58.2805 80.0999 58.1621 79.8047 57.9154 79.655C57.8669 79.6237 56.6321 78.8266 56.6321 77.1112C56.6321 75.594 59.2173 75.2803 59.2444 75.2774C59.6009 75.2361 59.8575 74.9152 59.8162 74.5588C59.7763 74.2023 59.454 73.9456 59.0989 73.9855C58.9449 74.0026 55.3316 74.4347 55.3316 77.1112C55.3316 78.2719 55.738 79.1388 56.1744 79.7363C54.7584 80.0343 52.6965 80.8343 52.1618 82.976C51.4902 85.6624 53.5221 87.2024 54.69 87.6402C54.7656 87.6687 54.8426 87.6816 54.9181 87.6816H54.921Z" fill="black"/>
<path d="M57.8484 60.6032C57.9183 60.6032 57.9896 60.5918 58.058 60.5675C88.821 50.0656 108.368 59.3127 108.561 59.4068C108.884 59.5651 109.273 59.431 109.431 59.1088C109.59 58.7865 109.456 58.3972 109.133 58.239C108.935 58.142 88.945 48.6482 57.6388 59.3369C57.2994 59.4524 57.1183 59.8218 57.2338 60.1625C57.3265 60.432 57.5789 60.6032 57.8484 60.6032Z" fill="black"/>
<path d="M78.2719 104.07C78.6312 104.07 78.9207 103.779 78.9221 103.421C78.9235 103.063 78.6312 102.771 78.2733 102.771C78.2405 102.771 74.9965 102.754 70.3309 101.657C69.983 101.576 69.6322 101.791 69.5495 102.142C69.4668 102.491 69.685 102.841 70.0343 102.923C74.8582 104.055 78.1364 104.071 78.2733 104.071L78.2719 104.07Z" fill="black"/>
<path d="M59.1731 98.9164C59.4583 98.9164 59.7193 98.7281 59.7991 98.4401C59.8946 98.095 59.6922 97.7357 59.3457 97.6402C59.2687 97.6188 51.6343 95.4542 48.4231 90.6389C48.2249 90.3394 47.8213 90.2596 47.5219 90.4592C47.2224 90.6588 47.1426 91.0624 47.3422 91.3604C50.8229 96.5821 58.6669 98.8009 58.9992 98.8936C59.0576 98.9092 59.1161 98.9178 59.1731 98.9178V98.9164Z" fill="black"/>
<path d="M89.0904 51.0069C89.1888 51.0069 89.2872 50.9841 89.3813 50.9384C89.7021 50.7773 89.8319 50.388 89.6722 50.0658L87.4149 45.5499C87.2538 45.229 86.8631 45.0993 86.5423 45.259C86.2214 45.4201 86.0917 45.8094 86.2514 46.1316L88.5086 50.6476C88.6227 50.8757 88.8523 51.0069 89.0904 51.0069Z" fill="black"/>
<path d="M84.0113 52.136C84.1097 52.136 84.2081 52.1132 84.3022 52.0676C84.623 51.9065 84.7528 51.5172 84.5931 51.1949L82.3358 46.679C82.1747 46.3582 81.784 46.2284 81.4632 46.3881C81.1423 46.5493 81.0126 46.9385 81.1723 47.2608L83.4295 51.7767C83.5436 52.0049 83.7732 52.136 84.0113 52.136Z" fill="black"/>
<path d="M78.9307 53.2656C79.0163 53.2656 79.1032 53.2485 79.1859 53.2128C79.5153 53.0717 79.6693 52.6895 79.5282 52.3587L77.8342 48.4075C77.6916 48.0781 77.3094 47.9255 76.98 48.0652C76.6506 48.2064 76.4966 48.5885 76.6378 48.9194L78.3318 52.8706C78.4373 53.1173 78.6769 53.2642 78.9293 53.2642L78.9307 53.2656Z" fill="black"/>
<path d="M29.2572 73.0216C29.3713 73.0216 29.4868 72.9916 29.5909 72.9289L35.2361 69.5423C35.5441 69.3569 35.6439 68.9577 35.4586 68.6511C35.2732 68.3431 34.8754 68.2433 34.5674 68.4287L28.9221 71.8152C28.6141 72.0006 28.5143 72.3999 28.6997 72.7064C28.8209 72.9089 29.0362 73.0216 29.2572 73.0216Z" fill="black"/>
<path d="M28.1278 69.0704C28.2419 69.0704 28.3574 69.0404 28.4615 68.9777L34.1067 65.5911C34.4147 65.4058 34.5145 65.0065 34.3292 64.6999C34.1452 64.3919 33.7445 64.2921 33.438 64.4775L27.7927 67.8641C27.4847 68.0494 27.3849 68.4487 27.5703 68.7553C27.6915 68.9577 27.9068 69.0704 28.1278 69.0704Z" fill="black"/>
<path d="M31.513 85.44C31.734 85.44 31.9493 85.3274 32.0705 85.1249C32.2559 84.8169 32.156 84.4176 31.848 84.2337L26.2028 80.8471C25.8962 80.6617 25.4956 80.7616 25.3116 81.0696C25.1262 81.3776 25.2261 81.7768 25.5341 81.9608L31.1793 85.3473C31.2834 85.4101 31.3989 85.44 31.513 85.44Z" fill="black"/>
<path d="M30.3837 89.3913C30.6047 89.3913 30.82 89.2786 30.9412 89.0762C31.1266 88.7682 31.0268 88.3689 30.7188 88.185L25.0735 84.7984C24.7655 84.6144 24.3663 84.7128 24.1823 85.0208C23.997 85.3288 24.0968 85.7281 24.4048 85.912L30.05 89.2986C30.1541 89.3613 30.2696 89.3913 30.3837 89.3913Z" fill="black"/>
</svg>
