<svg width="415" height="156" viewBox="0 0 415 156" fill="none" xmlns="http://www.w3.org/2000/svg">
<path d="M209.645 90.3018C210.942 94.3771 214.72 96.9852 218.783 96.9852C219.749 96.9852 220.731 96.8383 221.702 96.5274L232.438 93.1066L232.681 93.0282C232.669 93.1295 232.663 93.2321 232.663 93.3334C232.494 97.7309 236.163 101.587 241.062 102.043C242.705 102.195 244.279 101.953 245.679 101.388C248.57 102.523 251.714 103.46 255.049 104.172V109.088L266.802 105.633C267.857 105.679 268.929 105.702 270.008 105.702C293.857 105.702 313.191 94.5811 313.191 80.8651C313.191 72.9398 306.739 65.8843 296.697 61.3342C296.387 53.7197 288.332 47.0421 277.855 46.0596C267.909 45.1285 259.137 49.6558 256.823 56.486C255.417 55.3681 253.633 54.6237 251.647 54.437C246.589 53.9621 242.147 57.2874 241.718 61.8603C241.712 61.9445 241.701 62.03 241.701 62.1141C239.217 63.3504 236.988 64.7507 235.052 66.285L226.449 60.7638C221.99 57.8962 216.051 59.1896 213.19 63.6484C212.163 65.2512 211.665 67.0464 211.665 68.8245C211.665 71.9858 213.224 75.073 216.08 76.9081L217.4 77.7608L215.87 78.2456C210.824 79.8541 208.035 85.2512 209.645 90.3033V90.3018Z" fill="#FE5051"/>
<path d="M294.282 79.7344C292.568 79.7344 291.178 78.3445 291.178 76.6301C291.178 74.9157 292.568 73.5259 294.282 73.5259C295.996 73.5259 297.386 74.9157 297.386 76.6301C297.386 78.3445 295.996 79.7344 294.282 79.7344Z" fill="black"/>
<path d="M272.551 91.109C272.642 91.109 272.735 91.0891 272.823 91.0491C273.15 90.898 273.291 90.513 273.141 90.1864C270.449 84.353 271.267 78.655 275.575 73.2536C278.842 69.1569 282.99 66.7756 283.031 66.7514C283.344 66.5745 283.453 66.1781 283.275 65.8659C283.098 65.5536 282.702 65.4438 282.39 65.6206C282.216 65.719 265.015 75.6862 271.959 90.7312C272.069 90.9693 272.304 91.109 272.549 91.109H272.551Z" fill="black"/>
<path d="M258.885 91.8191C259.829 91.8191 260.721 91.6894 261.466 91.4441C265.102 90.2406 271.3 87.9891 271.362 87.9663C271.7 87.8436 271.874 87.47 271.751 87.1335C271.628 86.797 271.256 86.6216 270.918 86.7442C270.857 86.7671 264.676 89.0129 261.058 90.2092C258.963 90.9037 255.48 90.4688 253.635 88.7177C252.418 87.5642 252.062 86.0242 252.577 84.1391C253.839 79.5134 265.922 80.4659 270.471 81.2216C270.827 81.2815 271.159 81.042 271.219 80.6869C271.278 80.3333 271.039 79.9982 270.684 79.9383C269.97 79.8185 253.15 77.0964 251.323 83.7954C250.513 86.7628 251.648 88.6222 252.742 89.6603C254.309 91.1461 256.735 91.8177 258.888 91.8177L258.885 91.8191Z" fill="black"/>
<path d="M261.419 83.6286H270.951C271.31 83.6286 271.601 83.3377 271.601 82.9783C271.601 82.619 271.31 82.3281 270.951 82.3281H261.419C261.059 82.3281 260.768 82.619 260.768 82.9783C260.768 83.3377 261.059 83.6286 261.419 83.6286Z" fill="black"/>
<path d="M259.849 87.4401C259.883 87.4401 259.918 87.4372 259.954 87.4315L271.055 85.6149C271.409 85.5564 271.65 85.2228 271.591 84.8677C271.533 84.5126 271.199 84.2745 270.844 84.3316L259.743 86.1482C259.389 86.2066 259.148 86.5403 259.207 86.8954C259.26 87.2133 259.535 87.4401 259.847 87.4401H259.849Z" fill="black"/>
<path d="M257.291 75.0045C257.553 75.0045 257.801 74.8434 257.899 74.5824C258.025 74.2459 257.855 73.8709 257.519 73.7454C257.288 73.6556 255.249 72.8015 255.795 70.6141C256.374 68.2998 259.927 68.1829 259.963 68.1815C260.251 68.1743 260.5 67.9776 260.575 67.6995C260.649 67.4214 260.532 67.1263 260.285 66.9765C260.237 66.9452 259.002 66.1467 259.002 64.4327C259.002 62.9155 261.587 62.6018 261.614 62.599C261.971 62.5576 262.227 62.2368 262.186 61.8803C262.146 61.5238 261.824 61.2671 261.469 61.3071C261.315 61.3242 257.701 61.7562 257.701 64.4327C257.701 65.5934 258.108 66.4604 258.544 67.0593C257.128 67.3573 255.066 68.1572 254.531 70.299C253.86 72.9854 255.892 74.5254 257.06 74.9632C257.135 74.9917 257.212 75.0045 257.288 75.0045H257.291Z" fill="black"/>
<path d="M240.921 89.6816C241.183 89.6816 241.431 89.5204 241.53 89.2595C241.655 88.923 241.486 88.5479 241.149 88.4225C240.918 88.3326 238.879 87.4785 239.425 85.2911C240.007 82.964 243.556 82.8599 243.592 82.8585C243.88 82.8528 244.131 82.656 244.205 82.378C244.28 82.0999 244.162 81.8047 243.915 81.655C243.867 81.6237 242.632 80.8266 242.632 79.1112C242.632 77.594 245.217 77.2803 245.244 77.2774C245.601 77.2361 245.858 76.9152 245.816 76.5588C245.776 76.2023 245.454 75.9456 245.099 75.9855C244.945 76.0026 241.332 76.4347 241.332 79.1112C241.332 80.2719 241.738 81.1388 242.174 81.7363C240.758 82.0343 238.697 82.8343 238.162 84.976C237.49 87.6624 239.522 89.2024 240.69 89.6402C240.766 89.6687 240.843 89.6816 240.918 89.6816H240.921Z" fill="black"/>
<path d="M243.848 62.6033C243.918 62.6033 243.99 62.5919 244.058 62.5676C274.821 52.0657 294.368 61.3128 294.561 61.4069C294.884 61.5652 295.273 61.4312 295.431 61.1089C295.59 60.7867 295.456 60.3974 295.133 60.2391C294.935 60.1421 274.945 50.6483 243.639 61.3371C243.299 61.4526 243.118 61.8219 243.234 62.1627C243.327 62.4322 243.579 62.6033 243.848 62.6033Z" fill="black"/>
<path d="M264.272 106.07C264.631 106.07 264.921 105.779 264.922 105.421C264.924 105.063 264.631 104.771 264.273 104.771C264.241 104.771 260.997 104.754 256.331 103.657C255.983 103.576 255.632 103.791 255.55 104.142C255.467 104.491 255.685 104.841 256.034 104.923C260.858 106.056 264.136 106.071 264.273 106.071L264.272 106.07Z" fill="black"/>
<path d="M245.173 100.916C245.458 100.916 245.719 100.728 245.799 100.44C245.895 100.095 245.692 99.7358 245.346 99.6403C245.269 99.6189 237.634 97.4543 234.423 92.639C234.225 92.3396 233.821 92.2597 233.522 92.4593C233.222 92.659 233.143 93.0625 233.342 93.3605C236.823 98.5823 244.667 100.801 244.999 100.894C245.058 100.909 245.116 100.918 245.173 100.918V100.916Z" fill="black"/>
<path d="M275.09 53.0068C275.189 53.0068 275.287 52.984 275.381 52.9383C275.702 52.7772 275.832 52.3879 275.672 52.0657L273.415 47.5498C273.254 47.2289 272.863 47.0992 272.542 47.2589C272.221 47.42 272.092 47.8093 272.251 48.1315L274.509 52.6474C274.623 52.8756 274.852 53.0068 275.09 53.0068Z" fill="black"/>
<path d="M270.011 54.1362C270.11 54.1362 270.208 54.1133 270.302 54.0677C270.623 53.9066 270.753 53.5173 270.593 53.1951L268.336 48.6791C268.175 48.3583 267.784 48.2286 267.463 48.3883C267.142 48.5494 267.013 48.9387 267.172 49.2609L269.43 53.7768C269.544 54.005 269.773 54.1362 270.011 54.1362Z" fill="black"/>
<path d="M264.931 55.2655C265.016 55.2655 265.103 55.2483 265.186 55.2127C265.515 55.0715 265.669 54.6894 265.528 54.3586L263.834 50.4073C263.692 50.0779 263.309 49.9254 262.98 50.0651C262.651 50.2063 262.497 50.5884 262.638 50.9192L264.332 54.8705C264.437 55.1172 264.677 55.264 264.929 55.264L264.931 55.2655Z" fill="black"/>
<path d="M215.257 75.0217C215.371 75.0217 215.487 74.9917 215.591 74.929L221.236 71.5424C221.544 71.3571 221.644 70.9578 221.459 70.6512C221.273 70.3432 220.875 70.2434 220.567 70.4288L214.922 73.8153C214.614 74.0007 214.514 74.4 214.7 74.7066C214.821 74.909 215.036 75.0217 215.257 75.0217Z" fill="black"/>
<path d="M214.128 71.0704C214.242 71.0704 214.357 71.0404 214.461 70.9777L220.107 67.5911C220.415 67.4058 220.515 67.0065 220.329 66.6999C220.145 66.3919 219.745 66.2921 219.438 66.4775L213.793 69.8641C213.485 70.0494 213.385 70.4487 213.57 70.7553C213.691 70.9577 213.907 71.0704 214.128 71.0704Z" fill="black"/>
<path d="M217.513 87.44C217.734 87.44 217.949 87.3274 218.07 87.1249C218.256 86.8169 218.156 86.4176 217.848 86.2337L212.203 82.8471C211.896 82.6617 211.495 82.7616 211.311 83.0696C211.126 83.3776 211.226 83.7768 211.534 83.9608L217.179 87.3473C217.283 87.4101 217.399 87.44 217.513 87.44Z" fill="black"/>
<path d="M216.384 91.3913C216.605 91.3913 216.82 91.2786 216.941 91.0762C217.127 90.7682 217.027 90.3689 216.719 90.185L211.074 86.7984C210.766 86.6144 210.366 86.7128 210.182 87.0208C209.997 87.3288 210.097 87.7281 210.405 87.912L216.05 91.2986C216.154 91.3613 216.27 91.3913 216.384 91.3913Z" fill="black"/>
<path d="M387.645 88.3018C388.942 92.3771 392.72 94.9852 396.783 94.9852C397.749 94.9852 398.731 94.8383 399.702 94.5274L410.438 91.1066L410.681 91.0282C410.669 91.1295 410.663 91.2321 410.663 91.3334C410.494 95.7309 414.163 99.5866 419.062 100.043C420.705 100.195 422.279 99.9531 423.679 99.3884C426.57 100.523 429.714 101.46 433.049 102.172V107.088L444.802 103.633C445.857 103.679 446.929 103.702 448.008 103.702C471.857 103.702 491.191 92.581 491.191 78.8651C491.191 70.9398 484.739 63.8843 474.697 59.3342C474.387 51.7197 466.332 45.0421 455.855 44.0596C445.909 43.1285 437.137 47.6558 434.823 54.486C433.417 53.3681 431.633 52.6237 429.647 52.437C424.589 51.9621 420.147 55.2874 419.718 59.8603C419.712 59.9445 419.701 60.03 419.701 60.1141C417.217 61.3504 414.988 62.7507 413.052 64.285L404.449 58.7638C399.99 55.8962 394.051 57.1896 391.19 61.6484C390.163 63.2512 389.665 65.0464 389.665 66.8245C389.665 69.9858 391.224 73.073 394.08 74.9081L395.4 75.7608L393.87 76.2456C388.824 77.8541 386.035 83.2512 387.645 88.3033V88.3018Z" fill="#FF8500"/>
<path d="M423.173 98.9165C423.458 98.9165 423.719 98.7283 423.799 98.4402C423.895 98.0952 423.692 97.7358 423.346 97.6403C423.269 97.6189 415.634 95.4543 412.423 90.639C412.225 90.3396 411.821 90.2597 411.522 90.4593C411.222 90.659 411.143 91.0625 411.342 91.3605C414.823 96.5823 422.667 98.801 422.999 98.8937C423.058 98.9094 423.116 98.9179 423.173 98.9179V98.9165Z" fill="black"/>
<path d="M393.257 73.0217C393.371 73.0217 393.487 72.9917 393.591 72.929L399.236 69.5424C399.544 69.3571 399.644 68.9578 399.459 68.6512C399.273 68.3432 398.875 68.2434 398.567 68.4288L392.922 71.8153C392.614 72.0007 392.514 72.4 392.7 72.7066C392.821 72.909 393.036 73.0217 393.257 73.0217Z" fill="black"/>
<path d="M392.128 69.0704C392.242 69.0704 392.357 69.0404 392.461 68.9777L398.107 65.5911C398.415 65.4058 398.515 65.0065 398.329 64.6999C398.145 64.3919 397.745 64.2921 397.438 64.4775L391.793 67.8641C391.485 68.0494 391.385 68.4487 391.57 68.7553C391.691 68.9577 391.907 69.0704 392.128 69.0704Z" fill="black"/>
<path d="M395.513 85.44C395.734 85.44 395.949 85.3274 396.07 85.1249C396.256 84.8169 396.156 84.4176 395.848 84.2337L390.203 80.8471C389.896 80.6617 389.495 80.7616 389.311 81.0696C389.126 81.3776 389.226 81.7768 389.534 81.9608L395.179 85.3473C395.283 85.4101 395.399 85.44 395.513 85.44Z" fill="black"/>
<path d="M394.384 89.3913C394.605 89.3913 394.82 89.2786 394.941 89.0762C395.127 88.7682 395.027 88.3689 394.719 88.185L389.074 84.7984C388.766 84.6144 388.366 84.7128 388.182 85.0208C387.997 85.3288 388.097 85.7281 388.405 85.912L394.05 89.2986C394.154 89.3613 394.27 89.3913 394.384 89.3913Z" fill="black"/>
<path d="M23.6447 88.3018C24.9423 92.3771 28.7196 94.9852 32.7835 94.9852C33.7488 94.9852 34.7313 94.8383 35.7023 94.5274L46.4381 91.1066L46.6805 91.0282C46.6691 91.1295 46.6634 91.2321 46.6634 91.3334C46.4937 95.7309 50.1627 99.5866 55.0621 100.043C56.7048 100.195 58.279 99.9531 59.6793 99.3884C62.5696 100.523 65.7138 101.46 69.049 102.172V107.088L80.8015 103.633C81.8567 103.679 82.929 103.702 84.0084 103.702C107.857 103.702 127.191 92.5811 127.191 78.8651C127.191 70.9398 120.739 63.8843 110.697 59.3342C110.387 51.7197 102.332 45.0421 91.8553 44.0596C81.9095 43.1285 73.1372 47.6558 70.8229 54.486C69.4169 53.3681 67.6331 52.6237 65.6468 52.437C60.589 51.9621 56.1473 55.2874 55.7181 59.8603C55.7124 59.9445 55.701 60.03 55.701 60.1141C53.217 61.3504 50.9883 62.7507 49.0519 64.285L40.4492 58.7638C35.9904 55.8962 30.0514 57.1896 27.1896 61.6484C26.1629 63.2512 25.6652 65.0464 25.6652 66.8245C25.6652 69.9858 27.2238 73.073 30.0799 74.9081L31.4003 75.7608L29.8703 76.2456C24.824 77.8541 22.0348 83.2512 23.6447 88.3033V88.3018Z" fill="#FF931E"/>
<path d="M108.282 77.7344C106.568 77.7344 105.178 76.3445 105.178 74.6301C105.178 72.9157 106.568 71.5259 108.282 71.5259C109.996 71.5259 111.386 72.9157 111.386 74.6301C111.386 76.3445 109.996 77.7344 108.282 77.7344Z" fill="black"/>
<path d="M86.5508 89.109C86.642 89.109 86.7347 89.0891 86.8231 89.0491C87.1496 88.898 87.2908 88.513 87.1411 88.1864C84.4489 82.353 85.2674 76.655 89.5751 71.2536C92.8419 67.1569 96.99 64.7756 97.0313 64.7514C97.3436 64.5745 97.4534 64.1781 97.2751 63.8659C97.0983 63.5536 96.7019 63.4438 96.3896 63.6206C96.2157 63.719 79.0147 73.6862 85.959 88.7312C86.0688 88.9693 86.3041 89.109 86.5493 89.109H86.5508Z" fill="black"/>
<path d="M72.8849 89.8191C73.8288 89.8191 74.7215 89.6894 75.4658 89.4441C79.1019 88.2406 85.3004 85.9891 85.3617 85.9663C85.6997 85.8436 85.8736 85.47 85.751 85.1335C85.6284 84.797 85.2562 84.6216 84.9183 84.7442C84.8569 84.7671 78.6756 87.0129 75.058 88.2092C72.9633 88.9037 69.4798 88.4688 67.6346 86.7177C66.4183 85.5642 66.0618 84.0242 66.5766 82.1391C67.8385 77.5134 79.9218 78.4659 84.4705 79.2216C84.827 79.2815 85.1592 79.042 85.2191 78.6869C85.2776 78.3333 85.0395 77.9982 84.6844 77.9383C83.97 77.8185 67.1498 75.0964 65.3232 81.7954C64.5133 84.7628 65.6483 86.6222 66.742 87.6603C68.3091 89.1461 70.7346 89.8177 72.8877 89.8177L72.8849 89.8191Z" fill="black"/>
<path d="M75.4185 81.6286H84.9509C85.3102 81.6286 85.6011 81.3377 85.6011 80.9783C85.6011 80.619 85.3102 80.3281 84.9509 80.3281H75.4185C75.0592 80.3281 74.7683 80.619 74.7683 80.9783C74.7683 81.3377 75.0592 81.6286 75.4185 81.6286Z" fill="black"/>
<path d="M73.8486 85.4401C73.8828 85.4401 73.9185 85.4372 73.9541 85.4315L85.055 83.6149C85.4086 83.5564 85.6496 83.2228 85.5911 82.8677C85.5326 82.5126 85.199 82.2745 84.8439 82.3316L73.7431 84.1482C73.3895 84.2066 73.1485 84.5403 73.2069 84.8954C73.2597 85.2133 73.5349 85.4401 73.8472 85.4401H73.8486Z" fill="black"/>
<path d="M71.2906 73.0045C71.553 73.0045 71.8011 72.8434 71.8995 72.5824C72.025 72.2459 71.8553 71.8709 71.5188 71.7454C71.2878 71.6556 69.2487 70.8015 69.7948 68.6141C70.3737 66.2998 73.9272 66.1829 73.9628 66.1815C74.2508 66.1743 74.5004 65.9776 74.5745 65.6995C74.6487 65.4214 74.5317 65.1263 74.2851 64.9765C74.2366 64.9452 73.0017 64.1467 73.0017 62.4327C73.0017 60.9155 75.5869 60.6018 75.614 60.599C75.9705 60.5576 76.2272 60.2368 76.1858 59.8803C76.1459 59.5238 75.8236 59.2671 75.4686 59.3071C75.3146 59.3242 71.7013 59.7562 71.7013 62.4327C71.7013 63.5934 72.1077 64.4604 72.544 65.0593C71.1281 65.3573 69.0662 66.1572 68.5314 68.299C67.8598 70.9854 69.8918 72.5254 71.0596 72.9632C71.1352 72.9917 71.2122 73.0045 71.2878 73.0045H71.2906Z" fill="black"/>
<path d="M54.921 87.6816C55.1833 87.6816 55.4315 87.5204 55.5299 87.2595C55.6553 86.923 55.4857 86.5479 55.1491 86.4225C54.9181 86.3326 52.8791 85.4785 53.4252 83.2911C54.007 80.964 57.5561 80.8599 57.5917 80.8585C57.8798 80.8528 58.1307 80.656 58.2049 80.378C58.2805 80.0999 58.1621 79.8047 57.9154 79.655C57.8669 79.6237 56.6321 78.8266 56.6321 77.1112C56.6321 75.594 59.2173 75.2803 59.2444 75.2774C59.6009 75.2361 59.8575 74.9152 59.8162 74.5588C59.7763 74.2023 59.454 73.9456 59.0989 73.9855C58.9449 74.0026 55.3316 74.4347 55.3316 77.1112C55.3316 78.2719 55.738 79.1388 56.1744 79.7363C54.7584 80.0343 52.6965 80.8343 52.1618 82.976C51.4902 85.6624 53.5221 87.2024 54.69 87.6402C54.7656 87.6687 54.8426 87.6816 54.9181 87.6816H54.921Z" fill="black"/>
<path d="M57.8484 60.6033C57.9183 60.6033 57.9896 60.5919 58.058 60.5676C88.821 50.0657 108.368 59.3128 108.561 59.4069C108.884 59.5652 109.273 59.4312 109.431 59.1089C109.59 58.7867 109.456 58.3974 109.133 58.2391C108.935 58.1421 88.945 48.6483 57.6388 59.3371C57.2994 59.4526 57.1183 59.8219 57.2338 60.1627C57.3265 60.4322 57.5789 60.6033 57.8484 60.6033Z" fill="black"/>
<path d="M78.2719 104.07C78.6312 104.07 78.9207 103.779 78.9221 103.421C78.9235 103.063 78.6312 102.771 78.2733 102.771C78.2405 102.771 74.9965 102.754 70.3309 101.657C69.983 101.576 69.6322 101.791 69.5495 102.142C69.4668 102.491 69.685 102.841 70.0343 102.923C74.8582 104.056 78.1364 104.071 78.2733 104.071L78.2719 104.07Z" fill="black"/>
<path d="M59.1731 98.9165C59.4583 98.9165 59.7193 98.7283 59.7991 98.4402C59.8946 98.0952 59.6922 97.7358 59.3457 97.6403C59.2687 97.6189 51.6343 95.4543 48.4231 90.639C48.2249 90.3396 47.8213 90.2597 47.5219 90.4593C47.2224 90.659 47.1426 91.0625 47.3422 91.3605C50.8229 96.5823 58.6669 98.801 58.9992 98.8937C59.0576 98.9094 59.1161 98.9179 59.1731 98.9179V98.9165Z" fill="black"/>
<path d="M89.0904 51.0068C89.1888 51.0068 89.2872 50.984 89.3813 50.9383C89.7021 50.7772 89.8319 50.3879 89.6722 50.0657L87.4149 45.5498C87.2538 45.2289 86.8631 45.0992 86.5423 45.2589C86.2214 45.42 86.0917 45.8093 86.2514 46.1315L88.5086 50.6474C88.6227 50.8756 88.8523 51.0068 89.0904 51.0068Z" fill="black"/>
<path d="M84.0113 52.1362C84.1097 52.1362 84.2081 52.1133 84.3022 52.0677C84.623 51.9066 84.7528 51.5173 84.5931 51.1951L82.3358 46.6791C82.1747 46.3583 81.784 46.2286 81.4632 46.3883C81.1423 46.5494 81.0126 46.9387 81.1723 47.2609L83.4295 51.7768C83.5436 52.005 83.7732 52.1362 84.0113 52.1362Z" fill="black"/>
<path d="M78.9307 53.2655C79.0163 53.2655 79.1032 53.2483 79.1859 53.2127C79.5153 53.0715 79.6693 52.6894 79.5282 52.3586L77.8342 48.4073C77.6916 48.0779 77.3094 47.9254 76.98 48.0651C76.6506 48.2063 76.4966 48.5884 76.6378 48.9192L78.3318 52.8705C78.4373 53.1172 78.6769 53.264 78.9293 53.264L78.9307 53.2655Z" fill="black"/>
<path d="M29.2572 73.0217C29.3713 73.0217 29.4868 72.9917 29.5909 72.929L35.2361 69.5424C35.5441 69.3571 35.6439 68.9578 35.4586 68.6512C35.2732 68.3432 34.8754 68.2434 34.5674 68.4288L28.9221 71.8153C28.6141 72.0007 28.5143 72.4 28.6997 72.7066C28.8209 72.909 29.0362 73.0217 29.2572 73.0217Z" fill="black"/>
<path d="M28.1278 69.0704C28.2419 69.0704 28.3574 69.0404 28.4615 68.9777L34.1067 65.5911C34.4147 65.4058 34.5145 65.0065 34.3292 64.6999C34.1452 64.3919 33.7445 64.2921 33.438 64.4775L27.7927 67.8641C27.4847 68.0494 27.3849 68.4487 27.5703 68.7553C27.6915 68.9577 27.9068 69.0704 28.1278 69.0704Z" fill="black"/>
<path d="M31.5128 85.44C31.7339 85.44 31.9492 85.3274 32.0704 85.1249C32.2557 84.8169 32.1559 84.4176 31.8479 84.2337L26.2027 80.8471C25.8961 80.6617 25.4954 80.7616 25.3115 81.0696C25.1261 81.3776 25.2259 81.7768 25.5339 81.9608L31.1792 85.3473C31.2833 85.4101 31.3988 85.44 31.5128 85.44Z" fill="black"/>
<path d="M30.3837 89.3913C30.6047 89.3913 30.82 89.2786 30.9412 89.0762C31.1266 88.7682 31.0268 88.3689 30.7188 88.185L25.0735 84.7984C24.7655 84.6144 24.3663 84.7128 24.1823 85.0208C23.997 85.3288 24.0968 85.7281 24.4048 85.912L30.05 89.2986C30.1541 89.3613 30.2696 89.3913 30.3837 89.3913Z" fill="black"/>
</svg>
