<?xml version="1.0" encoding="UTF-8"?>
<svg id="fish" xmlns="http://www.w3.org/2000/svg" viewBox="0 0 1080 1080">
  <defs>
    <style>
      .cls-1 {
        fill: #fe5051;
      }
    </style>
  </defs>
  <path class="cls-1" d="M914.18,619.26c-9.1,28.58-35.59,46.87-64.09,46.87-6.77,0-13.66-1.03-20.47-3.21l-75.29-23.99-1.7-.55c.08,.71,.12,1.43,.12,2.14,1.19,30.84-24.54,57.88-58.9,61.08-11.52,1.07-22.56-.63-32.38-4.59-20.27,7.96-42.32,14.53-65.71,19.52v34.48l-82.42-24.23c-7.4,.32-14.92,.48-22.49,.48-167.25,0-302.84-77.99-302.84-174.18,0-55.58,45.25-105.06,115.67-136.97,2.18-53.4,58.67-100.23,132.14-107.12,69.75-6.53,131.27,25.22,147.5,73.12,9.86-7.84,22.37-13.06,36.3-14.37,35.47-3.33,66.62,19.99,69.63,52.06,.04,.59,.12,1.19,.12,1.78,17.42,8.67,33.05,18.49,46.63,29.25l60.33-38.72c31.27-20.11,72.92-11.04,92.99,20.23,7.2,11.24,10.69,23.83,10.69,36.3,0,22.17-10.93,43.82-30.96,56.69l-9.26,5.98,10.73,3.4c35.39,11.28,54.95,49.13,43.66,84.56Z"/>
  <circle cx="320.62" cy="523.38" r="21.77"/>
  <path d="M473.02,624.92c-.64,0-1.29-.14-1.91-.42-2.29-1.06-3.28-3.76-2.23-6.05,18.88-40.91,13.14-80.87-17.07-118.75-22.91-28.73-52-45.43-52.29-45.6-2.19-1.24-2.96-4.02-1.71-6.21,1.24-2.19,4.02-2.96,6.21-1.72,1.22,.69,121.85,70.59,73.15,176.1-.77,1.67-2.42,2.65-4.14,2.65Z"/>
  <path d="M568.86,629.9c-6.62,0-12.88-.91-18.1-2.63-25.5-8.44-68.97-24.23-69.4-24.39-2.37-.86-3.59-3.48-2.73-5.84s3.47-3.59,5.84-2.73c.43,.16,43.78,15.91,69.15,24.3,14.69,4.87,39.12,1.82,52.06-10.46,8.53-8.09,11.03-18.89,7.42-32.11-8.85-32.44-93.59-25.76-125.49-20.46-2.5,.42-4.83-1.26-5.25-3.75-.41-2.48,1.26-4.83,3.75-5.25,5.01-.84,122.97-19.93,135.78,27.05,5.68,20.81-2.28,33.85-9.95,41.13-10.99,10.42-28,15.13-43.1,15.13Z"/>
  <path d="M551.09,572.46h-66.85c-2.52,0-4.56-2.04-4.56-4.56s2.04-4.56,4.56-4.56h66.85c2.52,0,4.56,2.04,4.56,4.56s-2.04,4.56-4.56,4.56Z"/>
  <path d="M562.1,599.19c-.24,0-.49-.02-.74-.06l-77.85-12.74c-2.48-.41-4.17-2.75-3.76-5.24,.41-2.49,2.75-4.16,5.24-3.76l77.85,12.74c2.48,.41,4.17,2.75,3.76,5.24-.37,2.23-2.3,3.82-4.49,3.82Z"/>
  <path d="M580.04,511.98c-1.84,0-3.58-1.13-4.27-2.96-.88-2.36,.31-4.99,2.67-5.87,1.62-.63,15.92-6.62,12.09-21.96-4.06-16.23-28.98-17.05-29.23-17.06-2.02-.05-3.77-1.43-4.29-3.38-.52-1.95,.3-4.02,2.03-5.07,.34-.22,9-5.82,9-17.84,0-10.64-18.13-12.84-18.32-12.86-2.5-.29-4.3-2.54-4.01-5.04,.28-2.5,2.54-4.3,5.03-4.02,1.08,.12,26.42,3.15,26.42,21.92,0,8.14-2.85,14.22-5.91,18.42,9.93,2.09,24.39,7.7,28.14,22.72,4.71,18.84-9.54,29.64-17.73,32.71-.53,.2-1.07,.29-1.6,.29Z"/>
  <path d="M694.84,614.91c-1.84,0-3.58-1.13-4.27-2.96-.88-2.36,.31-4.99,2.67-5.87,1.62-.63,15.92-6.62,12.09-21.96-4.08-16.32-28.97-17.05-29.22-17.06-2.02-.04-3.78-1.42-4.3-3.37-.53-1.95,.3-4.02,2.03-5.07,.34-.22,9-5.81,9-17.84,0-10.64-18.13-12.84-18.32-12.86-2.5-.29-4.3-2.54-4.01-5.04,.28-2.5,2.54-4.3,5.03-4.02,1.08,.12,26.42,3.15,26.42,21.92,0,8.14-2.85,14.22-5.91,18.41,9.93,2.09,24.39,7.7,28.14,22.72,4.71,18.84-9.54,29.64-17.73,32.71-.53,.2-1.07,.29-1.6,.29Z"/>
  <path d="M674.31,425.01c-.49,0-.99-.08-1.47-.25-215.74-73.65-352.82-8.8-354.18-8.14-2.26,1.11-4.99,.17-6.1-2.09-1.11-2.26-.17-4.99,2.09-6.1,1.39-.68,141.58-67.26,361.13,7.7,2.38,.81,3.65,3.4,2.84,5.79-.65,1.89-2.42,3.09-4.31,3.09Z"/>
  <path d="M531.08,729.84c-2.52,0-4.55-2.04-4.56-4.55s2.04-4.56,4.55-4.56c.23,0,22.98-.12,55.7-7.81,2.44-.57,4.9,.94,5.48,3.4,.58,2.45-.95,4.9-3.4,5.48-33.83,7.94-56.82,8.05-57.78,8.05h0Z"/>
  <path d="M665.02,693.7c-2,0-3.83-1.32-4.39-3.34-.67-2.42,.75-4.94,3.18-5.61,.54-.15,54.08-15.33,76.6-49.1,1.39-2.1,4.22-2.66,6.32-1.26,2.1,1.4,2.66,4.23,1.26,6.32-24.41,36.62-79.42,52.18-81.75,52.83-.41,.11-.82,.17-1.22,.17Z"/>
  <path d="M455.21,357.71c-.69,0-1.38-.16-2.04-.48-2.25-1.13-3.16-3.86-2.04-6.12l15.83-31.67c1.13-2.25,3.87-3.16,6.12-2.04,2.25,1.13,3.16,3.86,2.04,6.12l-15.83,31.67c-.8,1.6-2.41,2.52-4.08,2.52Z"/>
  <path d="M490.83,365.63c-.69,0-1.38-.16-2.04-.48-2.25-1.13-3.16-3.86-2.04-6.12l15.83-31.67c1.13-2.25,3.87-3.16,6.12-2.04,2.25,1.13,3.16,3.86,2.04,6.12l-15.83,31.67c-.8,1.6-2.41,2.52-4.08,2.52Z"/>
  <path d="M526.46,373.55c-.6,0-1.21-.12-1.79-.37-2.31-.99-3.39-3.67-2.4-5.99l11.88-27.71c1-2.31,3.68-3.38,5.99-2.4,2.31,.99,3.39,3.67,2.4,5.99l-11.88,27.71c-.74,1.73-2.42,2.76-4.19,2.76Z"/>
  <path d="M874.82,512.1c-.8,0-1.61-.21-2.34-.65l-39.59-23.75c-2.16-1.3-2.86-4.1-1.56-6.25,1.3-2.16,4.09-2.86,6.25-1.56l39.59,23.75c2.16,1.3,2.86,4.1,1.56,6.25-.85,1.42-2.36,2.21-3.91,2.21Z"/>
  <path d="M882.74,484.39c-.8,0-1.61-.21-2.34-.65l-39.59-23.75c-2.16-1.3-2.86-4.1-1.56-6.25,1.29-2.16,4.1-2.86,6.25-1.56l39.59,23.75c2.16,1.3,2.86,4.1,1.56,6.25-.85,1.42-2.36,2.21-3.91,2.21Z"/>
  <path d="M859,599.19c-1.55,0-3.06-.79-3.91-2.21-1.3-2.16-.6-4.96,1.56-6.25l39.59-23.75c2.15-1.3,4.96-.6,6.25,1.56,1.3,2.16,.6,4.96-1.56,6.25l-39.59,23.75c-.73,.44-1.54,.65-2.34,.65Z"/>
  <path d="M866.92,626.9c-1.55,0-3.06-.79-3.91-2.21-1.3-2.16-.6-4.96,1.56-6.25l39.59-23.75c2.16-1.29,4.96-.6,6.25,1.56,1.3,2.16,.6,4.96-1.56,6.25l-39.59,23.75c-.73,.44-1.54,.65-2.34,.65Z"/>
</svg>