<svg width="417" height="158" viewBox="0 0 417 158" fill="none" xmlns="http://www.w3.org/2000/svg">
<path d="M286.645 92.3018C287.942 96.3771 291.72 98.9852 295.783 98.9852C296.749 98.9852 297.731 98.8383 298.702 98.5274L309.438 95.1066L309.681 95.0282C309.669 95.1295 309.663 95.2321 309.663 95.3334C309.494 99.7309 313.163 103.587 318.062 104.043C319.705 104.195 321.279 103.953 322.679 103.388C325.57 104.523 328.714 105.46 332.049 106.172V111.088L343.802 107.633C344.857 107.679 345.929 107.702 347.008 107.702C370.857 107.702 390.191 96.5811 390.191 82.8651C390.191 74.9398 383.739 67.8843 373.697 63.3342C373.387 55.7197 365.332 49.0421 354.855 48.0596C344.909 47.1285 336.137 51.6558 333.823 58.486C332.417 57.3681 330.633 56.6237 328.647 56.437C323.589 55.9621 319.147 59.2874 318.718 63.8603C318.712 63.9445 318.701 64.03 318.701 64.1141C316.217 65.3504 313.988 66.7507 312.052 68.285L303.449 62.7638C298.99 59.8962 293.051 61.1896 290.19 65.6484C289.163 67.2512 288.665 69.0464 288.665 70.8245C288.665 73.9858 290.224 77.073 293.08 78.9081L294.4 79.7608L292.87 80.2456C287.824 81.8541 285.035 87.2512 286.645 92.3033V92.3018Z" fill="#FF8283"/>
<path d="M371.282 81.7344C369.568 81.7344 368.178 80.3445 368.178 78.6301C368.178 76.9157 369.568 75.5259 371.282 75.5259C372.996 75.5259 374.386 76.9157 374.386 78.6301C374.386 80.3445 372.996 81.7344 371.282 81.7344Z" fill="black"/>
<path d="M349.551 93.109C349.642 93.109 349.735 93.0891 349.823 93.0491C350.15 92.898 350.291 92.513 350.141 92.1864C347.449 86.353 348.268 80.655 352.575 75.2536C355.842 71.1569 359.99 68.7756 360.031 68.7514C360.344 68.5745 360.454 68.1781 360.275 67.8659C360.098 67.5536 359.702 67.4438 359.39 67.6206C359.216 67.719 342.015 77.6862 348.959 92.7312C349.069 92.9693 349.304 93.109 349.549 93.109H349.551Z" fill="black"/>
<path d="M335.885 93.8191C336.829 93.8191 337.721 93.6894 338.466 93.4441C342.102 92.2406 348.3 89.9891 348.362 89.9663C348.7 89.8436 348.874 89.47 348.751 89.1335C348.628 88.797 348.256 88.6216 347.918 88.7442C347.857 88.7671 341.675 91.0129 338.058 92.2092C335.963 92.9037 332.48 92.4688 330.634 90.7177C329.418 89.5642 329.062 88.0242 329.576 86.1391C330.838 81.5134 342.922 82.4659 347.47 83.2216C347.827 83.2815 348.159 83.042 348.219 82.6869C348.277 82.3333 348.039 81.9982 347.684 81.9383C346.97 81.8185 330.15 79.0964 328.323 85.7954C327.513 88.7628 328.648 90.6222 329.742 91.6603C331.309 93.1461 333.734 93.8177 335.888 93.8177L335.885 93.8191Z" fill="black"/>
<path d="M338.419 85.6286H347.951C348.31 85.6286 348.601 85.3377 348.601 84.9783C348.601 84.619 348.31 84.3281 347.951 84.3281H338.419C338.059 84.3281 337.768 84.619 337.768 84.9783C337.768 85.3377 338.059 85.6286 338.419 85.6286Z" fill="black"/>
<path d="M336.849 89.4401C336.883 89.4401 336.919 89.4372 336.954 89.4315L348.055 87.6149C348.409 87.5564 348.65 87.2228 348.591 86.8677C348.533 86.5126 348.199 86.2745 347.844 86.3316L336.743 88.1482C336.39 88.2066 336.149 88.5403 336.207 88.8954C336.26 89.2133 336.535 89.4401 336.847 89.4401H336.849Z" fill="black"/>
<path d="M334.291 77.0045C334.553 77.0045 334.801 76.8434 334.899 76.5824C335.025 76.2459 334.855 75.8709 334.519 75.7454C334.288 75.6556 332.249 74.8015 332.795 72.6141C333.374 70.2998 336.927 70.1829 336.963 70.1815C337.251 70.1743 337.5 69.9776 337.575 69.6995C337.649 69.4214 337.532 69.1263 337.285 68.9765C337.237 68.9452 336.002 68.1467 336.002 66.4327C336.002 64.9155 338.587 64.6018 338.614 64.599C338.971 64.5576 339.227 64.2368 339.186 63.8803C339.146 63.5238 338.824 63.2671 338.469 63.3071C338.315 63.3242 334.701 63.7562 334.701 66.4327C334.701 67.5934 335.108 68.4604 335.544 69.0593C334.128 69.3573 332.066 70.1572 331.531 72.299C330.86 74.9854 332.892 76.5254 334.06 76.9632C334.135 76.9917 334.212 77.0045 334.288 77.0045H334.291Z" fill="black"/>
<path d="M317.921 91.6816C318.183 91.6816 318.431 91.5204 318.53 91.2595C318.655 90.923 318.486 90.5479 318.149 90.4225C317.918 90.3326 315.879 89.4785 316.425 87.2911C317.007 84.964 320.556 84.8599 320.592 84.8585C320.88 84.8528 321.131 84.656 321.205 84.378C321.28 84.0999 321.162 83.8047 320.915 83.655C320.867 83.6237 319.632 82.8266 319.632 81.1112C319.632 79.594 322.217 79.2803 322.244 79.2774C322.601 79.2361 322.858 78.9152 322.816 78.5588C322.776 78.2023 322.454 77.9456 322.099 77.9855C321.945 78.0026 318.332 78.4347 318.332 81.1112C318.332 82.2719 318.738 83.1388 319.174 83.7363C317.758 84.0343 315.697 84.8343 315.162 86.976C314.49 89.6624 316.522 91.2024 317.69 91.6402C317.766 91.6687 317.843 91.6816 317.918 91.6816H317.921Z" fill="black"/>
<path d="M320.848 64.6033C320.918 64.6033 320.99 64.5919 321.058 64.5676C351.821 54.0657 371.368 63.3128 371.561 63.4069C371.884 63.5652 372.273 63.4312 372.431 63.1089C372.59 62.7867 372.456 62.3974 372.133 62.2391C371.935 62.1421 351.945 52.6483 320.639 63.3371C320.299 63.4526 320.118 63.8219 320.234 64.1627C320.327 64.4322 320.579 64.6033 320.848 64.6033Z" fill="black"/>
<path d="M341.272 108.07C341.631 108.07 341.921 107.779 341.922 107.421C341.924 107.063 341.631 106.771 341.273 106.771C341.241 106.771 337.997 106.754 333.331 105.657C332.983 105.576 332.632 105.791 332.55 106.142C332.467 106.491 332.685 106.841 333.034 106.923C337.858 108.056 341.136 108.071 341.273 108.071L341.272 108.07Z" fill="black"/>
<path d="M322.173 102.916C322.458 102.916 322.719 102.728 322.799 102.44C322.895 102.095 322.692 101.736 322.346 101.64C322.269 101.619 314.634 99.4543 311.423 94.639C311.225 94.3396 310.821 94.2597 310.522 94.4593C310.222 94.659 310.143 95.0625 310.342 95.3605C313.823 100.582 321.667 102.801 321.999 102.894C322.058 102.909 322.116 102.918 322.173 102.918V102.916Z" fill="black"/>
<path d="M352.09 55.0068C352.189 55.0068 352.287 54.984 352.381 54.9383C352.702 54.7772 352.832 54.3879 352.672 54.0657L350.415 49.5498C350.254 49.2289 349.863 49.0992 349.542 49.2589C349.221 49.42 349.092 49.8093 349.251 50.1315L351.509 54.6474C351.623 54.8756 351.852 55.0068 352.09 55.0068Z" fill="black"/>
<path d="M347.011 56.1362C347.11 56.1362 347.208 56.1133 347.302 56.0677C347.623 55.9066 347.753 55.5173 347.593 55.1951L345.336 50.6791C345.175 50.3583 344.784 50.2286 344.463 50.3883C344.142 50.5494 344.013 50.9387 344.172 51.2609L346.43 55.7768C346.544 56.005 346.773 56.1362 347.011 56.1362Z" fill="black"/>
<path d="M341.931 57.2655C342.016 57.2655 342.103 57.2483 342.186 57.2127C342.515 57.0715 342.669 56.6894 342.528 56.3586L340.834 52.4073C340.692 52.0779 340.309 51.9254 339.98 52.0651C339.651 52.2063 339.497 52.5884 339.638 52.9192L341.332 56.8705C341.437 57.1172 341.677 57.264 341.929 57.264L341.931 57.2655Z" fill="black"/>
<path d="M292.257 77.0217C292.371 77.0217 292.487 76.9917 292.591 76.929L298.236 73.5424C298.544 73.3571 298.644 72.9578 298.459 72.6512C298.273 72.3432 297.875 72.2434 297.567 72.4288L291.922 75.8153C291.614 76.0007 291.514 76.4 291.7 76.7066C291.821 76.909 292.036 77.0217 292.257 77.0217Z" fill="black"/>
<path d="M291.128 73.0704C291.242 73.0704 291.357 73.0404 291.461 72.9777L297.107 69.5911C297.415 69.4058 297.515 69.0065 297.329 68.6999C297.145 68.3919 296.745 68.2921 296.438 68.4775L290.793 71.8641C290.485 72.0494 290.385 72.4487 290.57 72.7553C290.691 72.9577 290.907 73.0704 291.128 73.0704Z" fill="black"/>
<path d="M294.513 89.44C294.734 89.44 294.949 89.3274 295.07 89.1249C295.256 88.8169 295.156 88.4176 294.848 88.2337L289.203 84.8471C288.896 84.6617 288.496 84.7616 288.312 85.0696C288.126 85.3776 288.226 85.7768 288.534 85.9608L294.179 89.3473C294.283 89.4101 294.399 89.44 294.513 89.44Z" fill="black"/>
<path d="M293.384 93.3913C293.605 93.3913 293.82 93.2786 293.941 93.0762C294.127 92.7682 294.027 92.3689 293.719 92.185L288.074 88.7984C287.766 88.6144 287.366 88.7128 287.182 89.0208C286.997 89.3288 287.097 89.7281 287.405 89.912L293.05 93.2986C293.154 93.3613 293.27 93.3913 293.384 93.3913Z" fill="black"/>
<path d="M100.645 90.3018C101.942 94.3771 105.72 96.9852 109.783 96.9852C110.749 96.9852 111.731 96.8383 112.702 96.5274L123.438 93.1066L123.681 93.0282C123.669 93.1295 123.663 93.2321 123.663 93.3334C123.494 97.7309 127.163 101.587 132.062 102.043C133.705 102.195 135.279 101.953 136.679 101.388C139.57 102.523 142.714 103.46 146.049 104.172V109.088L157.802 105.633C158.857 105.679 159.929 105.702 161.008 105.702C184.857 105.702 204.191 94.5811 204.191 80.8651C204.191 72.9398 197.739 65.8843 187.697 61.3342C187.387 53.7197 179.332 47.0421 168.855 46.0596C158.909 45.1285 150.137 49.6558 147.823 56.486C146.417 55.3681 144.633 54.6237 142.647 54.437C137.589 53.9621 133.147 57.2874 132.718 61.8603C132.712 61.9445 132.701 62.03 132.701 62.1141C130.217 63.3504 127.988 64.7507 126.052 66.285L117.449 60.7638C112.99 57.8962 107.051 59.1896 104.19 63.6484C103.163 65.2512 102.665 67.0464 102.665 68.8245C102.665 71.9858 104.224 75.073 107.08 76.9081L108.4 77.7608L106.87 78.2456C101.824 79.8541 99.0348 85.2512 100.645 90.3033V90.3018Z" fill="#FFBD70"/>
<path d="M185.282 79.7344C183.568 79.7344 182.178 78.3445 182.178 76.6301C182.178 74.9157 183.568 73.5259 185.282 73.5259C186.996 73.5259 188.386 74.9157 188.386 76.6301C188.386 78.3445 186.996 79.7344 185.282 79.7344Z" fill="black"/>
<path d="M163.551 91.109C163.642 91.109 163.735 91.0891 163.823 91.0491C164.15 90.898 164.291 90.513 164.141 90.1864C161.449 84.353 162.268 78.655 166.575 73.2536C169.842 69.1569 173.99 66.7756 174.031 66.7514C174.344 66.5745 174.454 66.1781 174.275 65.8659C174.098 65.5536 173.702 65.4438 173.39 65.6206C173.216 65.719 156.015 75.6862 162.959 90.7312C163.069 90.9693 163.304 91.109 163.549 91.109H163.551Z" fill="black"/>
<path d="M149.885 91.8191C150.829 91.8191 151.721 91.6894 152.466 91.4441C156.102 90.2406 162.3 87.9891 162.362 87.9663C162.7 87.8436 162.874 87.47 162.751 87.1335C162.628 86.797 162.256 86.6216 161.918 86.7442C161.857 86.7671 155.675 89.0129 152.058 90.2092C149.963 90.9037 146.48 90.4688 144.634 88.7177C143.418 87.5642 143.062 86.0242 143.576 84.1391C144.838 79.5134 156.922 80.4659 161.47 81.2216C161.827 81.2815 162.159 81.042 162.219 80.6869C162.277 80.3333 162.039 79.9982 161.684 79.9383C160.97 79.8185 144.15 77.0964 142.323 83.7954C141.513 86.7628 142.648 88.6222 143.742 89.6603C145.309 91.1461 147.734 91.8177 149.888 91.8177L149.885 91.8191Z" fill="black"/>
<path d="M152.419 83.6286H161.951C162.31 83.6286 162.601 83.3377 162.601 82.9783C162.601 82.619 162.31 82.3281 161.951 82.3281H152.419C152.059 82.3281 151.768 82.619 151.768 82.9783C151.768 83.3377 152.059 83.6286 152.419 83.6286Z" fill="black"/>
<path d="M150.849 87.4401C150.883 87.4401 150.919 87.4372 150.954 87.4315L162.055 85.6149C162.409 85.5564 162.65 85.2228 162.591 84.8677C162.533 84.5126 162.199 84.2745 161.844 84.3316L150.743 86.1482C150.39 86.2066 150.149 86.5403 150.207 86.8954C150.26 87.2133 150.535 87.4401 150.847 87.4401H150.849Z" fill="black"/>
<path d="M148.291 75.0045C148.553 75.0045 148.801 74.8434 148.899 74.5824C149.025 74.2459 148.855 73.8709 148.519 73.7454C148.288 73.6556 146.249 72.8015 146.795 70.6141C147.374 68.2998 150.927 68.1829 150.963 68.1815C151.251 68.1743 151.5 67.9776 151.575 67.6995C151.649 67.4214 151.532 67.1263 151.285 66.9765C151.237 66.9452 150.002 66.1467 150.002 64.4327C150.002 62.9155 152.587 62.6018 152.614 62.599C152.971 62.5576 153.227 62.2368 153.186 61.8803C153.146 61.5238 152.824 61.2671 152.469 61.3071C152.315 61.3242 148.701 61.7562 148.701 64.4327C148.701 65.5934 149.108 66.4604 149.544 67.0593C148.128 67.3573 146.066 68.1572 145.531 70.299C144.86 72.9854 146.892 74.5254 148.06 74.9632C148.135 74.9917 148.212 75.0045 148.288 75.0045H148.291Z" fill="black"/>
<path d="M131.921 89.6816C132.183 89.6816 132.431 89.5204 132.53 89.2595C132.655 88.923 132.486 88.5479 132.149 88.4225C131.918 88.3326 129.879 87.4785 130.425 85.2911C131.007 82.964 134.556 82.8599 134.592 82.8585C134.88 82.8528 135.131 82.656 135.205 82.378C135.28 82.0999 135.162 81.8047 134.915 81.655C134.867 81.6237 133.632 80.8266 133.632 79.1112C133.632 77.594 136.217 77.2803 136.244 77.2774C136.601 77.2361 136.858 76.9152 136.816 76.5588C136.776 76.2023 136.454 75.9456 136.099 75.9855C135.945 76.0026 132.332 76.4347 132.332 79.1112C132.332 80.2719 132.738 81.1388 133.174 81.7363C131.758 82.0343 129.697 82.8343 129.162 84.976C128.49 87.6624 130.522 89.2024 131.69 89.6402C131.766 89.6687 131.843 89.6816 131.918 89.6816H131.921Z" fill="black"/>
<path d="M134.848 62.6033C134.918 62.6033 134.99 62.5919 135.058 62.5676C165.821 52.0657 185.368 61.3128 185.561 61.4069C185.884 61.5652 186.273 61.4312 186.431 61.1089C186.59 60.7867 186.456 60.3974 186.133 60.2391C185.935 60.1421 165.945 50.6483 134.639 61.3371C134.299 61.4526 134.118 61.8219 134.234 62.1627C134.327 62.4322 134.579 62.6033 134.848 62.6033Z" fill="black"/>
<path d="M155.272 106.07C155.631 106.07 155.921 105.779 155.922 105.421C155.924 105.063 155.631 104.771 155.273 104.771C155.241 104.771 151.997 104.754 147.331 103.657C146.983 103.576 146.632 103.791 146.55 104.142C146.467 104.491 146.685 104.841 147.034 104.923C151.858 106.056 155.136 106.071 155.273 106.071L155.272 106.07Z" fill="black"/>
<path d="M136.173 100.916C136.458 100.916 136.719 100.728 136.799 100.44C136.895 100.095 136.692 99.7358 136.346 99.6403C136.269 99.6189 128.634 97.4543 125.423 92.639C125.225 92.3396 124.821 92.2597 124.522 92.4593C124.222 92.659 124.143 93.0625 124.342 93.3605C127.823 98.5823 135.667 100.801 135.999 100.894C136.058 100.909 136.116 100.918 136.173 100.918V100.916Z" fill="black"/>
<path d="M166.09 53.0068C166.189 53.0068 166.287 52.984 166.381 52.9383C166.702 52.7772 166.832 52.3879 166.672 52.0657L164.415 47.5498C164.254 47.2289 163.863 47.0992 163.542 47.2589C163.221 47.42 163.092 47.8093 163.251 48.1315L165.509 52.6474C165.623 52.8756 165.852 53.0068 166.09 53.0068Z" fill="black"/>
<path d="M161.011 54.1362C161.11 54.1362 161.208 54.1133 161.302 54.0677C161.623 53.9066 161.753 53.5173 161.593 53.1951L159.336 48.6791C159.175 48.3583 158.784 48.2286 158.463 48.3883C158.142 48.5494 158.013 48.9387 158.172 49.2609L160.43 53.7768C160.544 54.005 160.773 54.1362 161.011 54.1362Z" fill="black"/>
<path d="M155.931 55.2655C156.016 55.2655 156.103 55.2483 156.186 55.2127C156.515 55.0715 156.669 54.6894 156.528 54.3586L154.834 50.4073C154.692 50.0779 154.309 49.9254 153.98 50.0651C153.651 50.2063 153.497 50.5884 153.638 50.9192L155.332 54.8705C155.437 55.1172 155.677 55.264 155.929 55.264L155.931 55.2655Z" fill="black"/>
<path d="M106.257 75.0217C106.371 75.0217 106.487 74.9917 106.591 74.929L112.236 71.5424C112.544 71.3571 112.644 70.9578 112.459 70.6512C112.273 70.3432 111.875 70.2434 111.567 70.4288L105.922 73.8153C105.614 74.0007 105.514 74.4 105.7 74.7066C105.821 74.909 106.036 75.0217 106.257 75.0217Z" fill="black"/>
<path d="M105.128 71.0704C105.242 71.0704 105.357 71.0404 105.461 70.9777L111.107 67.5911C111.415 67.4058 111.515 67.0065 111.329 66.6999C111.145 66.3919 110.745 66.2921 110.438 66.4775L104.793 69.8641C104.485 70.0494 104.385 70.4487 104.57 70.7553C104.691 70.9577 104.907 71.0704 105.128 71.0704Z" fill="black"/>
<path d="M108.513 87.44C108.734 87.44 108.949 87.3274 109.07 87.1249C109.256 86.8169 109.156 86.4176 108.848 86.2337L103.203 82.8471C102.896 82.6617 102.496 82.7616 102.312 83.0696C102.126 83.3776 102.226 83.7768 102.534 83.9608L108.179 87.3473C108.283 87.4101 108.399 87.44 108.513 87.44Z" fill="black"/>
<path d="M107.384 91.3913C107.605 91.3913 107.82 91.2786 107.941 91.0762C108.127 90.7682 108.027 90.3689 107.719 90.185L102.074 86.7984C101.766 86.6144 101.366 86.7128 101.182 87.0208C100.997 87.3288 101.097 87.7281 101.405 87.912L107.05 91.2986C107.154 91.3613 107.27 91.3913 107.384 91.3913Z" fill="black"/>
<path d="M-85.3553 88.3018C-84.0577 92.3771 -80.2804 94.9852 -76.2165 94.9852C-75.2512 94.9852 -74.2687 94.8383 -73.2977 94.5274L-62.5619 91.1066L-62.3195 91.0282C-62.3309 91.1295 -62.3366 91.2321 -62.3366 91.3334C-62.5063 95.7309 -58.8373 99.5866 -53.9379 100.043C-52.2952 100.195 -50.721 99.9531 -49.3207 99.3884C-46.4304 100.523 -43.2862 101.46 -39.951 102.172V107.088L-28.1985 103.633C-27.1433 103.679 -26.071 103.702 -24.9916 103.702C-1.14297 103.702 18.1912 92.5811 18.1912 78.8651C18.1912 70.9398 11.7388 63.8843 1.69748 59.3342C1.38663 51.7197 -6.66843 45.0421 -17.1447 44.0596C-27.0905 43.1285 -35.8628 47.6558 -38.1771 54.486C-39.5831 53.3681 -41.3669 52.6237 -43.3532 52.437C-48.411 51.9621 -52.8527 55.2874 -53.2819 59.8603C-53.2876 59.9445 -53.299 60.03 -53.299 60.1141C-55.783 61.3504 -58.0117 62.7507 -59.9481 64.285L-68.5508 58.7638C-73.0096 55.8962 -78.9486 57.1896 -81.8104 61.6484C-82.8371 63.2512 -83.3348 65.0464 -83.3348 66.8245C-83.3348 69.9858 -81.7762 73.073 -78.9201 74.9081L-77.5997 75.7608L-79.1297 76.2456C-84.176 77.8541 -86.9652 83.2512 -85.3553 88.3033V88.3018Z" fill="#FFB4B5"/>
<path d="M-0.718009 77.7344C-2.43243 77.7344 -3.82225 76.3445 -3.82225 74.6301C-3.82225 72.9157 -2.43243 71.5259 -0.718009 71.5259C0.996416 71.5259 2.38623 72.9157 2.38623 74.6301C2.38623 76.3445 0.996416 77.7344 -0.718009 77.7344Z" fill="black"/>
<path d="M-51.1516 60.6033C-51.0817 60.6033 -51.0104 60.5919 -50.942 60.5676C-20.179 50.0657 -0.632446 59.3128 -0.43852 59.4069C-0.116261 59.5652 0.273017 59.4312 0.431295 59.1089C0.589573 58.7867 0.455537 58.3974 0.133277 58.2391C-0.0649264 58.1421 -20.055 48.6483 -51.3612 59.3371C-51.7006 59.4526 -51.8817 59.8219 -51.7662 60.1627C-51.6735 60.4322 -51.4211 60.6033 -51.1516 60.6033Z" fill="black"/>
</svg>
