<svg width="328" height="586" viewBox="0 0 328 586" fill="none" xmlns="http://www.w3.org/2000/svg">
<path d="M165.633 191.172C119.34 250.672 120.151 356.37 179.316 408.766C246.492 468.217 341.033 467.598 400.485 412.913C471.761 347.311 467.661 238.133 404.633 176.297C341.272 114.128 228.041 110.886 165.633 191.172Z" fill="#FCC11A"/>
<path d="M239.96 170.767C221.653 162.662 201.629 184.736 192.904 199.802C184.179 214.915 176.074 244.522 194.668 252.103C213.262 259.635 226.611 246.858 240.008 224.784C253.31 202.71 260.89 180.064 239.96 170.767Z" fill="#FEE269"/>
<path d="M287.635 87.8086C283.201 96.1042 284.679 102.493 293.499 104.591C302.319 106.688 357.195 115.604 361.819 115.89C368.541 116.319 371.021 111.265 370.21 105.401C369.352 99.5369 355.955 17.3911 354.715 9.85831C353.476 2.3255 345.514 -5.20731 337.933 4.85232C330.353 14.912 290.973 81.563 287.635 87.8086Z" fill="#FFA722"/>
<path d="M223.464 465.448C215.026 464.637 212.546 472.17 213.834 478.845C215.073 485.567 227.66 570.573 228.518 576.914C229.757 586.116 239.436 589.93 245.681 580.681C251.927 571.432 295.026 502.492 298.506 496.008C304.799 484.28 300.175 481.753 293.882 478.845C287.636 475.937 232.284 466.306 223.464 465.448Z" fill="#FFA722"/>
<path d="M102.794 367.811C108.659 358.18 116.191 360.707 121.674 369.909C125.393 376.202 156.859 418.538 159.815 423.115C162.771 427.739 164.01 436.512 154.809 438.61C145.512 440.755 70.5177 460.445 58.7894 462.543C47.0611 464.641 40.3388 455.439 47.8716 445.38C52.2578 439.468 99.4571 373.293 102.794 367.811Z" fill="#FFA722"/>
<path d="M86.8711 294.868C97.5982 299.635 102.652 297.919 104.893 290.243C107.849 280.183 116.621 234.081 117.05 223.592C117.336 216.774 114.523 210.195 104.034 211.864C93.5457 213.532 18.1223 224.069 8.49173 227.406C-2.71213 231.316 -1.90164 243.616 5.53582 247.525C14.3559 252.15 79.2906 291.53 86.8711 294.868Z" fill="#FFA722"/>
<path d="M217.217 118.843C223.271 114.028 221.412 107.115 215.977 103.348C210.542 99.5819 143.223 50.9047 134.689 44.23C127.157 38.3659 117.908 40.4636 120.434 53.8606C122.246 63.4911 143.7 147.782 145.178 153.599C146.847 160.321 151.9 163.658 157.765 159.463C163.533 155.315 210.923 123.897 217.217 118.843Z" fill="#FFA722"/>
</svg>
