<svg width="1239" height="959" viewBox="0 0 1239 959" fill="none" xmlns="http://www.w3.org/2000/svg">
<g clip-path="url(#clip0_391_296)">
<path d="M1079.63 439.078L521.825 95.8152C485.396 73.3977 439.223 74.3586 403.759 98.2723L-81.2502 425.316C-121.402 452.39 -138.876 502.709 -124.147 548.842L10 969H1131.5V531.909C1131.5 494.057 1111.86 458.916 1079.63 439.078Z" fill="#F6EEDA" fill-opacity="0.5"/>
<path d="M1017.58 505.302L522.731 186.108C484.424 161.399 434.786 163.138 398.301 190.466L-20.1354 503.894C-48.2926 524.985 -64.539 558.37 -63.7621 593.541L-54 1035.5H1067.5V596.9C1067.5 559.871 1048.7 525.374 1017.58 505.302Z" fill="#FFFCFC" fill-opacity="0.23" stroke="#A5C8E8" stroke-width="13"/>
<g clip-path="url(#clip1_391_296)">
<path d="M492.526 580.906C492.526 580.906 507.114 483.594 414.677 456.832C414.689 456.832 400.089 551.706 492.526 580.906Z" fill="#008218"/>
<path d="M488.374 580.906C488.374 580.906 473.78 483.594 566.223 456.832C566.211 456.832 580.817 551.706 488.374 580.906Z" fill="#008218"/>
<path d="M491.443 567.931C491.443 567.931 428.819 492.043 494.271 421.5C494.271 421.5 555.649 495.305 491.443 567.931Z" fill="#008218"/>
<path d="M666.724 653.935C666.724 743.718 586.925 816.5 488.494 816.5C390.051 816.5 310.27 743.718 310.27 653.935C310.27 582.194 353.323 524.781 426.033 511.482C461.07 505.078 488.494 532.497 488.494 532.497C488.494 532.497 513.752 506.3 547.242 510.952C617.755 520.743 666.724 575.369 666.724 653.935Z" fill="#FF4A44"/>
<path d="M665.964 643.807C667.554 662.571 662.282 706.393 638.295 739.217C620.167 764.024 587.727 806.959 506.628 817.454" stroke="#D71C16" stroke-width="3" stroke-linecap="round" stroke-linejoin="round"/>
<path d="M468.464 517.865C460.831 513.73 440.031 506.988 417.896 513.094C390.227 520.727 372.099 529.315 345.384 555.076" stroke="#D71C16" stroke-width="3" stroke-linecap="round" stroke-linejoin="round"/>
</g>
<path d="M834.5 386.5V1037" stroke="#A5C8E8" stroke-width="13"/>
<path d="M154 371.5V1022" stroke="#A5C8E8" stroke-width="13"/>
</g>
<defs>
<clipPath id="clip0_391_296">
<rect width="1239" height="959" fill="white"/>
</clipPath>
<clipPath id="clip1_391_296">
<rect width="395" height="395" fill="white" transform="translate(291 421.5)"/>
</clipPath>
</defs>
</svg>
