<svg width="509" height="445" viewBox="0 0 509 445" fill="none" xmlns="http://www.w3.org/2000/svg">
<path d="M17.4504 26.1368C33.6133 74.366 85.0945 105.434 116.681 117.782C119.863 119.026 121.29 122.778 119.631 125.765L93.3222 173.149C92.1115 175.33 89.5818 176.433 87.1917 175.721C46.1507 163.483 -17.7841 118.936 4.6425 25.525C6.03459 19.7267 15.5556 20.4827 17.4504 26.1368Z" fill="#FFBD70"/>
<path d="M490.995 26.1368C474.832 74.366 423.351 105.434 391.764 117.782C388.583 119.026 387.156 122.778 388.814 125.765L415.123 173.149C416.334 175.33 418.864 176.433 421.254 175.721C462.295 163.483 526.229 118.936 503.803 25.525C502.411 19.7267 492.89 20.4827 490.995 26.1368Z" fill="#FFBD70"/>
<path d="M50.7843 252.641C50.8965 251.787 51.0146 250.933 51.1356 250.085C51.2595 249.237 51.3865 248.386 51.5193 247.541C51.6521 246.69 51.7908 245.842 51.9355 244.994C52.0772 244.143 52.2277 243.301 52.3812 242.456C52.5376 241.608 52.6941 240.766 52.8594 239.921C53.0246 239.079 53.1929 238.234 53.37 237.395C53.5441 236.55 53.7242 235.708 53.9072 234.868C54.0931 234.026 54.285 233.184 54.4798 232.351C54.6746 231.512 54.8753 230.673 55.079 229.837C55.2856 228.998 55.4952 228.159 55.7107 227.325C55.9291 226.492 56.1475 225.659 56.3718 224.826C56.5991 223.993 56.8293 223.166 57.0625 222.335C57.2987 221.502 57.5378 220.675 57.7827 219.848C58.0277 219.018 58.2786 218.19 58.5325 217.369C58.7863 216.542 59.0461 215.718 59.3088 214.893C59.5715 214.069 59.843 213.248 60.1146 212.429C60.3891 211.605 60.6695 210.787 60.9469 209.968C61.2332 209.15 61.5225 208.332 61.8118 207.519C62.1069 206.701 62.4021 205.889 62.7032 205.073C63.0042 204.261 63.3112 203.448 63.6211 202.639C63.934 201.829 64.2469 201.023 64.5657 200.216C64.8874 199.41 65.2091 198.604 65.5368 197.8C65.8674 196.994 66.2009 196.193 66.5374 195.392C66.8768 194.589 67.2163 193.791 67.5616 192.994C67.9129 192.196 68.2612 191.399 68.6154 190.604C68.9725 189.809 69.3297 189.018 69.6957 188.226C70.0587 187.434 70.4277 186.643 70.7996 185.854C71.1715 185.068 71.5493 184.28 71.9301 183.497C72.3109 182.714 72.6975 181.928 73.0842 181.152C73.4768 180.369 73.8693 179.589 74.2678 178.812C74.6633 178.035 75.0648 177.259 75.4721 176.485C75.8794 175.711 76.2897 174.937 76.7029 174.169C77.1191 173.398 77.5353 172.63 77.9545 171.862C78.3765 171.097 78.8016 170.335 79.2355 169.573C79.6664 168.808 80.0974 168.049 80.5372 167.287C80.977 166.531 81.4197 165.772 81.8654 165.019C82.3111 164.263 82.7627 163.513 83.2173 162.76C83.6718 162.012 84.1294 161.262 84.5898 160.518C85.0532 159.771 85.5196 159.027 85.9889 158.288C86.4582 157.544 86.9305 156.806 87.4087 156.068C87.8868 155.326 88.368 154.594 88.852 153.859C89.3361 153.126 89.829 152.394 90.319 151.671C90.8119 150.938 91.3078 150.212 91.8067 149.491C92.3084 148.765 92.8102 148.041 93.315 147.324C93.8256 146.603 94.3362 145.889 94.8469 145.174C95.3605 144.463 95.8741 143.751 96.3906 143.048C96.8983 142.343 97.406 141.646 97.9196 140.949C98.4331 140.255 98.9438 139.562 99.4544 138.871C99.9651 138.186 100.479 137.498 100.995 136.816C101.509 136.134 102.019 135.467 102.536 134.803C103.053 134.133 103.566 133.471 104.083 132.81C104.599 132.155 105.122 131.5 105.647 130.844C106.169 130.192 106.692 129.546 107.214 128.899C107.743 128.256 108.265 127.618 108.788 126.981C109.319 126.347 109.847 125.715 110.379 125.083C110.91 124.455 111.447 123.829 111.984 123.207C112.521 122.59 113.062 121.97 113.605 121.353C114.148 120.743 114.694 120.129 115.243 119.521C115.792 118.913 116.341 118.308 116.896 117.712C117.451 117.113 118.006 116.52 118.566 115.93C119.124 115.34 119.688 114.75 120.255 114.166C120.822 113.579 121.388 112.998 121.958 112.417C122.531 111.839 123.106 111.261 123.685 110.688C124.26 110.116 124.839 109.55 125.42 108.983C126.002 108.42 126.583 107.857 127.168 107.299C127.755 106.742 128.342 106.187 128.933 105.636C129.52 105.09 130.11 104.545 130.701 104.005C131.294 103.463 131.89 102.926 132.487 102.395C133.08 101.859 133.679 101.331 134.284 100.803C134.883 100.275 135.483 99.7564 136.082 99.2405C136.684 98.7216 137.286 98.2116 137.891 97.7016C138.499 97.1917 139.11 96.6817 139.718 96.1776C140.332 95.6765 140.937 95.1755 141.545 94.6892C142.156 94.2 142.767 93.7108 143.384 93.2215C143.998 92.7412 144.615 92.2638 145.238 91.7865C145.858 91.3121 146.475 90.8406 147.091 90.3751C147.711 89.9067 148.334 89.4441 148.954 88.9845C149.574 88.5279 150.191 88.0802 150.814 87.6325C151.433 87.1818 152.053 86.74 152.685 86.3012C153.308 85.8624 153.93 85.4295 154.556 84.9996C155.185 84.5667 155.814 84.1427 156.445 83.7187C157.071 83.2977 157.691 82.8855 158.317 82.4734C158.939 82.0613 159.565 81.6521 160.197 81.2518C160.826 80.8545 161.454 80.4542 162.089 80.0599C162.721 79.6685 163.358 79.2771 163.996 78.8917C164.636 78.5062 165.277 78.1238 165.92 77.7413C166.561 77.3647 167.204 76.9911 167.845 76.6235C168.491 76.2558 169.135 75.8911 169.787 75.5323C170.433 75.1706 171.08 74.8148 171.735 74.4679C172.384 74.1121 173.037 73.7682 173.692 73.4213C174.35 73.0773 175.008 72.7393 175.664 72.4043C176.325 72.0692 176.986 71.7371 177.647 71.411C178.311 71.0819 178.975 70.7617 179.64 70.4414C180.307 70.1242 180.971 69.8099 181.638 69.5045C182.302 69.1932 182.969 68.8878 183.636 68.5913C184.306 68.2948 184.976 68.0042 185.649 67.7136C186.319 67.426 186.995 67.1414 187.668 66.8627C188.344 66.581 189.023 66.3053 189.702 66.0355C190.384 65.7597 191.062 65.4929 191.747 65.229C192.432 64.9681 193.123 64.7101 193.81 64.4581C194.501 64.206 195.192 63.957 195.886 63.7109C196.582 63.4678 197.276 63.2276 197.972 62.9934C198.672 62.7562 199.368 62.5279 200.068 62.2996C200.768 62.0742 201.47 61.8518 202.17 61.6324C202.872 61.413 203.575 61.2055 204.28 60.9979C204.983 60.7933 205.688 60.5887 206.396 60.3901C207.102 60.1944 207.81 60.0017 208.522 59.8119C209.233 59.6251 209.944 59.4413 210.659 59.2575C211.37 59.0766 212.087 58.9017 212.805 58.7297C213.525 58.5577 214.242 58.3917 214.965 58.2286C215.682 58.0655 216.406 57.9054 217.132 57.7512C217.855 57.5971 218.581 57.4458 219.307 57.3006C220.033 57.1582 220.759 57.0159 221.491 56.8825C222.22 56.7461 222.952 56.6156 223.684 56.4911C224.413 56.3636 225.148 56.2391 225.883 56.1235C226.618 56.0049 227.353 55.8922 228.094 55.7884C228.838 55.6817 229.576 55.5809 230.323 55.486C231.066 55.3911 231.813 55.3022 232.557 55.2162C233.307 55.1302 234.057 55.0501 234.809 54.973C235.559 54.8959 236.312 54.8218 237.067 54.7566C237.814 54.6884 238.573 54.6261 239.328 54.5668C240.084 54.5105 240.842 54.4571 241.601 54.4097C242.36 54.3593 243.118 54.3178 243.88 54.2763C244.644 54.2377 245.403 54.2051 246.167 54.1755C246.935 54.1458 247.693 54.1191 248.464 54.1013C249.231 54.0806 249.999 54.0657 250.769 54.0539C251.536 54.045 252.307 54.0391 253.077 54.0391C253.847 54.0391 254.624 54.048 255.403 54.0628C256.176 54.0746 256.95 54.0924 257.726 54.1162C258.499 54.1428 259.267 54.1695 260.043 54.2021C260.816 54.2377 261.584 54.2763 262.354 54.3207C263.125 54.3622 263.895 54.4127 264.659 54.466C265.43 54.5224 266.194 54.5787 266.962 54.641C267.729 54.7062 268.494 54.7714 269.258 54.8485C270.02 54.9226 270.784 54.9997 271.546 55.0827C272.307 55.1687 273.069 55.2547 273.824 55.3496C274.586 55.4415 275.342 55.5364 276.1 55.6402C276.853 55.7439 277.608 55.8477 278.361 55.9604C279.114 56.0731 279.866 56.1857 280.616 56.3073C281.369 56.4289 282.119 56.5563 282.868 56.6898C283.621 56.8202 284.368 56.9566 285.115 57.096C285.861 57.2383 286.608 57.3836 287.352 57.5348C288.096 57.686 288.837 57.8372 289.58 57.9973C290.318 58.1574 291.062 58.3205 291.797 58.4895C292.535 58.6556 293.273 58.8305 294.008 59.0054C294.746 59.1863 295.481 59.3701 296.216 59.5599C296.948 59.7497 297.683 59.9394 298.412 60.1381C299.144 60.3367 299.873 60.5354 300.599 60.7429C301.328 60.9475 302.054 61.158 302.777 61.3715C303.503 61.585 304.224 61.8044 304.947 62.0268C305.664 62.2491 306.387 62.4775 307.102 62.7087C307.819 62.94 308.533 63.1742 309.247 63.4114C309.962 63.6575 310.679 63.9036 311.393 64.1556C312.108 64.4077 312.819 64.6656 313.53 64.9265C314.242 65.1875 314.95 65.4513 315.655 65.7212C316.364 65.991 317.066 66.2638 317.772 66.5395C318.474 66.8182 319.174 67.0999 319.876 67.3845C320.576 67.6692 321.272 67.9597 321.966 68.2533C322.663 68.5438 323.356 68.8403 324.047 69.1457C324.738 69.4452 325.426 69.7506 326.113 70.0619C326.801 70.3703 327.486 70.6816 328.168 70.9989C328.849 71.3161 329.531 71.6363 330.21 71.9625C330.892 72.2916 331.571 72.6266 332.247 72.9676C332.926 73.3086 333.599 73.6525 334.275 74.0024C334.948 74.3493 335.624 74.7051 336.297 75.0639C336.969 75.4197 337.64 75.7814 338.31 76.1491C338.98 76.5138 339.647 76.8814 340.317 77.258C340.984 77.6286 341.651 78.0052 342.315 78.3906C342.982 78.7731 343.643 79.1615 344.304 79.5529C344.969 79.9443 345.624 80.3416 346.285 80.7389C346.943 81.1421 347.598 81.5454 348.251 81.9545C348.906 82.3607 349.558 82.7729 350.211 83.185C350.86 83.6031 351.512 84.0271 352.159 84.4481C352.805 84.8721 353.452 85.299 354.092 85.7349C354.736 86.1648 355.376 86.6007 356.014 87.0454C356.654 87.4902 357.289 87.9379 357.923 88.3915C358.561 88.8422 359.193 89.2988 359.824 89.7614C360.453 90.2209 361.082 90.6835 361.707 91.152C362.333 91.6204 362.956 92.0889 363.576 92.5633C364.199 93.0377 364.813 93.5151 365.429 94.0013C366.043 94.4817 366.66 94.9649 367.271 95.4542C367.885 95.9464 368.499 96.4445 369.113 96.9456C369.73 97.4555 370.344 97.9655 370.952 98.4755C371.563 98.9825 372.168 99.5014 372.773 100.017C373.375 100.536 373.98 101.061 374.577 101.583C375.176 102.111 375.775 102.641 376.368 103.178C376.962 103.712 377.555 104.248 378.145 104.791C378.733 105.337 379.326 105.888 379.916 106.448C380.507 107.006 381.094 107.572 381.678 108.141C382.263 108.714 382.844 109.286 383.417 109.858C383.996 110.436 384.571 111.014 385.141 111.599C385.71 112.183 386.28 112.773 386.853 113.372C387.422 113.971 387.986 114.57 388.553 115.174C389.114 115.779 389.672 116.387 390.232 116.998C390.787 117.609 391.345 118.225 391.897 118.845C392.449 119.465 392.998 120.093 393.547 120.722C394.093 121.35 394.639 121.982 395.179 122.619C395.728 123.263 396.269 123.909 396.812 124.556C397.352 125.202 397.886 125.854 398.423 126.507C398.958 127.162 399.495 127.823 400.032 128.487C400.578 129.154 401.124 129.824 401.67 130.495C402.216 131.168 402.762 131.844 403.308 132.526C403.854 133.205 404.403 133.886 404.949 134.58C405.498 135.268 406.042 135.959 406.585 136.659C407.128 137.356 407.668 138.055 408.205 138.755C408.739 139.458 409.274 140.157 409.805 140.869C410.333 141.572 410.859 142.274 411.381 142.995C411.904 143.704 412.42 144.418 412.937 145.13C413.45 145.847 413.964 146.565 414.474 147.282C414.982 148.006 415.493 148.726 415.998 149.462C416.514 150.2 417.025 150.941 417.535 151.688C418.043 152.433 418.554 153.183 419.058 153.936C419.566 154.686 420.068 155.445 420.567 156.204C421.066 156.963 421.561 157.722 422.051 158.487C422.538 159.246 423.028 160.011 423.512 160.776C423.997 161.544 424.472 162.309 424.95 163.083C425.425 163.854 425.897 164.622 426.364 165.399C426.83 166.169 427.294 166.946 427.754 167.723C428.209 168.5 428.669 169.28 429.121 170.059C429.572 170.842 430.018 171.625 430.461 172.408C430.903 173.193 431.343 173.979 431.78 174.768C432.211 175.557 432.645 176.345 433.07 177.137C433.498 177.929 433.92 178.717 434.336 179.512C434.752 180.309 435.169 181.104 435.579 181.902C435.989 182.696 436.394 183.497 436.792 184.3C437.196 185.098 437.595 185.901 437.985 186.702C438.377 187.509 438.764 188.312 439.15 189.119C439.531 189.922 439.912 190.731 440.287 191.541C440.662 192.35 441.031 193.16 441.4 193.972C441.763 194.785 442.126 195.597 442.483 196.415C442.84 197.231 443.191 198.043 443.54 198.861C443.888 199.68 444.23 200.498 444.573 201.319C444.909 202.135 445.243 202.959 445.573 203.783C445.901 204.602 446.229 205.426 446.547 206.253C446.869 207.078 447.185 207.902 447.498 208.729C447.805 209.556 448.112 210.381 448.416 211.211C448.717 212.038 449.012 212.871 449.307 213.701C449.599 214.534 449.886 215.365 450.166 216.201C450.449 217.031 450.727 217.864 451.001 218.703C451.273 219.536 451.544 220.37 451.807 221.212C452.07 222.045 452.33 222.881 452.583 223.723C452.837 224.562 453.085 225.401 453.327 226.243C453.572 227.079 453.811 227.918 454.045 228.764C454.278 229.606 454.505 230.448 454.732 231.293C454.954 232.138 455.175 232.977 455.388 233.822C455.603 234.667 455.807 235.515 456.013 236.357C456.217 237.202 456.415 238.053 456.61 238.904C456.801 239.752 456.99 240.597 457.173 241.451C457.356 242.293 457.533 243.144 457.705 243.998C457.876 244.846 458.047 245.694 458.209 246.548C458.372 247.396 458.525 248.249 458.679 249.1C458.832 249.954 458.977 250.805 459.116 251.656C459.254 252.513 459.393 253.358 459.523 254.218C459.653 255.069 459.777 255.926 459.898 256.78C460.013 257.634 460.131 258.491 460.24 259.345C460.346 260.198 460.45 261.055 460.547 261.915C460.644 262.769 460.733 263.62 460.822 264.477C460.904 265.328 460.981 266.173 461.058 267.024C461.132 267.872 461.199 268.714 461.261 269.559C461.323 270.398 461.376 271.243 461.43 272.076C461.483 272.915 461.527 273.748 461.568 274.585C461.604 275.421 461.642 276.251 461.669 277.078C461.698 277.905 461.719 278.733 461.737 279.557C461.754 280.381 461.766 281.2 461.772 282.018C461.778 282.836 461.778 283.655 461.775 284.47C461.769 285.282 461.757 286.095 461.743 286.904C461.725 287.714 461.704 288.52 461.678 289.324C461.651 290.13 461.616 290.931 461.58 291.731C461.542 292.532 461.498 293.326 461.45 294.124C461.4 294.913 461.347 295.707 461.285 296.496C461.226 297.285 461.164 298.07 461.093 298.856C461.022 299.639 460.946 300.425 460.866 301.201C460.786 301.981 460.698 302.758 460.606 303.532C460.515 304.306 460.42 305.077 460.317 305.845C460.216 306.613 460.11 307.378 459.998 308.14C459.886 308.904 459.768 309.664 459.644 310.423C459.52 311.182 459.393 311.938 459.263 312.691C459.127 313.441 458.992 314.191 458.847 314.944C458.702 315.691 458.549 316.444 458.398 317.189C458.242 317.936 458.082 318.674 457.92 319.418C457.752 320.157 457.584 320.895 457.409 321.63C457.232 322.366 457.055 323.095 456.869 323.827C456.683 324.557 456.489 325.283 456.297 326.007C456.099 326.733 455.898 327.451 455.695 328.174C455.488 328.892 455.275 329.606 455.063 330.321C454.842 331.032 454.626 331.741 454.399 332.45C454.174 333.158 453.944 333.864 453.702 334.567C453.469 335.266 453.227 335.966 452.982 336.663C452.737 337.36 452.483 338.053 452.229 338.744C451.975 339.432 451.713 340.123 451.447 340.808C451.181 341.493 450.907 342.175 450.635 342.851C450.355 343.533 450.075 344.206 449.791 344.879C449.505 345.552 449.216 346.225 448.92 346.889C448.625 347.556 448.321 348.22 448.02 348.882C447.713 349.543 447.403 350.198 447.09 350.856C446.775 351.509 446.456 352.161 446.131 352.81C445.806 353.46 445.479 354.103 445.148 354.746C444.812 355.39 444.472 356.027 444.13 356.665C443.787 357.299 443.439 357.934 443.088 358.562C442.734 359.191 442.38 359.816 442.016 360.445C441.653 361.065 441.287 361.687 440.916 362.304C440.544 362.921 440.169 363.535 439.788 364.145C439.41 364.753 439.024 365.364 438.637 365.966C438.244 366.571 437.849 367.17 437.45 367.769C437.052 368.368 436.647 368.961 436.24 369.554C435.827 370.147 435.411 370.74 434.989 371.33C434.566 371.914 434.136 372.501 433.708 373.082C433.274 373.663 432.84 374.241 432.4 374.816C431.96 375.389 431.514 375.961 431.066 376.53C430.614 377.097 430.16 377.66 429.702 378.223C429.242 378.784 428.778 379.341 428.309 379.895C427.84 380.45 427.37 380.998 426.895 381.547C426.417 382.093 425.936 382.638 425.452 383.175C424.962 383.717 424.475 384.254 423.982 384.785C423.483 385.315 422.984 385.846 422.476 386.374C421.969 386.899 421.455 387.424 420.942 387.945C420.422 388.467 419.897 388.986 419.374 389.499C418.846 390.015 418.312 390.528 417.777 391.032C417.24 391.539 416.703 392.043 416.157 392.544C415.611 393.045 415.062 393.54 414.51 394.033C413.952 394.528 413.394 395.017 412.827 395.503C412.261 395.989 411.691 396.473 411.118 396.953C410.543 397.433 409.964 397.911 409.383 398.382C408.798 398.854 408.211 399.322 407.621 399.788C407.027 400.253 406.428 400.716 405.826 401.172C405.218 401.635 404.607 402.091 403.993 402.545C403.379 402.996 402.759 403.444 402.136 403.891C401.514 404.336 400.885 404.775 400.256 405.214C399.619 405.652 398.981 406.082 398.338 406.515C397.694 406.945 397.048 407.369 396.395 407.793C395.746 408.217 395.091 408.635 394.43 409.047C393.766 409.465 393.098 409.875 392.428 410.281C391.752 410.69 391.077 411.093 390.395 411.493C389.713 411.891 389.025 412.288 388.337 412.679C387.647 413.071 386.953 413.456 386.256 413.839C385.557 414.221 384.851 414.598 384.143 414.974C383.432 415.345 382.72 415.716 382.003 416.08C381.289 416.445 380.569 416.807 379.845 417.16C379.119 417.515 378.387 417.871 377.652 418.221C376.911 418.571 376.162 418.918 375.412 419.262C374.656 419.603 373.898 419.944 373.139 420.279C372.375 420.611 371.61 420.943 370.837 421.269C370.064 421.592 369.29 421.912 368.511 422.233C367.729 422.547 366.947 422.858 366.159 423.164C365.362 423.475 364.562 423.78 363.762 424.08C362.956 424.379 362.15 424.676 361.338 424.969C360.53 425.254 359.718 425.545 358.9 425.826C358.086 426.105 357.262 426.384 356.439 426.654C355.615 426.923 354.792 427.19 353.959 427.454C353.13 427.712 352.295 427.97 351.459 428.222C350.621 428.474 349.78 428.72 348.939 428.96C348.094 429.2 347.247 429.438 346.397 429.669C345.538 429.9 344.673 430.128 343.806 430.351C342.935 430.579 342.061 430.799 341.182 431.015C340.305 431.229 339.428 431.436 338.543 431.644C337.657 431.845 336.769 432.047 335.877 432.24C334.98 432.432 334.089 432.622 333.185 432.809C332.282 432.99 331.376 433.171 330.467 433.346C329.558 433.52 328.643 433.689 327.722 433.858C326.798 434.024 325.871 434.185 324.947 434.345C324.015 434.499 323.088 434.647 322.152 434.795C321.222 434.938 320.266 435.089 319.31 435.243C318.344 435.397 317.373 435.551 316.399 435.7C315.422 435.848 314.442 435.99 313.462 436.13C312.482 436.266 311.505 436.402 310.52 436.533C309.537 436.663 308.548 436.788 307.562 436.906C306.573 437.028 305.584 437.141 304.587 437.25C303.595 437.357 302.6 437.461 301.6 437.559C300.602 437.657 299.595 437.749 298.595 437.837C297.591 437.921 296.585 438.001 295.575 438.075C294.569 438.152 293.556 438.223 292.547 438.288C291.531 438.35 290.516 438.407 289.492 438.472C288.468 438.546 287.443 438.614 286.41 438.683C285.374 438.748 284.338 438.81 283.293 438.881C282.246 438.949 281.189 439.012 280.138 439.071C279.081 439.13 278.025 439.184 276.965 439.231C275.905 439.278 274.843 439.323 273.774 439.367C272.709 439.409 271.637 439.447 270.566 439.48C269.497 439.513 268.426 439.536 267.351 439.566C266.277 439.59 265.208 439.611 264.131 439.628C263.06 439.643 261.982 439.658 260.905 439.664C259.828 439.673 258.747 439.673 257.667 439.67C256.581 439.664 255.509 439.658 254.432 439.646C253.346 439.634 252.271 439.617 251.194 439.596C250.114 439.575 249.033 439.545 247.962 439.516C246.893 439.483 245.825 439.45 244.765 439.415C243.7 439.373 242.637 439.329 241.577 439.281C240.515 439.231 239.461 439.172 238.404 439.112C237.351 439.05 236.3 438.985 235.246 438.914C234.201 438.846 233.159 438.783 232.12 438.709C231.081 438.638 230.045 438.564 229.018 438.49C227.988 438.413 226.958 438.33 225.939 438.244C224.93 438.167 223.929 438.098 222.932 438.024C221.94 437.959 220.951 437.888 219.962 437.814C218.979 437.734 217.999 437.657 217.017 437.571C216.037 437.485 215.063 437.39 214.086 437.295C213.109 437.197 212.137 437.096 211.166 436.99C210.195 436.88 209.227 436.767 208.265 436.646C207.3 436.53 206.337 436.408 205.378 436.278C204.416 436.15 203.46 436.014 202.509 435.878C201.553 435.735 200.602 435.59 199.655 435.442C198.704 435.291 197.76 435.136 196.815 434.976C195.871 434.816 194.935 434.653 193.993 434.484C193.061 434.312 192.125 434.137 191.192 433.956C190.263 433.775 189.336 433.592 188.412 433.402C187.485 433.209 186.564 433.013 185.643 432.815C184.725 432.613 183.81 432.406 182.898 432.198C181.983 431.985 181.074 431.771 180.168 431.552C179.262 431.329 178.359 431.104 177.458 430.876C176.558 430.644 175.664 430.41 174.769 430.17C173.875 429.927 172.983 429.681 172.095 429.435C171.21 429.183 170.327 428.928 169.447 428.67C168.568 428.409 167.688 428.142 166.817 427.875C165.944 427.602 165.076 427.332 164.205 427.051C163.34 426.775 162.479 426.49 161.617 426.2C160.761 425.912 159.902 425.619 159.052 425.322C158.199 425.023 157.349 424.717 156.501 424.412C155.657 424.107 154.819 423.795 153.981 423.478C153.145 423.164 152.316 422.843 151.486 422.523C150.66 422.197 149.839 421.874 149.031 421.551C148.225 421.231 147.422 420.904 146.619 420.581C145.825 420.261 145.028 419.932 144.237 419.606C143.449 419.277 142.664 418.942 141.888 418.604C141.108 418.266 140.335 417.925 139.562 417.575C138.788 417.228 138.024 416.878 137.256 416.522C136.495 416.16 135.736 415.799 134.984 415.437C134.231 415.072 133.478 414.702 132.737 414.328C131.997 413.954 131.259 413.575 130.524 413.192C129.792 412.81 129.063 412.424 128.337 412.033C127.613 411.639 126.89 411.244 126.173 410.844C125.456 410.444 124.741 410.041 124.033 409.631C123.325 409.222 122.619 408.81 121.92 408.392C121.223 407.974 120.526 407.553 119.836 407.129C119.142 406.702 118.463 406.272 117.784 405.839C117.105 405.403 116.432 404.965 115.762 404.529C115.095 404.087 114.434 403.642 113.776 403.197C113.121 402.753 112.474 402.302 111.825 401.848C111.178 401.395 110.538 400.935 109.897 400.473C109.266 400.013 108.637 399.547 108.008 399.079C107.383 398.611 106.766 398.139 106.149 397.665C105.538 397.19 104.93 396.713 104.322 396.23C103.72 395.746 103.12 395.26 102.524 394.771C101.934 394.279 101.341 393.784 100.759 393.288C100.186 392.808 99.6168 392.319 99.053 391.83C98.4892 391.337 97.9284 390.842 97.3735 390.347C96.8186 389.846 96.2666 389.345 95.7235 388.844C95.1834 388.34 94.6491 387.839 94.1149 387.329C93.5836 386.822 93.0582 386.312 92.5328 385.799C92.0074 385.283 91.4879 384.764 90.9713 384.245C90.4577 383.723 89.9501 383.201 89.4453 382.674C88.9435 382.149 88.4476 381.624 87.9547 381.096C87.4677 380.569 86.9807 380.038 86.5025 379.504C86.0214 378.97 85.5462 378.434 85.0709 377.894C84.5987 377.354 84.1294 376.809 83.6659 376.26C83.2025 375.715 82.7421 375.166 82.2875 374.618C81.8359 374.069 81.3843 373.518 80.9415 372.966C80.4988 372.409 80.056 371.851 79.6222 371.291C79.1883 370.731 78.7573 370.167 78.3264 369.598C77.9013 369.035 77.4822 368.465 77.0601 367.893C76.6439 367.321 76.2307 366.746 75.8204 366.168C75.4101 365.586 75.0028 365.008 74.6014 364.421C74.2029 363.837 73.8074 363.247 73.4118 362.657C73.0222 362.061 72.6355 361.468 72.2518 360.869C71.8681 360.27 71.4873 359.668 71.1125 359.063C70.7406 358.456 70.3716 357.851 70.0056 357.237C69.6396 356.626 69.2795 356.009 68.9253 355.393C68.5681 354.773 68.2139 354.153 67.8656 353.528C67.5233 352.905 67.1779 352.276 66.8385 351.645C66.5049 351.013 66.1714 350.382 65.8408 349.744C65.5132 349.107 65.1885 348.466 64.8667 347.823C64.5509 347.18 64.2351 346.536 63.9222 345.884C63.6123 345.235 63.3083 344.585 63.0072 343.93C62.7061 343.272 62.408 342.614 62.1187 341.955C61.8265 341.291 61.5402 340.627 61.2569 339.96C60.9764 339.293 60.699 338.626 60.4245 337.953C60.1529 337.28 59.8843 336.601 59.6216 335.925C59.3589 335.243 59.1021 334.564 58.8453 333.879C58.5944 333.194 58.3465 332.509 58.1015 331.818C57.8565 331.127 57.6174 330.433 57.3813 329.74C57.1481 329.043 56.9209 328.343 56.6936 327.64C56.4692 326.938 56.2508 326.235 56.0353 325.526C55.8199 324.818 55.6103 324.109 55.4037 323.394C55.2 322.683 54.9993 321.968 54.8016 321.248C54.6067 320.53 54.4149 319.81 54.2289 319.086C54.0459 318.36 53.8629 317.636 53.6858 316.904C53.5117 316.178 53.3405 315.445 53.1752 314.713C53.0069 313.975 52.8475 313.239 52.6911 312.501C52.5347 311.76 52.3841 311.019 52.2365 310.274C52.0919 309.527 51.9502 308.783 51.8145 308.033C51.6787 307.283 51.5488 306.53 51.4189 305.776C51.295 305.02 51.1739 304.264 51.0559 303.505C50.9437 302.746 50.8345 301.981 50.7253 301.216C50.622 300.451 50.5216 299.686 50.4242 298.915C50.3298 298.147 50.2412 297.374 50.1556 296.603C50.07 295.829 49.9903 295.052 49.9136 294.272C49.8427 293.495 49.7719 292.713 49.707 291.927C49.645 291.147 49.583 290.355 49.5299 289.573C49.4767 288.781 49.4295 287.992 49.3852 287.198C49.3439 286.406 49.3055 285.608 49.2731 284.814C49.2406 284.016 49.214 283.219 49.1934 282.415C49.1727 281.612 49.155 280.808 49.1432 280.002C49.1314 279.195 49.1284 278.389 49.1255 277.576C49.1255 276.767 49.1343 275.954 49.1432 275.142C49.155 274.324 49.1698 273.508 49.1934 272.69C49.214 271.872 49.2406 271.05 49.2731 270.226C49.3085 269.405 49.3469 268.575 49.3882 267.75C49.4325 266.923 49.4826 266.093 49.5358 265.26C49.5919 264.427 49.6538 263.593 49.7188 262.757C49.7867 261.924 49.8575 261.085 49.9342 260.246C50.0139 259.407 50.0966 258.568 50.1822 257.723C50.2737 256.875 50.3681 256.033 50.4655 255.188C50.5689 254.337 50.6751 253.492 50.7843 252.641Z" fill="white"/>
<mask id="mask0_353_15" style="mask-type:alpha" maskUnits="userSpaceOnUse" x="49" y="54" width="413" height="386">
<path d="M50.7843 252.643C50.8965 251.789 51.0146 250.935 51.1356 250.087C51.2595 249.239 51.3865 248.388 51.5193 247.543C51.6521 246.692 51.7908 245.844 51.9355 244.996C52.0772 244.145 52.2277 243.303 52.3812 242.458C52.5376 241.61 52.6941 240.768 52.8594 239.923C53.0246 239.081 53.1929 238.236 53.37 237.397C53.5441 236.552 53.7242 235.709 53.9072 234.87C54.0931 234.028 54.285 233.186 54.4798 232.353C54.6746 231.514 54.8753 230.675 55.079 229.839C55.2856 229 55.4952 228.161 55.7107 227.327C55.9291 226.494 56.1475 225.661 56.3718 224.828C56.5991 223.995 56.8293 223.168 57.0625 222.337C57.2987 221.504 57.5378 220.677 57.7827 219.85C58.0277 219.02 58.2786 218.192 58.5325 217.371C58.7863 216.544 59.0461 215.719 59.3088 214.895C59.5715 214.071 59.843 213.25 60.1146 212.431C60.3891 211.607 60.6695 210.789 60.9469 209.97C61.2332 209.152 61.5225 208.334 61.8118 207.521C62.1069 206.703 62.4021 205.89 62.7032 205.075C63.0042 204.263 63.3112 203.45 63.6211 202.641C63.934 201.831 64.2469 201.025 64.5657 200.218C64.8874 199.412 65.2091 198.605 65.5368 197.802C65.8674 196.995 66.2009 196.195 66.5374 195.394C66.8768 194.591 67.2163 193.793 67.5616 192.996C67.9129 192.198 68.2612 191.401 68.6154 190.606C68.9725 189.811 69.3297 189.02 69.6957 188.228C70.0587 187.436 70.4277 186.645 70.7996 185.856C71.1715 185.07 71.5493 184.282 71.9301 183.499C72.3109 182.716 72.6975 181.93 73.0842 181.154C73.4768 180.371 73.8693 179.591 74.2678 178.814C74.6633 178.037 75.0648 177.26 75.4721 176.487C75.8794 175.713 76.2897 174.939 76.7029 174.171C77.1191 173.4 77.5353 172.632 77.9545 171.864C78.3765 171.099 78.8016 170.337 79.2355 169.575C79.6664 168.81 80.0974 168.051 80.5372 167.289C80.977 166.533 81.4197 165.774 81.8654 165.021C82.3111 164.265 82.7627 163.515 83.2173 162.762C83.6718 162.014 84.1294 161.264 84.5898 160.52C85.0532 159.773 85.5196 159.029 85.9889 158.29C86.4582 157.546 86.9305 156.808 87.4087 156.07C87.8868 155.328 88.368 154.596 88.852 153.861C89.3361 153.128 89.829 152.396 90.319 151.673C90.8119 150.94 91.3078 150.214 91.8067 149.493C92.3084 148.767 92.8102 148.043 93.315 147.326C93.8256 146.605 94.3362 145.891 94.8469 145.176C95.3605 144.465 95.8741 143.753 96.3906 143.05C96.8983 142.345 97.406 141.648 97.9196 140.951C98.4331 140.257 98.9438 139.563 99.4544 138.873C99.9651 138.188 100.479 137.5 100.995 136.818C101.509 136.136 102.019 135.469 102.536 134.805C103.053 134.135 103.566 133.473 104.083 132.812C104.599 132.157 105.122 131.502 105.647 130.846C106.169 130.194 106.692 129.548 107.214 128.901C107.743 128.258 108.265 127.62 108.788 126.983C109.319 126.348 109.847 125.717 110.379 125.085C110.91 124.457 111.447 123.831 111.984 123.209C112.521 122.592 113.062 121.972 113.605 121.355C114.148 120.745 114.694 120.131 115.243 119.523C115.792 118.915 116.341 118.31 116.896 117.714C117.451 117.115 118.006 116.522 118.566 115.932C119.124 115.342 119.688 114.752 120.255 114.168C120.822 113.581 121.388 113 121.958 112.419C122.531 111.841 123.106 111.263 123.685 110.69C124.26 110.118 124.839 109.552 125.42 108.985C126.002 108.422 126.583 107.859 127.168 107.301C127.755 106.744 128.342 106.189 128.933 105.638C129.52 105.092 130.11 104.547 130.701 104.007C131.294 103.465 131.89 102.928 132.487 102.397C133.08 101.861 133.679 101.333 134.284 100.805C134.883 100.277 135.483 99.7583 136.082 99.2424C136.684 98.7236 137.286 98.2136 137.891 97.7036C138.499 97.1936 139.11 96.6836 139.718 96.1796C140.332 95.6785 140.937 95.1774 141.545 94.6912C142.156 94.2019 142.767 93.7127 143.384 93.2235C143.998 92.7432 144.615 92.2658 145.238 91.7884C145.858 91.314 146.475 90.8426 147.091 90.3771C147.711 89.9086 148.334 89.4461 148.954 88.9865C149.574 88.5299 150.191 88.0822 150.814 87.6345C151.433 87.1838 152.053 86.742 152.685 86.3032C153.308 85.8644 153.93 85.4315 154.556 85.0015C155.185 84.5686 155.814 84.1447 156.445 83.7207C157.071 83.2996 157.691 82.8875 158.317 82.4754C158.939 82.0632 159.565 81.6541 160.197 81.2538C160.826 80.8565 161.454 80.4562 162.089 80.0618C162.721 79.6705 163.358 79.2791 163.996 78.8936C164.636 78.5082 165.277 78.1257 165.92 77.7432C166.561 77.3667 167.204 76.9931 167.845 76.6254C168.491 76.2578 169.135 75.8931 169.787 75.5343C170.433 75.1726 171.08 74.8168 171.735 74.4699C172.384 74.1141 173.037 73.7701 173.692 73.4232C174.35 73.0793 175.008 72.7413 175.664 72.4062C176.325 72.0712 176.986 71.7391 177.647 71.4129C178.311 71.0838 178.975 70.7636 179.64 70.4434C180.307 70.1261 180.971 69.8118 181.638 69.5065C182.302 69.1951 182.969 68.8897 183.636 68.5932C184.306 68.2967 184.976 68.0062 185.649 67.7156C186.319 67.428 186.995 67.1433 187.668 66.8646C188.344 66.583 189.023 66.3072 189.702 66.0374C190.384 65.7617 191.062 65.4948 191.747 65.2309C192.432 64.97 193.123 64.712 193.81 64.46C194.501 64.208 195.192 63.9589 195.886 63.7128C196.582 63.4697 197.276 63.2295 197.972 62.9953C198.672 62.7581 199.368 62.5298 200.068 62.3015C200.768 62.0762 201.47 61.8538 202.17 61.6344C202.872 61.415 203.575 61.2074 204.28 60.9999C204.983 60.7953 205.688 60.5907 206.396 60.392C207.102 60.1964 207.81 60.0036 208.522 59.8139C209.233 59.6271 209.944 59.4432 210.659 59.2594C211.37 59.0785 212.087 58.9036 212.805 58.7316C213.525 58.5597 214.242 58.3936 214.965 58.2306C215.682 58.0675 216.406 57.9074 217.132 57.7532C217.855 57.599 218.581 57.4478 219.307 57.3025C220.033 57.1602 220.759 57.0179 221.491 56.8845C222.22 56.7481 222.952 56.6176 223.684 56.4931C224.413 56.3656 225.148 56.241 225.883 56.1254C226.618 56.0068 227.353 55.8941 228.094 55.7904C228.838 55.6836 229.576 55.5828 230.323 55.4879C231.066 55.3931 231.813 55.3041 232.557 55.2181C233.307 55.1321 234.057 55.0521 234.809 54.975C235.559 54.8979 236.312 54.8238 237.067 54.7585C237.814 54.6904 238.573 54.6281 239.328 54.5688C240.084 54.5125 240.842 54.4591 241.601 54.4116C242.36 54.3612 243.118 54.3197 243.88 54.2782C244.644 54.2397 245.403 54.2071 246.167 54.1774C246.935 54.1478 247.693 54.1211 248.464 54.1033C249.231 54.0825 249.999 54.0677 250.769 54.0558C251.536 54.0469 252.307 54.041 253.077 54.041C253.847 54.041 254.624 54.0499 255.403 54.0647C256.176 54.0766 256.95 54.0944 257.726 54.1181C258.499 54.1448 259.267 54.1715 260.043 54.2041C260.816 54.2397 261.584 54.2782 262.354 54.3227C263.125 54.3642 263.895 54.4146 264.659 54.468C265.43 54.5243 266.194 54.5806 266.962 54.6429C267.729 54.7081 268.494 54.7734 269.258 54.8505C270.02 54.9246 270.784 55.0017 271.546 55.0847C272.307 55.1707 273.069 55.2567 273.824 55.3515C274.586 55.4435 275.342 55.5383 276.1 55.6421C276.853 55.7459 277.608 55.8497 278.361 55.9623C279.114 56.075 279.866 56.1877 280.616 56.3092C281.369 56.4308 282.119 56.5583 282.868 56.6917C283.621 56.8222 284.368 56.9586 285.115 57.0979C285.861 57.2402 286.608 57.3855 287.352 57.5367C288.096 57.688 288.837 57.8392 289.58 57.9993C290.318 58.1594 291.062 58.3225 291.797 58.4915C292.535 58.6575 293.273 58.8325 294.008 59.0074C294.746 59.1883 295.481 59.3721 296.216 59.5618C296.948 59.7516 297.683 59.9414 298.412 60.14C299.144 60.3387 299.873 60.5373 300.599 60.7449C301.328 60.9495 302.054 61.16 302.777 61.3735C303.503 61.5869 304.224 61.8063 304.947 62.0287C305.664 62.2511 306.387 62.4794 307.102 62.7107C307.819 62.9419 308.533 63.1762 309.247 63.4134C309.962 63.6595 310.679 63.9056 311.393 64.1576C312.108 64.4096 312.819 64.6676 313.53 64.9285C314.242 65.1894 314.95 65.4533 315.655 65.7231C316.364 65.9929 317.066 66.2657 317.772 66.5415C318.474 66.8202 319.174 67.1018 319.876 67.3865C320.576 67.6711 321.272 67.9617 321.966 68.2552C322.663 68.5458 323.356 68.8423 324.047 69.1477C324.738 69.4472 325.426 69.7525 326.113 70.0639C326.801 70.3722 327.486 70.6836 328.168 71.0008C328.849 71.3181 329.531 71.6383 330.21 71.9644C330.892 72.2936 331.571 72.6286 332.247 72.9696C332.926 73.3105 333.599 73.6545 334.275 74.0044C334.948 74.3513 335.624 74.7071 336.297 75.0658C336.969 75.4216 337.64 75.7834 338.31 76.151C338.98 76.5157 339.647 76.8834 340.317 77.2599C340.984 77.6305 341.651 78.0071 342.315 78.3926C342.982 78.775 343.643 79.1635 344.304 79.5548C344.969 79.9462 345.624 80.3435 346.285 80.7408C346.943 81.1441 347.598 81.5473 348.251 81.9565C348.906 82.3627 349.558 82.7748 350.211 83.187C350.86 83.605 351.512 84.029 352.159 84.45C352.805 84.874 353.452 85.301 354.092 85.7369C354.736 86.1668 355.376 86.6026 356.014 87.0474C356.654 87.4921 357.289 87.9399 357.923 88.3935C358.561 88.8442 359.193 89.3008 359.824 89.7633C360.453 90.2229 361.082 90.6854 361.707 91.1539C362.333 91.6224 362.956 92.0909 363.576 92.5653C364.199 93.0397 364.813 93.517 365.429 94.0033C366.043 94.4836 366.66 94.9669 367.271 95.4561C367.885 95.9483 368.499 96.4464 369.113 96.9475C369.73 97.4575 370.344 97.9675 370.952 98.4775C371.563 98.9845 372.168 99.5033 372.773 100.019C373.375 100.538 373.98 101.063 374.577 101.585C375.176 102.113 375.775 102.643 376.368 103.18C376.962 103.714 377.555 104.25 378.145 104.793C378.733 105.338 379.326 105.89 379.916 106.45C380.507 107.008 381.094 107.574 381.678 108.143C382.263 108.716 382.844 109.288 383.417 109.86C383.996 110.438 384.571 111.016 385.141 111.601C385.71 112.185 386.28 112.775 386.853 113.374C387.422 113.973 387.986 114.571 388.553 115.176C389.114 115.781 389.672 116.389 390.232 117C390.787 117.611 391.345 118.227 391.897 118.847C392.449 119.467 392.998 120.095 393.547 120.724C394.093 121.352 394.639 121.984 395.179 122.621C395.728 123.265 396.269 123.911 396.812 124.558C397.352 125.204 397.886 125.856 398.423 126.509C398.958 127.164 399.495 127.825 400.032 128.489C400.578 129.156 401.124 129.826 401.67 130.496C402.216 131.17 402.762 131.846 403.308 132.528C403.854 133.206 404.403 133.888 404.949 134.582C405.498 135.27 406.042 135.961 406.585 136.661C407.128 137.357 407.668 138.057 408.205 138.757C408.739 139.46 409.274 140.159 409.805 140.871C410.333 141.574 410.859 142.276 411.381 142.997C411.904 143.706 412.42 144.42 412.937 145.132C413.45 145.849 413.964 146.567 414.474 147.284C414.982 148.008 415.493 148.728 415.998 149.464C416.514 150.202 417.025 150.943 417.535 151.69C418.043 152.435 418.554 153.185 419.058 153.938C419.566 154.688 420.068 155.447 420.567 156.206C421.066 156.965 421.561 157.724 422.051 158.489C422.538 159.248 423.028 160.013 423.512 160.778C423.997 161.546 424.472 162.311 424.95 163.085C425.425 163.856 425.897 164.624 426.364 165.4C426.83 166.171 427.294 166.948 427.754 167.725C428.209 168.502 428.669 169.282 429.121 170.061C429.572 170.844 430.018 171.627 430.461 172.41C430.903 173.195 431.343 173.981 431.78 174.77C432.211 175.559 432.645 176.347 433.07 177.139C433.498 177.931 433.92 178.719 434.336 179.514C434.752 180.311 435.169 181.106 435.579 181.904C435.989 182.698 436.394 183.499 436.792 184.302C437.196 185.1 437.595 185.903 437.985 186.704C438.377 187.51 438.764 188.314 439.15 189.12C439.531 189.924 439.912 190.733 440.287 191.543C440.662 192.352 441.031 193.162 441.4 193.974C441.763 194.787 442.126 195.599 442.483 196.417C442.84 197.233 443.191 198.045 443.54 198.863C443.888 199.682 444.23 200.5 444.573 201.321C444.909 202.137 445.243 202.961 445.573 203.785C445.901 204.604 446.229 205.428 446.547 206.255C446.869 207.079 447.185 207.904 447.498 208.731C447.805 209.558 448.112 210.382 448.416 211.213C448.717 212.04 449.012 212.873 449.307 213.703C449.599 214.536 449.886 215.367 450.166 216.203C450.449 217.033 450.727 217.866 451.001 218.705C451.273 219.538 451.544 220.372 451.807 221.214C452.07 222.047 452.33 222.883 452.583 223.725C452.837 224.564 453.085 225.403 453.327 226.245C453.572 227.081 453.811 227.92 454.045 228.765C454.278 229.608 454.505 230.45 454.732 231.295C454.954 232.14 455.175 232.979 455.388 233.824C455.603 234.669 455.807 235.517 456.013 236.359C456.217 237.204 456.415 238.055 456.61 238.906C456.801 239.754 456.99 240.599 457.173 241.453C457.356 242.295 457.533 243.146 457.705 244C457.876 244.848 458.047 245.696 458.209 246.55C458.372 247.398 458.525 248.251 458.679 249.102C458.832 249.956 458.977 250.807 459.116 251.658C459.254 252.515 459.393 253.36 459.523 254.22C459.653 255.071 459.777 255.928 459.898 256.782C460.013 257.636 460.131 258.493 460.24 259.346C460.346 260.2 460.45 261.057 460.547 261.917C460.644 262.771 460.733 263.622 460.822 264.479C460.904 265.33 460.981 266.175 461.058 267.026C461.132 267.874 461.199 268.716 461.261 269.561C461.323 270.4 461.376 271.245 461.43 272.078C461.483 272.917 461.527 273.75 461.568 274.587C461.604 275.423 461.642 276.253 461.669 277.08C461.698 277.907 461.719 278.735 461.737 279.559C461.754 280.383 461.766 281.201 461.772 282.02C461.778 282.838 461.778 283.656 461.775 284.472C461.769 285.284 461.757 286.097 461.743 286.906C461.725 287.716 461.704 288.522 461.678 289.326C461.651 290.132 461.616 290.933 461.58 291.733C461.542 292.534 461.498 293.328 461.45 294.126C461.4 294.915 461.347 295.709 461.285 296.498C461.226 297.287 461.164 298.072 461.093 298.858C461.022 299.641 460.946 300.427 460.866 301.203C460.786 301.983 460.698 302.76 460.606 303.534C460.515 304.308 460.42 305.079 460.317 305.847C460.216 306.614 460.11 307.379 459.998 308.141C459.886 308.906 459.768 309.665 459.644 310.425C459.52 311.184 459.393 311.94 459.263 312.693C459.127 313.443 458.992 314.193 458.847 314.946C458.702 315.693 458.549 316.446 458.398 317.191C458.242 317.938 458.082 318.676 457.92 319.42C457.752 320.159 457.584 320.897 457.409 321.632C457.232 322.368 457.055 323.097 456.869 323.829C456.683 324.559 456.489 325.285 456.297 326.009C456.099 326.735 455.898 327.453 455.695 328.176C455.488 328.893 455.275 329.608 455.063 330.323C454.842 331.034 454.626 331.743 454.399 332.451C454.174 333.16 453.944 333.866 453.702 334.569C453.469 335.268 453.227 335.968 452.982 336.665C452.737 337.362 452.483 338.055 452.229 338.746C451.975 339.434 451.713 340.125 451.447 340.81C451.181 341.495 450.907 342.177 450.635 342.853C450.355 343.535 450.075 344.208 449.791 344.881C449.505 345.554 449.216 346.227 448.92 346.891C448.625 347.558 448.321 348.222 448.02 348.884C447.713 349.545 447.403 350.2 447.09 350.858C446.775 351.511 446.456 352.163 446.131 352.812C445.806 353.461 445.479 354.105 445.148 354.748C444.812 355.392 444.472 356.029 444.13 356.667C443.787 357.301 443.439 357.936 443.088 358.564C442.734 359.193 442.38 359.818 442.016 360.447C441.653 361.067 441.287 361.689 440.916 362.306C440.544 362.923 440.169 363.537 439.788 364.147C439.41 364.755 439.024 365.366 438.637 365.968C438.244 366.573 437.849 367.172 437.45 367.771C437.052 368.37 436.647 368.962 436.24 369.555C435.827 370.148 435.411 370.742 434.989 371.332C434.566 371.916 434.136 372.503 433.708 373.084C433.274 373.665 432.84 374.243 432.4 374.818C431.96 375.391 431.514 375.963 431.066 376.532C430.614 377.098 430.16 377.662 429.702 378.225C429.242 378.786 428.778 379.343 428.309 379.897C427.84 380.452 427.37 381 426.895 381.549C426.417 382.094 425.936 382.64 425.452 383.177C424.962 383.719 424.475 384.256 423.982 384.787C423.483 385.317 422.984 385.848 422.476 386.376C421.969 386.901 421.455 387.426 420.942 387.947C420.422 388.469 419.897 388.988 419.374 389.501C418.846 390.017 418.312 390.53 417.777 391.034C417.24 391.541 416.703 392.045 416.157 392.546C415.611 393.047 415.062 393.542 414.51 394.035C413.952 394.53 413.394 395.019 412.827 395.505C412.261 395.991 411.691 396.475 411.118 396.955C410.543 397.435 409.964 397.913 409.383 398.384C408.798 398.856 408.211 399.324 407.621 399.79C407.027 400.255 406.428 400.718 405.826 401.174C405.218 401.637 404.607 402.093 403.993 402.547C403.379 402.998 402.759 403.445 402.136 403.893C401.514 404.338 400.885 404.777 400.256 405.216C399.619 405.654 398.981 406.084 398.338 406.517C397.694 406.947 397.048 407.371 396.395 407.795C395.746 408.219 395.091 408.637 394.43 409.049C393.766 409.467 393.098 409.877 392.428 410.283C391.752 410.692 391.077 411.095 390.395 411.495C389.713 411.893 389.025 412.29 388.337 412.681C387.647 413.073 386.953 413.458 386.256 413.841C385.557 414.223 384.851 414.6 384.143 414.976C383.432 415.347 382.72 415.718 382.003 416.082C381.289 416.447 380.569 416.809 379.845 417.162C379.119 417.517 378.387 417.873 377.652 418.223C376.911 418.573 376.162 418.92 375.412 419.264C374.656 419.605 373.898 419.946 373.139 420.281C372.375 420.613 371.61 420.945 370.837 421.271C370.064 421.594 369.29 421.914 368.511 422.235C367.729 422.549 366.947 422.86 366.159 423.166C365.362 423.477 364.562 423.782 363.762 424.082C362.956 424.381 362.15 424.678 361.338 424.971C360.53 425.256 359.718 425.547 358.9 425.828C358.086 426.107 357.262 426.386 356.439 426.655C355.615 426.925 354.792 427.192 353.959 427.456C353.13 427.714 352.295 427.972 351.459 428.224C350.621 428.476 349.78 428.722 348.939 428.962C348.094 429.202 347.247 429.44 346.397 429.671C345.538 429.902 344.673 430.13 343.806 430.353C342.935 430.581 342.061 430.801 341.182 431.017C340.305 431.23 339.428 431.438 338.543 431.646C337.657 431.847 336.769 432.049 335.877 432.242C334.98 432.434 334.089 432.624 333.185 432.811C332.282 432.992 331.376 433.173 330.467 433.347C329.558 433.522 328.643 433.691 327.722 433.86C326.798 434.026 325.871 434.187 324.947 434.347C324.015 434.501 323.088 434.649 322.152 434.797C321.222 434.94 320.266 435.091 319.31 435.245C318.344 435.399 317.373 435.553 316.399 435.702C315.422 435.85 314.442 435.992 313.462 436.132C312.482 436.268 311.505 436.404 310.52 436.535C309.537 436.665 308.548 436.79 307.562 436.908C306.573 437.03 305.584 437.143 304.587 437.252C303.595 437.359 302.6 437.463 301.6 437.561C300.602 437.659 299.595 437.75 298.595 437.839C297.591 437.922 296.585 438.003 295.575 438.077C294.569 438.154 293.556 438.225 292.547 438.29C291.531 438.352 290.516 438.409 289.492 438.474C288.468 438.548 287.443 438.616 286.41 438.684C285.374 438.75 284.338 438.812 283.293 438.883C282.246 438.951 281.189 439.014 280.138 439.073C279.081 439.132 278.025 439.186 276.965 439.233C275.905 439.28 274.843 439.325 273.774 439.369C272.709 439.411 271.637 439.449 270.566 439.482C269.497 439.515 268.426 439.538 267.351 439.568C266.277 439.592 265.208 439.613 264.131 439.63C263.06 439.645 261.982 439.66 260.905 439.666C259.828 439.675 258.747 439.675 257.667 439.672C256.581 439.666 255.509 439.66 254.432 439.648C253.346 439.636 252.271 439.618 251.194 439.598C250.114 439.577 249.033 439.547 247.962 439.518C246.893 439.485 245.825 439.452 244.765 439.417C243.7 439.375 242.637 439.331 241.577 439.283C240.515 439.233 239.461 439.174 238.404 439.114C237.351 439.052 236.3 438.987 235.246 438.916C234.201 438.848 233.159 438.785 232.12 438.711C231.081 438.64 230.045 438.566 229.018 438.492C227.988 438.415 226.958 438.332 225.939 438.246C224.93 438.169 223.929 438.1 222.932 438.026C221.94 437.961 220.951 437.89 219.962 437.816C218.979 437.736 217.999 437.659 217.017 437.573C216.037 437.487 215.063 437.392 214.086 437.297C213.109 437.199 212.137 437.098 211.166 436.991C210.195 436.882 209.227 436.769 208.265 436.648C207.3 436.532 206.337 436.41 205.378 436.28C204.416 436.152 203.46 436.016 202.509 435.88C201.553 435.737 200.602 435.592 199.655 435.444C198.704 435.293 197.76 435.138 196.815 434.978C195.871 434.818 194.935 434.655 193.993 434.486C193.061 434.314 192.125 434.139 191.192 433.958C190.263 433.777 189.336 433.594 188.412 433.404C187.485 433.211 186.564 433.015 185.643 432.817C184.725 432.615 183.81 432.408 182.898 432.2C181.983 431.987 181.074 431.773 180.168 431.554C179.262 431.331 178.359 431.106 177.458 430.878C176.558 430.646 175.664 430.412 174.769 430.172C173.875 429.929 172.983 429.683 172.095 429.437C171.21 429.185 170.327 428.93 169.447 428.672C168.568 428.411 167.688 428.144 166.817 427.877C165.944 427.604 165.076 427.334 164.205 427.053C163.34 426.777 162.479 426.492 161.617 426.202C160.761 425.914 159.902 425.621 159.052 425.324C158.199 425.025 157.349 424.719 156.501 424.414C155.657 424.109 154.819 423.797 153.981 423.48C153.145 423.166 152.316 422.845 151.486 422.525C150.66 422.199 149.839 421.876 149.031 421.553C148.225 421.232 147.422 420.906 146.619 420.583C145.825 420.263 145.028 419.934 144.237 419.608C143.449 419.279 142.664 418.944 141.888 418.605C141.108 418.267 140.335 417.927 139.562 417.577C138.788 417.23 138.024 416.88 137.256 416.524C136.495 416.162 135.736 415.801 134.984 415.439C134.231 415.074 133.478 414.704 132.737 414.33C131.997 413.956 131.259 413.577 130.524 413.194C129.792 412.812 129.063 412.426 128.337 412.035C127.613 411.641 126.89 411.246 126.173 410.846C125.456 410.446 124.741 410.043 124.033 409.633C123.325 409.224 122.619 408.812 121.92 408.394C121.223 407.976 120.526 407.555 119.836 407.131C119.142 406.704 118.463 406.274 117.784 405.841C117.105 405.405 116.432 404.967 115.762 404.531C115.095 404.089 114.434 403.644 113.776 403.199C113.121 402.755 112.474 402.304 111.825 401.85C111.178 401.397 110.538 400.937 109.897 400.475C109.266 400.015 108.637 399.549 108.008 399.081C107.383 398.613 106.766 398.141 106.149 397.667C105.538 397.192 104.93 396.715 104.322 396.232C103.72 395.748 103.12 395.262 102.524 394.773C101.934 394.281 101.341 393.785 100.759 393.29C100.186 392.81 99.6168 392.321 99.053 391.832C98.4892 391.339 97.9284 390.844 97.3735 390.349C96.8186 389.848 96.2666 389.347 95.7235 388.846C95.1834 388.342 94.6491 387.841 94.1149 387.331C93.5836 386.824 93.0582 386.314 92.5328 385.801C92.0074 385.285 91.4879 384.766 90.9713 384.247C90.4577 383.725 89.9501 383.203 89.4453 382.676C88.9435 382.151 88.4476 381.626 87.9547 381.098C87.4677 380.57 86.9807 380.04 86.5025 379.506C86.0214 378.972 85.5462 378.436 85.0709 377.896C84.5987 377.356 84.1294 376.811 83.6659 376.262C83.2025 375.717 82.7421 375.168 82.2875 374.62C81.8359 374.071 81.3843 373.52 80.9415 372.968C80.4988 372.411 80.056 371.853 79.6222 371.293C79.1883 370.733 78.7573 370.169 78.3264 369.6C77.9013 369.037 77.4822 368.467 77.0601 367.895C76.6439 367.323 76.2307 366.748 75.8204 366.169C75.4101 365.588 75.0028 365.01 74.6014 364.423C74.2029 363.839 73.8074 363.249 73.4118 362.659C73.0222 362.063 72.6355 361.47 72.2518 360.871C71.8681 360.272 71.4873 359.67 71.1125 359.065C70.7406 358.458 70.3716 357.853 70.0056 357.239C69.6396 356.628 69.2795 356.011 68.9253 355.395C68.5681 354.775 68.2139 354.155 67.8656 353.53C67.5233 352.907 67.1779 352.278 66.8385 351.647C66.5049 351.015 66.1714 350.384 65.8408 349.746C65.5132 349.109 65.1885 348.468 64.8667 347.825C64.5509 347.182 64.2351 346.538 63.9222 345.886C63.6123 345.237 63.3083 344.587 63.0072 343.932C62.7061 343.274 62.408 342.616 62.1187 341.957C61.8265 341.293 61.5402 340.629 61.2569 339.962C60.9764 339.295 60.699 338.628 60.4245 337.955C60.1529 337.281 59.8843 336.602 59.6216 335.926C59.3589 335.245 59.1021 334.566 58.8453 333.881C58.5944 333.196 58.3465 332.511 58.1015 331.82C57.8565 331.129 57.6174 330.435 57.3813 329.741C57.1481 329.045 56.9209 328.345 56.6936 327.642C56.4692 326.94 56.2508 326.237 56.0353 325.528C55.8199 324.82 55.6103 324.111 55.4037 323.396C55.2 322.685 54.9993 321.97 54.8016 321.25C54.6067 320.532 54.4149 319.812 54.2289 319.088C54.0459 318.362 53.8629 317.638 53.6858 316.906C53.5117 316.18 53.3405 315.447 53.1752 314.715C53.0069 313.977 52.8475 313.241 52.6911 312.503C52.5347 311.762 52.3841 311.02 52.2365 310.276C52.0919 309.529 51.9502 308.785 51.8145 308.035C51.6787 307.285 51.5488 306.531 51.4189 305.778C51.295 305.022 51.1739 304.266 51.0559 303.507C50.9437 302.748 50.8345 301.983 50.7253 301.218C50.622 300.453 50.5216 299.688 50.4242 298.917C50.3298 298.149 50.2412 297.376 50.1556 296.605C50.07 295.831 49.9903 295.054 49.9136 294.274C49.8427 293.497 49.7719 292.715 49.707 291.929C49.645 291.149 49.583 290.357 49.5299 289.575C49.4767 288.783 49.4295 287.994 49.3852 287.2C49.3439 286.408 49.3055 285.61 49.2731 284.816C49.2406 284.018 49.214 283.221 49.1934 282.417C49.1727 281.614 49.155 280.81 49.1432 280.004C49.1314 279.197 49.1284 278.391 49.1255 277.578C49.1255 276.769 49.1343 275.956 49.1432 275.144C49.155 274.326 49.1698 273.51 49.1934 272.692C49.214 271.874 49.2406 271.052 49.2731 270.228C49.3085 269.407 49.3469 268.577 49.3882 267.752C49.4325 266.925 49.4826 266.095 49.5358 265.262C49.5919 264.428 49.6538 263.595 49.7188 262.759C49.7867 261.926 49.8575 261.087 49.9342 260.248C50.0139 259.409 50.0966 258.57 50.1822 257.725C50.2737 256.877 50.3681 256.035 50.4655 255.19C50.5689 254.339 50.6751 253.494 50.7843 252.643Z" fill="white"/>
</mask>
<g mask="url(#mask0_353_15)">
<path d="M307.033 97.0263C328.648 66.5687 334.871 -11.4585 335.28 -46.6648L332.823 -49.1211L50.3539 2.46033C33.5695 70.8262 6.14126 211.242 30.7038 225.98C61.4071 244.402 97.0228 186.68 109.304 171.942C121.585 157.205 207.554 203.874 214.923 127.73C217.833 97.662 280.014 135.098 307.033 97.0263Z" fill="#4F4F4F"/>
</g>
<path d="M352.9 315.864C342.517 267.725 302.616 236.649 253.338 238.32C206.088 239.923 170.413 269.708 160.457 315.864C144.632 389.237 368.725 389.237 352.9 315.864Z" fill="#FF7697"/>
<path d="M272.645 260.361L282.47 270.186" stroke="#363636" stroke-width="8.22886" stroke-linecap="round"/>
<path d="M230.888 260.361L221.063 270.186" stroke="#363636" stroke-width="8.22886" stroke-linecap="round"/>
<circle cx="351.245" cy="238.258" r="17.1938" fill="#4F4F4F"/>
<circle cx="157.2" cy="238.258" r="17.1938" fill="#4F4F4F"/>
<path d="M336.723 155.087C337.705 144.279 342.863 135.437 356.373 132.98C369.882 130.524 383.392 141.577 382.164 155.087C380.936 168.596 391.989 161.227 398.129 178.421C404.27 195.615 373.567 204.212 356.373 193.159C339.179 182.106 335.495 168.596 336.723 155.087Z" fill="#4F4F4F"/>
<path d="M93.338 386.863C111.76 406.104 167.026 443.603 240.714 439.673" stroke="#D9D9D9" stroke-width="8.22886" stroke-linecap="round"/>
<mask id="mask1_353_15" style="mask-type:alpha" maskUnits="userSpaceOnUse" x="49" y="54" width="413" height="386">
<path d="M50.7843 252.643C50.8965 251.789 51.0146 250.935 51.1356 250.087C51.2595 249.239 51.3865 248.388 51.5193 247.543C51.6521 246.692 51.7908 245.844 51.9355 244.996C52.0772 244.145 52.2277 243.303 52.3812 242.458C52.5376 241.61 52.6941 240.768 52.8594 239.923C53.0246 239.081 53.1929 238.236 53.37 237.397C53.5441 236.552 53.7242 235.709 53.9072 234.87C54.0931 234.028 54.285 233.186 54.4798 232.353C54.6746 231.514 54.8753 230.675 55.079 229.839C55.2856 229 55.4952 228.161 55.7107 227.327C55.9291 226.494 56.1475 225.661 56.3718 224.828C56.5991 223.995 56.8293 223.168 57.0625 222.337C57.2987 221.504 57.5378 220.677 57.7827 219.85C58.0277 219.019 58.2786 218.192 58.5325 217.371C58.7863 216.544 59.0461 215.719 59.3088 214.895C59.5715 214.071 59.843 213.25 60.1146 212.431C60.3891 211.607 60.6695 210.789 60.9469 209.97C61.2332 209.152 61.5225 208.334 61.8118 207.521C62.1069 206.703 62.4021 205.89 62.7032 205.075C63.0042 204.263 63.3112 203.45 63.6211 202.641C63.934 201.831 64.2469 201.025 64.5657 200.218C64.8874 199.412 65.2091 198.605 65.5368 197.802C65.8674 196.995 66.2009 196.195 66.5374 195.394C66.8768 194.591 67.2163 193.793 67.5616 192.996C67.9129 192.198 68.2612 191.401 68.6154 190.606C68.9725 189.811 69.3297 189.02 69.6957 188.228C70.0587 187.436 70.4277 186.645 70.7996 185.856C71.1715 185.07 71.5493 184.282 71.9301 183.499C72.3109 182.716 72.6975 181.93 73.0842 181.153C73.4768 180.371 73.8693 179.591 74.2678 178.814C74.6633 178.037 75.0648 177.26 75.4721 176.487C75.8794 175.713 76.2897 174.939 76.703 174.171C77.1191 173.4 77.5353 172.632 77.9545 171.864C78.3765 171.099 78.8016 170.337 79.2355 169.575C79.6664 168.81 80.0974 168.051 80.5372 167.289C80.977 166.533 81.4197 165.774 81.8654 165.021C82.3111 164.265 82.7627 163.515 83.2173 162.762C83.6718 162.014 84.1294 161.264 84.5898 160.52C85.0532 159.773 85.5196 159.029 85.9889 158.29C86.4582 157.546 86.9305 156.808 87.4087 156.07C87.8868 155.328 88.368 154.596 88.852 153.861C89.3361 153.128 89.829 152.396 90.319 151.673C90.8119 150.94 91.3078 150.214 91.8067 149.493C92.3084 148.767 92.8102 148.043 93.315 147.326C93.8256 146.605 94.3362 145.891 94.8469 145.176C95.3605 144.465 95.8741 143.753 96.3906 143.05C96.8983 142.345 97.406 141.648 97.9196 140.951C98.4332 140.257 98.9438 139.563 99.4544 138.873C99.9651 138.188 100.479 137.5 100.995 136.818C101.509 136.136 102.019 135.469 102.536 134.805C103.053 134.135 103.566 133.473 104.083 132.812C104.599 132.157 105.122 131.502 105.647 130.846C106.169 130.194 106.692 129.548 107.214 128.901C107.743 128.258 108.265 127.62 108.788 126.983C109.319 126.348 109.847 125.717 110.379 125.085C110.91 124.457 111.447 123.831 111.984 123.209C112.521 122.592 113.062 121.972 113.605 121.355C114.148 120.745 114.694 120.131 115.243 119.523C115.792 118.915 116.341 118.31 116.896 117.714C117.451 117.115 118.006 116.522 118.567 115.932C119.124 115.342 119.688 114.752 120.255 114.168C120.822 113.581 121.388 113 121.958 112.419C122.531 111.841 123.106 111.263 123.685 110.69C124.26 110.118 124.839 109.552 125.42 108.985C126.002 108.422 126.583 107.859 127.168 107.301C127.755 106.744 128.342 106.189 128.933 105.638C129.52 105.092 130.11 104.547 130.701 104.007C131.294 103.465 131.89 102.928 132.487 102.397C133.08 101.861 133.679 101.333 134.284 100.805C134.883 100.277 135.483 99.7583 136.082 99.2424C136.684 98.7236 137.286 98.2136 137.891 97.7036C138.499 97.1936 139.11 96.6836 139.718 96.1796C140.332 95.6785 140.937 95.1774 141.545 94.6912C142.156 94.2019 142.767 93.7127 143.384 93.2235C143.998 92.7431 144.615 92.2658 145.238 91.7884C145.858 91.314 146.475 90.8426 147.091 90.3771C147.711 89.9086 148.334 89.4461 148.954 88.9865C149.574 88.5299 150.191 88.0822 150.814 87.6345C151.433 87.1838 152.053 86.742 152.685 86.3032C153.308 85.8643 153.93 85.4315 154.556 85.0015C155.185 84.5686 155.814 84.1447 156.445 83.7207C157.071 83.2996 157.691 82.8875 158.317 82.4754C158.939 82.0632 159.565 81.6541 160.197 81.2538C160.826 80.8565 161.454 80.4562 162.089 80.0618C162.721 79.6705 163.358 79.2791 163.996 78.8936C164.636 78.5082 165.277 78.1257 165.92 77.7432C166.561 77.3667 167.204 76.9931 167.845 76.6254C168.491 76.2578 169.135 75.8931 169.787 75.5343C170.433 75.1726 171.08 74.8168 171.735 74.4699C172.384 74.1141 173.037 73.7701 173.692 73.4232C174.35 73.0793 175.008 72.7413 175.664 72.4062C176.325 72.0712 176.986 71.7391 177.647 71.4129C178.311 71.0838 178.975 70.7636 179.64 70.4434C180.307 70.1261 180.971 69.8118 181.638 69.5065C182.302 69.1951 182.969 68.8897 183.636 68.5932C184.306 68.2967 184.976 68.0062 185.649 67.7156C186.319 67.428 186.995 67.1433 187.668 66.8646C188.344 66.583 189.023 66.3072 189.702 66.0374C190.384 65.7617 191.063 65.4948 191.747 65.2309C192.432 64.97 193.123 64.712 193.81 64.46C194.501 64.208 195.192 63.9589 195.886 63.7128C196.582 63.4697 197.276 63.2295 197.972 62.9953C198.672 62.7581 199.368 62.5298 200.068 62.3015C200.768 62.0762 201.47 61.8538 202.17 61.6344C202.872 61.415 203.575 61.2074 204.28 60.9999C204.983 60.7953 205.688 60.5907 206.396 60.392C207.102 60.1964 207.81 60.0036 208.522 59.8139C209.233 59.6271 209.944 59.4432 210.659 59.2594C211.37 59.0785 212.087 58.9036 212.805 58.7316C213.525 58.5597 214.242 58.3936 214.965 58.2306C215.682 58.0675 216.406 57.9074 217.132 57.7532C217.855 57.599 218.581 57.4478 219.307 57.3025C220.033 57.1602 220.759 57.0179 221.491 56.8844C222.22 56.7481 222.952 56.6176 223.684 56.4931C224.413 56.3656 225.148 56.241 225.883 56.1254C226.618 56.0068 227.353 55.8941 228.094 55.7904C228.838 55.6836 229.576 55.5828 230.323 55.4879C231.066 55.3931 231.813 55.3041 232.557 55.2181C233.307 55.1321 234.057 55.0521 234.809 54.975C235.559 54.8979 236.312 54.8238 237.067 54.7585C237.814 54.6904 238.573 54.6281 239.328 54.5688C240.084 54.5125 240.842 54.4591 241.601 54.4116C242.36 54.3612 243.118 54.3197 243.88 54.2782C244.644 54.2397 245.403 54.2071 246.167 54.1774C246.935 54.1478 247.693 54.1211 248.464 54.1033C249.231 54.0825 249.999 54.0677 250.769 54.0558C251.536 54.0469 252.307 54.041 253.077 54.041C253.848 54.041 254.624 54.0499 255.403 54.0647C256.176 54.0766 256.95 54.0944 257.726 54.1181C258.499 54.1448 259.267 54.1715 260.043 54.2041C260.816 54.2397 261.584 54.2782 262.354 54.3227C263.125 54.3642 263.895 54.4146 264.659 54.468C265.43 54.5243 266.194 54.5806 266.962 54.6429C267.729 54.7081 268.494 54.7734 269.258 54.8505C270.02 54.9246 270.784 55.0017 271.546 55.0847C272.307 55.1707 273.069 55.2567 273.824 55.3515C274.586 55.4435 275.342 55.5383 276.1 55.6421C276.853 55.7459 277.608 55.8497 278.361 55.9623C279.114 56.075 279.866 56.1877 280.616 56.3092C281.369 56.4308 282.119 56.5583 282.868 56.6917C283.621 56.8222 284.368 56.9586 285.115 57.0979C285.861 57.2402 286.608 57.3855 287.352 57.5367C288.096 57.688 288.837 57.8392 289.58 57.9993C290.318 58.1594 291.062 58.3225 291.797 58.4915C292.535 58.6575 293.273 58.8325 294.008 59.0074C294.746 59.1883 295.481 59.3721 296.216 59.5618C296.948 59.7516 297.683 59.9414 298.412 60.14C299.144 60.3387 299.873 60.5373 300.599 60.7449C301.328 60.9495 302.054 61.16 302.777 61.3735C303.503 61.5869 304.224 61.8063 304.947 62.0287C305.664 62.2511 306.387 62.4794 307.102 62.7107C307.819 62.9419 308.533 63.1762 309.247 63.4134C309.962 63.6595 310.679 63.9056 311.393 64.1576C312.108 64.4096 312.819 64.6676 313.53 64.9285C314.242 65.1894 314.95 65.4533 315.656 65.7231C316.364 65.9929 317.066 66.2657 317.772 66.5415C318.474 66.8202 319.174 67.1018 319.876 67.3865C320.576 67.6711 321.273 67.9617 321.966 68.2552C322.663 68.5458 323.356 68.8423 324.047 69.1477C324.738 69.4472 325.426 69.7525 326.113 70.0639C326.801 70.3722 327.486 70.6836 328.168 71.0008C328.849 71.3181 329.531 71.6383 330.21 71.9644C330.892 72.2935 331.571 72.6286 332.247 72.9696C332.926 73.3105 333.599 73.6545 334.275 74.0044C334.948 74.3513 335.624 74.7071 336.297 75.0658C336.97 75.4216 337.64 75.7834 338.31 76.151C338.98 76.5157 339.647 76.8834 340.317 77.2599C340.984 77.6305 341.651 78.0071 342.315 78.3926C342.982 78.775 343.643 79.1635 344.304 79.5548C344.969 79.9462 345.624 80.3435 346.285 80.7408C346.943 81.1441 347.598 81.5473 348.251 81.9565C348.906 82.3627 349.558 82.7748 350.211 83.187C350.86 83.605 351.512 84.029 352.159 84.45C352.805 84.874 353.452 85.301 354.092 85.7369C354.736 86.1668 355.376 86.6026 356.014 87.0474C356.654 87.4921 357.289 87.9399 357.923 88.3935C358.561 88.8442 359.193 89.3008 359.824 89.7633C360.453 90.2229 361.082 90.6854 361.707 91.1539C362.333 91.6224 362.956 92.0908 363.576 92.5652C364.199 93.0396 364.813 93.517 365.43 94.0033C366.043 94.4836 366.66 94.9669 367.271 95.4561C367.885 95.9483 368.499 96.4464 369.113 96.9475C369.73 97.4575 370.344 97.9675 370.952 98.4775C371.563 98.9845 372.168 99.5033 372.773 100.019C373.375 100.538 373.981 101.063 374.577 101.585C375.176 102.113 375.775 102.643 376.368 103.18C376.962 103.714 377.555 104.25 378.145 104.793C378.733 105.338 379.326 105.89 379.916 106.45C380.507 107.008 381.094 107.574 381.678 108.143C382.263 108.716 382.844 109.288 383.417 109.86C383.996 110.438 384.571 111.016 385.141 111.601C385.71 112.185 386.28 112.775 386.853 113.374C387.422 113.973 387.986 114.571 388.553 115.176C389.114 115.781 389.672 116.389 390.232 117C390.787 117.611 391.345 118.227 391.897 118.847C392.449 119.467 392.998 120.095 393.547 120.724C394.093 121.352 394.639 121.984 395.179 122.621C395.728 123.265 396.269 123.911 396.812 124.558C397.352 125.204 397.886 125.856 398.423 126.509C398.958 127.164 399.495 127.825 400.032 128.489C400.578 129.156 401.124 129.826 401.67 130.496C402.216 131.17 402.762 131.846 403.308 132.528C403.854 133.206 404.403 133.888 404.949 134.582C405.498 135.27 406.042 135.961 406.585 136.661C407.128 137.357 407.668 138.057 408.205 138.757C408.739 139.46 409.274 140.159 409.805 140.871C410.333 141.574 410.859 142.276 411.381 142.997C411.904 143.706 412.42 144.42 412.937 145.132C413.45 145.849 413.964 146.567 414.474 147.284C414.982 148.008 415.493 148.728 415.998 149.464C416.514 150.202 417.025 150.943 417.535 151.69C418.043 152.435 418.554 153.185 419.058 153.938C419.566 154.688 420.068 155.447 420.567 156.206C421.066 156.965 421.561 157.724 422.051 158.489C422.538 159.248 423.028 160.013 423.512 160.778C423.997 161.546 424.472 162.311 424.95 163.085C425.425 163.856 425.897 164.624 426.364 165.4C426.83 166.171 427.294 166.948 427.754 167.725C428.209 168.502 428.669 169.282 429.121 170.061C429.572 170.844 430.018 171.627 430.461 172.41C430.904 173.195 431.343 173.981 431.78 174.77C432.211 175.559 432.645 176.347 433.07 177.139C433.498 177.931 433.92 178.719 434.336 179.514C434.752 180.311 435.169 181.106 435.579 181.904C435.989 182.698 436.394 183.499 436.792 184.302C437.196 185.1 437.595 185.903 437.985 186.704C438.377 187.51 438.764 188.314 439.15 189.12C439.531 189.924 439.912 190.733 440.287 191.543C440.662 192.352 441.031 193.162 441.4 193.974C441.763 194.787 442.126 195.599 442.483 196.417C442.84 197.233 443.191 198.045 443.54 198.863C443.888 199.682 444.23 200.5 444.573 201.321C444.909 202.137 445.243 202.961 445.573 203.785C445.901 204.604 446.229 205.428 446.547 206.255C446.869 207.079 447.185 207.904 447.498 208.731C447.805 209.558 448.112 210.382 448.416 211.213C448.717 212.04 449.012 212.873 449.307 213.703C449.599 214.536 449.886 215.367 450.166 216.203C450.449 217.033 450.727 217.866 451.001 218.705C451.273 219.538 451.545 220.372 451.807 221.214C452.07 222.047 452.33 222.883 452.583 223.725C452.837 224.564 453.085 225.403 453.327 226.245C453.572 227.081 453.811 227.92 454.045 228.765C454.278 229.607 454.505 230.45 454.732 231.295C454.954 232.14 455.175 232.979 455.388 233.824C455.603 234.669 455.807 235.517 456.013 236.359C456.217 237.204 456.415 238.055 456.61 238.906C456.801 239.754 456.99 240.599 457.173 241.453C457.356 242.295 457.533 243.146 457.705 244C457.876 244.848 458.047 245.696 458.209 246.55C458.372 247.397 458.525 248.251 458.679 249.102C458.832 249.956 458.977 250.807 459.116 251.658C459.254 252.515 459.393 253.36 459.523 254.22C459.653 255.071 459.777 255.928 459.898 256.782C460.013 257.636 460.131 258.493 460.24 259.346C460.346 260.2 460.45 261.057 460.547 261.917C460.645 262.771 460.733 263.622 460.822 264.479C460.904 265.33 460.981 266.175 461.058 267.026C461.132 267.874 461.199 268.716 461.261 269.561C461.323 270.4 461.377 271.245 461.43 272.078C461.483 272.917 461.527 273.75 461.568 274.587C461.604 275.423 461.642 276.253 461.669 277.08C461.698 277.907 461.719 278.735 461.737 279.559C461.754 280.383 461.766 281.201 461.772 282.02C461.778 282.838 461.778 283.656 461.775 284.472C461.769 285.284 461.757 286.097 461.743 286.906C461.725 287.716 461.704 288.522 461.678 289.326C461.651 290.132 461.616 290.933 461.58 291.733C461.542 292.534 461.498 293.328 461.45 294.126C461.4 294.915 461.347 295.709 461.285 296.498C461.226 297.287 461.164 298.072 461.093 298.858C461.022 299.641 460.946 300.427 460.866 301.203C460.786 301.983 460.698 302.76 460.606 303.534C460.515 304.308 460.42 305.079 460.317 305.847C460.217 306.614 460.11 307.379 459.998 308.141C459.886 308.906 459.768 309.665 459.644 310.424C459.52 311.184 459.393 311.94 459.263 312.693C459.127 313.443 458.992 314.193 458.847 314.946C458.702 315.693 458.549 316.446 458.398 317.191C458.242 317.938 458.082 318.676 457.92 319.42C457.752 320.159 457.584 320.897 457.409 321.632C457.232 322.368 457.055 323.097 456.869 323.829C456.683 324.559 456.489 325.285 456.297 326.009C456.099 326.735 455.898 327.452 455.695 328.176C455.488 328.893 455.275 329.608 455.063 330.323C454.842 331.034 454.626 331.743 454.399 332.451C454.174 333.16 453.944 333.866 453.702 334.568C453.469 335.268 453.227 335.968 452.982 336.665C452.737 337.362 452.483 338.055 452.229 338.746C451.975 339.434 451.713 340.125 451.447 340.81C451.181 341.495 450.907 342.177 450.635 342.853C450.355 343.535 450.075 344.208 449.791 344.881C449.505 345.554 449.216 346.227 448.92 346.891C448.625 347.558 448.321 348.222 448.02 348.883C447.713 349.545 447.403 350.2 447.09 350.858C446.775 351.51 446.456 352.163 446.131 352.812C445.806 353.461 445.479 354.105 445.148 354.748C444.812 355.392 444.472 356.029 444.13 356.667C443.788 357.301 443.439 357.936 443.088 358.564C442.734 359.193 442.38 359.818 442.017 360.447C441.653 361.067 441.287 361.689 440.916 362.306C440.544 362.923 440.169 363.537 439.788 364.147C439.41 364.755 439.024 365.366 438.637 365.968C438.244 366.573 437.849 367.172 437.45 367.771C437.052 368.369 436.647 368.962 436.24 369.555C435.827 370.148 435.411 370.741 434.989 371.332C434.567 371.916 434.136 372.503 433.708 373.084C433.274 373.665 432.84 374.243 432.4 374.818C431.96 375.391 431.514 375.963 431.066 376.532C430.614 377.098 430.16 377.662 429.702 378.225C429.242 378.786 428.778 379.343 428.309 379.897C427.84 380.452 427.37 381 426.895 381.549C426.417 382.094 425.936 382.64 425.452 383.177C424.962 383.719 424.475 384.256 423.982 384.787C423.483 385.317 422.984 385.848 422.476 386.376C421.969 386.901 421.455 387.426 420.942 387.947C420.422 388.469 419.897 388.988 419.374 389.501C418.846 390.017 418.312 390.53 417.777 391.034C417.24 391.541 416.703 392.045 416.157 392.546C415.611 393.047 415.062 393.542 414.51 394.035C413.952 394.53 413.394 395.019 412.827 395.505C412.261 395.991 411.691 396.475 411.118 396.955C410.543 397.435 409.964 397.913 409.383 398.384C408.798 398.856 408.211 399.324 407.621 399.79C407.027 400.255 406.428 400.718 405.826 401.174C405.218 401.637 404.607 402.093 403.993 402.547C403.379 402.998 402.759 403.445 402.136 403.893C401.514 404.338 400.885 404.777 400.256 405.216C399.619 405.654 398.981 406.084 398.338 406.517C397.694 406.947 397.048 407.371 396.395 407.795C395.746 408.219 395.091 408.637 394.43 409.049C393.766 409.467 393.098 409.877 392.428 410.283C391.752 410.692 391.077 411.095 390.395 411.495C389.713 411.893 389.025 412.29 388.337 412.681C387.647 413.073 386.953 413.458 386.257 413.841C385.557 414.223 384.852 414.6 384.143 414.976C383.432 415.347 382.72 415.718 382.003 416.082C381.289 416.447 380.569 416.809 379.846 417.161C379.119 417.517 378.387 417.873 377.652 418.223C376.912 418.573 376.162 418.92 375.412 419.264C374.656 419.605 373.898 419.946 373.139 420.281C372.375 420.613 371.61 420.945 370.837 421.271C370.064 421.594 369.29 421.914 368.511 422.235C367.729 422.549 366.947 422.86 366.159 423.166C365.362 423.477 364.562 423.782 363.762 424.082C362.956 424.381 362.15 424.678 361.338 424.971C360.53 425.256 359.718 425.547 358.9 425.828C358.086 426.107 357.262 426.386 356.439 426.655C355.615 426.925 354.792 427.192 353.959 427.456C353.13 427.714 352.295 427.972 351.459 428.224C350.621 428.476 349.78 428.722 348.939 428.962C348.094 429.202 347.247 429.44 346.397 429.671C345.538 429.902 344.673 430.13 343.806 430.353C342.935 430.581 342.061 430.8 341.182 431.017C340.305 431.23 339.428 431.438 338.543 431.646C337.657 431.847 336.769 432.049 335.877 432.241C334.98 432.434 334.089 432.624 333.185 432.811C332.282 432.992 331.376 433.173 330.467 433.347C329.558 433.522 328.643 433.691 327.722 433.86C326.798 434.026 325.871 434.187 324.947 434.347C324.015 434.501 323.088 434.649 322.152 434.797C321.222 434.94 320.266 435.091 319.31 435.245C318.344 435.399 317.373 435.553 316.399 435.702C315.422 435.85 314.442 435.992 313.462 436.132C312.482 436.268 311.505 436.404 310.52 436.535C309.537 436.665 308.548 436.79 307.562 436.908C306.573 437.03 305.584 437.143 304.587 437.252C303.595 437.359 302.6 437.463 301.6 437.561C300.602 437.659 299.595 437.75 298.595 437.839C297.591 437.922 296.585 438.002 295.575 438.077C294.569 438.154 293.556 438.225 292.547 438.29C291.531 438.352 290.516 438.409 289.492 438.474C288.468 438.548 287.443 438.616 286.41 438.684C285.374 438.75 284.338 438.812 283.293 438.883C282.246 438.951 281.189 439.014 280.138 439.073C279.081 439.132 278.025 439.186 276.965 439.233C275.905 439.28 274.843 439.325 273.774 439.369C272.709 439.411 271.637 439.449 270.566 439.482C269.497 439.515 268.426 439.538 267.351 439.568C266.277 439.592 265.208 439.612 264.131 439.63C263.06 439.645 261.982 439.66 260.905 439.666C259.828 439.675 258.747 439.675 257.667 439.672C256.581 439.666 255.509 439.66 254.432 439.648C253.346 439.636 252.271 439.618 251.194 439.598C250.114 439.577 249.033 439.547 247.962 439.518C246.893 439.485 245.825 439.452 244.765 439.417C243.7 439.375 242.637 439.331 241.577 439.283C240.515 439.233 239.461 439.174 238.404 439.114C237.351 439.052 236.3 438.987 235.246 438.916C234.201 438.847 233.159 438.785 232.12 438.711C231.081 438.64 230.045 438.566 229.018 438.492C227.988 438.415 226.958 438.332 225.939 438.246C224.93 438.169 223.929 438.1 222.932 438.026C221.94 437.961 220.951 437.89 219.962 437.816C218.979 437.736 217.999 437.659 217.017 437.573C216.037 437.487 215.063 437.392 214.086 437.297C213.109 437.199 212.137 437.098 211.166 436.991C210.195 436.882 209.227 436.769 208.265 436.647C207.3 436.532 206.337 436.41 205.378 436.28C204.416 436.152 203.46 436.016 202.509 435.88C201.553 435.737 200.602 435.592 199.655 435.444C198.704 435.292 197.76 435.138 196.815 434.978C195.871 434.818 194.935 434.655 193.994 434.486C193.061 434.314 192.125 434.139 191.192 433.958C190.263 433.777 189.336 433.594 188.412 433.404C187.485 433.211 186.564 433.015 185.643 432.817C184.725 432.615 183.81 432.408 182.898 432.2C181.983 431.986 181.074 431.773 180.168 431.554C179.262 431.331 178.359 431.106 177.458 430.878C176.558 430.646 175.664 430.412 174.769 430.172C173.875 429.929 172.984 429.683 172.095 429.437C171.21 429.185 170.327 428.93 169.447 428.672C168.568 428.411 167.688 428.144 166.817 427.877C165.944 427.604 165.076 427.334 164.205 427.053C163.34 426.777 162.479 426.492 161.617 426.202C160.761 425.914 159.902 425.621 159.052 425.324C158.199 425.025 157.349 424.719 156.501 424.414C155.657 424.108 154.819 423.797 153.981 423.48C153.145 423.166 152.316 422.845 151.486 422.525C150.66 422.199 149.839 421.876 149.031 421.553C148.225 421.232 147.422 420.906 146.619 420.583C145.825 420.263 145.028 419.934 144.237 419.608C143.449 419.279 142.664 418.943 141.888 418.605C141.108 418.267 140.335 417.926 139.562 417.577C138.788 417.23 138.024 416.88 137.256 416.524C136.495 416.162 135.736 415.801 134.984 415.439C134.231 415.074 133.478 414.704 132.737 414.33C131.997 413.956 131.259 413.577 130.524 413.194C129.792 412.812 129.063 412.426 128.337 412.035C127.613 411.641 126.89 411.246 126.173 410.846C125.456 410.446 124.741 410.043 124.033 409.633C123.325 409.224 122.619 408.812 121.92 408.394C121.223 407.976 120.526 407.555 119.836 407.131C119.142 406.704 118.463 406.274 117.784 405.841C117.105 405.405 116.432 404.966 115.762 404.531C115.095 404.089 114.434 403.644 113.776 403.199C113.121 402.755 112.474 402.304 111.825 401.85C111.178 401.397 110.538 400.937 109.897 400.474C109.266 400.015 108.637 399.549 108.008 399.081C107.383 398.612 106.766 398.141 106.149 397.667C105.538 397.192 104.93 396.715 104.322 396.232C103.72 395.748 103.12 395.262 102.524 394.773C101.934 394.281 101.341 393.785 100.759 393.29C100.186 392.81 99.6168 392.321 99.053 391.832C98.4892 391.339 97.9284 390.844 97.3735 390.349C96.8186 389.848 96.2666 389.347 95.7235 388.846C95.1834 388.342 94.6491 387.841 94.1149 387.331C93.5836 386.824 93.0582 386.314 92.5328 385.801C92.0074 385.285 91.4879 384.766 90.9713 384.247C90.4577 383.725 89.9501 383.203 89.4453 382.676C88.9435 382.151 88.4477 381.626 87.9547 381.098C87.4677 380.57 86.9807 380.04 86.5025 379.506C86.0214 378.972 85.5462 378.436 85.0709 377.896C84.5987 377.356 84.1294 376.811 83.6659 376.262C83.2025 375.717 82.7421 375.168 82.2875 374.62C81.8359 374.071 81.3843 373.52 80.9416 372.968C80.4988 372.411 80.0561 371.853 79.6222 371.293C79.1883 370.733 78.7573 370.169 78.3264 369.6C77.9013 369.037 77.4822 368.467 77.0601 367.895C76.6439 367.323 76.2307 366.748 75.8204 366.169C75.4101 365.588 75.0028 365.01 74.6014 364.423C74.2029 363.839 73.8074 363.249 73.4118 362.659C73.0222 362.063 72.6355 361.47 72.2518 360.871C71.8681 360.272 71.4873 359.67 71.1125 359.065C70.7406 358.457 70.3716 357.853 70.0056 357.239C69.6396 356.628 69.2795 356.011 68.9253 355.395C68.5681 354.775 68.2139 354.155 67.8656 353.53C67.5233 352.907 67.1779 352.278 66.8385 351.647C66.5049 351.015 66.1714 350.384 65.8408 349.746C65.5132 349.109 65.1885 348.468 64.8667 347.825C64.5509 347.182 64.2351 346.538 63.9222 345.886C63.6123 345.237 63.3083 344.587 63.0072 343.932C62.7061 343.274 62.408 342.615 62.1187 341.957C61.8265 341.293 61.5402 340.629 61.2569 339.962C60.9764 339.295 60.699 338.628 60.4245 337.954C60.1529 337.281 59.8843 336.602 59.6216 335.926C59.3589 335.244 59.1021 334.566 58.8453 333.881C58.5944 333.196 58.3465 332.511 58.1015 331.82C57.8565 331.129 57.6174 330.435 57.3813 329.741C57.1481 329.045 56.9209 328.345 56.6936 327.642C56.4692 326.94 56.2508 326.237 56.0353 325.528C55.8199 324.82 55.6103 324.111 55.4037 323.396C55.2 322.685 54.9993 321.97 54.8016 321.25C54.6067 320.532 54.4149 319.812 54.2289 319.088C54.0459 318.362 53.8629 317.638 53.6858 316.906C53.5117 316.18 53.3405 315.447 53.1752 314.715C53.0069 313.977 52.8475 313.241 52.6911 312.503C52.5347 311.762 52.3841 311.02 52.2365 310.276C52.0919 309.529 51.9502 308.785 51.8145 308.035C51.6787 307.285 51.5488 306.531 51.4189 305.778C51.295 305.022 51.1739 304.266 51.0559 303.507C50.9437 302.748 50.8345 301.983 50.7253 301.218C50.622 300.453 50.5216 299.688 50.4242 298.917C50.3298 298.149 50.2412 297.376 50.1556 296.605C50.07 295.831 49.9903 295.054 49.9136 294.274C49.8427 293.497 49.7719 292.715 49.707 291.929C49.645 291.149 49.583 290.357 49.5299 289.575C49.4767 288.783 49.4295 287.994 49.3852 287.2C49.3439 286.408 49.3055 285.61 49.2731 284.816C49.2406 284.018 49.214 283.221 49.1934 282.417C49.1727 281.614 49.155 280.81 49.1432 280.004C49.1314 279.197 49.1284 278.391 49.1255 277.578C49.1255 276.769 49.1343 275.956 49.1432 275.144C49.155 274.326 49.1698 273.51 49.1934 272.692C49.214 271.874 49.2406 271.052 49.2731 270.228C49.3085 269.407 49.3469 268.576 49.3882 267.752C49.4325 266.925 49.4826 266.095 49.5358 265.262C49.5919 264.428 49.6538 263.595 49.7188 262.759C49.7867 261.926 49.8575 261.087 49.9342 260.248C50.0139 259.409 50.0966 258.57 50.1822 257.725C50.2737 256.877 50.3681 256.035 50.4655 255.19C50.5689 254.339 50.6751 253.494 50.7843 252.643Z" fill="white"/>
</mask>
<g mask="url(#mask1_353_15)">
<path d="M386.861 354.934C415.108 320.546 460.14 334.874 488.796 338.968C475.287 368.852 446.057 429.604 437.215 433.534C428.372 437.464 326.274 471.197 276.33 487.572C267.323 477.747 250.785 455.149 256.68 443.359C264.048 428.621 305.805 416.34 325.455 413.884C345.105 411.428 358.614 389.321 386.861 354.934Z" fill="#4F4F4F"/>
</g>
</svg>
