<svg width="718" height="628" viewBox="0 0 718 628" fill="none" xmlns="http://www.w3.org/2000/svg">
<circle cx="403.646" cy="313.942" r="313.942" fill="#F6EEDA"/>
<circle cx="404.244" cy="313.344" r="172.22" fill="#E8D8B0"/>
<path fill-rule="evenodd" clip-rule="evenodd" d="M497 305.046V201.341L678.925 149.489C681.085 166.341 683.419 210.242 675.468 251.033L555.337 287.39C554.329 283.337 548.682 276.095 534.163 279.552C519.643 283.009 518.894 293.28 520.335 297.984L497 305.046ZM562.251 213.44C542.2 207.218 533.731 222.082 532.002 230.292C532.002 238.07 535.459 240.662 547.559 239.798C557.238 239.107 564.267 231.732 566.572 228.131C568.157 224.242 569.511 215.86 562.251 213.44ZM638.737 213.44C632.543 213.584 620.156 211.366 620.156 201.341C620.156 189.238 627.815 184.794 633.01 181.779C633.194 181.672 633.374 181.568 633.552 181.464C638.737 178.439 651.701 173.254 660.343 185.785C667.257 195.81 658.615 205.23 653.429 208.687C650.848 210.504 644.295 213.999 638.737 213.44ZM594.66 251.033C590.771 250.457 583.944 247.403 587.746 239.798C591.549 232.193 598.837 234.901 602.006 237.206C603.303 238.148 605.896 244.983 602.006 248.44C598.117 251.465 595.957 251.225 594.66 251.033Z" fill="#DDD271"/>
<path d="M534.163 279.552C519.643 283.009 518.894 293.28 520.335 297.984L555.337 287.39C554.329 283.337 548.682 276.095 534.163 279.552Z" fill="#948B59"/>
<path d="M594.66 251.033C590.771 250.457 583.944 247.403 587.746 239.798C591.549 232.193 598.837 234.901 602.006 237.206C603.303 238.148 605.896 244.983 602.006 248.44C598.117 251.465 595.957 251.225 594.66 251.033Z" fill="#948B59"/>
<path d="M532.002 230.292C533.731 222.082 542.2 207.218 562.251 213.44C569.511 215.86 568.157 224.242 566.572 228.131C564.267 231.732 557.238 239.107 547.559 239.798C535.459 240.662 532.002 238.07 532.002 230.292Z" fill="#948B59"/>
<path d="M638.737 213.44C632.543 213.584 620.156 211.366 620.156 201.341C620.156 189.238 627.815 184.794 633.01 181.779C633.194 181.672 633.374 181.568 633.552 181.464C638.737 178.439 651.701 173.254 660.343 185.785C667.257 195.81 658.615 205.23 653.429 208.687C650.848 210.504 644.295 213.999 638.737 213.44Z" fill="#948B59"/>
<path fill-rule="evenodd" clip-rule="evenodd" d="M566.572 126.587L497 201.341L678.925 149.489C630.181 123.908 583.713 123.562 566.572 126.587Z" fill="#AF9155"/>
<path d="M520.354 297.968C519.411 295.138 518.939 288.415 524.6 284.168" stroke="#64594B" stroke-width="3" stroke-linecap="round"/>
<path d="M529.554 280.984C530.969 280.277 534.578 278.861 537.692 278.861" stroke="#64594B" stroke-width="3" stroke-linecap="round"/>
<path d="M497.708 200.661L506.554 191.107" stroke="#64594B" stroke-width="3" stroke-linecap="round"/>
<path d="M622.615 129.538C628.513 130.718 643.846 134.421 658 139.8" stroke="#64594B" stroke-width="3" stroke-linecap="round"/>
<path d="M630.4 212.338C634.056 214.225 643.775 216.16 653.4 208.8" stroke="#64594B" stroke-width="3" stroke-linecap="round"/>
<path d="M566.708 126.354L561.046 132.723" stroke="#64594B" stroke-width="3" stroke-linecap="round"/>
<path d="M547.954 146.876L531.677 164.215" stroke="#64594B" stroke-width="3" stroke-linecap="round"/>
<path d="M566.708 126.354C571.662 125.646 583.692 124.443 592.185 125.292" stroke="#64594B" stroke-width="3" stroke-linecap="round"/>
<path d="M534.861 223.307C529.908 233.569 536.277 241.354 543.58 239.744" stroke="#64594B" stroke-width="3" stroke-linecap="round"/>
<path d="M558.569 212.338C561.4 212.574 567.132 214.319 567.415 219.415" stroke="#64594B" stroke-width="3" stroke-linecap="round"/>
<path d="M497.708 201.015L546.892 186.861" stroke="#64594B" stroke-width="3" stroke-linecap="round"/>
<path d="M565.646 181.907L630.754 163.507" stroke="#64594B" stroke-width="3" stroke-linecap="round"/>
<path d="M661.892 154.308L678.169 150.062" stroke="#64594B" stroke-width="3" stroke-linecap="round"/>
<path d="M587.938 247.369C586.877 245.246 585.391 242.556 589.354 237.461C593.317 232.366 601.031 235.338 602.092 238.169" stroke="#64594B" stroke-width="3" stroke-linecap="round"/>
<path d="M594.661 250.907C595.605 251.379 598.271 251.615 601.385 248.784" stroke="#64594B" stroke-width="3" stroke-linecap="round"/>
<path d="M624.385 209.507C621.554 207.738 617.237 201.581 622.615 191.107" stroke="#64594B" stroke-width="3" stroke-linecap="round"/>
<path d="M497 214.815V230.385" stroke="#64594B" stroke-width="3" stroke-linecap="round"/>
<path d="M497 261.523V283.815" stroke="#64594B" stroke-width="3" stroke-linecap="round"/>
<path d="M497 305.046L573.077 282.046" stroke="#64594B" stroke-width="3" stroke-linecap="round"/>
<path d="M641.369 178.369C644.436 177.544 651.772 177.025 656.584 181.554" stroke="#64594B" stroke-width="3" stroke-linecap="round"/>
<path d="M675.339 250.908C676.282 246.072 678.311 234.843 678.877 228.616" stroke="#64594B" stroke-width="3" stroke-linecap="round"/>
<path d="M675.339 250.908L613.062 269.662" stroke="#64594B" stroke-width="3" stroke-linecap="round"/>
<path d="M462.74 28.6821C343.236 -2.93057 278.453 31.9323 261 53.3153L379.067 48.1833L324.14 93.8574C345.871 97.6208 401.037 101.863 447.853 88.7255C477.355 80.4465 489.375 67.472 489.766 55.5227L489.706 53.3153C488.76 42.4396 481.716 34.5907 462.74 28.6821Z" fill="#AF9155"/>
<path d="M447.853 88.7255C401.037 101.863 345.871 97.6208 324.14 93.8574V134.913V168.784C345.015 173.231 400.319 178.432 454.527 163.652C477.524 157.493 489.091 143.979 492 137.992L489.766 55.5227C489.375 67.472 477.355 80.4465 447.853 88.7255Z" fill="#876844"/>
<path fill-rule="evenodd" clip-rule="evenodd" d="M261 53.3153V137.992L324.14 134.913V93.8574L379.067 48.1833L261 53.3153ZM281.02 65.1186C277.735 65.1186 276.913 67.5135 276.913 68.711C276.913 70.0795 277.735 72.8165 281.02 72.8165C284.305 72.8165 285.127 70.0795 285.127 68.711C285.127 67.5135 284.305 65.1186 281.02 65.1186ZM320.547 61.5263C317.261 61.5263 316.44 63.9212 316.44 65.1186C316.44 66.4872 317.261 69.2242 320.547 69.2242C323.832 69.2242 324.653 66.4872 324.653 65.1186C324.653 63.9212 323.832 61.5263 320.547 61.5263ZM301.04 87.6991C297.755 87.6991 296.933 90.094 296.933 91.2915C296.933 92.66 297.755 95.397 301.04 95.397C304.325 95.397 305.147 92.66 305.147 91.2915C305.147 90.094 304.325 87.6991 301.04 87.6991ZM282.047 110.793C278.761 110.793 277.94 113.188 277.94 114.385C277.94 115.754 278.761 118.491 282.047 118.491C285.332 118.491 286.153 115.754 286.153 114.385C286.153 113.188 285.332 110.793 282.047 110.793Z" fill="#DDD271"/>
<path fill-rule="evenodd" clip-rule="evenodd" d="M489.706 53.3153C489.77 54.0463 489.79 54.7826 489.766 55.5227L489.706 53.3153Z" fill="#D9D9D9"/>
<path d="M277.94 114.385C277.94 113.188 278.761 110.793 282.047 110.793C285.332 110.793 286.153 113.188 286.153 114.385C286.153 115.754 285.332 118.491 282.047 118.491C278.761 118.491 277.94 115.754 277.94 114.385Z" fill="#948B59"/>
<path d="M296.933 91.2915C296.933 90.094 297.755 87.6991 301.04 87.6991C304.325 87.6991 305.147 90.094 305.147 91.2915C305.147 92.66 304.325 95.397 301.04 95.397C297.755 95.397 296.933 92.66 296.933 91.2915Z" fill="#948B59"/>
<path d="M276.913 68.711C276.913 67.5135 277.735 65.1186 281.02 65.1186C284.305 65.1186 285.127 67.5135 285.127 68.711C285.127 70.0795 284.305 72.8165 281.02 72.8165C277.735 72.8165 276.913 70.0795 276.913 68.711Z" fill="#948B59"/>
<path d="M316.44 65.1186C316.44 63.9212 317.261 61.5263 320.547 61.5263C323.832 61.5263 324.653 63.9212 324.653 65.1186C324.653 66.4872 323.832 69.2242 320.547 69.2242C317.261 69.2242 316.44 66.4872 316.44 65.1186Z" fill="#948B59"/>
<path d="M276.822 68.6079C276.822 71.7722 279.195 72.5633 280.382 72.5633C281.568 72.6952 284.1 72.5633 284.733 70.9812C285.999 66.8675 283.414 65.3116 281.964 65.0479C280.25 64.9161 276.822 65.4435 276.822 68.6079Z" stroke="#64594B" stroke-width="3" stroke-linecap="round"/>
<path d="M316.377 64.6704C316.377 67.8347 318.75 68.6258 319.936 68.6258C321.123 68.7577 323.655 68.6258 324.287 67.0437C325.553 62.93 322.969 61.3741 321.519 61.1104C319.805 60.9786 316.377 61.506 316.377 64.6704Z" stroke="#64594B" stroke-width="3" stroke-linecap="round"/>
<path d="M261 137.829L277.613 137.038" stroke="#64594B" stroke-width="3" stroke-linecap="round"/>
<path d="M298.182 90.7768C298.182 93.9412 300.555 94.7323 301.742 94.7323C302.928 94.8641 305.46 94.7323 306.093 93.1501C307.358 89.0364 304.774 87.4806 303.324 87.2169C301.61 87.085 298.182 87.6124 298.182 90.7768Z" stroke="#64594B" stroke-width="3" stroke-linecap="round"/>
<path d="M276.822 114.51C276.822 117.674 279.195 118.465 280.382 118.465C281.568 118.597 284.1 118.465 284.733 116.883C285.999 112.769 283.414 111.213 281.964 110.95C280.25 110.818 276.822 111.345 276.822 114.51Z" stroke="#64594B" stroke-width="3" stroke-linecap="round"/>
<path d="M261 137.433V97.0874" stroke="#64594B" stroke-width="3" stroke-linecap="round"/>
<path d="M324.288 133.873V157.21" stroke="#64594B" stroke-width="3" stroke-linecap="round"/>
<path d="M330.617 170.263C356.327 173.032 417.242 175.643 455.214 163.935" stroke="#64594B" stroke-width="3" stroke-linecap="round"/>
<path d="M492 137.829L491.209 108.558" stroke="#64594B" stroke-width="3" stroke-linecap="round"/>
<path d="M489.627 55.5547C489.89 59.642 486.779 70.0317 472.223 78.892" stroke="#64594B" stroke-width="3" stroke-linecap="round"/>
<path d="M261 57.9282V53.5772C264.955 48.9624 275.556 38.6254 286.315 34.1953" stroke="#64594B" stroke-width="3" stroke-linecap="round"/>
<path d="M261 53.1813L293.83 51.9946" stroke="#64594B" stroke-width="3" stroke-linecap="round"/>
<path d="M357.118 16.3955C379.005 15.4725 431.639 16.8701 467.08 29.8441" stroke="#64594B" stroke-width="3" stroke-linecap="round"/>
<path d="M336.154 50.0173L378.873 48.0396" stroke="#64594B" stroke-width="3" stroke-linecap="round"/>
<path d="M367.007 58.3232L324.287 93.9225C324.024 94.9773 332.198 97.2451 367.007 97.878" stroke="#64594B" stroke-width="3" stroke-linecap="round"/>
<path d="M513.466 476.555C519.431 478.137 530.559 482.544 527.345 487.511C525.879 489.777 522.129 491.723 517.849 493.274C512.743 495.124 506.882 496.411 503.24 497.007C505.309 504.677 506.161 517.46 496.665 520.747C491.917 522.391 478.404 524.034 473.291 500.294C449.332 500.587 421.915 494.816 411.202 491.894C407.185 490.798 401.047 486.349 406.089 482.763C431.861 464.435 489.97 471.807 513.466 476.555Z" fill="#0080AA"/>
<path fill-rule="evenodd" clip-rule="evenodd" d="M517.849 493.274C512.743 495.124 506.882 496.411 503.24 497.007C505.309 504.677 506.161 517.46 496.665 520.747C491.917 522.391 478.404 524.034 473.291 500.294C449.332 500.587 421.915 494.816 411.202 491.894C413.88 522.695 419.383 585.393 419.968 589.775C420.552 594.158 425.568 596.715 428.003 597.445C451.377 597.567 499.149 597.737 503.24 597.445C507.33 597.153 509.083 592.21 509.448 589.775L517.849 493.274ZM493.95 548.438C491.777 561.878 475.514 565.725 467.653 565.969C455.382 565.969 446.47 560.125 443.548 557.203C439.166 552.699 433.395 541.06 445.374 530.542C457.354 520.023 473.01 522.75 479.341 525.428C485.116 527.498 496.122 534.997 493.95 548.438Z" fill="#DEF7FF"/>
<path d="M467.653 565.969C475.514 565.725 491.777 561.878 493.95 548.438C496.122 534.997 485.116 527.498 479.341 525.428C473.01 522.75 457.354 520.023 445.374 530.542C433.395 541.06 439.166 552.699 443.548 557.203C446.47 560.125 455.382 565.969 467.653 565.969Z" fill="#0080AA"/>
<path d="M501.254 474.297C493.219 472.592 470.137 469.695 442.087 471.74" stroke="#1D1D1D" stroke-width="3" stroke-linecap="round"/>
<path d="M508.194 496.21L503.446 497.306C505.029 501.201 507.098 510.381 502.716 515.932" stroke="#1D1D1D" stroke-width="3" stroke-linecap="round"/>
<path d="M465.462 500.227C455.966 499.619 434.272 497.671 423.461 494.749" stroke="#1D1D1D" stroke-width="3" stroke-linecap="round"/>
<path d="M414.33 478.314C409.704 479.653 401.328 483.427 404.834 487.81" stroke="#1D1D1D" stroke-width="3" stroke-linecap="round"/>
<path d="M427.478 508.993L428.574 526.524" stroke="#1D1D1D" stroke-width="3" stroke-linecap="round"/>
<path d="M482.263 550.264H451.218" stroke="#1D1D1D" stroke-width="3" stroke-linecap="round"/>
<path d="M477.149 538.577H456.697" stroke="#1D1D1D" stroke-width="3" stroke-linecap="round"/>
<path d="M484.819 561.586C490.785 557.447 499.94 545.735 488.837 532.002" stroke="#1D1D1D" stroke-width="3" stroke-linecap="round"/>
<path d="M478.245 524.698C469.48 521.654 449.903 519.439 441.722 534.924C433.541 550.41 444.4 559.395 450.853 561.951" stroke="#1D1D1D" stroke-width="3" stroke-linecap="round"/>
<path d="M510.385 579.482L509.655 589.343C509.411 592.265 507.536 598.036 501.985 597.743C496.433 597.451 487.741 597.622 484.089 597.743" stroke="#1D1D1D" stroke-width="3" stroke-linecap="round"/>
<path d="M458.888 597.744H429.67" stroke="#1D1D1D" stroke-width="3" stroke-linecap="round"/>
<path d="M515.864 516.298L514.403 534.559" stroke="#1D1D1D" stroke-width="3" stroke-linecap="round"/>
<path d="M415.426 540.038L419.443 586.787" stroke="#1D1D1D" stroke-width="3" stroke-linecap="round"/>
<path d="M298.895 442.604C290.728 444.771 275.495 450.804 279.895 457.604C281.901 460.705 287.034 463.37 292.895 465.493C299.884 468.026 307.908 469.788 312.895 470.604C310.061 481.104 308.895 498.604 321.895 503.104C328.395 505.354 346.895 507.604 353.895 475.104C386.695 475.504 424.228 467.604 438.895 463.604C444.395 462.104 452.796 456.013 445.895 451.104C410.612 426.013 331.061 436.104 298.895 442.604Z" fill="#0080AA"/>
<path fill-rule="evenodd" clip-rule="evenodd" d="M292.895 465.493C299.884 468.026 307.908 469.788 312.895 470.604C310.061 481.104 308.895 498.604 321.895 503.104C328.395 505.354 346.895 507.604 353.895 475.104C386.695 475.504 424.228 467.604 438.895 463.604C435.228 505.771 427.695 591.604 426.895 597.604C426.095 603.604 419.228 607.104 415.895 608.104C383.895 608.271 318.495 608.504 312.895 608.104C307.295 607.704 304.895 600.937 304.395 597.604L292.895 465.493ZM325.612 541.013C328.587 559.413 350.852 564.679 361.612 565.013C378.412 565.013 390.612 557.013 394.612 553.013C400.612 546.846 408.512 530.913 392.112 516.513C375.712 502.113 354.279 505.846 345.612 509.513C337.706 512.346 322.638 522.613 325.612 541.013Z" fill="#DEF7FF"/>
<path d="M361.612 565.013C350.852 564.679 328.587 559.413 325.612 541.013C322.638 522.613 337.706 512.346 345.612 509.513C354.279 505.846 375.712 502.113 392.112 516.513C408.512 530.913 400.612 546.846 394.612 553.013C390.612 557.013 378.412 565.013 361.612 565.013Z" fill="#0080AA"/>
<path d="M289.112 464.013C279.946 460.679 268.712 451.813 297.112 443.013" stroke="#1D1D1D" stroke-width="3" stroke-linecap="round"/>
<path d="M315.612 439.513C326.612 437.18 358.212 433.213 396.612 436.013" stroke="#1D1D1D" stroke-width="3" stroke-linecap="round"/>
<path d="M306.112 469.513L312.612 471.013C310.446 476.346 307.612 488.913 313.612 496.513" stroke="#1D1D1D" stroke-width="3" stroke-linecap="round"/>
<path d="M364.612 475.013C377.612 474.179 407.312 471.513 422.112 467.513" stroke="#1D1D1D" stroke-width="3" stroke-linecap="round"/>
<path d="M416.612 487.013L415.112 511.013" stroke="#1D1D1D" stroke-width="3" stroke-linecap="round"/>
<path d="M341.612 543.513H384.112" stroke="#1D1D1D" stroke-width="3" stroke-linecap="round"/>
<path d="M348.612 527.513H376.612" stroke="#1D1D1D" stroke-width="3" stroke-linecap="round"/>
<path d="M338.112 559.013C329.946 553.346 317.412 537.313 332.612 518.513" stroke="#1D1D1D" stroke-width="3" stroke-linecap="round"/>
<path d="M347.112 508.513C359.112 504.346 385.912 501.313 397.112 522.513C408.312 543.713 393.446 556.013 384.612 559.513" stroke="#1D1D1D" stroke-width="3" stroke-linecap="round"/>
<path d="M303.112 583.513L304.112 597.013C304.446 601.013 307.012 608.913 314.612 608.513C322.212 608.113 334.112 608.346 339.112 608.513" stroke="#1D1D1D" stroke-width="3" stroke-linecap="round"/>
<path d="M373.612 608.513H413.612" stroke="#1D1D1D" stroke-width="3" stroke-linecap="round"/>
<path d="M433.112 529.513L427.612 593.513" stroke="#1D1D1D" stroke-width="3" stroke-linecap="round"/>
<path d="M617.938 320.961H674.107H679.474V294H610.277V320.961H617.938Z" fill="#0080AA"/>
<path d="M704.438 398.475C702.94 391.173 696.687 372.637 683.656 356.909C682.011 354.649 680.63 351.953 679.474 349.046H610.277C608.709 352.142 606.943 354.872 605.019 356.909C595.47 367.02 589.104 386.866 587.045 398.475V447.904H704.281C704.328 429.308 704.386 411.847 704.438 398.475Z" fill="#DEF7FF"/>
<path d="M587.045 563.612C587.232 572.599 591.089 590.573 605.019 590.573H683.656C690.77 588.888 704.888 581.137 704.438 563.612C704.274 557.222 704.205 539.883 704.192 518.115H587.045V563.612Z" fill="#DEF7FF"/>
<path d="M704.281 447.904H587.045V518.115H704.192C704.18 496.906 704.221 471.492 704.281 447.904Z" fill="#0080AA"/>
<path d="M674.107 320.961H617.938C617.66 328.187 614.789 340.135 610.277 349.046H679.474C675.576 339.24 674.251 327.027 674.107 320.961Z" fill="#DEF7FF"/>
<path d="M587.045 563.612V495.647" stroke="black" stroke-width="3" stroke-linecap="round"/>
<path d="M684.217 590.573C691.145 589.824 705 582.934 705 561.365" stroke="black" stroke-width="3" stroke-linecap="round"/>
<path d="M605.581 356.91C599.027 363.276 586.146 382.747 587.045 409.709" stroke="black" stroke-width="3" stroke-linecap="round"/>
<path d="M675.792 336.688C676.915 343.616 679.724 355.412 687.588 361.965C690.958 364.773 700.394 373.648 702.192 393.419" stroke="black" stroke-width="3" stroke-linecap="round"/>
<path d="M610.636 320.399H679.724" stroke="black" stroke-width="3" stroke-linecap="round"/>
<path d="M620.185 447.904H704.438" stroke="black" stroke-width="3" stroke-linecap="round"/>
<path d="M587.045 517.553H607.827" stroke="black" stroke-width="3" stroke-linecap="round"/>
<path d="M200.598 241.022H73.9991L73.999 337.549C92.5152 325.494 143.758 308.616 200.598 337.549L200.598 241.022Z" fill="#DEF7FF"/>
<path d="M73.9991 507.019H200.598L200.598 400.842C147.892 438.042 94.2377 416.342 73.999 400.842L73.9991 507.019Z" fill="#DEF7FF"/>
<path d="M73.999 400.842C94.2377 416.342 147.892 438.042 200.598 400.842V337.549C143.758 308.616 92.5152 325.494 73.999 337.549V400.842Z" fill="#0080AA"/>
<path d="M239.999 205.501L200.598 241.022L200.598 337.549V400.842L200.598 507.019L239.999 474.727V205.501Z" fill="#DEF7FF"/>
<path d="M73.9991 241.022H200.598L134.715 183.542L73.9991 241.022Z" fill="#73DCFF"/>
<path fill-rule="evenodd" clip-rule="evenodd" d="M134.715 183.542L200.598 241.022L239.999 205.501L176.053 155.771L134.715 183.542ZM184.45 202.271C179.283 196.071 182.297 189.785 184.45 187.417C187.034 184.575 195.948 185.092 200.598 191.292C205.249 197.492 200.813 203.348 198.015 205.501C195.646 207.008 189.618 208.471 184.45 202.271Z" fill="#0080AA"/>
<path d="M134.715 155.771V183.542L176.053 155.771V128L134.715 155.771Z" fill="#73DCFF"/>
<path d="M184.45 187.417C182.297 189.785 179.283 196.071 184.45 202.271C189.618 208.471 195.646 207.008 198.015 205.501C200.813 203.348 205.249 197.492 200.598 191.292C195.948 185.092 187.034 184.575 184.45 187.417Z" fill="#DEF7FF"/>
<path d="M200.13 241.083V292.55" stroke="#3C3C3C" stroke-width="3" stroke-linecap="round"/>
<path d="M73.9993 241.083H122.929" stroke="black" stroke-width="3" stroke-linecap="round"/>
<path d="M134.89 184.179V156.633L176.209 128.362V156.633" stroke="black" stroke-width="3" stroke-linecap="round"/>
<path d="M134.89 183.816L119.305 197.952" stroke="black" stroke-width="3" stroke-linecap="round"/>
<path d="M176.208 156.271L234.925 201.576" stroke="black" stroke-width="3" stroke-linecap="round"/>
<path d="M182.733 190.703C181.404 193.724 180.486 200.707 187.444 204.476C194.403 208.245 198.318 206.047 199.405 204.476" stroke="black" stroke-width="3" stroke-linecap="round"/>
<path d="M199.768 240.358L177.296 221.148" stroke="black" stroke-width="3" stroke-linecap="round"/>
<path d="M74.3616 337.448C84.3892 331.165 111.114 319.108 137.789 321.138" stroke="black" stroke-width="3" stroke-linecap="round"/>
<path d="M105.532 416.461C114.231 420.327 139.022 425.74 168.597 416.461" stroke="black" stroke-width="3" stroke-linecap="round"/>
<path d="M73.9993 285.664V431.553" stroke="black" stroke-width="3" stroke-linecap="round"/>
<path d="M73.999 507.389V478.756" stroke="black" stroke-width="3" stroke-linecap="round"/>
<path d="M215.864 494.533L202.091 507.219H182.156" stroke="black" stroke-width="3" stroke-linecap="round"/>
<path d="M239.999 299.799V409.62M239.999 205.201L231.663 213.537" stroke="black" stroke-width="3" stroke-linecap="round"/>
<path d="M200.855 506.301L200.855 486.004" stroke="black" stroke-width="3" stroke-linecap="round"/>
<path d="M200.999 429V330.5" stroke="black" stroke-width="3" stroke-linecap="round"/>
</svg>
