<svg width="1920" height="1080" viewBox="0 0 1920 1080" fill="none" xmlns="http://www.w3.org/2000/svg">
<g clip-path="url(#clip0_277_77)">
<rect width="1920" height="1080" fill="white"/>
<path d="M1721.23 116.587L1867.11 79.7458C1905.92 69.9445 1945.69 64.4094 1985.7 63.2388L2321.41 53.4169C2477.62 48.8467 2634.97 -20.3948 2680.29 -169.957C2725.16 -318.037 2721.77 -519.07 2498.12 -697.017C1849.67 -1212.95 98.677 -1205.03 -573.274 -697.017C-890.227 -457.393 -777.326 -161.303 -679.999 -4.077C-632.527 72.6116 -553.613 121.035 -467.979 149.347C-383.3 177.343 -292.99 183.848 -205.172 168.277L53.2528 122.456C113.954 111.693 176.032 111.212 236.892 121.032L592.959 178.489C648.451 187.443 704.988 187.838 760.6 179.66L1195.71 115.671C1238.51 109.377 1281.91 108.154 1324.99 112.029L1537.3 131.119C1598.99 136.667 1661.17 131.753 1721.23 116.587Z" fill="#344D6A"/>
</g>
<defs>
<clipPath id="clip0_277_77">
<rect width="1920" height="1080" fill="white"/>
</clipPath>
</defs>
</svg>
